solid  Processed by ADMesh version 0.98.4
  facet normal  1.26150101E-01 -2.56750494E-01  9.58209455E-01
    outer loop
      vertex  1.03527606E+00  5.00000000E-01  3.86370301E+00
      vertex  0.00000000E+00 -0.00000000E+00  3.86602497E+00
      vertex  1.00060105E+00 -0.00000000E+00  3.73429394E+00
    endloop
  endfacet
  facet normal  1.26150876E-01 -2.56752133E-01  9.58208919E-01
    outer loop
      vertex  1.03527606E+00  5.00000000E-01  3.86370301E+00
      vertex  0.00000000E+00  5.00000000E-01  4.00000000E+00
      vertex  0.00000000E+00 -0.00000000E+00  3.86602497E+00
    endloop
  endfacet
  facet normal  3.69854987E-01 -2.56752044E-01  8.92908514E-01
    outer loop
      vertex  2.00000000E+00  5.00000000E-01  3.46410203E+00
      vertex  1.00060105E+00 -0.00000000E+00  3.73429394E+00
      vertex  1.93301296E+00 -0.00000000E+00  3.34807611E+00
    endloop
  endfacet
  facet normal  3.69854420E-01 -2.56750524E-01  8.92909229E-01
    outer loop
      vertex  2.00000000E+00  5.00000000E-01  3.46410203E+00
      vertex  1.03527606E+00  5.00000000E-01  3.86370301E+00
      vertex  1.00060105E+00 -0.00000000E+00  3.73429394E+00
    endloop
  endfacet
  facet normal  5.88354230E-01 -2.56750971E-01  7.66758263E-01
    outer loop
      vertex  2.82842708E+00  5.00000000E-01  2.82842708E+00
      vertex  1.93301296E+00 -0.00000000E+00  3.34807611E+00
      vertex  2.73369288E+00 -0.00000000E+00  2.73369288E+00
    endloop
  endfacet
  facet normal  5.88354409E-01 -2.56751865E-01  7.66757846E-01
    outer loop
      vertex  2.82842708E+00  5.00000000E-01  2.82842708E+00
      vertex  2.00000000E+00  5.00000000E-01  3.46410203E+00
      vertex  1.93301296E+00 -0.00000000E+00  3.34807611E+00
    endloop
  endfacet
  facet normal  7.66758084E-01 -2.56751835E-01  5.88354111E-01
    outer loop
      vertex  3.46410203E+00  5.00000000E-01  2.00000000E+00
      vertex  2.73369288E+00 -0.00000000E+00  2.73369288E+00
      vertex  3.34807611E+00 -0.00000000E+00  1.93301296E+00
    endloop
  endfacet
  facet normal  7.66757965E-01 -2.56751031E-01  5.88354588E-01
    outer loop
      vertex  3.46410203E+00  5.00000000E-01  2.00000000E+00
      vertex  2.82842708E+00  5.00000000E-01  2.82842708E+00
      vertex  2.73369288E+00 -0.00000000E+00  2.73369288E+00
    endloop
  endfacet
  facet normal  8.92908931E-01 -2.56750494E-01  3.69855165E-01
    outer loop
      vertex  3.86370301E+00  5.00000000E-01  1.03527606E+00
      vertex  3.34807611E+00 -0.00000000E+00  1.93301296E+00
      vertex  3.73429394E+00 -0.00000000E+00  1.00060105E+00
    endloop
  endfacet
  facet normal  8.92908871E-01 -2.56752044E-01  3.69854242E-01
    outer loop
      vertex  3.86370301E+00  5.00000000E-01  1.03527606E+00
      vertex  3.46410203E+00  5.00000000E-01  2.00000000E+00
      vertex  3.34807611E+00 -0.00000000E+00  1.93301296E+00
    endloop
  endfacet
  facet normal  9.58208978E-01 -2.56752163E-01  1.26150042E-01
    outer loop
      vertex  4.00000000E+00  5.00000000E-01  0.00000000E+00
      vertex  3.73429394E+00 -0.00000000E+00  1.00060105E+00
      vertex  3.86602497E+00 -0.00000000E+00 -0.00000000E+00
    endloop
  endfacet
  facet normal  9.58209336E-01 -2.56750524E-01  1.26150936E-01
    outer loop
      vertex  4.00000000E+00  5.00000000E-01  0.00000000E+00
      vertex  3.86370301E+00  5.00000000E-01  1.03527606E+00
      vertex  3.73429394E+00 -0.00000000E+00  1.00060105E+00
    endloop
  endfacet
  facet normal  9.58209455E-01 -2.56750494E-01 -1.26150101E-01
    outer loop
      vertex  3.86370301E+00  5.00000000E-01 -1.03527606E+00
      vertex  3.86602497E+00 -0.00000000E+00 -0.00000000E+00
      vertex  3.73429394E+00 -0.00000000E+00 -1.00060105E+00
    endloop
  endfacet
  facet normal  9.58208919E-01 -2.56752133E-01 -1.26150876E-01
    outer loop
      vertex  3.86370301E+00  5.00000000E-01 -1.03527606E+00
      vertex  4.00000000E+00  5.00000000E-01  0.00000000E+00
      vertex  3.86602497E+00 -0.00000000E+00 -0.00000000E+00
    endloop
  endfacet
  facet normal  8.92908514E-01 -2.56752044E-01 -3.69854987E-01
    outer loop
      vertex  3.46410203E+00  5.00000000E-01 -2.00000000E+00
      vertex  3.73429394E+00 -0.00000000E+00 -1.00060105E+00
      vertex  3.34807611E+00 -0.00000000E+00 -1.93301296E+00
    endloop
  endfacet
  facet normal  8.92909229E-01 -2.56750554E-01 -3.69854420E-01
    outer loop
      vertex  3.46410203E+00  5.00000000E-01 -2.00000000E+00
      vertex  3.86370301E+00  5.00000000E-01 -1.03527606E+00
      vertex  3.73429394E+00 -0.00000000E+00 -1.00060105E+00
    endloop
  endfacet
  facet normal  7.66758084E-01 -2.56751835E-01 -5.88354111E-01
    outer loop
      vertex  2.73369288E+00 -0.00000000E+00 -2.73369288E+00
      vertex  3.46410203E+00  5.00000000E-01 -2.00000000E+00
      vertex  3.34807611E+00 -0.00000000E+00 -1.93301296E+00
    endloop
  endfacet
  facet normal  7.66758025E-01 -2.56751001E-01 -5.88354588E-01
    outer loop
      vertex  2.82842708E+00  5.00000000E-01 -2.82842708E+00
      vertex  3.46410203E+00  5.00000000E-01 -2.00000000E+00
      vertex  2.73369288E+00 -0.00000000E+00 -2.73369288E+00
    endloop
  endfacet
  facet normal  5.88354111E-01 -2.56751835E-01 -7.66758084E-01
    outer loop
      vertex  2.00000000E+00  5.00000000E-01 -3.46410203E+00
      vertex  2.73369288E+00 -0.00000000E+00 -2.73369288E+00
      vertex  1.93301296E+00 -0.00000000E+00 -3.34807611E+00
    endloop
  endfacet
  facet normal  5.88354588E-01 -2.56750971E-01 -7.66758025E-01
    outer loop
      vertex  2.00000000E+00  5.00000000E-01 -3.46410203E+00
      vertex  2.82842708E+00  5.00000000E-01 -2.82842708E+00
      vertex  2.73369288E+00 -0.00000000E+00 -2.73369288E+00
    endloop
  endfacet
  facet normal  3.69854987E-01 -2.56752074E-01 -8.92908514E-01
    outer loop
      vertex  1.00060105E+00 -0.00000000E+00 -3.73429394E+00
      vertex  2.00000000E+00  5.00000000E-01 -3.46410203E+00
      vertex  1.93301296E+00 -0.00000000E+00 -3.34807611E+00
    endloop
  endfacet
  facet normal  3.69854420E-01 -2.56750524E-01 -8.92909229E-01
    outer loop
      vertex  1.03527606E+00  5.00000000E-01 -3.86370301E+00
      vertex  2.00000000E+00  5.00000000E-01 -3.46410203E+00
      vertex  1.00060105E+00 -0.00000000E+00 -3.73429394E+00
    endloop
  endfacet
  facet normal  1.26150101E-01 -2.56750494E-01 -9.58209455E-01
    outer loop
      vertex  0.00000000E+00 -0.00000000E+00 -3.86602497E+00
      vertex  1.03527606E+00  5.00000000E-01 -3.86370301E+00
      vertex  1.00060105E+00 -0.00000000E+00 -3.73429394E+00
    endloop
  endfacet
  facet normal  1.26150876E-01 -2.56752133E-01 -9.58208919E-01
    outer loop
      vertex  0.00000000E+00  5.00000000E-01 -4.00000000E+00
      vertex  1.03527606E+00  5.00000000E-01 -3.86370301E+00
      vertex  0.00000000E+00 -0.00000000E+00 -3.86602497E+00
    endloop
  endfacet
  facet normal  1.26150101E-01  2.56750494E-01 -9.58209455E-01
    outer loop
      vertex  1.03527606E+00  3.29999995E+00 -3.86370301E+00
      vertex  0.00000000E+00  3.79999995E+00 -3.86602497E+00
      vertex  1.00060105E+00  3.79999995E+00 -3.73429394E+00
    endloop
  endfacet
  facet normal  1.26150876E-01  2.56752133E-01 -9.58208919E-01
    outer loop
      vertex  1.03527606E+00  3.29999995E+00 -3.86370301E+00
      vertex  0.00000000E+00  3.29999995E+00 -4.00000000E+00
      vertex  0.00000000E+00  3.79999995E+00 -3.86602497E+00
    endloop
  endfacet
  facet normal  3.69854987E-01  2.56752044E-01 -8.92908514E-01
    outer loop
      vertex  2.00000000E+00  3.29999995E+00 -3.46410203E+00
      vertex  1.00060105E+00  3.79999995E+00 -3.73429394E+00
      vertex  1.93301296E+00  3.79999995E+00 -3.34807611E+00
    endloop
  endfacet
  facet normal  3.69854420E-01  2.56750524E-01 -8.92909229E-01
    outer loop
      vertex  2.00000000E+00  3.29999995E+00 -3.46410203E+00
      vertex  1.03527606E+00  3.29999995E+00 -3.86370301E+00
      vertex  1.00060105E+00  3.79999995E+00 -3.73429394E+00
    endloop
  endfacet
  facet normal  5.88354230E-01  2.56750971E-01 -7.66758263E-01
    outer loop
      vertex  2.82842708E+00  3.29999995E+00 -2.82842708E+00
      vertex  1.93301296E+00  3.79999995E+00 -3.34807611E+00
      vertex  2.73369288E+00  3.79999995E+00 -2.73369288E+00
    endloop
  endfacet
  facet normal  5.88354409E-01  2.56751865E-01 -7.66757846E-01
    outer loop
      vertex  2.82842708E+00  3.29999995E+00 -2.82842708E+00
      vertex  2.00000000E+00  3.29999995E+00 -3.46410203E+00
      vertex  1.93301296E+00  3.79999995E+00 -3.34807611E+00
    endloop
  endfacet
  facet normal  7.66758084E-01  2.56751835E-01 -5.88354111E-01
    outer loop
      vertex  3.46410203E+00  3.29999995E+00 -2.00000000E+00
      vertex  2.73369288E+00  3.79999995E+00 -2.73369288E+00
      vertex  3.34807611E+00  3.79999995E+00 -1.93301296E+00
    endloop
  endfacet
  facet normal  7.66757965E-01  2.56751031E-01 -5.88354588E-01
    outer loop
      vertex  3.46410203E+00  3.29999995E+00 -2.00000000E+00
      vertex  2.82842708E+00  3.29999995E+00 -2.82842708E+00
      vertex  2.73369288E+00  3.79999995E+00 -2.73369288E+00
    endloop
  endfacet
  facet normal  8.92908931E-01  2.56750494E-01 -3.69855165E-01
    outer loop
      vertex  3.86370301E+00  3.29999995E+00 -1.03527606E+00
      vertex  3.34807611E+00  3.79999995E+00 -1.93301296E+00
      vertex  3.73429394E+00  3.79999995E+00 -1.00060105E+00
    endloop
  endfacet
  facet normal  8.92908871E-01  2.56752044E-01 -3.69854242E-01
    outer loop
      vertex  3.86370301E+00  3.29999995E+00 -1.03527606E+00
      vertex  3.46410203E+00  3.29999995E+00 -2.00000000E+00
      vertex  3.34807611E+00  3.79999995E+00 -1.93301296E+00
    endloop
  endfacet
  facet normal  9.58208978E-01  2.56752163E-01 -1.26150042E-01
    outer loop
      vertex  4.00000000E+00  3.29999995E+00 -0.00000000E+00
      vertex  3.73429394E+00  3.79999995E+00 -1.00060105E+00
      vertex  3.86602497E+00  3.79999995E+00  0.00000000E+00
    endloop
  endfacet
  facet normal  9.58209336E-01  2.56750524E-01 -1.26150936E-01
    outer loop
      vertex  4.00000000E+00  3.29999995E+00 -0.00000000E+00
      vertex  3.86370301E+00  3.29999995E+00 -1.03527606E+00
      vertex  3.73429394E+00  3.79999995E+00 -1.00060105E+00
    endloop
  endfacet
  facet normal  9.58209455E-01  2.56750494E-01  1.26150101E-01
    outer loop
      vertex  3.86370301E+00  3.29999995E+00  1.03527606E+00
      vertex  3.86602497E+00  3.79999995E+00  0.00000000E+00
      vertex  3.73429394E+00  3.79999995E+00  1.00060105E+00
    endloop
  endfacet
  facet normal  9.58208919E-01  2.56752133E-01  1.26150876E-01
    outer loop
      vertex  3.86370301E+00  3.29999995E+00  1.03527606E+00
      vertex  4.00000000E+00  3.29999995E+00 -0.00000000E+00
      vertex  3.86602497E+00  3.79999995E+00  0.00000000E+00
    endloop
  endfacet
  facet normal  8.92908514E-01  2.56752044E-01  3.69854987E-01
    outer loop
      vertex  3.46410203E+00  3.29999995E+00  2.00000000E+00
      vertex  3.73429394E+00  3.79999995E+00  1.00060105E+00
      vertex  3.34807611E+00  3.79999995E+00  1.93301296E+00
    endloop
  endfacet
  facet normal  8.92909229E-01  2.56750554E-01  3.69854420E-01
    outer loop
      vertex  3.46410203E+00  3.29999995E+00  2.00000000E+00
      vertex  3.86370301E+00  3.29999995E+00  1.03527606E+00
      vertex  3.73429394E+00  3.79999995E+00  1.00060105E+00
    endloop
  endfacet
  facet normal  7.66758084E-01  2.56751835E-01  5.88354111E-01
    outer loop
      vertex  2.73369288E+00  3.79999995E+00  2.73369288E+00
      vertex  3.46410203E+00  3.29999995E+00  2.00000000E+00
      vertex  3.34807611E+00  3.79999995E+00  1.93301296E+00
    endloop
  endfacet
  facet normal  7.66758025E-01  2.56751001E-01  5.88354588E-01
    outer loop
      vertex  2.82842708E+00  3.29999995E+00  2.82842708E+00
      vertex  3.46410203E+00  3.29999995E+00  2.00000000E+00
      vertex  2.73369288E+00  3.79999995E+00  2.73369288E+00
    endloop
  endfacet
  facet normal  5.88354111E-01  2.56751835E-01  7.66758084E-01
    outer loop
      vertex  2.00000000E+00  3.29999995E+00  3.46410203E+00
      vertex  2.73369288E+00  3.79999995E+00  2.73369288E+00
      vertex  1.93301296E+00  3.79999995E+00  3.34807611E+00
    endloop
  endfacet
  facet normal  5.88354588E-01  2.56750971E-01  7.66758025E-01
    outer loop
      vertex  2.00000000E+00  3.29999995E+00  3.46410203E+00
      vertex  2.82842708E+00  3.29999995E+00  2.82842708E+00
      vertex  2.73369288E+00  3.79999995E+00  2.73369288E+00
    endloop
  endfacet
  facet normal  3.69855165E-01  2.56750494E-01  8.92908931E-01
    outer loop
      vertex  1.03527606E+00  3.29999995E+00  3.86370301E+00
      vertex  1.93301296E+00  3.79999995E+00  3.34807611E+00
      vertex  1.00060105E+00  3.79999995E+00  3.73429394E+00
    endloop
  endfacet
  facet normal  3.69854242E-01  2.56752044E-01  8.92908871E-01
    outer loop
      vertex  1.03527606E+00  3.29999995E+00  3.86370301E+00
      vertex  2.00000000E+00  3.29999995E+00  3.46410203E+00
      vertex  1.93301296E+00  3.79999995E+00  3.34807611E+00
    endloop
  endfacet
  facet normal  1.26150101E-01  2.56750494E-01  9.58209455E-01
    outer loop
      vertex  0.00000000E+00  3.79999995E+00  3.86602497E+00
      vertex  1.03527606E+00  3.29999995E+00  3.86370301E+00
      vertex  1.00060105E+00  3.79999995E+00  3.73429394E+00
    endloop
  endfacet
  facet normal  1.26150876E-01  2.56752133E-01  9.58208919E-01
    outer loop
      vertex  0.00000000E+00  3.29999995E+00  4.00000000E+00
      vertex  1.03527606E+00  3.29999995E+00  3.86370301E+00
      vertex  0.00000000E+00  3.79999995E+00  3.86602497E+00
    endloop
  endfacet
  facet normal  1.30526483E-01  0.00000000E+00 -9.91444826E-01
    outer loop
      vertex  1.03527606E+00  5.00000000E-01 -3.86370301E+00
      vertex  0.00000000E+00  3.29999995E+00 -4.00000000E+00
      vertex  1.03527606E+00  3.29999995E+00 -3.86370301E+00
    endloop
  endfacet
  facet normal  1.30526483E-01  1.19625831E-09 -9.91444826E-01
    outer loop
      vertex  1.03527606E+00  5.00000000E-01 -3.86370301E+00
      vertex  0.00000000E+00  5.00000000E-01 -4.00000000E+00
      vertex  0.00000000E+00  3.29999995E+00 -4.00000000E+00
    endloop
  endfacet
  facet normal  3.82682830E-01  0.00000000E+00 -9.23879802E-01
    outer loop
      vertex  2.00000000E+00  5.00000000E-01 -3.46410203E+00
      vertex  1.03527606E+00  3.29999995E+00 -3.86370301E+00
      vertex  2.00000000E+00  3.29999995E+00 -3.46410203E+00
    endloop
  endfacet
  facet normal  3.82682830E-01 -1.06058451E-09 -9.23879802E-01
    outer loop
      vertex  2.00000000E+00  5.00000000E-01 -3.46410203E+00
      vertex  1.03527606E+00  5.00000000E-01 -3.86370301E+00
      vertex  1.03527606E+00  3.29999995E+00 -3.86370301E+00
    endloop
  endfacet
  facet normal  6.08761728E-01  0.00000000E+00 -7.93353140E-01
    outer loop
      vertex  2.82842708E+00  5.00000000E-01 -2.82842708E+00
      vertex  2.00000000E+00  3.29999995E+00 -3.46410203E+00
      vertex  2.82842708E+00  3.29999995E+00 -2.82842708E+00
    endloop
  endfacet
  facet normal  7.93353140E-01  0.00000000E+00 -6.08761728E-01
    outer loop
      vertex  2.82842708E+00  5.00000000E-01 -2.82842708E+00
      vertex  2.82842708E+00  3.29999995E+00 -2.82842708E+00
      vertex  3.46410203E+00  3.29999995E+00 -2.00000000E+00
    endloop
  endfacet
  facet normal  6.08761728E-01 -9.69694014E-09 -7.93353140E-01
    outer loop
      vertex  2.82842708E+00  5.00000000E-01 -2.82842708E+00
      vertex  2.00000000E+00  5.00000000E-01 -3.46410203E+00
      vertex  2.00000000E+00  3.29999995E+00 -3.46410203E+00
    endloop
  endfacet
  facet normal  7.93353140E-01  0.00000000E+00 -6.08761728E-01
    outer loop
      vertex  3.46410203E+00  5.00000000E-01 -2.00000000E+00
      vertex  2.82842708E+00  5.00000000E-01 -2.82842708E+00
      vertex  3.46410203E+00  3.29999995E+00 -2.00000000E+00
    endloop
  endfacet
  facet normal  9.23879802E-01  0.00000000E+00 -3.82682830E-01
    outer loop
      vertex  3.86370301E+00  5.00000000E-01 -1.03527606E+00
      vertex  3.46410203E+00  3.29999995E+00 -2.00000000E+00
      vertex  3.86370301E+00  3.29999995E+00 -1.03527606E+00
    endloop
  endfacet
  facet normal  9.91444826E-01  0.00000000E+00 -1.30526483E-01
    outer loop
      vertex  3.86370301E+00  5.00000000E-01 -1.03527606E+00
      vertex  3.86370301E+00  3.29999995E+00 -1.03527606E+00
      vertex  4.00000000E+00  3.29999995E+00 -0.00000000E+00
    endloop
  endfacet
  facet normal  9.23879802E-01 -1.06058451E-09 -3.82682830E-01
    outer loop
      vertex  3.86370301E+00  5.00000000E-01 -1.03527606E+00
      vertex  3.46410203E+00  5.00000000E-01 -2.00000000E+00
      vertex  3.46410203E+00  3.29999995E+00 -2.00000000E+00
    endloop
  endfacet
  facet normal  9.91444826E-01 -0.00000000E+00 -1.30526483E-01
    outer loop
      vertex  4.00000000E+00  5.00000000E-01  0.00000000E+00
      vertex  3.86370301E+00  5.00000000E-01 -1.03527606E+00
      vertex  4.00000000E+00  3.29999995E+00 -0.00000000E+00
    endloop
  endfacet
  facet normal  9.91444826E-01 -0.00000000E+00  1.30526483E-01
    outer loop
      vertex  3.86370301E+00  5.00000000E-01  1.03527606E+00
      vertex  4.00000000E+00  3.29999995E+00 -0.00000000E+00
      vertex  3.86370301E+00  3.29999995E+00  1.03527606E+00
    endloop
  endfacet
  facet normal  9.91444826E-01 -1.19625831E-09  1.30526483E-01
    outer loop
      vertex  3.86370301E+00  5.00000000E-01  1.03527606E+00
      vertex  4.00000000E+00  5.00000000E-01  0.00000000E+00
      vertex  4.00000000E+00  3.29999995E+00 -0.00000000E+00
    endloop
  endfacet
  facet normal  9.23879802E-01 -0.00000000E+00  3.82682830E-01
    outer loop
      vertex  3.46410203E+00  5.00000000E-01  2.00000000E+00
      vertex  3.86370301E+00  3.29999995E+00  1.03527606E+00
      vertex  3.46410203E+00  3.29999995E+00  2.00000000E+00
    endloop
  endfacet
  facet normal  9.23879802E-01  1.06058451E-09  3.82682830E-01
    outer loop
      vertex  3.46410203E+00  5.00000000E-01  2.00000000E+00
      vertex  3.86370301E+00  5.00000000E-01  1.03527606E+00
      vertex  3.86370301E+00  3.29999995E+00  1.03527606E+00
    endloop
  endfacet
  facet normal  7.93353140E-01 -0.00000000E+00  6.08761728E-01
    outer loop
      vertex  2.82842708E+00  5.00000000E-01  2.82842708E+00
      vertex  3.46410203E+00  3.29999995E+00  2.00000000E+00
      vertex  2.82842708E+00  3.29999995E+00  2.82842708E+00
    endloop
  endfacet
  facet normal  7.93353140E-01  9.69694014E-09  6.08761728E-01
    outer loop
      vertex  2.82842708E+00  5.00000000E-01  2.82842708E+00
      vertex  3.46410203E+00  5.00000000E-01  2.00000000E+00
      vertex  3.46410203E+00  3.29999995E+00  2.00000000E+00
    endloop
  endfacet
  facet normal  6.08761728E-01 -0.00000000E+00  7.93353140E-01
    outer loop
      vertex  2.00000000E+00  5.00000000E-01  3.46410203E+00
      vertex  2.82842708E+00  3.29999995E+00  2.82842708E+00
      vertex  2.00000000E+00  3.29999995E+00  3.46410203E+00
    endloop
  endfacet
  facet normal  6.08761728E-01  9.69694014E-09  7.93353140E-01
    outer loop
      vertex  2.00000000E+00  5.00000000E-01  3.46410203E+00
      vertex  2.82842708E+00  5.00000000E-01  2.82842708E+00
      vertex  2.82842708E+00  3.29999995E+00  2.82842708E+00
    endloop
  endfacet
  facet normal  3.82682830E-01 -0.00000000E+00  9.23879802E-01
    outer loop
      vertex  1.03527606E+00  5.00000000E-01  3.86370301E+00
      vertex  2.00000000E+00  3.29999995E+00  3.46410203E+00
      vertex  1.03527606E+00  3.29999995E+00  3.86370301E+00
    endloop
  endfacet
  facet normal  3.82682830E-01  1.06058451E-09  9.23879802E-01
    outer loop
      vertex  1.03527606E+00  5.00000000E-01  3.86370301E+00
      vertex  2.00000000E+00  5.00000000E-01  3.46410203E+00
      vertex  2.00000000E+00  3.29999995E+00  3.46410203E+00
    endloop
  endfacet
  facet normal  1.30526483E-01 -0.00000000E+00  9.91444826E-01
    outer loop
      vertex  0.00000000E+00  5.00000000E-01  4.00000000E+00
      vertex  1.03527606E+00  3.29999995E+00  3.86370301E+00
      vertex  0.00000000E+00  3.29999995E+00  4.00000000E+00
    endloop
  endfacet
  facet normal  1.30526483E-01 -1.19625831E-09  9.91444826E-01
    outer loop
      vertex  0.00000000E+00  5.00000000E-01  4.00000000E+00
      vertex  1.03527606E+00  5.00000000E-01  3.86370301E+00
      vertex  1.03527606E+00  3.29999995E+00  3.86370301E+00
    endloop
  endfacet
  facet normal  1.30526274E-01  0.00000000E+00 -9.91444826E-01
    outer loop
      vertex  0.00000000E+00  0.00000000E+00  2.75000000E+00
      vertex -7.11751997E-01  0.00000000E+00  2.65629601E+00
      vertex  0.00000000E+00  3.79999995E+00  2.75000000E+00
    endloop
  endfacet
  facet normal  1.30526274E-01  8.28533631E-11 -9.91444826E-01
    outer loop
      vertex  0.00000000E+00  3.79999995E+00  2.75000000E+00
      vertex -7.11751997E-01  0.00000000E+00  2.65629601E+00
      vertex -7.11751997E-01  3.79999995E+00  2.65629601E+00
    endloop
  endfacet
  facet normal  3.82682949E-01  1.00830455E-10 -9.23879743E-01
    outer loop
      vertex -7.11751997E-01  3.79999995E+00  2.65629601E+00
      vertex -1.37500000E+00  0.00000000E+00  2.38157010E+00
      vertex -1.37500000E+00  3.79999995E+00  2.38157010E+00
    endloop
  endfacet
  facet normal  3.82682949E-01  0.00000000E+00 -9.23879743E-01
    outer loop
      vertex -7.11751997E-01  0.00000000E+00  2.65629601E+00
      vertex -1.37500000E+00  0.00000000E+00  2.38157010E+00
      vertex -7.11751997E-01  3.79999995E+00  2.65629601E+00
    endloop
  endfacet
  facet normal  6.08761132E-01 -1.17156276E-11 -7.93353558E-01
    outer loop
      vertex -1.37500000E+00  3.79999995E+00  2.38157010E+00
      vertex -1.94454396E+00  0.00000000E+00  1.94454396E+00
      vertex -1.94454396E+00  3.79999995E+00  1.94454396E+00
    endloop
  endfacet
  facet normal  6.08761132E-01  0.00000000E+00 -7.93353558E-01
    outer loop
      vertex -1.37500000E+00  0.00000000E+00  2.38157010E+00
      vertex -1.94454396E+00  0.00000000E+00  1.94454396E+00
      vertex -1.37500000E+00  3.79999995E+00  2.38157010E+00
    endloop
  endfacet
  facet normal  7.93353558E-01 -1.17156276E-11 -6.08761132E-01
    outer loop
      vertex -1.94454396E+00  3.79999995E+00  1.94454396E+00
      vertex -2.38157010E+00  0.00000000E+00  1.37500000E+00
      vertex -2.38157010E+00  3.79999995E+00  1.37500000E+00
    endloop
  endfacet
  facet normal  7.93353558E-01  0.00000000E+00 -6.08761132E-01
    outer loop
      vertex -1.94454396E+00  0.00000000E+00  1.94454396E+00
      vertex -2.38157010E+00  0.00000000E+00  1.37500000E+00
      vertex -1.94454396E+00  3.79999995E+00  1.94454396E+00
    endloop
  endfacet
  facet normal  9.23879743E-01  1.00830455E-10 -3.82682949E-01
    outer loop
      vertex -2.38157010E+00  3.79999995E+00  1.37500000E+00
      vertex -2.65629601E+00  0.00000000E+00  7.11751997E-01
      vertex -2.65629601E+00  3.79999995E+00  7.11751997E-01
    endloop
  endfacet
  facet normal  9.23879743E-01  0.00000000E+00 -3.82682949E-01
    outer loop
      vertex -2.38157010E+00  0.00000000E+00  1.37500000E+00
      vertex -2.65629601E+00  0.00000000E+00  7.11751997E-01
      vertex -2.38157010E+00  3.79999995E+00  1.37500000E+00
    endloop
  endfacet
  facet normal  9.91444826E-01  8.28533631E-11 -1.30526274E-01
    outer loop
      vertex -2.65629601E+00  3.79999995E+00  7.11751997E-01
      vertex -2.75000000E+00  0.00000000E+00  0.00000000E+00
      vertex -2.75000000E+00  3.79999995E+00  0.00000000E+00
    endloop
  endfacet
  facet normal  9.91444826E-01  0.00000000E+00  1.30526274E-01
    outer loop
      vertex -2.75000000E+00  3.79999995E+00  0.00000000E+00
      vertex -2.75000000E+00  0.00000000E+00  0.00000000E+00
      vertex -2.65629601E+00  3.79999995E+00 -7.11751997E-01
    endloop
  endfacet
  facet normal  9.91444826E-01  0.00000000E+00 -1.30526274E-01
    outer loop
      vertex -2.65629601E+00  0.00000000E+00  7.11751997E-01
      vertex -2.75000000E+00  0.00000000E+00  0.00000000E+00
      vertex -2.65629601E+00  3.79999995E+00  7.11751997E-01
    endloop
  endfacet
  facet normal  9.91444826E-01 -8.28533631E-11  1.30526274E-01
    outer loop
      vertex -2.75000000E+00  0.00000000E+00  0.00000000E+00
      vertex -2.65629601E+00  0.00000000E+00 -7.11751997E-01
      vertex -2.65629601E+00  3.79999995E+00 -7.11751997E-01
    endloop
  endfacet
  facet normal  9.23879743E-01 -1.00830455E-10  3.82682949E-01
    outer loop
      vertex -2.65629601E+00  3.79999995E+00 -7.11751997E-01
      vertex -2.38157010E+00  0.00000000E+00 -1.37500000E+00
      vertex -2.38157010E+00  3.79999995E+00 -1.37500000E+00
    endloop
  endfacet
  facet normal  9.23879743E-01 -0.00000000E+00  3.82682949E-01
    outer loop
      vertex -2.65629601E+00  0.00000000E+00 -7.11751997E-01
      vertex -2.38157010E+00  0.00000000E+00 -1.37500000E+00
      vertex -2.65629601E+00  3.79999995E+00 -7.11751997E-01
    endloop
  endfacet
  facet normal  7.93353558E-01  1.17156276E-11  6.08761132E-01
    outer loop
      vertex -2.38157010E+00  3.79999995E+00 -1.37500000E+00
      vertex -1.94454396E+00  0.00000000E+00 -1.94454396E+00
      vertex -1.94454396E+00  3.79999995E+00 -1.94454396E+00
    endloop
  endfacet
  facet normal  6.08761132E-01  0.00000000E+00  7.93353558E-01
    outer loop
      vertex -1.94454396E+00  3.79999995E+00 -1.94454396E+00
      vertex -1.94454396E+00  0.00000000E+00 -1.94454396E+00
      vertex -1.37500000E+00  3.79999995E+00 -2.38157010E+00
    endloop
  endfacet
  facet normal  7.93353558E-01 -0.00000000E+00  6.08761132E-01
    outer loop
      vertex -2.38157010E+00  0.00000000E+00 -1.37500000E+00
      vertex -1.94454396E+00  0.00000000E+00 -1.94454396E+00
      vertex -2.38157010E+00  3.79999995E+00 -1.37500000E+00
    endloop
  endfacet
  facet normal  6.08761132E-01  1.17156276E-11  7.93353558E-01
    outer loop
      vertex -1.94454396E+00  0.00000000E+00 -1.94454396E+00
      vertex -1.37500000E+00  0.00000000E+00 -2.38157010E+00
      vertex -1.37500000E+00  3.79999995E+00 -2.38157010E+00
    endloop
  endfacet
  facet normal  3.82682949E-01 -1.00830455E-10  9.23879743E-01
    outer loop
      vertex -1.37500000E+00  3.79999995E+00 -2.38157010E+00
      vertex -7.11751997E-01  0.00000000E+00 -2.65629601E+00
      vertex -7.11751997E-01  3.79999995E+00 -2.65629601E+00
    endloop
  endfacet
  facet normal  3.82682949E-01 -0.00000000E+00  9.23879743E-01
    outer loop
      vertex -1.37500000E+00  0.00000000E+00 -2.38157010E+00
      vertex -7.11751997E-01  0.00000000E+00 -2.65629601E+00
      vertex -1.37500000E+00  3.79999995E+00 -2.38157010E+00
    endloop
  endfacet
  facet normal  1.30526274E-01 -8.28533631E-11  9.91444826E-01
    outer loop
      vertex -7.11751997E-01  3.79999995E+00 -2.65629601E+00
      vertex  0.00000000E+00  0.00000000E+00 -2.75000000E+00
      vertex  0.00000000E+00  3.79999995E+00 -2.75000000E+00
    endloop
  endfacet
  facet normal  1.30526274E-01 -0.00000000E+00  9.91444826E-01
    outer loop
      vertex -7.11751997E-01  0.00000000E+00 -2.65629601E+00
      vertex  0.00000000E+00  0.00000000E+00 -2.75000000E+00
      vertex -7.11751997E-01  3.79999995E+00 -2.65629601E+00
    endloop
  endfacet
  facet normal -1.30526274E-01  0.00000000E+00  9.91444826E-01
    outer loop
      vertex  0.00000000E+00  0.00000000E+00 -2.75000000E+00
      vertex  7.11751997E-01  0.00000000E+00 -2.65629601E+00
      vertex  0.00000000E+00  3.79999995E+00 -2.75000000E+00
    endloop
  endfacet
  facet normal -1.30526274E-01  8.28533631E-11  9.91444826E-01
    outer loop
      vertex  0.00000000E+00  3.79999995E+00 -2.75000000E+00
      vertex  7.11751997E-01  0.00000000E+00 -2.65629601E+00
      vertex  7.11751997E-01  3.79999995E+00 -2.65629601E+00
    endloop
  endfacet
  facet normal -3.82682949E-01  1.00830455E-10  9.23879743E-01
    outer loop
      vertex  7.11751997E-01  3.79999995E+00 -2.65629601E+00
      vertex  1.37500000E+00  0.00000000E+00 -2.38157010E+00
      vertex  1.37500000E+00  3.79999995E+00 -2.38157010E+00
    endloop
  endfacet
  facet normal -3.82682949E-01  0.00000000E+00  9.23879743E-01
    outer loop
      vertex  7.11751997E-01  0.00000000E+00 -2.65629601E+00
      vertex  1.37500000E+00  0.00000000E+00 -2.38157010E+00
      vertex  7.11751997E-01  3.79999995E+00 -2.65629601E+00
    endloop
  endfacet
  facet normal -6.08761132E-01 -1.17156276E-11  7.93353558E-01
    outer loop
      vertex  1.37500000E+00  3.79999995E+00 -2.38157010E+00
      vertex  1.94454396E+00  0.00000000E+00 -1.94454396E+00
      vertex  1.94454396E+00  3.79999995E+00 -1.94454396E+00
    endloop
  endfacet
  facet normal -7.93353558E-01  0.00000000E+00  6.08761132E-01
    outer loop
      vertex  1.94454396E+00  3.79999995E+00 -1.94454396E+00
      vertex  1.94454396E+00  0.00000000E+00 -1.94454396E+00
      vertex  2.38157010E+00  3.79999995E+00 -1.37500000E+00
    endloop
  endfacet
  facet normal -6.08761132E-01  0.00000000E+00  7.93353558E-01
    outer loop
      vertex  1.37500000E+00  0.00000000E+00 -2.38157010E+00
      vertex  1.94454396E+00  0.00000000E+00 -1.94454396E+00
      vertex  1.37500000E+00  3.79999995E+00 -2.38157010E+00
    endloop
  endfacet
  facet normal -7.93353558E-01 -1.17156276E-11  6.08761132E-01
    outer loop
      vertex  1.94454396E+00  0.00000000E+00 -1.94454396E+00
      vertex  2.38157010E+00  0.00000000E+00 -1.37500000E+00
      vertex  2.38157010E+00  3.79999995E+00 -1.37500000E+00
    endloop
  endfacet
  facet normal -9.23879743E-01  1.00830455E-10  3.82682949E-01
    outer loop
      vertex  2.38157010E+00  3.79999995E+00 -1.37500000E+00
      vertex  2.65629601E+00  0.00000000E+00 -7.11751997E-01
      vertex  2.65629601E+00  3.79999995E+00 -7.11751997E-01
    endloop
  endfacet
  facet normal -9.91444826E-01  0.00000000E+00  1.30526274E-01
    outer loop
      vertex  2.65629601E+00  3.79999995E+00 -7.11751997E-01
      vertex  2.65629601E+00  0.00000000E+00 -7.11751997E-01
      vertex  2.75000000E+00  3.79999995E+00 -0.00000000E+00
    endloop
  endfacet
  facet normal -9.23879743E-01  0.00000000E+00  3.82682949E-01
    outer loop
      vertex  2.38157010E+00  0.00000000E+00 -1.37500000E+00
      vertex  2.65629601E+00  0.00000000E+00 -7.11751997E-01
      vertex  2.38157010E+00  3.79999995E+00 -1.37500000E+00
    endloop
  endfacet
  facet normal -9.91444826E-01  8.28533631E-11  1.30526274E-01
    outer loop
      vertex  2.65629601E+00  0.00000000E+00 -7.11751997E-01
      vertex  2.75000000E+00  0.00000000E+00 -0.00000000E+00
      vertex  2.75000000E+00  3.79999995E+00 -0.00000000E+00
    endloop
  endfacet
  facet normal -9.91444826E-01 -8.28533631E-11 -1.30526274E-01
    outer loop
      vertex  2.75000000E+00  3.79999995E+00 -0.00000000E+00
      vertex  2.65629601E+00  0.00000000E+00  7.11751997E-01
      vertex  2.65629601E+00  3.79999995E+00  7.11751997E-01
    endloop
  endfacet
  facet normal -9.91444826E-01  0.00000000E+00 -1.30526274E-01
    outer loop
      vertex  2.75000000E+00  0.00000000E+00 -0.00000000E+00
      vertex  2.65629601E+00  0.00000000E+00  7.11751997E-01
      vertex  2.75000000E+00  3.79999995E+00 -0.00000000E+00
    endloop
  endfacet
  facet normal -9.23879743E-01 -1.00830455E-10 -3.82682949E-01
    outer loop
      vertex  2.65629601E+00  3.79999995E+00  7.11751997E-01
      vertex  2.38157010E+00  0.00000000E+00  1.37500000E+00
      vertex  2.38157010E+00  3.79999995E+00  1.37500000E+00
    endloop
  endfacet
  facet normal -9.23879743E-01  0.00000000E+00 -3.82682949E-01
    outer loop
      vertex  2.65629601E+00  0.00000000E+00  7.11751997E-01
      vertex  2.38157010E+00  0.00000000E+00  1.37500000E+00
      vertex  2.65629601E+00  3.79999995E+00  7.11751997E-01
    endloop
  endfacet
  facet normal -7.93353558E-01  1.17156276E-11 -6.08761132E-01
    outer loop
      vertex  2.38157010E+00  3.79999995E+00  1.37500000E+00
      vertex  1.94454396E+00  0.00000000E+00  1.94454396E+00
      vertex  1.94454396E+00  3.79999995E+00  1.94454396E+00
    endloop
  endfacet
  facet normal -6.08761132E-01 -0.00000000E+00 -7.93353558E-01
    outer loop
      vertex  1.94454396E+00  3.79999995E+00  1.94454396E+00
      vertex  1.94454396E+00  0.00000000E+00  1.94454396E+00
      vertex  1.37500000E+00  3.79999995E+00  2.38157010E+00
    endloop
  endfacet
  facet normal -7.93353558E-01  0.00000000E+00 -6.08761132E-01
    outer loop
      vertex  2.38157010E+00  0.00000000E+00  1.37500000E+00
      vertex  1.94454396E+00  0.00000000E+00  1.94454396E+00
      vertex  2.38157010E+00  3.79999995E+00  1.37500000E+00
    endloop
  endfacet
  facet normal -6.08761132E-01  1.17156276E-11 -7.93353558E-01
    outer loop
      vertex  1.94454396E+00  0.00000000E+00  1.94454396E+00
      vertex  1.37500000E+00  0.00000000E+00  2.38157010E+00
      vertex  1.37500000E+00  3.79999995E+00  2.38157010E+00
    endloop
  endfacet
  facet normal -3.82682949E-01 -1.00830455E-10 -9.23879743E-01
    outer loop
      vertex  1.37500000E+00  3.79999995E+00  2.38157010E+00
      vertex  7.11751997E-01  0.00000000E+00  2.65629601E+00
      vertex  7.11751997E-01  3.79999995E+00  2.65629601E+00
    endloop
  endfacet
  facet normal -3.82682949E-01  0.00000000E+00 -9.23879743E-01
    outer loop
      vertex  1.37500000E+00  0.00000000E+00  2.38157010E+00
      vertex  7.11751997E-01  0.00000000E+00  2.65629601E+00
      vertex  1.37500000E+00  3.79999995E+00  2.38157010E+00
    endloop
  endfacet
  facet normal -1.30526274E-01 -8.28533631E-11 -9.91444826E-01
    outer loop
      vertex  7.11751997E-01  3.79999995E+00  2.65629601E+00
      vertex  0.00000000E+00  0.00000000E+00  2.75000000E+00
      vertex  0.00000000E+00  3.79999995E+00  2.75000000E+00
    endloop
  endfacet
  facet normal -1.30526274E-01  0.00000000E+00 -9.91444826E-01
    outer loop
      vertex  7.11751997E-01  0.00000000E+00  2.65629601E+00
      vertex  0.00000000E+00  0.00000000E+00  2.75000000E+00
      vertex  7.11751997E-01  3.79999995E+00  2.65629601E+00
    endloop
  endfacet
  facet normal  0.00000000E+00  1.00000000E+00  0.00000000E+00
    outer loop
      vertex -2.73369288E+00  3.79999995E+00  2.73369288E+00
      vertex -1.94454396E+00  3.79999995E+00  1.94454396E+00
      vertex -3.34807611E+00  3.79999995E+00  1.93301296E+00
    endloop
  endfacet
  facet normal  0.00000000E+00  1.00000000E+00  0.00000000E+00
    outer loop
      vertex -1.93301296E+00  3.79999995E+00  3.34807611E+00
      vertex -1.37500000E+00  3.79999995E+00  2.38157010E+00
      vertex -2.73369288E+00  3.79999995E+00  2.73369288E+00
    endloop
  endfacet
  facet normal  0.00000000E+00  1.00000000E+00  0.00000000E+00
    outer loop
      vertex -2.73369288E+00  3.79999995E+00  2.73369288E+00
      vertex -1.37500000E+00  3.79999995E+00  2.38157010E+00
      vertex -1.94454396E+00  3.79999995E+00  1.94454396E+00
    endloop
  endfacet
  facet normal  0.00000000E+00  1.00000000E+00  0.00000000E+00
    outer loop
      vertex -1.94454396E+00  3.79999995E+00  1.94454396E+00
      vertex -2.38157010E+00  3.79999995E+00  1.37500000E+00
      vertex -3.34807611E+00  3.79999995E+00  1.93301296E+00
    endloop
  endfacet
  facet normal  0.00000000E+00  1.00000000E+00  0.00000000E+00
    outer loop
      vertex -1.00060105E+00  3.79999995E+00  3.73429394E+00
      vertex -7.11751997E-01  3.79999995E+00  2.65629601E+00
      vertex -1.93301296E+00  3.79999995E+00  3.34807611E+00
    endloop
  endfacet
  facet normal  0.00000000E+00  1.00000000E+00  0.00000000E+00
    outer loop
      vertex -1.93301296E+00  3.79999995E+00  3.34807611E+00
      vertex -7.11751997E-01  3.79999995E+00  2.65629601E+00
      vertex -1.37500000E+00  3.79999995E+00  2.38157010E+00
    endloop
  endfacet
  facet normal  0.00000000E+00  1.00000000E+00  0.00000000E+00
    outer loop
      vertex -3.34807611E+00  3.79999995E+00  1.93301296E+00
      vertex -2.65629601E+00  3.79999995E+00  7.11751997E-01
      vertex -3.73429394E+00  3.79999995E+00  1.00060105E+00
    endloop
  endfacet
  facet normal  0.00000000E+00  1.00000000E+00  0.00000000E+00
    outer loop
      vertex -2.38157010E+00  3.79999995E+00  1.37500000E+00
      vertex -2.65629601E+00  3.79999995E+00  7.11751997E-01
      vertex -3.34807611E+00  3.79999995E+00  1.93301296E+00
    endloop
  endfacet
  facet normal  0.00000000E+00  1.00000000E+00  0.00000000E+00
    outer loop
      vertex -3.73429394E+00  3.79999995E+00  1.00060105E+00
      vertex -2.75000000E+00  3.79999995E+00  0.00000000E+00
      vertex -3.86602497E+00  3.79999995E+00 -0.00000000E+00
    endloop
  endfacet
  facet normal  0.00000000E+00  1.00000000E+00  0.00000000E+00
    outer loop
      vertex -2.65629601E+00  3.79999995E+00  7.11751997E-01
      vertex -2.75000000E+00  3.79999995E+00  0.00000000E+00
      vertex -3.73429394E+00  3.79999995E+00  1.00060105E+00
    endloop
  endfacet
  facet normal  0.00000000E+00  1.00000000E+00  0.00000000E+00
    outer loop
      vertex  0.00000000E+00  3.79999995E+00  3.86602497E+00
      vertex  0.00000000E+00  3.79999995E+00  2.75000000E+00
      vertex -1.00060105E+00  3.79999995E+00  3.73429394E+00
    endloop
  endfacet
  facet normal  0.00000000E+00  1.00000000E+00  0.00000000E+00
    outer loop
      vertex -1.00060105E+00  3.79999995E+00  3.73429394E+00
      vertex  0.00000000E+00  3.79999995E+00  2.75000000E+00
      vertex -7.11751997E-01  3.79999995E+00  2.65629601E+00
    endloop
  endfacet
  facet normal  0.00000000E+00  1.00000000E+00  0.00000000E+00
    outer loop
      vertex -3.86602497E+00  3.79999995E+00 -0.00000000E+00
      vertex -2.65629601E+00  3.79999995E+00 -7.11751997E-01
      vertex -3.73429394E+00  3.79999995E+00 -1.00060105E+00
    endloop
  endfacet
  facet normal  0.00000000E+00  1.00000000E+00  0.00000000E+00
    outer loop
      vertex -2.75000000E+00  3.79999995E+00  0.00000000E+00
      vertex -2.65629601E+00  3.79999995E+00 -7.11751997E-01
      vertex -3.86602497E+00  3.79999995E+00 -0.00000000E+00
    endloop
  endfacet
  facet normal  0.00000000E+00  1.00000000E+00  0.00000000E+00
    outer loop
      vertex  1.00060105E+00  3.79999995E+00  3.73429394E+00
      vertex  7.11751997E-01  3.79999995E+00  2.65629601E+00
      vertex  0.00000000E+00  3.79999995E+00  3.86602497E+00
    endloop
  endfacet
  facet normal  0.00000000E+00  1.00000000E+00  0.00000000E+00
    outer loop
      vertex  0.00000000E+00  3.79999995E+00  3.86602497E+00
      vertex  7.11751997E-01  3.79999995E+00  2.65629601E+00
      vertex  0.00000000E+00  3.79999995E+00  2.75000000E+00
    endloop
  endfacet
  facet normal  0.00000000E+00  1.00000000E+00  0.00000000E+00
    outer loop
      vertex -3.73429394E+00  3.79999995E+00 -1.00060105E+00
      vertex -2.38157010E+00  3.79999995E+00 -1.37500000E+00
      vertex -3.34807611E+00  3.79999995E+00 -1.93301296E+00
    endloop
  endfacet
  facet normal  0.00000000E+00  1.00000000E+00  0.00000000E+00
    outer loop
      vertex -2.65629601E+00  3.79999995E+00 -7.11751997E-01
      vertex -2.38157010E+00  3.79999995E+00 -1.37500000E+00
      vertex -3.73429394E+00  3.79999995E+00 -1.00060105E+00
    endloop
  endfacet
  facet normal  0.00000000E+00  1.00000000E+00  0.00000000E+00
    outer loop
      vertex  1.93301296E+00  3.79999995E+00  3.34807611E+00
      vertex  1.37500000E+00  3.79999995E+00  2.38157010E+00
      vertex  1.00060105E+00  3.79999995E+00  3.73429394E+00
    endloop
  endfacet
  facet normal  0.00000000E+00  1.00000000E+00  0.00000000E+00
    outer loop
      vertex  1.00060105E+00  3.79999995E+00  3.73429394E+00
      vertex  1.37500000E+00  3.79999995E+00  2.38157010E+00
      vertex  7.11751997E-01  3.79999995E+00  2.65629601E+00
    endloop
  endfacet
  facet normal  0.00000000E+00  1.00000000E+00  0.00000000E+00
    outer loop
      vertex -2.38157010E+00  3.79999995E+00 -1.37500000E+00
      vertex -1.94454396E+00  3.79999995E+00 -1.94454396E+00
      vertex -3.34807611E+00  3.79999995E+00 -1.93301296E+00
    endloop
  endfacet
  facet normal -0.00000000E+00  1.00000000E+00  0.00000000E+00
    outer loop
      vertex  1.37500000E+00  3.79999995E+00  2.38157010E+00
      vertex  2.73369288E+00  3.79999995E+00  2.73369288E+00
      vertex  1.94454396E+00  3.79999995E+00  1.94454396E+00
    endloop
  endfacet
  facet normal  0.00000000E+00  1.00000000E+00  0.00000000E+00
    outer loop
      vertex  1.93301296E+00  3.79999995E+00  3.34807611E+00
      vertex  2.73369288E+00  3.79999995E+00  2.73369288E+00
      vertex  1.37500000E+00  3.79999995E+00  2.38157010E+00
    endloop
  endfacet
  facet normal  0.00000000E+00  1.00000000E+00  0.00000000E+00
    outer loop
      vertex -1.94454396E+00  3.79999995E+00 -1.94454396E+00
      vertex -2.73369288E+00  3.79999995E+00 -2.73369288E+00
      vertex -3.34807611E+00  3.79999995E+00 -1.93301296E+00
    endloop
  endfacet
  facet normal  0.00000000E+00  1.00000000E+00  0.00000000E+00
    outer loop
      vertex -1.94454396E+00  3.79999995E+00 -1.94454396E+00
      vertex -1.37500000E+00  3.79999995E+00 -2.38157010E+00
      vertex -2.73369288E+00  3.79999995E+00 -2.73369288E+00
    endloop
  endfacet
  facet normal  0.00000000E+00  1.00000000E+00  0.00000000E+00
    outer loop
      vertex  2.73369288E+00  3.79999995E+00  2.73369288E+00
      vertex  2.38157010E+00  3.79999995E+00  1.37500000E+00
      vertex  1.94454396E+00  3.79999995E+00  1.94454396E+00
    endloop
  endfacet
  facet normal  0.00000000E+00  1.00000000E+00  0.00000000E+00
    outer loop
      vertex  2.73369288E+00  3.79999995E+00  2.73369288E+00
      vertex  3.34807611E+00  3.79999995E+00  1.93301296E+00
      vertex  2.38157010E+00  3.79999995E+00  1.37500000E+00
    endloop
  endfacet
  facet normal  0.00000000E+00  1.00000000E+00  0.00000000E+00
    outer loop
      vertex -1.37500000E+00  3.79999995E+00 -2.38157010E+00
      vertex -1.93301296E+00  3.79999995E+00 -3.34807611E+00
      vertex -2.73369288E+00  3.79999995E+00 -2.73369288E+00
    endloop
  endfacet
  facet normal  0.00000000E+00  1.00000000E+00  0.00000000E+00
    outer loop
      vertex -1.37500000E+00  3.79999995E+00 -2.38157010E+00
      vertex -7.11751997E-01  3.79999995E+00 -2.65629601E+00
      vertex -1.93301296E+00  3.79999995E+00 -3.34807611E+00
    endloop
  endfacet
  facet normal  0.00000000E+00  1.00000000E+00  0.00000000E+00
    outer loop
      vertex  3.34807611E+00  3.79999995E+00  1.93301296E+00
      vertex  3.73429394E+00  3.79999995E+00  1.00060105E+00
      vertex  2.38157010E+00  3.79999995E+00  1.37500000E+00
    endloop
  endfacet
  facet normal  0.00000000E+00  1.00000000E+00  0.00000000E+00
    outer loop
      vertex  2.38157010E+00  3.79999995E+00  1.37500000E+00
      vertex  3.73429394E+00  3.79999995E+00  1.00060105E+00
      vertex  2.65629601E+00  3.79999995E+00  7.11751997E-01
    endloop
  endfacet
  facet normal  0.00000000E+00  1.00000000E+00  0.00000000E+00
    outer loop
      vertex -7.11751997E-01  3.79999995E+00 -2.65629601E+00
      vertex -1.00060105E+00  3.79999995E+00 -3.73429394E+00
      vertex -1.93301296E+00  3.79999995E+00 -3.34807611E+00
    endloop
  endfacet
  facet normal  0.00000000E+00  1.00000000E+00  0.00000000E+00
    outer loop
      vertex -7.11751997E-01  3.79999995E+00 -2.65629601E+00
      vertex  0.00000000E+00  3.79999995E+00 -2.75000000E+00
      vertex -1.00060105E+00  3.79999995E+00 -3.73429394E+00
    endloop
  endfacet
  facet normal  0.00000000E+00  1.00000000E+00  0.00000000E+00
    outer loop
      vertex  3.73429394E+00  3.79999995E+00  1.00060105E+00
      vertex  3.86602497E+00  3.79999995E+00  0.00000000E+00
      vertex  2.65629601E+00  3.79999995E+00  7.11751997E-01
    endloop
  endfacet
  facet normal  0.00000000E+00  1.00000000E+00  0.00000000E+00
    outer loop
      vertex  2.65629601E+00  3.79999995E+00  7.11751997E-01
      vertex  3.86602497E+00  3.79999995E+00  0.00000000E+00
      vertex  2.75000000E+00  3.79999995E+00 -0.00000000E+00
    endloop
  endfacet
  facet normal  0.00000000E+00  1.00000000E+00  0.00000000E+00
    outer loop
      vertex  0.00000000E+00  3.79999995E+00 -2.75000000E+00
      vertex  0.00000000E+00  3.79999995E+00 -3.86602497E+00
      vertex -1.00060105E+00  3.79999995E+00 -3.73429394E+00
    endloop
  endfacet
  facet normal  0.00000000E+00  1.00000000E+00  0.00000000E+00
    outer loop
      vertex  7.11751997E-01  3.79999995E+00 -2.65629601E+00
      vertex  0.00000000E+00  3.79999995E+00 -3.86602497E+00
      vertex  0.00000000E+00  3.79999995E+00 -2.75000000E+00
    endloop
  endfacet
  facet normal  0.00000000E+00  1.00000000E+00  0.00000000E+00
    outer loop
      vertex  3.86602497E+00  3.79999995E+00  0.00000000E+00
      vertex  3.73429394E+00  3.79999995E+00 -1.00060105E+00
      vertex  2.75000000E+00  3.79999995E+00 -0.00000000E+00
    endloop
  endfacet
  facet normal  0.00000000E+00  1.00000000E+00  0.00000000E+00
    outer loop
      vertex  2.75000000E+00  3.79999995E+00 -0.00000000E+00
      vertex  3.73429394E+00  3.79999995E+00 -1.00060105E+00
      vertex  2.65629601E+00  3.79999995E+00 -7.11751997E-01
    endloop
  endfacet
  facet normal  0.00000000E+00  1.00000000E+00  0.00000000E+00
    outer loop
      vertex  7.11751997E-01  3.79999995E+00 -2.65629601E+00
      vertex  1.00060105E+00  3.79999995E+00 -3.73429394E+00
      vertex  0.00000000E+00  3.79999995E+00 -3.86602497E+00
    endloop
  endfacet
  facet normal  0.00000000E+00  1.00000000E+00  0.00000000E+00
    outer loop
      vertex  3.73429394E+00  3.79999995E+00 -1.00060105E+00
      vertex  3.34807611E+00  3.79999995E+00 -1.93301296E+00
      vertex  2.65629601E+00  3.79999995E+00 -7.11751997E-01
    endloop
  endfacet
  facet normal  0.00000000E+00  1.00000000E+00  0.00000000E+00
    outer loop
      vertex  2.65629601E+00  3.79999995E+00 -7.11751997E-01
      vertex  3.34807611E+00  3.79999995E+00 -1.93301296E+00
      vertex  2.38157010E+00  3.79999995E+00 -1.37500000E+00
    endloop
  endfacet
  facet normal  0.00000000E+00  1.00000000E+00  0.00000000E+00
    outer loop
      vertex  7.11751997E-01  3.79999995E+00 -2.65629601E+00
      vertex  1.93301296E+00  3.79999995E+00 -3.34807611E+00
      vertex  1.00060105E+00  3.79999995E+00 -3.73429394E+00
    endloop
  endfacet
  facet normal  0.00000000E+00  1.00000000E+00  0.00000000E+00
    outer loop
      vertex  1.37500000E+00  3.79999995E+00 -2.38157010E+00
      vertex  1.93301296E+00  3.79999995E+00 -3.34807611E+00
      vertex  7.11751997E-01  3.79999995E+00 -2.65629601E+00
    endloop
  endfacet
  facet normal  0.00000000E+00  1.00000000E+00  0.00000000E+00
    outer loop
      vertex  1.94454396E+00  3.79999995E+00 -1.94454396E+00
      vertex  1.93301296E+00  3.79999995E+00 -3.34807611E+00
      vertex  1.37500000E+00  3.79999995E+00 -2.38157010E+00
    endloop
  endfacet
  facet normal  0.00000000E+00  1.00000000E+00  0.00000000E+00
    outer loop
      vertex  1.94454396E+00  3.79999995E+00 -1.94454396E+00
      vertex  2.73369288E+00  3.79999995E+00 -2.73369288E+00
      vertex  1.93301296E+00  3.79999995E+00 -3.34807611E+00
    endloop
  endfacet
  facet normal  0.00000000E+00  1.00000000E+00  0.00000000E+00
    outer loop
      vertex  2.38157010E+00  3.79999995E+00 -1.37500000E+00
      vertex  2.73369288E+00  3.79999995E+00 -2.73369288E+00
      vertex  1.94454396E+00  3.79999995E+00 -1.94454396E+00
    endloop
  endfacet
  facet normal  0.00000000E+00  1.00000000E+00  0.00000000E+00
    outer loop
      vertex  3.34807611E+00  3.79999995E+00 -1.93301296E+00
      vertex  2.73369288E+00  3.79999995E+00 -2.73369288E+00
      vertex  2.38157010E+00  3.79999995E+00 -1.37500000E+00
    endloop
  endfacet
  facet normal -1.30526483E-01  0.00000000E+00  9.91444826E-01
    outer loop
      vertex  0.00000000E+00  5.00000000E-01  4.00000000E+00
      vertex  0.00000000E+00  3.29999995E+00  4.00000000E+00
      vertex -1.03527606E+00  3.29999995E+00  3.86370301E+00
    endloop
  endfacet
  facet normal -3.82682830E-01  0.00000000E+00  9.23879802E-01
    outer loop
      vertex -1.03527606E+00  5.00000000E-01  3.86370301E+00
      vertex -1.03527606E+00  3.29999995E+00  3.86370301E+00
      vertex -2.00000000E+00  3.29999995E+00  3.46410203E+00
    endloop
  endfacet
  facet normal -1.30526483E-01  0.00000000E+00  9.91444826E-01
    outer loop
      vertex -1.03527606E+00  5.00000000E-01  3.86370301E+00
      vertex  0.00000000E+00  5.00000000E-01  4.00000000E+00
      vertex -1.03527606E+00  3.29999995E+00  3.86370301E+00
    endloop
  endfacet
  facet normal -6.08761728E-01  0.00000000E+00  7.93353140E-01
    outer loop
      vertex -2.00000000E+00  5.00000000E-01  3.46410203E+00
      vertex -2.00000000E+00  3.29999995E+00  3.46410203E+00
      vertex -2.82842708E+00  3.29999995E+00  2.82842708E+00
    endloop
  endfacet
  facet normal -3.82682830E-01  0.00000000E+00  9.23879802E-01
    outer loop
      vertex -2.00000000E+00  5.00000000E-01  3.46410203E+00
      vertex -1.03527606E+00  5.00000000E-01  3.86370301E+00
      vertex -2.00000000E+00  3.29999995E+00  3.46410203E+00
    endloop
  endfacet
  facet normal -6.08761728E-01  0.00000000E+00  7.93353140E-01
    outer loop
      vertex -2.82842708E+00  5.00000000E-01  2.82842708E+00
      vertex -2.00000000E+00  5.00000000E-01  3.46410203E+00
      vertex -2.82842708E+00  3.29999995E+00  2.82842708E+00
    endloop
  endfacet
  facet normal -7.93353140E-01  0.00000000E+00  6.08761728E-01
    outer loop
      vertex -3.46410203E+00  5.00000000E-01  2.00000000E+00
      vertex -2.82842708E+00  3.29999995E+00  2.82842708E+00
      vertex -3.46410203E+00  3.29999995E+00  2.00000000E+00
    endloop
  endfacet
  facet normal -7.93353140E-01 -9.69694014E-09  6.08761728E-01
    outer loop
      vertex -3.46410203E+00  5.00000000E-01  2.00000000E+00
      vertex -2.82842708E+00  5.00000000E-01  2.82842708E+00
      vertex -2.82842708E+00  3.29999995E+00  2.82842708E+00
    endloop
  endfacet
  facet normal -9.23879802E-01  0.00000000E+00  3.82682830E-01
    outer loop
      vertex -3.86370301E+00  5.00000000E-01  1.03527606E+00
      vertex -3.46410203E+00  3.29999995E+00  2.00000000E+00
      vertex -3.86370301E+00  3.29999995E+00  1.03527606E+00
    endloop
  endfacet
  facet normal -9.23879802E-01 -1.06058451E-09  3.82682830E-01
    outer loop
      vertex -3.86370301E+00  5.00000000E-01  1.03527606E+00
      vertex -3.46410203E+00  5.00000000E-01  2.00000000E+00
      vertex -3.46410203E+00  3.29999995E+00  2.00000000E+00
    endloop
  endfacet
  facet normal -9.91444826E-01  0.00000000E+00  1.30526483E-01
    outer loop
      vertex -4.00000000E+00  5.00000000E-01 -0.00000000E+00
      vertex -3.86370301E+00  3.29999995E+00  1.03527606E+00
      vertex -4.00000000E+00  3.29999995E+00  0.00000000E+00
    endloop
  endfacet
  facet normal -9.91444826E-01  1.19625831E-09  1.30526483E-01
    outer loop
      vertex -4.00000000E+00  5.00000000E-01 -0.00000000E+00
      vertex -3.86370301E+00  5.00000000E-01  1.03527606E+00
      vertex -3.86370301E+00  3.29999995E+00  1.03527606E+00
    endloop
  endfacet
  facet normal -9.91444826E-01  0.00000000E+00 -1.30526483E-01
    outer loop
      vertex -3.86370301E+00  5.00000000E-01 -1.03527606E+00
      vertex -4.00000000E+00  3.29999995E+00  0.00000000E+00
      vertex -3.86370301E+00  3.29999995E+00 -1.03527606E+00
    endloop
  endfacet
  facet normal -9.91444826E-01 -1.19625831E-09 -1.30526483E-01
    outer loop
      vertex -3.86370301E+00  5.00000000E-01 -1.03527606E+00
      vertex -4.00000000E+00  5.00000000E-01 -0.00000000E+00
      vertex -4.00000000E+00  3.29999995E+00  0.00000000E+00
    endloop
  endfacet
  facet normal -9.23879802E-01  0.00000000E+00 -3.82682830E-01
    outer loop
      vertex -3.46410203E+00  5.00000000E-01 -2.00000000E+00
      vertex -3.86370301E+00  3.29999995E+00 -1.03527606E+00
      vertex -3.46410203E+00  3.29999995E+00 -2.00000000E+00
    endloop
  endfacet
  facet normal -9.23879802E-01  1.06058451E-09 -3.82682830E-01
    outer loop
      vertex -3.46410203E+00  5.00000000E-01 -2.00000000E+00
      vertex -3.86370301E+00  5.00000000E-01 -1.03527606E+00
      vertex -3.86370301E+00  3.29999995E+00 -1.03527606E+00
    endloop
  endfacet
  facet normal -7.93353140E-01  0.00000000E+00 -6.08761728E-01
    outer loop
      vertex -2.82842708E+00  5.00000000E-01 -2.82842708E+00
      vertex -3.46410203E+00  3.29999995E+00 -2.00000000E+00
      vertex -2.82842708E+00  3.29999995E+00 -2.82842708E+00
    endloop
  endfacet
  facet normal -7.93353140E-01  9.69694014E-09 -6.08761728E-01
    outer loop
      vertex -2.82842708E+00  5.00000000E-01 -2.82842708E+00
      vertex -3.46410203E+00  5.00000000E-01 -2.00000000E+00
      vertex -3.46410203E+00  3.29999995E+00 -2.00000000E+00
    endloop
  endfacet
  facet normal -6.08761728E-01  0.00000000E+00 -7.93353140E-01
    outer loop
      vertex -2.00000000E+00  5.00000000E-01 -3.46410203E+00
      vertex -2.82842708E+00  3.29999995E+00 -2.82842708E+00
      vertex -2.00000000E+00  3.29999995E+00 -3.46410203E+00
    endloop
  endfacet
  facet normal -6.08761728E-01  9.69694014E-09 -7.93353140E-01
    outer loop
      vertex -2.00000000E+00  5.00000000E-01 -3.46410203E+00
      vertex -2.82842708E+00  5.00000000E-01 -2.82842708E+00
      vertex -2.82842708E+00  3.29999995E+00 -2.82842708E+00
    endloop
  endfacet
  facet normal -3.82682830E-01  0.00000000E+00 -9.23879802E-01
    outer loop
      vertex -1.03527606E+00  5.00000000E-01 -3.86370301E+00
      vertex -2.00000000E+00  3.29999995E+00 -3.46410203E+00
      vertex -1.03527606E+00  3.29999995E+00 -3.86370301E+00
    endloop
  endfacet
  facet normal -3.82682830E-01  1.06058451E-09 -9.23879802E-01
    outer loop
      vertex -1.03527606E+00  5.00000000E-01 -3.86370301E+00
      vertex -2.00000000E+00  5.00000000E-01 -3.46410203E+00
      vertex -2.00000000E+00  3.29999995E+00 -3.46410203E+00
    endloop
  endfacet
  facet normal -1.30526483E-01  0.00000000E+00 -9.91444826E-01
    outer loop
      vertex  0.00000000E+00  5.00000000E-01 -4.00000000E+00
      vertex -1.03527606E+00  3.29999995E+00 -3.86370301E+00
      vertex  0.00000000E+00  3.29999995E+00 -4.00000000E+00
    endloop
  endfacet
  facet normal -1.30526483E-01 -1.19625831E-09 -9.91444826E-01
    outer loop
      vertex  0.00000000E+00  5.00000000E-01 -4.00000000E+00
      vertex -1.03527606E+00  5.00000000E-01 -3.86370301E+00
      vertex -1.03527606E+00  3.29999995E+00 -3.86370301E+00
    endloop
  endfacet
  facet normal  0.00000000E+00 -1.00000000E+00  0.00000000E+00
    outer loop
      vertex -2.73369288E+00 -0.00000000E+00 -2.73369288E+00
      vertex -1.94454396E+00  0.00000000E+00 -1.94454396E+00
      vertex -3.34807611E+00 -0.00000000E+00 -1.93301296E+00
    endloop
  endfacet
  facet normal  0.00000000E+00 -1.00000000E+00  0.00000000E+00
    outer loop
      vertex -1.93301296E+00 -0.00000000E+00 -3.34807611E+00
      vertex -1.37500000E+00  0.00000000E+00 -2.38157010E+00
      vertex -2.73369288E+00 -0.00000000E+00 -2.73369288E+00
    endloop
  endfacet
  facet normal  0.00000000E+00 -1.00000000E+00  0.00000000E+00
    outer loop
      vertex -2.73369288E+00 -0.00000000E+00 -2.73369288E+00
      vertex -1.37500000E+00  0.00000000E+00 -2.38157010E+00
      vertex -1.94454396E+00  0.00000000E+00 -1.94454396E+00
    endloop
  endfacet
  facet normal  0.00000000E+00 -1.00000000E+00  0.00000000E+00
    outer loop
      vertex -1.94454396E+00  0.00000000E+00 -1.94454396E+00
      vertex -2.38157010E+00  0.00000000E+00 -1.37500000E+00
      vertex -3.34807611E+00 -0.00000000E+00 -1.93301296E+00
    endloop
  endfacet
  facet normal  0.00000000E+00 -1.00000000E+00  0.00000000E+00
    outer loop
      vertex -1.00060105E+00 -0.00000000E+00 -3.73429394E+00
      vertex -7.11751997E-01  0.00000000E+00 -2.65629601E+00
      vertex -1.93301296E+00 -0.00000000E+00 -3.34807611E+00
    endloop
  endfacet
  facet normal  0.00000000E+00 -1.00000000E+00  0.00000000E+00
    outer loop
      vertex -1.93301296E+00 -0.00000000E+00 -3.34807611E+00
      vertex -7.11751997E-01  0.00000000E+00 -2.65629601E+00
      vertex -1.37500000E+00  0.00000000E+00 -2.38157010E+00
    endloop
  endfacet
  facet normal  0.00000000E+00 -1.00000000E+00  0.00000000E+00
    outer loop
      vertex -3.34807611E+00 -0.00000000E+00 -1.93301296E+00
      vertex -2.65629601E+00  0.00000000E+00 -7.11751997E-01
      vertex -3.73429394E+00 -0.00000000E+00 -1.00060105E+00
    endloop
  endfacet
  facet normal  0.00000000E+00 -1.00000000E+00  0.00000000E+00
    outer loop
      vertex -2.38157010E+00  0.00000000E+00 -1.37500000E+00
      vertex -2.65629601E+00  0.00000000E+00 -7.11751997E-01
      vertex -3.34807611E+00 -0.00000000E+00 -1.93301296E+00
    endloop
  endfacet
  facet normal  0.00000000E+00 -1.00000000E+00  0.00000000E+00
    outer loop
      vertex  0.00000000E+00 -0.00000000E+00 -3.86602497E+00
      vertex  0.00000000E+00  0.00000000E+00 -2.75000000E+00
      vertex -1.00060105E+00 -0.00000000E+00 -3.73429394E+00
    endloop
  endfacet
  facet normal  0.00000000E+00 -1.00000000E+00  0.00000000E+00
    outer loop
      vertex -1.00060105E+00 -0.00000000E+00 -3.73429394E+00
      vertex  0.00000000E+00  0.00000000E+00 -2.75000000E+00
      vertex -7.11751997E-01  0.00000000E+00 -2.65629601E+00
    endloop
  endfacet
  facet normal  0.00000000E+00 -1.00000000E+00  0.00000000E+00
    outer loop
      vertex -3.73429394E+00 -0.00000000E+00 -1.00060105E+00
      vertex -2.75000000E+00  0.00000000E+00  0.00000000E+00
      vertex -3.86602497E+00 -0.00000000E+00  0.00000000E+00
    endloop
  endfacet
  facet normal  0.00000000E+00 -1.00000000E+00  0.00000000E+00
    outer loop
      vertex -2.65629601E+00  0.00000000E+00 -7.11751997E-01
      vertex -2.75000000E+00  0.00000000E+00  0.00000000E+00
      vertex -3.73429394E+00 -0.00000000E+00 -1.00060105E+00
    endloop
  endfacet
  facet normal  0.00000000E+00 -1.00000000E+00  0.00000000E+00
    outer loop
      vertex -3.86602497E+00 -0.00000000E+00  0.00000000E+00
      vertex -2.65629601E+00  0.00000000E+00  7.11751997E-01
      vertex -3.73429394E+00 -0.00000000E+00  1.00060105E+00
    endloop
  endfacet
  facet normal  0.00000000E+00 -1.00000000E+00  0.00000000E+00
    outer loop
      vertex -2.75000000E+00  0.00000000E+00  0.00000000E+00
      vertex -2.65629601E+00  0.00000000E+00  7.11751997E-01
      vertex -3.86602497E+00 -0.00000000E+00  0.00000000E+00
    endloop
  endfacet
  facet normal -0.00000000E+00 -1.00000000E+00  0.00000000E+00
    outer loop
      vertex  1.00060105E+00 -0.00000000E+00 -3.73429394E+00
      vertex  7.11751997E-01  0.00000000E+00 -2.65629601E+00
      vertex  0.00000000E+00 -0.00000000E+00 -3.86602497E+00
    endloop
  endfacet
  facet normal  0.00000000E+00 -1.00000000E+00  0.00000000E+00
    outer loop
      vertex  0.00000000E+00 -0.00000000E+00 -3.86602497E+00
      vertex  7.11751997E-01  0.00000000E+00 -2.65629601E+00
      vertex  0.00000000E+00  0.00000000E+00 -2.75000000E+00
    endloop
  endfacet
  facet normal -0.00000000E+00 -1.00000000E+00  0.00000000E+00
    outer loop
      vertex  1.93301296E+00 -0.00000000E+00 -3.34807611E+00
      vertex  1.37500000E+00  0.00000000E+00 -2.38157010E+00
      vertex  1.00060105E+00 -0.00000000E+00 -3.73429394E+00
    endloop
  endfacet
  facet normal  0.00000000E+00 -1.00000000E+00  0.00000000E+00
    outer loop
      vertex  1.00060105E+00 -0.00000000E+00 -3.73429394E+00
      vertex  1.37500000E+00  0.00000000E+00 -2.38157010E+00
      vertex  7.11751997E-01  0.00000000E+00 -2.65629601E+00
    endloop
  endfacet
  facet normal  0.00000000E+00 -1.00000000E+00  0.00000000E+00
    outer loop
      vertex -3.73429394E+00 -0.00000000E+00  1.00060105E+00
      vertex -2.38157010E+00  0.00000000E+00  1.37500000E+00
      vertex -3.34807611E+00 -0.00000000E+00  1.93301296E+00
    endloop
  endfacet
  facet normal  0.00000000E+00 -1.00000000E+00  0.00000000E+00
    outer loop
      vertex -2.65629601E+00  0.00000000E+00  7.11751997E-01
      vertex -2.38157010E+00  0.00000000E+00  1.37500000E+00
      vertex -3.73429394E+00 -0.00000000E+00  1.00060105E+00
    endloop
  endfacet
  facet normal  0.00000000E+00 -1.00000000E+00  0.00000000E+00
    outer loop
      vertex  1.37500000E+00  0.00000000E+00 -2.38157010E+00
      vertex  2.73369288E+00 -0.00000000E+00 -2.73369288E+00
      vertex  1.94454396E+00  0.00000000E+00 -1.94454396E+00
    endloop
  endfacet
  facet normal  0.00000000E+00 -1.00000000E+00  0.00000000E+00
    outer loop
      vertex  1.93301296E+00 -0.00000000E+00 -3.34807611E+00
      vertex  2.73369288E+00 -0.00000000E+00 -2.73369288E+00
      vertex  1.37500000E+00  0.00000000E+00 -2.38157010E+00
    endloop
  endfacet
  facet normal  0.00000000E+00 -1.00000000E+00 -0.00000000E+00
    outer loop
      vertex -1.94454396E+00  0.00000000E+00  1.94454396E+00
      vertex -2.73369288E+00 -0.00000000E+00  2.73369288E+00
      vertex -2.38157010E+00  0.00000000E+00  1.37500000E+00
    endloop
  endfacet
  facet normal  0.00000000E+00 -1.00000000E+00  0.00000000E+00
    outer loop
      vertex -2.38157010E+00  0.00000000E+00  1.37500000E+00
      vertex -2.73369288E+00 -0.00000000E+00  2.73369288E+00
      vertex -3.34807611E+00 -0.00000000E+00  1.93301296E+00
    endloop
  endfacet
  facet normal  0.00000000E+00 -1.00000000E+00  0.00000000E+00
    outer loop
      vertex  2.73369288E+00 -0.00000000E+00 -2.73369288E+00
      vertex  2.38157010E+00  0.00000000E+00 -1.37500000E+00
      vertex  1.94454396E+00  0.00000000E+00 -1.94454396E+00
    endloop
  endfacet
  facet normal  0.00000000E+00 -1.00000000E+00  0.00000000E+00
    outer loop
      vertex -1.94454396E+00  0.00000000E+00  1.94454396E+00
      vertex -1.37500000E+00  0.00000000E+00  2.38157010E+00
      vertex -2.73369288E+00 -0.00000000E+00  2.73369288E+00
    endloop
  endfacet
  facet normal  0.00000000E+00 -1.00000000E+00  0.00000000E+00
    outer loop
      vertex  2.73369288E+00 -0.00000000E+00 -2.73369288E+00
      vertex  3.34807611E+00 -0.00000000E+00 -1.93301296E+00
      vertex  2.38157010E+00  0.00000000E+00 -1.37500000E+00
    endloop
  endfacet
  facet normal  0.00000000E+00 -1.00000000E+00  0.00000000E+00
    outer loop
      vertex -1.37500000E+00  0.00000000E+00  2.38157010E+00
      vertex -1.93301296E+00 -0.00000000E+00  3.34807611E+00
      vertex -2.73369288E+00 -0.00000000E+00  2.73369288E+00
    endloop
  endfacet
  facet normal  0.00000000E+00 -1.00000000E+00  0.00000000E+00
    outer loop
      vertex  3.34807611E+00 -0.00000000E+00 -1.93301296E+00
      vertex  3.73429394E+00 -0.00000000E+00 -1.00060105E+00
      vertex  2.38157010E+00  0.00000000E+00 -1.37500000E+00
    endloop
  endfacet
  facet normal -0.00000000E+00 -1.00000000E+00  0.00000000E+00
    outer loop
      vertex  2.38157010E+00  0.00000000E+00 -1.37500000E+00
      vertex  3.73429394E+00 -0.00000000E+00 -1.00060105E+00
      vertex  2.65629601E+00  0.00000000E+00 -7.11751997E-01
    endloop
  endfacet
  facet normal  0.00000000E+00 -1.00000000E+00 -0.00000000E+00
    outer loop
      vertex -1.37500000E+00  0.00000000E+00  2.38157010E+00
      vertex -1.00060105E+00 -0.00000000E+00  3.73429394E+00
      vertex -1.93301296E+00 -0.00000000E+00  3.34807611E+00
    endloop
  endfacet
  facet normal  0.00000000E+00 -1.00000000E+00 -0.00000000E+00
    outer loop
      vertex -7.11751997E-01  0.00000000E+00  2.65629601E+00
      vertex -1.00060105E+00 -0.00000000E+00  3.73429394E+00
      vertex -1.37500000E+00  0.00000000E+00  2.38157010E+00
    endloop
  endfacet
  facet normal  0.00000000E+00 -1.00000000E+00  0.00000000E+00
    outer loop
      vertex  3.73429394E+00 -0.00000000E+00 -1.00060105E+00
      vertex  3.86602497E+00 -0.00000000E+00 -0.00000000E+00
      vertex  2.65629601E+00  0.00000000E+00 -7.11751997E-01
    endloop
  endfacet
  facet normal -0.00000000E+00 -1.00000000E+00  0.00000000E+00
    outer loop
      vertex  2.65629601E+00  0.00000000E+00 -7.11751997E-01
      vertex  3.86602497E+00 -0.00000000E+00 -0.00000000E+00
      vertex  2.75000000E+00  0.00000000E+00 -0.00000000E+00
    endloop
  endfacet
  facet normal  0.00000000E+00 -1.00000000E+00 -0.00000000E+00
    outer loop
      vertex -7.11751997E-01  0.00000000E+00  2.65629601E+00
      vertex  0.00000000E+00 -0.00000000E+00  3.86602497E+00
      vertex -1.00060105E+00 -0.00000000E+00  3.73429394E+00
    endloop
  endfacet
  facet normal  0.00000000E+00 -1.00000000E+00  0.00000000E+00
    outer loop
      vertex  0.00000000E+00  0.00000000E+00  2.75000000E+00
      vertex  0.00000000E+00 -0.00000000E+00  3.86602497E+00
      vertex -7.11751997E-01  0.00000000E+00  2.65629601E+00
    endloop
  endfacet
  facet normal  0.00000000E+00 -1.00000000E+00  0.00000000E+00
    outer loop
      vertex  3.86602497E+00 -0.00000000E+00 -0.00000000E+00
      vertex  3.73429394E+00 -0.00000000E+00  1.00060105E+00
      vertex  2.75000000E+00  0.00000000E+00 -0.00000000E+00
    endloop
  endfacet
  facet normal -0.00000000E+00 -1.00000000E+00  0.00000000E+00
    outer loop
      vertex  2.75000000E+00  0.00000000E+00 -0.00000000E+00
      vertex  3.73429394E+00 -0.00000000E+00  1.00060105E+00
      vertex  2.65629601E+00  0.00000000E+00  7.11751997E-01
    endloop
  endfacet
  facet normal  0.00000000E+00 -1.00000000E+00  0.00000000E+00
    outer loop
      vertex  0.00000000E+00  0.00000000E+00  2.75000000E+00
      vertex  1.00060105E+00 -0.00000000E+00  3.73429394E+00
      vertex  0.00000000E+00 -0.00000000E+00  3.86602497E+00
    endloop
  endfacet
  facet normal -0.00000000E+00 -1.00000000E+00  0.00000000E+00
    outer loop
      vertex  7.11751997E-01  0.00000000E+00  2.65629601E+00
      vertex  1.00060105E+00 -0.00000000E+00  3.73429394E+00
      vertex  0.00000000E+00  0.00000000E+00  2.75000000E+00
    endloop
  endfacet
  facet normal -0.00000000E+00 -1.00000000E+00  0.00000000E+00
    outer loop
      vertex  3.73429394E+00 -0.00000000E+00  1.00060105E+00
      vertex  3.34807611E+00 -0.00000000E+00  1.93301296E+00
      vertex  2.65629601E+00  0.00000000E+00  7.11751997E-01
    endloop
  endfacet
  facet normal -0.00000000E+00 -1.00000000E+00  0.00000000E+00
    outer loop
      vertex  2.65629601E+00  0.00000000E+00  7.11751997E-01
      vertex  3.34807611E+00 -0.00000000E+00  1.93301296E+00
      vertex  2.38157010E+00  0.00000000E+00  1.37500000E+00
    endloop
  endfacet
  facet normal  0.00000000E+00 -1.00000000E+00  0.00000000E+00
    outer loop
      vertex  7.11751997E-01  0.00000000E+00  2.65629601E+00
      vertex  1.93301296E+00 -0.00000000E+00  3.34807611E+00
      vertex  1.00060105E+00 -0.00000000E+00  3.73429394E+00
    endloop
  endfacet
  facet normal -0.00000000E+00 -1.00000000E+00 -0.00000000E+00
    outer loop
      vertex  1.94454396E+00  0.00000000E+00  1.94454396E+00
      vertex  1.93301296E+00 -0.00000000E+00  3.34807611E+00
      vertex  1.37500000E+00  0.00000000E+00  2.38157010E+00
    endloop
  endfacet
  facet normal -0.00000000E+00 -1.00000000E+00  0.00000000E+00
    outer loop
      vertex  1.37500000E+00  0.00000000E+00  2.38157010E+00
      vertex  1.93301296E+00 -0.00000000E+00  3.34807611E+00
      vertex  7.11751997E-01  0.00000000E+00  2.65629601E+00
    endloop
  endfacet
  facet normal -0.00000000E+00 -1.00000000E+00  0.00000000E+00
    outer loop
      vertex  3.34807611E+00 -0.00000000E+00  1.93301296E+00
      vertex  2.73369288E+00 -0.00000000E+00  2.73369288E+00
      vertex  2.38157010E+00  0.00000000E+00  1.37500000E+00
    endloop
  endfacet
  facet normal  0.00000000E+00 -1.00000000E+00 -0.00000000E+00
    outer loop
      vertex  1.94454396E+00  0.00000000E+00  1.94454396E+00
      vertex  2.73369288E+00 -0.00000000E+00  2.73369288E+00
      vertex  1.93301296E+00 -0.00000000E+00  3.34807611E+00
    endloop
  endfacet
  facet normal -0.00000000E+00 -1.00000000E+00  0.00000000E+00
    outer loop
      vertex  2.38157010E+00  0.00000000E+00  1.37500000E+00
      vertex  2.73369288E+00 -0.00000000E+00  2.73369288E+00
      vertex  1.94454396E+00  0.00000000E+00  1.94454396E+00
    endloop
  endfacet
  facet normal -1.26150042E-01  2.56752163E-01  9.58208978E-01
    outer loop
      vertex -1.00060105E+00  3.79999995E+00  3.73429394E+00
      vertex  0.00000000E+00  3.29999995E+00  4.00000000E+00
      vertex  0.00000000E+00  3.79999995E+00  3.86602497E+00
    endloop
  endfacet
  facet normal -1.26150936E-01  2.56750524E-01  9.58209336E-01
    outer loop
      vertex -1.03527606E+00  3.29999995E+00  3.86370301E+00
      vertex  0.00000000E+00  3.29999995E+00  4.00000000E+00
      vertex -1.00060105E+00  3.79999995E+00  3.73429394E+00
    endloop
  endfacet
  facet normal -3.69855165E-01  2.56750494E-01  8.92908931E-01
    outer loop
      vertex -1.93301296E+00  3.79999995E+00  3.34807611E+00
      vertex -1.03527606E+00  3.29999995E+00  3.86370301E+00
      vertex -1.00060105E+00  3.79999995E+00  3.73429394E+00
    endloop
  endfacet
  facet normal -3.69854242E-01  2.56752044E-01  8.92908871E-01
    outer loop
      vertex -2.00000000E+00  3.29999995E+00  3.46410203E+00
      vertex -1.03527606E+00  3.29999995E+00  3.86370301E+00
      vertex -1.93301296E+00  3.79999995E+00  3.34807611E+00
    endloop
  endfacet
  facet normal -5.88354051E-01  2.56751895E-01  7.66758084E-01
    outer loop
      vertex -2.73369288E+00  3.79999995E+00  2.73369288E+00
      vertex -2.00000000E+00  3.29999995E+00  3.46410203E+00
      vertex -1.93301296E+00  3.79999995E+00  3.34807611E+00
    endloop
  endfacet
  facet normal -5.88354588E-01  2.56750971E-01  7.66758025E-01
    outer loop
      vertex -2.82842708E+00  3.29999995E+00  2.82842708E+00
      vertex -2.00000000E+00  3.29999995E+00  3.46410203E+00
      vertex -2.73369288E+00  3.79999995E+00  2.73369288E+00
    endloop
  endfacet
  facet normal -7.66758263E-01  2.56750941E-01  5.88354230E-01
    outer loop
      vertex -3.34807611E+00  3.79999995E+00  1.93301296E+00
      vertex -2.82842708E+00  3.29999995E+00  2.82842708E+00
      vertex -2.73369288E+00  3.79999995E+00  2.73369288E+00
    endloop
  endfacet
  facet normal -7.66757846E-01  2.56751806E-01  5.88354409E-01
    outer loop
      vertex -3.46410203E+00  3.29999995E+00  2.00000000E+00
      vertex -2.82842708E+00  3.29999995E+00  2.82842708E+00
      vertex -3.34807611E+00  3.79999995E+00  1.93301296E+00
    endloop
  endfacet
  facet normal -8.92908931E-01  2.56750494E-01  3.69855165E-01
    outer loop
      vertex -3.86370301E+00  3.29999995E+00  1.03527606E+00
      vertex -3.34807611E+00  3.79999995E+00  1.93301296E+00
      vertex -3.73429394E+00  3.79999995E+00  1.00060105E+00
    endloop
  endfacet
  facet normal -8.92908871E-01  2.56752044E-01  3.69854242E-01
    outer loop
      vertex -3.86370301E+00  3.29999995E+00  1.03527606E+00
      vertex -3.46410203E+00  3.29999995E+00  2.00000000E+00
      vertex -3.34807611E+00  3.79999995E+00  1.93301296E+00
    endloop
  endfacet
  facet normal -9.58208978E-01  2.56752163E-01  1.26150042E-01
    outer loop
      vertex -4.00000000E+00  3.29999995E+00  0.00000000E+00
      vertex -3.73429394E+00  3.79999995E+00  1.00060105E+00
      vertex -3.86602497E+00  3.79999995E+00 -0.00000000E+00
    endloop
  endfacet
  facet normal -9.58209336E-01  2.56750524E-01  1.26150936E-01
    outer loop
      vertex -4.00000000E+00  3.29999995E+00  0.00000000E+00
      vertex -3.86370301E+00  3.29999995E+00  1.03527606E+00
      vertex -3.73429394E+00  3.79999995E+00  1.00060105E+00
    endloop
  endfacet
  facet normal -9.58209455E-01  2.56750494E-01 -1.26150101E-01
    outer loop
      vertex -3.86370301E+00  3.29999995E+00 -1.03527606E+00
      vertex -3.86602497E+00  3.79999995E+00 -0.00000000E+00
      vertex -3.73429394E+00  3.79999995E+00 -1.00060105E+00
    endloop
  endfacet
  facet normal -9.58208919E-01  2.56752133E-01 -1.26150876E-01
    outer loop
      vertex -3.86370301E+00  3.29999995E+00 -1.03527606E+00
      vertex -4.00000000E+00  3.29999995E+00  0.00000000E+00
      vertex -3.86602497E+00  3.79999995E+00 -0.00000000E+00
    endloop
  endfacet
  facet normal -8.92908514E-01  2.56752044E-01 -3.69854987E-01
    outer loop
      vertex -3.46410203E+00  3.29999995E+00 -2.00000000E+00
      vertex -3.73429394E+00  3.79999995E+00 -1.00060105E+00
      vertex -3.34807611E+00  3.79999995E+00 -1.93301296E+00
    endloop
  endfacet
  facet normal -8.92909229E-01  2.56750554E-01 -3.69854420E-01
    outer loop
      vertex -3.46410203E+00  3.29999995E+00 -2.00000000E+00
      vertex -3.86370301E+00  3.29999995E+00 -1.03527606E+00
      vertex -3.73429394E+00  3.79999995E+00 -1.00060105E+00
    endloop
  endfacet
  facet normal -7.66758263E-01  2.56750971E-01 -5.88354230E-01
    outer loop
      vertex -2.82842708E+00  3.29999995E+00 -2.82842708E+00
      vertex -3.34807611E+00  3.79999995E+00 -1.93301296E+00
      vertex -2.73369288E+00  3.79999995E+00 -2.73369288E+00
    endloop
  endfacet
  facet normal -7.66757846E-01  2.56751806E-01 -5.88354409E-01
    outer loop
      vertex -2.82842708E+00  3.29999995E+00 -2.82842708E+00
      vertex -3.46410203E+00  3.29999995E+00 -2.00000000E+00
      vertex -3.34807611E+00  3.79999995E+00 -1.93301296E+00
    endloop
  endfacet
  facet normal -5.88354111E-01  2.56751835E-01 -7.66758084E-01
    outer loop
      vertex -2.00000000E+00  3.29999995E+00 -3.46410203E+00
      vertex -2.73369288E+00  3.79999995E+00 -2.73369288E+00
      vertex -1.93301296E+00  3.79999995E+00 -3.34807611E+00
    endloop
  endfacet
  facet normal -5.88354588E-01  2.56750971E-01 -7.66758025E-01
    outer loop
      vertex -2.00000000E+00  3.29999995E+00 -3.46410203E+00
      vertex -2.82842708E+00  3.29999995E+00 -2.82842708E+00
      vertex -2.73369288E+00  3.79999995E+00 -2.73369288E+00
    endloop
  endfacet
  facet normal -3.69855165E-01  2.56750494E-01 -8.92908931E-01
    outer loop
      vertex -1.03527606E+00  3.29999995E+00 -3.86370301E+00
      vertex -1.93301296E+00  3.79999995E+00 -3.34807611E+00
      vertex -1.00060105E+00  3.79999995E+00 -3.73429394E+00
    endloop
  endfacet
  facet normal -3.69854242E-01  2.56752044E-01 -8.92908871E-01
    outer loop
      vertex -1.03527606E+00  3.29999995E+00 -3.86370301E+00
      vertex -2.00000000E+00  3.29999995E+00 -3.46410203E+00
      vertex -1.93301296E+00  3.79999995E+00 -3.34807611E+00
    endloop
  endfacet
  facet normal -1.26150042E-01  2.56752163E-01 -9.58208978E-01
    outer loop
      vertex  0.00000000E+00  3.29999995E+00 -4.00000000E+00
      vertex -1.00060105E+00  3.79999995E+00 -3.73429394E+00
      vertex  0.00000000E+00  3.79999995E+00 -3.86602497E+00
    endloop
  endfacet
  facet normal -1.26150936E-01  2.56750524E-01 -9.58209336E-01
    outer loop
      vertex  0.00000000E+00  3.29999995E+00 -4.00000000E+00
      vertex -1.03527606E+00  3.29999995E+00 -3.86370301E+00
      vertex -1.00060105E+00  3.79999995E+00 -3.73429394E+00
    endloop
  endfacet
  facet normal -1.26150042E-01 -2.56752163E-01 -9.58208978E-01
    outer loop
      vertex -1.00060105E+00 -0.00000000E+00 -3.73429394E+00
      vertex  0.00000000E+00  5.00000000E-01 -4.00000000E+00
      vertex  0.00000000E+00 -0.00000000E+00 -3.86602497E+00
    endloop
  endfacet
  facet normal -1.26150936E-01 -2.56750524E-01 -9.58209336E-01
    outer loop
      vertex -1.03527606E+00  5.00000000E-01 -3.86370301E+00
      vertex  0.00000000E+00  5.00000000E-01 -4.00000000E+00
      vertex -1.00060105E+00 -0.00000000E+00 -3.73429394E+00
    endloop
  endfacet
  facet normal -3.69855165E-01 -2.56750494E-01 -8.92908931E-01
    outer loop
      vertex -1.93301296E+00 -0.00000000E+00 -3.34807611E+00
      vertex -1.03527606E+00  5.00000000E-01 -3.86370301E+00
      vertex -1.00060105E+00 -0.00000000E+00 -3.73429394E+00
    endloop
  endfacet
  facet normal -3.69854242E-01 -2.56752044E-01 -8.92908871E-01
    outer loop
      vertex -2.00000000E+00  5.00000000E-01 -3.46410203E+00
      vertex -1.03527606E+00  5.00000000E-01 -3.86370301E+00
      vertex -1.93301296E+00 -0.00000000E+00 -3.34807611E+00
    endloop
  endfacet
  facet normal -5.88354051E-01 -2.56751895E-01 -7.66758084E-01
    outer loop
      vertex -2.73369288E+00 -0.00000000E+00 -2.73369288E+00
      vertex -2.00000000E+00  5.00000000E-01 -3.46410203E+00
      vertex -1.93301296E+00 -0.00000000E+00 -3.34807611E+00
    endloop
  endfacet
  facet normal -5.88354588E-01 -2.56750971E-01 -7.66758025E-01
    outer loop
      vertex -2.82842708E+00  5.00000000E-01 -2.82842708E+00
      vertex -2.00000000E+00  5.00000000E-01 -3.46410203E+00
      vertex -2.73369288E+00 -0.00000000E+00 -2.73369288E+00
    endloop
  endfacet
  facet normal -7.66758084E-01 -2.56751835E-01 -5.88354111E-01
    outer loop
      vertex -3.46410203E+00  5.00000000E-01 -2.00000000E+00
      vertex -2.73369288E+00 -0.00000000E+00 -2.73369288E+00
      vertex -3.34807611E+00 -0.00000000E+00 -1.93301296E+00
    endloop
  endfacet
  facet normal -7.66757965E-01 -2.56751031E-01 -5.88354588E-01
    outer loop
      vertex -3.46410203E+00  5.00000000E-01 -2.00000000E+00
      vertex -2.82842708E+00  5.00000000E-01 -2.82842708E+00
      vertex -2.73369288E+00 -0.00000000E+00 -2.73369288E+00
    endloop
  endfacet
  facet normal -8.92908931E-01 -2.56750494E-01 -3.69855165E-01
    outer loop
      vertex -3.86370301E+00  5.00000000E-01 -1.03527606E+00
      vertex -3.34807611E+00 -0.00000000E+00 -1.93301296E+00
      vertex -3.73429394E+00 -0.00000000E+00 -1.00060105E+00
    endloop
  endfacet
  facet normal -8.92908871E-01 -2.56752044E-01 -3.69854242E-01
    outer loop
      vertex -3.86370301E+00  5.00000000E-01 -1.03527606E+00
      vertex -3.46410203E+00  5.00000000E-01 -2.00000000E+00
      vertex -3.34807611E+00 -0.00000000E+00 -1.93301296E+00
    endloop
  endfacet
  facet normal -9.58208978E-01 -2.56752163E-01 -1.26150042E-01
    outer loop
      vertex -4.00000000E+00  5.00000000E-01 -0.00000000E+00
      vertex -3.73429394E+00 -0.00000000E+00 -1.00060105E+00
      vertex -3.86602497E+00 -0.00000000E+00  0.00000000E+00
    endloop
  endfacet
  facet normal -9.58209336E-01 -2.56750524E-01 -1.26150936E-01
    outer loop
      vertex -4.00000000E+00  5.00000000E-01 -0.00000000E+00
      vertex -3.86370301E+00  5.00000000E-01 -1.03527606E+00
      vertex -3.73429394E+00 -0.00000000E+00 -1.00060105E+00
    endloop
  endfacet
  facet normal -9.58209455E-01 -2.56750494E-01  1.26150101E-01
    outer loop
      vertex -3.86370301E+00  5.00000000E-01  1.03527606E+00
      vertex -3.86602497E+00 -0.00000000E+00  0.00000000E+00
      vertex -3.73429394E+00 -0.00000000E+00  1.00060105E+00
    endloop
  endfacet
  facet normal -9.58208919E-01 -2.56752133E-01  1.26150876E-01
    outer loop
      vertex -3.86370301E+00  5.00000000E-01  1.03527606E+00
      vertex -4.00000000E+00  5.00000000E-01 -0.00000000E+00
      vertex -3.86602497E+00 -0.00000000E+00  0.00000000E+00
    endloop
  endfacet
  facet normal -8.92908514E-01 -2.56752044E-01  3.69854987E-01
    outer loop
      vertex -3.46410203E+00  5.00000000E-01  2.00000000E+00
      vertex -3.73429394E+00 -0.00000000E+00  1.00060105E+00
      vertex -3.34807611E+00 -0.00000000E+00  1.93301296E+00
    endloop
  endfacet
  facet normal -8.92909229E-01 -2.56750554E-01  3.69854420E-01
    outer loop
      vertex -3.46410203E+00  5.00000000E-01  2.00000000E+00
      vertex -3.86370301E+00  5.00000000E-01  1.03527606E+00
      vertex -3.73429394E+00 -0.00000000E+00  1.00060105E+00
    endloop
  endfacet
  facet normal -7.66758263E-01 -2.56750971E-01  5.88354230E-01
    outer loop
      vertex -2.82842708E+00  5.00000000E-01  2.82842708E+00
      vertex -3.34807611E+00 -0.00000000E+00  1.93301296E+00
      vertex -2.73369288E+00 -0.00000000E+00  2.73369288E+00
    endloop
  endfacet
  facet normal -7.66757846E-01 -2.56751806E-01  5.88354409E-01
    outer loop
      vertex -2.82842708E+00  5.00000000E-01  2.82842708E+00
      vertex -3.46410203E+00  5.00000000E-01  2.00000000E+00
      vertex -3.34807611E+00 -0.00000000E+00  1.93301296E+00
    endloop
  endfacet
  facet normal -5.88354111E-01 -2.56751835E-01  7.66758084E-01
    outer loop
      vertex -2.00000000E+00  5.00000000E-01  3.46410203E+00
      vertex -2.73369288E+00 -0.00000000E+00  2.73369288E+00
      vertex -1.93301296E+00 -0.00000000E+00  3.34807611E+00
    endloop
  endfacet
  facet normal -5.88354588E-01 -2.56750971E-01  7.66758025E-01
    outer loop
      vertex -2.00000000E+00  5.00000000E-01  3.46410203E+00
      vertex -2.82842708E+00  5.00000000E-01  2.82842708E+00
      vertex -2.73369288E+00 -0.00000000E+00  2.73369288E+00
    endloop
  endfacet
  facet normal -3.69855165E-01 -2.56750494E-01  8.92908931E-01
    outer loop
      vertex -1.03527606E+00  5.00000000E-01  3.86370301E+00
      vertex -1.93301296E+00 -0.00000000E+00  3.34807611E+00
      vertex -1.00060105E+00 -0.00000000E+00  3.73429394E+00
    endloop
  endfacet
  facet normal -3.69854242E-01 -2.56752044E-01  8.92908871E-01
    outer loop
      vertex -1.03527606E+00  5.00000000E-01  3.86370301E+00
      vertex -2.00000000E+00  5.00000000E-01  3.46410203E+00
      vertex -1.93301296E+00 -0.00000000E+00  3.34807611E+00
    endloop
  endfacet
  facet normal -1.26150042E-01 -2.56752163E-01  9.58208978E-01
    outer loop
      vertex  0.00000000E+00  5.00000000E-01  4.00000000E+00
      vertex -1.00060105E+00 -0.00000000E+00  3.73429394E+00
      vertex  0.00000000E+00 -0.00000000E+00  3.86602497E+00
    endloop
  endfacet
  facet normal -1.26150936E-01 -2.56750524E-01  9.58209336E-01
    outer loop
      vertex  0.00000000E+00  5.00000000E-01  4.00000000E+00
      vertex -1.03527606E+00  5.00000000E-01  3.86370301E+00
      vertex -1.00060105E+00 -0.00000000E+00  3.73429394E+00
    endloop
  endfacet
endsolid  Processed by ADMesh version 0.98.4
