solid  Processed by ADMesh version 0.98.4
  facet normal  1.16485484E-01 -2.57056385E-01  9.59350348E-01
    outer loop
      vertex  1.43589401E+00  5.00000000E-01  5.82565117E+00
      vertex -0.00000000E+00  0.00000000E+00  5.86602497E+00
      vertex  1.40383196E+00 -0.00000000E+00  5.69556999E+00
    endloop
  endfacet
  facet normal  1.16485991E-01 -2.57057875E-01  9.59349930E-01
    outer loop
      vertex  1.43589401E+00  5.00000000E-01  5.82565117E+00
      vertex -0.00000000E+00  5.00000000E-01  6.00000000E+00
      vertex -0.00000000E+00  0.00000000E+00  5.86602497E+00
    endloop
  endfacet
  facet normal  3.42689037E-01 -2.57055938E-01  9.03596401E-01
    outer loop
      vertex  2.78833890E+00  5.00000000E-01  5.31273603E+00
      vertex  1.40383196E+00 -0.00000000E+00  5.69556999E+00
      vertex  2.72607803E+00 -0.00000000E+00  5.19410801E+00
    endloop
  endfacet
  facet normal  3.42689157E-01 -2.57056355E-01  9.03596222E-01
    outer loop
      vertex  2.78833890E+00  5.00000000E-01  5.31273603E+00
      vertex  1.43589401E+00  5.00000000E-01  5.82565117E+00
      vertex  1.40383196E+00 -0.00000000E+00  5.69556999E+00
    endloop
  endfacet
  facet normal  5.48975885E-01 -2.57058591E-01  7.95327842E-01
    outer loop
      vertex  3.97873592E+00  5.00000000E-01  4.49106503E+00
      vertex  2.72607803E+00 -0.00000000E+00  5.19410801E+00
      vertex  3.88989401E+00  0.00000000E+00  4.39078283E+00
    endloop
  endfacet
  facet normal  5.48975468E-01 -2.57055998E-01  7.95328975E-01
    outer loop
      vertex  3.97873592E+00  5.00000000E-01  4.49106503E+00
      vertex  2.78833890E+00  5.00000000E-01  5.31273603E+00
      vertex  2.72607803E+00 -0.00000000E+00  5.19410801E+00
    endloop
  endfacet
  facet normal  7.23358035E-01 -2.57056773E-01  6.40839279E-01
    outer loop
      vertex  4.93790293E+00  5.00000000E-01  3.40838790E+00
      vertex  3.88989401E+00  0.00000000E+00  4.39078283E+00
      vertex  4.82764387E+00  0.00000000E+00  3.33228207E+00
    endloop
  endfacet
  facet normal  7.23358095E-01 -2.57058382E-01  6.40838563E-01
    outer loop
      vertex  4.93790293E+00  5.00000000E-01  3.40838790E+00
      vertex  3.97873592E+00  5.00000000E-01  4.49106503E+00
      vertex  3.88989401E+00  0.00000000E+00  4.39078283E+00
    endloop
  endfacet
  facet normal  8.55701447E-01 -2.57056326E-01  4.49106961E-01
    outer loop
      vertex  5.61009693E+00  5.00000000E-01  2.12762904E+00
      vertex  4.82764387E+00  0.00000000E+00  3.33228207E+00
      vertex  5.48482895E+00  0.00000000E+00  2.08012104E+00
    endloop
  endfacet
  facet normal  8.55701387E-01 -2.57056981E-01  4.49106663E-01
    outer loop
      vertex  5.61009693E+00  5.00000000E-01  2.12762904E+00
      vertex  4.93790293E+00  5.00000000E-01  3.40838790E+00
      vertex  4.82764387E+00  0.00000000E+00  3.33228207E+00
    endloop
  endfacet
  facet normal  9.38314736E-01 -2.57055849E-01  2.31274247E-01
    outer loop
      vertex  5.95625305E+00  5.00000000E-01  7.23219991E-01
      vertex  5.48482895E+00  0.00000000E+00  2.08012104E+00
      vertex  5.82325602E+00  0.00000000E+00  7.07071006E-01
    endloop
  endfacet
  facet normal  9.38314617E-01 -2.57056326E-01  2.31274039E-01
    outer loop
      vertex  5.95625305E+00  5.00000000E-01  7.23219991E-01
      vertex  5.61009693E+00  5.00000000E-01  2.12762904E+00
      vertex  5.48482895E+00  0.00000000E+00  2.08012104E+00
    endloop
  endfacet
  facet normal  9.66396570E-01 -2.57055759E-01  0.00000000E+00
    outer loop
      vertex  5.95625305E+00  5.00000000E-01 -7.23219991E-01
      vertex  5.82325602E+00  0.00000000E+00  7.07071006E-01
      vertex  5.82325602E+00  0.00000000E+00 -7.07071006E-01
    endloop
  endfacet
  facet normal  9.66396570E-01 -2.57055759E-01  0.00000000E+00
    outer loop
      vertex  5.95625305E+00  5.00000000E-01 -7.23219991E-01
      vertex  5.95625305E+00  5.00000000E-01  7.23219991E-01
      vertex  5.82325602E+00  0.00000000E+00  7.07071006E-01
    endloop
  endfacet
  facet normal  9.38314617E-01 -2.57056296E-01 -2.31274217E-01
    outer loop
      vertex  5.61009693E+00  5.00000000E-01 -2.12762904E+00
      vertex  5.82325602E+00  0.00000000E+00 -7.07071006E-01
      vertex  5.48482895E+00  0.00000000E+00 -2.08012104E+00
    endloop
  endfacet
  facet normal  9.38314795E-01 -2.57055819E-01 -2.31274068E-01
    outer loop
      vertex  5.61009693E+00  5.00000000E-01 -2.12762904E+00
      vertex  5.95625305E+00  5.00000000E-01 -7.23219991E-01
      vertex  5.82325602E+00  0.00000000E+00 -7.07071006E-01
    endloop
  endfacet
  facet normal  8.55701327E-01 -2.57056952E-01 -4.49106872E-01
    outer loop
      vertex  4.93790293E+00  5.00000000E-01 -3.40838790E+00
      vertex  5.48482895E+00  0.00000000E+00 -2.08012104E+00
      vertex  4.82764387E+00  0.00000000E+00 -3.33228207E+00
    endloop
  endfacet
  facet normal  8.55701566E-01 -2.57056355E-01 -4.49106753E-01
    outer loop
      vertex  4.93790293E+00  5.00000000E-01 -3.40838790E+00
      vertex  5.61009693E+00  5.00000000E-01 -2.12762904E+00
      vertex  5.48482895E+00  0.00000000E+00 -2.08012104E+00
    endloop
  endfacet
  facet normal  7.23357677E-01 -2.57058442E-01 -6.40838981E-01
    outer loop
      vertex  3.97873592E+00  5.00000000E-01 -4.49106503E+00
      vertex  4.82764387E+00  0.00000000E+00 -3.33228207E+00
      vertex  3.88989401E+00  0.00000000E+00 -4.39078283E+00
    endloop
  endfacet
  facet normal  7.23358393E-01 -2.57056803E-01 -6.40838802E-01
    outer loop
      vertex  3.97873592E+00  5.00000000E-01 -4.49106503E+00
      vertex  4.93790293E+00  5.00000000E-01 -3.40838790E+00
      vertex  4.82764387E+00  0.00000000E+00 -3.33228207E+00
    endloop
  endfacet
  facet normal  5.48975885E-01 -2.57058620E-01 -7.95327842E-01
    outer loop
      vertex  2.72607803E+00  0.00000000E+00 -5.19410801E+00
      vertex  3.97873592E+00  5.00000000E-01 -4.49106503E+00
      vertex  3.88989401E+00  0.00000000E+00 -4.39078283E+00
    endloop
  endfacet
  facet normal  5.48975468E-01 -2.57055998E-01 -7.95328975E-01
    outer loop
      vertex  2.78833890E+00  5.00000000E-01 -5.31273603E+00
      vertex  3.97873592E+00  5.00000000E-01 -4.49106503E+00
      vertex  2.72607803E+00  0.00000000E+00 -5.19410801E+00
    endloop
  endfacet
  facet normal  3.42689008E-01 -2.57056355E-01 -9.03596282E-01
    outer loop
      vertex  1.43589401E+00  5.00000000E-01 -5.82565117E+00
      vertex  2.72607803E+00  0.00000000E+00 -5.19410801E+00
      vertex  1.40383196E+00  0.00000000E+00 -5.69556999E+00
    endloop
  endfacet
  facet normal  3.42689186E-01 -2.57055968E-01 -9.03596342E-01
    outer loop
      vertex  1.43589401E+00  5.00000000E-01 -5.82565117E+00
      vertex  2.78833890E+00  5.00000000E-01 -5.31273603E+00
      vertex  2.72607803E+00  0.00000000E+00 -5.19410801E+00
    endloop
  endfacet
  facet normal  1.16485439E-01 -2.57057905E-01 -9.59349990E-01
    outer loop
      vertex  0.00000000E+00  5.00000000E-01 -6.00000000E+00
      vertex  1.40383196E+00  0.00000000E+00 -5.69556999E+00
      vertex  0.00000000E+00  0.00000000E+00 -5.86602497E+00
    endloop
  endfacet
  facet normal  1.16486035E-01 -2.57056415E-01 -9.59350288E-01
    outer loop
      vertex  0.00000000E+00  5.00000000E-01 -6.00000000E+00
      vertex  1.43589401E+00  5.00000000E-01 -5.82565117E+00
      vertex  1.40383196E+00  0.00000000E+00 -5.69556999E+00
    endloop
  endfacet
  facet normal  1.16485484E-01  2.57056385E-01 -9.59350348E-01
    outer loop
      vertex  1.43589401E+00  3.29999995E+00 -5.82565117E+00
      vertex  0.00000000E+00  3.79999995E+00 -5.86602497E+00
      vertex  1.40383196E+00  3.79999995E+00 -5.69556999E+00
    endloop
  endfacet
  facet normal  1.16485991E-01  2.57057875E-01 -9.59349930E-01
    outer loop
      vertex  1.43589401E+00  3.29999995E+00 -5.82565117E+00
      vertex  0.00000000E+00  3.29999995E+00 -6.00000000E+00
      vertex  0.00000000E+00  3.79999995E+00 -5.86602497E+00
    endloop
  endfacet
  facet normal  3.42689037E-01  2.57055938E-01 -9.03596401E-01
    outer loop
      vertex  2.78833890E+00  3.29999995E+00 -5.31273603E+00
      vertex  1.40383196E+00  3.79999995E+00 -5.69556999E+00
      vertex  2.72607803E+00  3.79999995E+00 -5.19410801E+00
    endloop
  endfacet
  facet normal  3.42689157E-01  2.57056355E-01 -9.03596222E-01
    outer loop
      vertex  2.78833890E+00  3.29999995E+00 -5.31273603E+00
      vertex  1.43589401E+00  3.29999995E+00 -5.82565117E+00
      vertex  1.40383196E+00  3.79999995E+00 -5.69556999E+00
    endloop
  endfacet
  facet normal  5.48975885E-01  2.57058591E-01 -7.95327842E-01
    outer loop
      vertex  3.97873592E+00  3.29999995E+00 -4.49106503E+00
      vertex  2.72607803E+00  3.79999995E+00 -5.19410801E+00
      vertex  3.88989401E+00  3.79999995E+00 -4.39078283E+00
    endloop
  endfacet
  facet normal  5.48975468E-01  2.57055998E-01 -7.95328975E-01
    outer loop
      vertex  3.97873592E+00  3.29999995E+00 -4.49106503E+00
      vertex  2.78833890E+00  3.29999995E+00 -5.31273603E+00
      vertex  2.72607803E+00  3.79999995E+00 -5.19410801E+00
    endloop
  endfacet
  facet normal  7.23358035E-01  2.57056773E-01 -6.40839279E-01
    outer loop
      vertex  4.93790293E+00  3.29999995E+00 -3.40838790E+00
      vertex  3.88989401E+00  3.79999995E+00 -4.39078283E+00
      vertex  4.82764387E+00  3.79999995E+00 -3.33228207E+00
    endloop
  endfacet
  facet normal  7.23358095E-01  2.57058382E-01 -6.40838563E-01
    outer loop
      vertex  4.93790293E+00  3.29999995E+00 -3.40838790E+00
      vertex  3.97873592E+00  3.29999995E+00 -4.49106503E+00
      vertex  3.88989401E+00  3.79999995E+00 -4.39078283E+00
    endloop
  endfacet
  facet normal  8.55701447E-01  2.57056326E-01 -4.49106961E-01
    outer loop
      vertex  5.61009693E+00  3.29999995E+00 -2.12762904E+00
      vertex  4.82764387E+00  3.79999995E+00 -3.33228207E+00
      vertex  5.48482895E+00  3.79999995E+00 -2.08012104E+00
    endloop
  endfacet
  facet normal  8.55701387E-01  2.57056981E-01 -4.49106663E-01
    outer loop
      vertex  5.61009693E+00  3.29999995E+00 -2.12762904E+00
      vertex  4.93790293E+00  3.29999995E+00 -3.40838790E+00
      vertex  4.82764387E+00  3.79999995E+00 -3.33228207E+00
    endloop
  endfacet
  facet normal  9.38314736E-01  2.57055849E-01 -2.31274247E-01
    outer loop
      vertex  5.95625305E+00  3.29999995E+00 -7.23219991E-01
      vertex  5.48482895E+00  3.79999995E+00 -2.08012104E+00
      vertex  5.82325602E+00  3.79999995E+00 -7.07071006E-01
    endloop
  endfacet
  facet normal  9.38314617E-01  2.57056326E-01 -2.31274039E-01
    outer loop
      vertex  5.95625305E+00  3.29999995E+00 -7.23219991E-01
      vertex  5.61009693E+00  3.29999995E+00 -2.12762904E+00
      vertex  5.48482895E+00  3.79999995E+00 -2.08012104E+00
    endloop
  endfacet
  facet normal  9.66396570E-01  2.57055759E-01  0.00000000E+00
    outer loop
      vertex  5.95625305E+00  3.29999995E+00  7.23219991E-01
      vertex  5.82325602E+00  3.79999995E+00 -7.07071006E-01
      vertex  5.82325602E+00  3.79999995E+00  7.07071006E-01
    endloop
  endfacet
  facet normal  9.66396570E-01  2.57055759E-01  0.00000000E+00
    outer loop
      vertex  5.95625305E+00  3.29999995E+00  7.23219991E-01
      vertex  5.95625305E+00  3.29999995E+00 -7.23219991E-01
      vertex  5.82325602E+00  3.79999995E+00 -7.07071006E-01
    endloop
  endfacet
  facet normal  9.38314617E-01  2.57056296E-01  2.31274217E-01
    outer loop
      vertex  5.61009693E+00  3.29999995E+00  2.12762904E+00
      vertex  5.82325602E+00  3.79999995E+00  7.07071006E-01
      vertex  5.48482895E+00  3.79999995E+00  2.08012104E+00
    endloop
  endfacet
  facet normal  9.38314795E-01  2.57055819E-01  2.31274068E-01
    outer loop
      vertex  5.61009693E+00  3.29999995E+00  2.12762904E+00
      vertex  5.95625305E+00  3.29999995E+00  7.23219991E-01
      vertex  5.82325602E+00  3.79999995E+00  7.07071006E-01
    endloop
  endfacet
  facet normal  8.55701327E-01  2.57056952E-01  4.49106872E-01
    outer loop
      vertex  4.93790293E+00  3.29999995E+00  3.40838790E+00
      vertex  5.48482895E+00  3.79999995E+00  2.08012104E+00
      vertex  4.82764387E+00  3.79999995E+00  3.33228207E+00
    endloop
  endfacet
  facet normal  8.55701566E-01  2.57056355E-01  4.49106753E-01
    outer loop
      vertex  4.93790293E+00  3.29999995E+00  3.40838790E+00
      vertex  5.61009693E+00  3.29999995E+00  2.12762904E+00
      vertex  5.48482895E+00  3.79999995E+00  2.08012104E+00
    endloop
  endfacet
  facet normal  7.23357677E-01  2.57058442E-01  6.40838981E-01
    outer loop
      vertex  3.97873592E+00  3.29999995E+00  4.49106503E+00
      vertex  4.82764387E+00  3.79999995E+00  3.33228207E+00
      vertex  3.88989401E+00  3.79999995E+00  4.39078283E+00
    endloop
  endfacet
  facet normal  7.23358393E-01  2.57056803E-01  6.40838802E-01
    outer loop
      vertex  3.97873592E+00  3.29999995E+00  4.49106503E+00
      vertex  4.93790293E+00  3.29999995E+00  3.40838790E+00
      vertex  4.82764387E+00  3.79999995E+00  3.33228207E+00
    endloop
  endfacet
  facet normal  5.48976243E-01  2.57055968E-01  7.95328438E-01
    outer loop
      vertex  2.78833890E+00  3.29999995E+00  5.31273603E+00
      vertex  3.88989401E+00  3.79999995E+00  4.39078283E+00
      vertex  2.72607803E+00  3.79999995E+00  5.19410801E+00
    endloop
  endfacet
  facet normal  5.48975050E-01  2.57058531E-01  7.95328438E-01
    outer loop
      vertex  2.78833890E+00  3.29999995E+00  5.31273603E+00
      vertex  3.97873592E+00  3.29999995E+00  4.49106503E+00
      vertex  3.88989401E+00  3.79999995E+00  4.39078283E+00
    endloop
  endfacet
  facet normal  3.42689008E-01  2.57056355E-01  9.03596282E-01
    outer loop
      vertex  1.43589401E+00  3.29999995E+00  5.82565117E+00
      vertex  2.72607803E+00  3.79999995E+00  5.19410801E+00
      vertex  1.40383196E+00  3.79999995E+00  5.69556999E+00
    endloop
  endfacet
  facet normal  3.42689186E-01  2.57055968E-01  9.03596342E-01
    outer loop
      vertex  1.43589401E+00  3.29999995E+00  5.82565117E+00
      vertex  2.78833890E+00  3.29999995E+00  5.31273603E+00
      vertex  2.72607803E+00  3.79999995E+00  5.19410801E+00
    endloop
  endfacet
  facet normal  1.16485439E-01  2.57057905E-01  9.59349990E-01
    outer loop
      vertex -0.00000000E+00  3.29999995E+00  6.00000000E+00
      vertex  1.40383196E+00  3.79999995E+00  5.69556999E+00
      vertex -0.00000000E+00  3.79999995E+00  5.86602497E+00
    endloop
  endfacet
  facet normal  1.16486035E-01  2.57056415E-01  9.59350288E-01
    outer loop
      vertex -0.00000000E+00  3.29999995E+00  6.00000000E+00
      vertex  1.43589401E+00  3.29999995E+00  5.82565117E+00
      vertex  1.40383196E+00  3.79999995E+00  5.69556999E+00
    endloop
  endfacet
  facet normal  1.20536506E-01  0.00000000E+00 -9.92708921E-01
    outer loop
      vertex  0.00000000E+00  5.00000000E-01 -6.00000000E+00
      vertex  0.00000000E+00  3.29999995E+00 -6.00000000E+00
      vertex  1.43589401E+00  3.29999995E+00 -5.82565117E+00
    endloop
  endfacet
  facet normal  3.54605138E-01  0.00000000E+00 -9.35016155E-01
    outer loop
      vertex  1.43589401E+00  5.00000000E-01 -5.82565117E+00
      vertex  1.43589401E+00  3.29999995E+00 -5.82565117E+00
      vertex  2.78833890E+00  3.29999995E+00 -5.31273603E+00
    endloop
  endfacet
  facet normal  1.20536506E-01  0.00000000E+00 -9.92708921E-01
    outer loop
      vertex  1.43589401E+00  5.00000000E-01 -5.82565117E+00
      vertex  0.00000000E+00  5.00000000E-01 -6.00000000E+00
      vertex  1.43589401E+00  3.29999995E+00 -5.82565117E+00
    endloop
  endfacet
  facet normal  5.68064392E-01  0.00000000E+00 -8.22984099E-01
    outer loop
      vertex  2.78833890E+00  5.00000000E-01 -5.31273603E+00
      vertex  2.78833890E+00  3.29999995E+00 -5.31273603E+00
      vertex  3.97873592E+00  3.29999995E+00 -4.49106503E+00
    endloop
  endfacet
  facet normal  3.54605138E-01  0.00000000E+00 -9.35016155E-01
    outer loop
      vertex  2.78833890E+00  5.00000000E-01 -5.31273603E+00
      vertex  1.43589401E+00  5.00000000E-01 -5.82565117E+00
      vertex  2.78833890E+00  3.29999995E+00 -5.31273603E+00
    endloop
  endfacet
  facet normal  5.68064392E-01  0.00000000E+00 -8.22984099E-01
    outer loop
      vertex  3.97873592E+00  5.00000000E-01 -4.49106503E+00
      vertex  2.78833890E+00  5.00000000E-01 -5.31273603E+00
      vertex  3.97873592E+00  3.29999995E+00 -4.49106503E+00
    endloop
  endfacet
  facet normal  7.48511195E-01  0.00000000E+00 -6.63122177E-01
    outer loop
      vertex  4.93790293E+00  5.00000000E-01 -3.40838790E+00
      vertex  3.97873592E+00  3.29999995E+00 -4.49106503E+00
      vertex  4.93790293E+00  3.29999995E+00 -3.40838790E+00
    endloop
  endfacet
  facet normal  8.85456026E-01  0.00000000E+00 -4.64723110E-01
    outer loop
      vertex  4.93790293E+00  5.00000000E-01 -3.40838790E+00
      vertex  4.93790293E+00  3.29999995E+00 -3.40838790E+00
      vertex  5.61009693E+00  3.29999995E+00 -2.12762904E+00
    endloop
  endfacet
  facet normal  7.48511195E-01 -1.29127793E-08 -6.63122177E-01
    outer loop
      vertex  4.93790293E+00  5.00000000E-01 -3.40838790E+00
      vertex  3.97873592E+00  5.00000000E-01 -4.49106503E+00
      vertex  3.97873592E+00  3.29999995E+00 -4.49106503E+00
    endloop
  endfacet
  facet normal  8.85456026E-01  0.00000000E+00 -4.64723110E-01
    outer loop
      vertex  5.61009693E+00  5.00000000E-01 -2.12762904E+00
      vertex  4.93790293E+00  5.00000000E-01 -3.40838790E+00
      vertex  5.61009693E+00  3.29999995E+00 -2.12762904E+00
    endloop
  endfacet
  facet normal  9.70941782E-01  0.00000000E+00 -2.39315912E-01
    outer loop
      vertex  5.95625305E+00  5.00000000E-01 -7.23219991E-01
      vertex  5.61009693E+00  3.29999995E+00 -2.12762904E+00
      vertex  5.95625305E+00  3.29999995E+00 -7.23219991E-01
    endloop
  endfacet
  facet normal  1.00000000E+00  0.00000000E+00  0.00000000E+00
    outer loop
      vertex  5.95625305E+00  5.00000000E-01 -7.23219991E-01
      vertex  5.95625305E+00  3.29999995E+00 -7.23219991E-01
      vertex  5.95625305E+00  3.29999995E+00  7.23219991E-01
    endloop
  endfacet
  facet normal  9.70941782E-01 -1.79649040E-09 -2.39315912E-01
    outer loop
      vertex  5.95625305E+00  5.00000000E-01 -7.23219991E-01
      vertex  5.61009693E+00  5.00000000E-01 -2.12762904E+00
      vertex  5.61009693E+00  3.29999995E+00 -2.12762904E+00
    endloop
  endfacet
  facet normal  1.00000000E+00 -0.00000000E+00  0.00000000E+00
    outer loop
      vertex  5.95625305E+00  5.00000000E-01  7.23219991E-01
      vertex  5.95625305E+00  5.00000000E-01 -7.23219991E-01
      vertex  5.95625305E+00  3.29999995E+00  7.23219991E-01
    endloop
  endfacet
  facet normal  9.70941782E-01 -0.00000000E+00  2.39315912E-01
    outer loop
      vertex  5.61009693E+00  5.00000000E-01  2.12762904E+00
      vertex  5.95625305E+00  3.29999995E+00  7.23219991E-01
      vertex  5.61009693E+00  3.29999995E+00  2.12762904E+00
    endloop
  endfacet
  facet normal  9.70941782E-01  1.79649040E-09  2.39315912E-01
    outer loop
      vertex  5.61009693E+00  5.00000000E-01  2.12762904E+00
      vertex  5.95625305E+00  5.00000000E-01  7.23219991E-01
      vertex  5.95625305E+00  3.29999995E+00  7.23219991E-01
    endloop
  endfacet
  facet normal  8.85456026E-01 -0.00000000E+00  4.64723110E-01
    outer loop
      vertex  4.93790293E+00  5.00000000E-01  3.40838790E+00
      vertex  5.61009693E+00  3.29999995E+00  2.12762904E+00
      vertex  4.93790293E+00  3.29999995E+00  3.40838790E+00
    endloop
  endfacet
  facet normal  7.48511195E-01 -0.00000000E+00  6.63122177E-01
    outer loop
      vertex  4.93790293E+00  5.00000000E-01  3.40838790E+00
      vertex  4.93790293E+00  3.29999995E+00  3.40838790E+00
      vertex  3.97873592E+00  3.29999995E+00  4.49106503E+00
    endloop
  endfacet
  facet normal  8.85456026E-01  5.46602097E-09  4.64723110E-01
    outer loop
      vertex  4.93790293E+00  5.00000000E-01  3.40838790E+00
      vertex  5.61009693E+00  5.00000000E-01  2.12762904E+00
      vertex  5.61009693E+00  3.29999995E+00  2.12762904E+00
    endloop
  endfacet
  facet normal  5.68064392E-01 -0.00000000E+00  8.22984099E-01
    outer loop
      vertex  3.97873592E+00  5.00000000E-01  4.49106503E+00
      vertex  3.97873592E+00  3.29999995E+00  4.49106503E+00
      vertex  2.78833890E+00  3.29999995E+00  5.31273603E+00
    endloop
  endfacet
  facet normal  7.48511195E-01 -0.00000000E+00  6.63122177E-01
    outer loop
      vertex  3.97873592E+00  5.00000000E-01  4.49106503E+00
      vertex  4.93790293E+00  5.00000000E-01  3.40838790E+00
      vertex  3.97873592E+00  3.29999995E+00  4.49106503E+00
    endloop
  endfacet
  facet normal  5.68064392E-01 -0.00000000E+00  8.22984099E-01
    outer loop
      vertex  2.78833890E+00  5.00000000E-01  5.31273603E+00
      vertex  3.97873592E+00  5.00000000E-01  4.49106503E+00
      vertex  2.78833890E+00  3.29999995E+00  5.31273603E+00
    endloop
  endfacet
  facet normal  3.54605138E-01 -0.00000000E+00  9.35016155E-01
    outer loop
      vertex  1.43589401E+00  5.00000000E-01  5.82565117E+00
      vertex  2.78833890E+00  3.29999995E+00  5.31273603E+00
      vertex  1.43589401E+00  3.29999995E+00  5.82565117E+00
    endloop
  endfacet
  facet normal  1.20536506E-01 -0.00000000E+00  9.92708921E-01
    outer loop
      vertex  1.43589401E+00  5.00000000E-01  5.82565117E+00
      vertex  1.43589401E+00  3.29999995E+00  5.82565117E+00
      vertex -0.00000000E+00  3.29999995E+00  6.00000000E+00
    endloop
  endfacet
  facet normal  3.54605138E-01 -3.55932395E-09  9.35016155E-01
    outer loop
      vertex  1.43589401E+00  5.00000000E-01  5.82565117E+00
      vertex  2.78833890E+00  5.00000000E-01  5.31273603E+00
      vertex  2.78833890E+00  3.29999995E+00  5.31273603E+00
    endloop
  endfacet
  facet normal  1.20536506E-01 -0.00000000E+00  9.92708921E-01
    outer loop
      vertex -0.00000000E+00  5.00000000E-01  6.00000000E+00
      vertex  1.43589401E+00  5.00000000E-01  5.82565117E+00
      vertex -0.00000000E+00  3.29999995E+00  6.00000000E+00
    endloop
  endfacet
  facet normal  1.30526468E-01  0.00000000E+00 -9.91444826E-01
    outer loop
      vertex -0.00000000E+00 -0.00000000E+00  4.50000000E+00
      vertex -1.16468596E+00 -0.00000000E+00  4.34666586E+00
      vertex -0.00000000E+00  3.79999995E+00  4.50000000E+00
    endloop
  endfacet
  facet normal  1.30526468E-01  8.33016434E-10 -9.91444826E-01
    outer loop
      vertex -0.00000000E+00  3.79999995E+00  4.50000000E+00
      vertex -1.16468596E+00 -0.00000000E+00  4.34666586E+00
      vertex -1.16468596E+00  3.79999995E+00  4.34666586E+00
    endloop
  endfacet
  facet normal  3.82683456E-01  1.24570521E-09 -9.23879504E-01
    outer loop
      vertex -1.16468596E+00  3.79999995E+00  4.34666586E+00
      vertex -2.25000000E+00 -0.00000000E+00  3.89711404E+00
      vertex -2.25000000E+00  3.79999995E+00  3.89711404E+00
    endloop
  endfacet
  facet normal  3.82683456E-01  0.00000000E+00 -9.23879504E-01
    outer loop
      vertex -1.16468596E+00 -0.00000000E+00  4.34666586E+00
      vertex -2.25000000E+00 -0.00000000E+00  3.89711404E+00
      vertex -1.16468596E+00  3.79999995E+00  4.34666586E+00
    endloop
  endfacet
  facet normal  6.08760774E-01 -2.13280194E-09 -7.93353856E-01
    outer loop
      vertex -2.25000000E+00  3.79999995E+00  3.89711404E+00
      vertex -3.18198109E+00 -0.00000000E+00  3.18198109E+00
      vertex -3.18198109E+00  3.79999995E+00  3.18198109E+00
    endloop
  endfacet
  facet normal  6.08760774E-01  0.00000000E+00 -7.93353856E-01
    outer loop
      vertex -2.25000000E+00 -0.00000000E+00  3.89711404E+00
      vertex -3.18198109E+00 -0.00000000E+00  3.18198109E+00
      vertex -2.25000000E+00  3.79999995E+00  3.89711404E+00
    endloop
  endfacet
  facet normal  7.93353856E-01 -2.13280194E-09 -6.08760774E-01
    outer loop
      vertex -3.18198109E+00  3.79999995E+00  3.18198109E+00
      vertex -3.89711404E+00 -0.00000000E+00  2.25000000E+00
      vertex -3.89711404E+00  3.79999995E+00  2.25000000E+00
    endloop
  endfacet
  facet normal  9.23879504E-01  0.00000000E+00 -3.82683456E-01
    outer loop
      vertex -3.89711404E+00  3.79999995E+00  2.25000000E+00
      vertex -3.89711404E+00 -0.00000000E+00  2.25000000E+00
      vertex -4.34666586E+00  3.79999995E+00  1.16468596E+00
    endloop
  endfacet
  facet normal  7.93353856E-01  0.00000000E+00 -6.08760774E-01
    outer loop
      vertex -3.18198109E+00 -0.00000000E+00  3.18198109E+00
      vertex -3.89711404E+00 -0.00000000E+00  2.25000000E+00
      vertex -3.18198109E+00  3.79999995E+00  3.18198109E+00
    endloop
  endfacet
  facet normal  9.23879504E-01  1.24570521E-09 -3.82683456E-01
    outer loop
      vertex -3.89711404E+00 -0.00000000E+00  2.25000000E+00
      vertex -4.34666586E+00 -0.00000000E+00  1.16468596E+00
      vertex -4.34666586E+00  3.79999995E+00  1.16468596E+00
    endloop
  endfacet
  facet normal  9.91444826E-01  8.33016434E-10 -1.30526468E-01
    outer loop
      vertex -4.34666586E+00  3.79999995E+00  1.16468596E+00
      vertex -4.50000000E+00 -0.00000000E+00 -0.00000000E+00
      vertex -4.50000000E+00  3.79999995E+00 -0.00000000E+00
    endloop
  endfacet
  facet normal  9.91444826E-01  0.00000000E+00 -1.30526468E-01
    outer loop
      vertex -4.34666586E+00 -0.00000000E+00  1.16468596E+00
      vertex -4.50000000E+00 -0.00000000E+00 -0.00000000E+00
      vertex -4.34666586E+00  3.79999995E+00  1.16468596E+00
    endloop
  endfacet
  facet normal  9.91444826E-01 -8.33016434E-10  1.30526468E-01
    outer loop
      vertex -4.50000000E+00  3.79999995E+00 -0.00000000E+00
      vertex -4.34666586E+00 -0.00000000E+00 -1.16468596E+00
      vertex -4.34666586E+00  3.79999995E+00 -1.16468596E+00
    endloop
  endfacet
  facet normal  9.91444826E-01 -0.00000000E+00  1.30526468E-01
    outer loop
      vertex -4.50000000E+00 -0.00000000E+00 -0.00000000E+00
      vertex -4.34666586E+00 -0.00000000E+00 -1.16468596E+00
      vertex -4.50000000E+00  3.79999995E+00 -0.00000000E+00
    endloop
  endfacet
  facet normal  9.23879504E-01 -1.24570521E-09  3.82683456E-01
    outer loop
      vertex -4.34666586E+00  3.79999995E+00 -1.16468596E+00
      vertex -3.89711404E+00 -0.00000000E+00 -2.25000000E+00
      vertex -3.89711404E+00  3.79999995E+00 -2.25000000E+00
    endloop
  endfacet
  facet normal  9.23879504E-01 -0.00000000E+00  3.82683456E-01
    outer loop
      vertex -4.34666586E+00 -0.00000000E+00 -1.16468596E+00
      vertex -3.89711404E+00 -0.00000000E+00 -2.25000000E+00
      vertex -4.34666586E+00  3.79999995E+00 -1.16468596E+00
    endloop
  endfacet
  facet normal  7.93353856E-01  2.13280194E-09  6.08760774E-01
    outer loop
      vertex -3.89711404E+00  3.79999995E+00 -2.25000000E+00
      vertex -3.18198109E+00 -0.00000000E+00 -3.18198109E+00
      vertex -3.18198109E+00  3.79999995E+00 -3.18198109E+00
    endloop
  endfacet
  facet normal  6.08760774E-01  0.00000000E+00  7.93353856E-01
    outer loop
      vertex -3.18198109E+00  3.79999995E+00 -3.18198109E+00
      vertex -3.18198109E+00 -0.00000000E+00 -3.18198109E+00
      vertex -2.25000000E+00  3.79999995E+00 -3.89711404E+00
    endloop
  endfacet
  facet normal  7.93353856E-01 -0.00000000E+00  6.08760774E-01
    outer loop
      vertex -3.89711404E+00 -0.00000000E+00 -2.25000000E+00
      vertex -3.18198109E+00 -0.00000000E+00 -3.18198109E+00
      vertex -3.89711404E+00  3.79999995E+00 -2.25000000E+00
    endloop
  endfacet
  facet normal  6.08760774E-01  2.13280194E-09  7.93353856E-01
    outer loop
      vertex -3.18198109E+00 -0.00000000E+00 -3.18198109E+00
      vertex -2.25000000E+00 -0.00000000E+00 -3.89711404E+00
      vertex -2.25000000E+00  3.79999995E+00 -3.89711404E+00
    endloop
  endfacet
  facet normal  3.82683456E-01 -1.24570521E-09  9.23879504E-01
    outer loop
      vertex -2.25000000E+00  3.79999995E+00 -3.89711404E+00
      vertex -1.16468596E+00  0.00000000E+00 -4.34666586E+00
      vertex -1.16468596E+00  3.79999995E+00 -4.34666586E+00
    endloop
  endfacet
  facet normal  1.30526468E-01  0.00000000E+00  9.91444826E-01
    outer loop
      vertex -1.16468596E+00  3.79999995E+00 -4.34666586E+00
      vertex -1.16468596E+00  0.00000000E+00 -4.34666586E+00
      vertex  0.00000000E+00  3.79999995E+00 -4.50000000E+00
    endloop
  endfacet
  facet normal  3.82683456E-01 -0.00000000E+00  9.23879504E-01
    outer loop
      vertex -2.25000000E+00 -0.00000000E+00 -3.89711404E+00
      vertex -1.16468596E+00  0.00000000E+00 -4.34666586E+00
      vertex -2.25000000E+00  3.79999995E+00 -3.89711404E+00
    endloop
  endfacet
  facet normal  1.30526468E-01 -8.33016434E-10  9.91444826E-01
    outer loop
      vertex -1.16468596E+00  0.00000000E+00 -4.34666586E+00
      vertex  0.00000000E+00 -0.00000000E+00 -4.50000000E+00
      vertex  0.00000000E+00  3.79999995E+00 -4.50000000E+00
    endloop
  endfacet
  facet normal -1.30526468E-01  0.00000000E+00  9.91444826E-01
    outer loop
      vertex  0.00000000E+00 -0.00000000E+00 -4.50000000E+00
      vertex  1.16468596E+00  0.00000000E+00 -4.34666586E+00
      vertex  0.00000000E+00  3.79999995E+00 -4.50000000E+00
    endloop
  endfacet
  facet normal -1.30526468E-01  8.33016434E-10  9.91444826E-01
    outer loop
      vertex  0.00000000E+00  3.79999995E+00 -4.50000000E+00
      vertex  1.16468596E+00  0.00000000E+00 -4.34666586E+00
      vertex  1.16468596E+00  3.79999995E+00 -4.34666586E+00
    endloop
  endfacet
  facet normal -3.82683456E-01  1.24570521E-09  9.23879504E-01
    outer loop
      vertex  1.16468596E+00  3.79999995E+00 -4.34666586E+00
      vertex  2.25000000E+00  0.00000000E+00 -3.89711404E+00
      vertex  2.25000000E+00  3.79999995E+00 -3.89711404E+00
    endloop
  endfacet
  facet normal -3.82683456E-01  0.00000000E+00  9.23879504E-01
    outer loop
      vertex  1.16468596E+00  0.00000000E+00 -4.34666586E+00
      vertex  2.25000000E+00  0.00000000E+00 -3.89711404E+00
      vertex  1.16468596E+00  3.79999995E+00 -4.34666586E+00
    endloop
  endfacet
  facet normal -6.08760774E-01 -2.13280194E-09  7.93353856E-01
    outer loop
      vertex  2.25000000E+00  3.79999995E+00 -3.89711404E+00
      vertex  3.18198109E+00  0.00000000E+00 -3.18198109E+00
      vertex  3.18198109E+00  3.79999995E+00 -3.18198109E+00
    endloop
  endfacet
  facet normal -6.08760774E-01  0.00000000E+00  7.93353856E-01
    outer loop
      vertex  2.25000000E+00  0.00000000E+00 -3.89711404E+00
      vertex  3.18198109E+00  0.00000000E+00 -3.18198109E+00
      vertex  2.25000000E+00  3.79999995E+00 -3.89711404E+00
    endloop
  endfacet
  facet normal -7.93353856E-01 -2.13280194E-09  6.08760774E-01
    outer loop
      vertex  3.18198109E+00  3.79999995E+00 -3.18198109E+00
      vertex  3.89711404E+00  0.00000000E+00 -2.25000000E+00
      vertex  3.89711404E+00  3.79999995E+00 -2.25000000E+00
    endloop
  endfacet
  facet normal -7.93353856E-01  0.00000000E+00  6.08760774E-01
    outer loop
      vertex  3.18198109E+00  0.00000000E+00 -3.18198109E+00
      vertex  3.89711404E+00  0.00000000E+00 -2.25000000E+00
      vertex  3.18198109E+00  3.79999995E+00 -3.18198109E+00
    endloop
  endfacet
  facet normal -9.23879504E-01  1.24570521E-09  3.82683456E-01
    outer loop
      vertex  3.89711404E+00  3.79999995E+00 -2.25000000E+00
      vertex  4.34666586E+00  0.00000000E+00 -1.16468596E+00
      vertex  4.34666586E+00  3.79999995E+00 -1.16468596E+00
    endloop
  endfacet
  facet normal -9.23879504E-01  0.00000000E+00  3.82683456E-01
    outer loop
      vertex  3.89711404E+00  0.00000000E+00 -2.25000000E+00
      vertex  4.34666586E+00  0.00000000E+00 -1.16468596E+00
      vertex  3.89711404E+00  3.79999995E+00 -2.25000000E+00
    endloop
  endfacet
  facet normal -9.91444826E-01  8.33016434E-10  1.30526468E-01
    outer loop
      vertex  4.34666586E+00  3.79999995E+00 -1.16468596E+00
      vertex  4.50000000E+00  0.00000000E+00 -0.00000000E+00
      vertex  4.50000000E+00  3.79999995E+00 -0.00000000E+00
    endloop
  endfacet
  facet normal -9.91444826E-01 -0.00000000E+00 -1.30526468E-01
    outer loop
      vertex  4.50000000E+00  3.79999995E+00 -0.00000000E+00
      vertex  4.50000000E+00  0.00000000E+00 -0.00000000E+00
      vertex  4.34666586E+00  3.79999995E+00  1.16468596E+00
    endloop
  endfacet
  facet normal -9.91444826E-01  0.00000000E+00  1.30526468E-01
    outer loop
      vertex  4.34666586E+00  0.00000000E+00 -1.16468596E+00
      vertex  4.50000000E+00  0.00000000E+00 -0.00000000E+00
      vertex  4.34666586E+00  3.79999995E+00 -1.16468596E+00
    endloop
  endfacet
  facet normal -9.23879504E-01 -0.00000000E+00 -3.82683456E-01
    outer loop
      vertex  4.34666586E+00  3.79999995E+00  1.16468596E+00
      vertex  4.34666586E+00  0.00000000E+00  1.16468596E+00
      vertex  3.89711404E+00  3.79999995E+00  2.25000000E+00
    endloop
  endfacet
  facet normal -9.91444826E-01 -8.33016434E-10 -1.30526468E-01
    outer loop
      vertex  4.50000000E+00  0.00000000E+00 -0.00000000E+00
      vertex  4.34666586E+00  0.00000000E+00  1.16468596E+00
      vertex  4.34666586E+00  3.79999995E+00  1.16468596E+00
    endloop
  endfacet
  facet normal -9.23879504E-01 -1.24570521E-09 -3.82683456E-01
    outer loop
      vertex  4.34666586E+00  0.00000000E+00  1.16468596E+00
      vertex  3.89711404E+00  0.00000000E+00  2.25000000E+00
      vertex  3.89711404E+00  3.79999995E+00  2.25000000E+00
    endloop
  endfacet
  facet normal -7.93353856E-01  2.13280194E-09 -6.08760774E-01
    outer loop
      vertex  3.89711404E+00  3.79999995E+00  2.25000000E+00
      vertex  3.18198109E+00  0.00000000E+00  3.18198109E+00
      vertex  3.18198109E+00  3.79999995E+00  3.18198109E+00
    endloop
  endfacet
  facet normal -6.08760774E-01 -0.00000000E+00 -7.93353856E-01
    outer loop
      vertex  3.18198109E+00  3.79999995E+00  3.18198109E+00
      vertex  3.18198109E+00  0.00000000E+00  3.18198109E+00
      vertex  2.25000000E+00  3.79999995E+00  3.89711404E+00
    endloop
  endfacet
  facet normal -7.93353856E-01  0.00000000E+00 -6.08760774E-01
    outer loop
      vertex  3.89711404E+00  0.00000000E+00  2.25000000E+00
      vertex  3.18198109E+00  0.00000000E+00  3.18198109E+00
      vertex  3.89711404E+00  3.79999995E+00  2.25000000E+00
    endloop
  endfacet
  facet normal -3.82683456E-01 -0.00000000E+00 -9.23879504E-01
    outer loop
      vertex  2.25000000E+00  3.79999995E+00  3.89711404E+00
      vertex  2.25000000E+00  0.00000000E+00  3.89711404E+00
      vertex  1.16468596E+00  3.79999995E+00  4.34666586E+00
    endloop
  endfacet
  facet normal -6.08760774E-01  2.13280194E-09 -7.93353856E-01
    outer loop
      vertex  3.18198109E+00  0.00000000E+00  3.18198109E+00
      vertex  2.25000000E+00  0.00000000E+00  3.89711404E+00
      vertex  2.25000000E+00  3.79999995E+00  3.89711404E+00
    endloop
  endfacet
  facet normal -3.82683456E-01 -1.24570521E-09 -9.23879504E-01
    outer loop
      vertex  2.25000000E+00  0.00000000E+00  3.89711404E+00
      vertex  1.16468596E+00 -0.00000000E+00  4.34666586E+00
      vertex  1.16468596E+00  3.79999995E+00  4.34666586E+00
    endloop
  endfacet
  facet normal -1.30526468E-01 -8.33016434E-10 -9.91444826E-01
    outer loop
      vertex  1.16468596E+00  3.79999995E+00  4.34666586E+00
      vertex -0.00000000E+00 -0.00000000E+00  4.50000000E+00
      vertex -0.00000000E+00  3.79999995E+00  4.50000000E+00
    endloop
  endfacet
  facet normal -1.30526468E-01  0.00000000E+00 -9.91444826E-01
    outer loop
      vertex  1.16468596E+00 -0.00000000E+00  4.34666586E+00
      vertex -0.00000000E+00 -0.00000000E+00  4.50000000E+00
      vertex  1.16468596E+00  3.79999995E+00  4.34666586E+00
    endloop
  endfacet
  facet normal  0.00000000E+00  1.00000000E+00  0.00000000E+00
    outer loop
      vertex -3.88989401E+00  3.79999995E+00  4.39078283E+00
      vertex -3.18198109E+00  3.79999995E+00  3.18198109E+00
      vertex -4.82764387E+00  3.79999995E+00  3.33228207E+00
    endloop
  endfacet
  facet normal  0.00000000E+00  1.00000000E+00  0.00000000E+00
    outer loop
      vertex -2.72607803E+00  3.79999995E+00  5.19410801E+00
      vertex -2.25000000E+00  3.79999995E+00  3.89711404E+00
      vertex -3.88989401E+00  3.79999995E+00  4.39078283E+00
    endloop
  endfacet
  facet normal  0.00000000E+00  1.00000000E+00  0.00000000E+00
    outer loop
      vertex -3.88989401E+00  3.79999995E+00  4.39078283E+00
      vertex -2.25000000E+00  3.79999995E+00  3.89711404E+00
      vertex -3.18198109E+00  3.79999995E+00  3.18198109E+00
    endloop
  endfacet
  facet normal  0.00000000E+00  1.00000000E+00  0.00000000E+00
    outer loop
      vertex -4.82764387E+00  3.79999995E+00  3.33228207E+00
      vertex -3.89711404E+00  3.79999995E+00  2.25000000E+00
      vertex -5.48482895E+00  3.79999995E+00  2.08012104E+00
    endloop
  endfacet
  facet normal  0.00000000E+00  1.00000000E+00  0.00000000E+00
    outer loop
      vertex -3.18198109E+00  3.79999995E+00  3.18198109E+00
      vertex -3.89711404E+00  3.79999995E+00  2.25000000E+00
      vertex -4.82764387E+00  3.79999995E+00  3.33228207E+00
    endloop
  endfacet
  facet normal  0.00000000E+00  1.00000000E+00  0.00000000E+00
    outer loop
      vertex -5.48482895E+00  3.79999995E+00  2.08012104E+00
      vertex -4.34666586E+00  3.79999995E+00  1.16468596E+00
      vertex -5.82325602E+00  3.79999995E+00  7.07071006E-01
    endloop
  endfacet
  facet normal  0.00000000E+00  1.00000000E+00  0.00000000E+00
    outer loop
      vertex -3.89711404E+00  3.79999995E+00  2.25000000E+00
      vertex -4.34666586E+00  3.79999995E+00  1.16468596E+00
      vertex -5.48482895E+00  3.79999995E+00  2.08012104E+00
    endloop
  endfacet
  facet normal  0.00000000E+00  1.00000000E+00  0.00000000E+00
    outer loop
      vertex -1.40383196E+00  3.79999995E+00  5.69556999E+00
      vertex -1.16468596E+00  3.79999995E+00  4.34666586E+00
      vertex -2.72607803E+00  3.79999995E+00  5.19410801E+00
    endloop
  endfacet
  facet normal  0.00000000E+00  1.00000000E+00  0.00000000E+00
    outer loop
      vertex -2.72607803E+00  3.79999995E+00  5.19410801E+00
      vertex -1.16468596E+00  3.79999995E+00  4.34666586E+00
      vertex -2.25000000E+00  3.79999995E+00  3.89711404E+00
    endloop
  endfacet
  facet normal  0.00000000E+00  1.00000000E+00  0.00000000E+00
    outer loop
      vertex -5.82325602E+00  3.79999995E+00  7.07071006E-01
      vertex -4.50000000E+00  3.79999995E+00 -0.00000000E+00
      vertex -5.82325602E+00  3.79999995E+00 -7.07071006E-01
    endloop
  endfacet
  facet normal  0.00000000E+00  1.00000000E+00  0.00000000E+00
    outer loop
      vertex -4.34666586E+00  3.79999995E+00  1.16468596E+00
      vertex -4.50000000E+00  3.79999995E+00 -0.00000000E+00
      vertex -5.82325602E+00  3.79999995E+00  7.07071006E-01
    endloop
  endfacet
  facet normal  0.00000000E+00  1.00000000E+00  0.00000000E+00
    outer loop
      vertex -0.00000000E+00  3.79999995E+00  5.86602497E+00
      vertex -0.00000000E+00  3.79999995E+00  4.50000000E+00
      vertex -1.40383196E+00  3.79999995E+00  5.69556999E+00
    endloop
  endfacet
  facet normal  0.00000000E+00  1.00000000E+00  0.00000000E+00
    outer loop
      vertex -1.40383196E+00  3.79999995E+00  5.69556999E+00
      vertex -0.00000000E+00  3.79999995E+00  4.50000000E+00
      vertex -1.16468596E+00  3.79999995E+00  4.34666586E+00
    endloop
  endfacet
  facet normal  0.00000000E+00  1.00000000E+00  0.00000000E+00
    outer loop
      vertex -0.00000000E+00  3.79999995E+00  5.86602497E+00
      vertex  1.40383196E+00  3.79999995E+00  5.69556999E+00
      vertex -0.00000000E+00  3.79999995E+00  4.50000000E+00
    endloop
  endfacet
  facet normal  0.00000000E+00  1.00000000E+00  0.00000000E+00
    outer loop
      vertex -5.82325602E+00  3.79999995E+00 -7.07071006E-01
      vertex -4.34666586E+00  3.79999995E+00 -1.16468596E+00
      vertex -5.48482895E+00  3.79999995E+00 -2.08012104E+00
    endloop
  endfacet
  facet normal  0.00000000E+00  1.00000000E+00  0.00000000E+00
    outer loop
      vertex -4.50000000E+00  3.79999995E+00 -0.00000000E+00
      vertex -4.34666586E+00  3.79999995E+00 -1.16468596E+00
      vertex -5.82325602E+00  3.79999995E+00 -7.07071006E-01
    endloop
  endfacet
  facet normal  0.00000000E+00  1.00000000E+00  0.00000000E+00
    outer loop
      vertex  1.40383196E+00  3.79999995E+00  5.69556999E+00
      vertex  1.16468596E+00  3.79999995E+00  4.34666586E+00
      vertex -0.00000000E+00  3.79999995E+00  4.50000000E+00
    endloop
  endfacet
  facet normal  0.00000000E+00  1.00000000E+00  0.00000000E+00
    outer loop
      vertex  1.40383196E+00  3.79999995E+00  5.69556999E+00
      vertex  2.72607803E+00  3.79999995E+00  5.19410801E+00
      vertex  1.16468596E+00  3.79999995E+00  4.34666586E+00
    endloop
  endfacet
  facet normal  0.00000000E+00  1.00000000E+00  0.00000000E+00
    outer loop
      vertex -4.34666586E+00  3.79999995E+00 -1.16468596E+00
      vertex -3.89711404E+00  3.79999995E+00 -2.25000000E+00
      vertex -5.48482895E+00  3.79999995E+00 -2.08012104E+00
    endloop
  endfacet
  facet normal  0.00000000E+00  1.00000000E+00  0.00000000E+00
    outer loop
      vertex  2.72607803E+00  3.79999995E+00  5.19410801E+00
      vertex  2.25000000E+00  3.79999995E+00  3.89711404E+00
      vertex  1.16468596E+00  3.79999995E+00  4.34666586E+00
    endloop
  endfacet
  facet normal  0.00000000E+00  1.00000000E+00  0.00000000E+00
    outer loop
      vertex -3.89711404E+00  3.79999995E+00 -2.25000000E+00
      vertex -4.82764387E+00  3.79999995E+00 -3.33228207E+00
      vertex -5.48482895E+00  3.79999995E+00 -2.08012104E+00
    endloop
  endfacet
  facet normal  0.00000000E+00  1.00000000E+00  0.00000000E+00
    outer loop
      vertex  2.72607803E+00  3.79999995E+00  5.19410801E+00
      vertex  3.88989401E+00  3.79999995E+00  4.39078283E+00
      vertex  2.25000000E+00  3.79999995E+00  3.89711404E+00
    endloop
  endfacet
  facet normal  0.00000000E+00  1.00000000E+00  0.00000000E+00
    outer loop
      vertex -3.89711404E+00  3.79999995E+00 -2.25000000E+00
      vertex -3.18198109E+00  3.79999995E+00 -3.18198109E+00
      vertex -4.82764387E+00  3.79999995E+00 -3.33228207E+00
    endloop
  endfacet
  facet normal  0.00000000E+00  1.00000000E+00  0.00000000E+00
    outer loop
      vertex  3.88989401E+00  3.79999995E+00  4.39078283E+00
      vertex  3.18198109E+00  3.79999995E+00  3.18198109E+00
      vertex  2.25000000E+00  3.79999995E+00  3.89711404E+00
    endloop
  endfacet
  facet normal  0.00000000E+00  1.00000000E+00  0.00000000E+00
    outer loop
      vertex -3.18198109E+00  3.79999995E+00 -3.18198109E+00
      vertex -3.88989401E+00  3.79999995E+00 -4.39078283E+00
      vertex -4.82764387E+00  3.79999995E+00 -3.33228207E+00
    endloop
  endfacet
  facet normal  0.00000000E+00  1.00000000E+00  0.00000000E+00
    outer loop
      vertex  3.88989401E+00  3.79999995E+00  4.39078283E+00
      vertex  4.82764387E+00  3.79999995E+00  3.33228207E+00
      vertex  3.18198109E+00  3.79999995E+00  3.18198109E+00
    endloop
  endfacet
  facet normal  0.00000000E+00  1.00000000E+00  0.00000000E+00
    outer loop
      vertex -3.18198109E+00  3.79999995E+00 -3.18198109E+00
      vertex -2.25000000E+00  3.79999995E+00 -3.89711404E+00
      vertex -3.88989401E+00  3.79999995E+00 -4.39078283E+00
    endloop
  endfacet
  facet normal  0.00000000E+00  1.00000000E+00  0.00000000E+00
    outer loop
      vertex  4.82764387E+00  3.79999995E+00  3.33228207E+00
      vertex  3.89711404E+00  3.79999995E+00  2.25000000E+00
      vertex  3.18198109E+00  3.79999995E+00  3.18198109E+00
    endloop
  endfacet
  facet normal  0.00000000E+00  1.00000000E+00  0.00000000E+00
    outer loop
      vertex -2.25000000E+00  3.79999995E+00 -3.89711404E+00
      vertex -2.72607803E+00  3.79999995E+00 -5.19410801E+00
      vertex -3.88989401E+00  3.79999995E+00 -4.39078283E+00
    endloop
  endfacet
  facet normal  0.00000000E+00  1.00000000E+00  0.00000000E+00
    outer loop
      vertex -2.25000000E+00  3.79999995E+00 -3.89711404E+00
      vertex -1.16468596E+00  3.79999995E+00 -4.34666586E+00
      vertex -2.72607803E+00  3.79999995E+00 -5.19410801E+00
    endloop
  endfacet
  facet normal  0.00000000E+00  1.00000000E+00  0.00000000E+00
    outer loop
      vertex  4.82764387E+00  3.79999995E+00  3.33228207E+00
      vertex  5.48482895E+00  3.79999995E+00  2.08012104E+00
      vertex  3.89711404E+00  3.79999995E+00  2.25000000E+00
    endloop
  endfacet
  facet normal  0.00000000E+00  1.00000000E+00  0.00000000E+00
    outer loop
      vertex  3.89711404E+00  3.79999995E+00  2.25000000E+00
      vertex  5.48482895E+00  3.79999995E+00  2.08012104E+00
      vertex  4.34666586E+00  3.79999995E+00  1.16468596E+00
    endloop
  endfacet
  facet normal  0.00000000E+00  1.00000000E+00  0.00000000E+00
    outer loop
      vertex -1.16468596E+00  3.79999995E+00 -4.34666586E+00
      vertex -1.40383196E+00  3.79999995E+00 -5.69556999E+00
      vertex -2.72607803E+00  3.79999995E+00 -5.19410801E+00
    endloop
  endfacet
  facet normal  0.00000000E+00  1.00000000E+00  0.00000000E+00
    outer loop
      vertex -1.16468596E+00  3.79999995E+00 -4.34666586E+00
      vertex  0.00000000E+00  3.79999995E+00 -4.50000000E+00
      vertex -1.40383196E+00  3.79999995E+00 -5.69556999E+00
    endloop
  endfacet
  facet normal  0.00000000E+00  1.00000000E+00  0.00000000E+00
    outer loop
      vertex  5.48482895E+00  3.79999995E+00  2.08012104E+00
      vertex  5.82325602E+00  3.79999995E+00  7.07071006E-01
      vertex  4.34666586E+00  3.79999995E+00  1.16468596E+00
    endloop
  endfacet
  facet normal  0.00000000E+00  1.00000000E+00  0.00000000E+00
    outer loop
      vertex  4.34666586E+00  3.79999995E+00  1.16468596E+00
      vertex  5.82325602E+00  3.79999995E+00  7.07071006E-01
      vertex  4.50000000E+00  3.79999995E+00 -0.00000000E+00
    endloop
  endfacet
  facet normal  0.00000000E+00  1.00000000E+00  0.00000000E+00
    outer loop
      vertex  0.00000000E+00  3.79999995E+00 -4.50000000E+00
      vertex  0.00000000E+00  3.79999995E+00 -5.86602497E+00
      vertex -1.40383196E+00  3.79999995E+00 -5.69556999E+00
    endloop
  endfacet
  facet normal  0.00000000E+00  1.00000000E+00  0.00000000E+00
    outer loop
      vertex  5.82325602E+00  3.79999995E+00  7.07071006E-01
      vertex  5.82325602E+00  3.79999995E+00 -7.07071006E-01
      vertex  4.50000000E+00  3.79999995E+00 -0.00000000E+00
    endloop
  endfacet
  facet normal  0.00000000E+00  1.00000000E+00  0.00000000E+00
    outer loop
      vertex  4.50000000E+00  3.79999995E+00 -0.00000000E+00
      vertex  5.82325602E+00  3.79999995E+00 -7.07071006E-01
      vertex  4.34666586E+00  3.79999995E+00 -1.16468596E+00
    endloop
  endfacet
  facet normal  0.00000000E+00  1.00000000E+00  0.00000000E+00
    outer loop
      vertex  1.16468596E+00  3.79999995E+00 -4.34666586E+00
      vertex  1.40383196E+00  3.79999995E+00 -5.69556999E+00
      vertex  0.00000000E+00  3.79999995E+00 -4.50000000E+00
    endloop
  endfacet
  facet normal  0.00000000E+00  1.00000000E+00  0.00000000E+00
    outer loop
      vertex  0.00000000E+00  3.79999995E+00 -4.50000000E+00
      vertex  1.40383196E+00  3.79999995E+00 -5.69556999E+00
      vertex  0.00000000E+00  3.79999995E+00 -5.86602497E+00
    endloop
  endfacet
  facet normal  0.00000000E+00  1.00000000E+00  0.00000000E+00
    outer loop
      vertex  4.34666586E+00  3.79999995E+00 -1.16468596E+00
      vertex  5.48482895E+00  3.79999995E+00 -2.08012104E+00
      vertex  3.89711404E+00  3.79999995E+00 -2.25000000E+00
    endloop
  endfacet
  facet normal  0.00000000E+00  1.00000000E+00  0.00000000E+00
    outer loop
      vertex  5.82325602E+00  3.79999995E+00 -7.07071006E-01
      vertex  5.48482895E+00  3.79999995E+00 -2.08012104E+00
      vertex  4.34666586E+00  3.79999995E+00 -1.16468596E+00
    endloop
  endfacet
  facet normal  0.00000000E+00  1.00000000E+00  0.00000000E+00
    outer loop
      vertex  1.16468596E+00  3.79999995E+00 -4.34666586E+00
      vertex  2.72607803E+00  3.79999995E+00 -5.19410801E+00
      vertex  1.40383196E+00  3.79999995E+00 -5.69556999E+00
    endloop
  endfacet
  facet normal  0.00000000E+00  1.00000000E+00  0.00000000E+00
    outer loop
      vertex  2.25000000E+00  3.79999995E+00 -3.89711404E+00
      vertex  2.72607803E+00  3.79999995E+00 -5.19410801E+00
      vertex  1.16468596E+00  3.79999995E+00 -4.34666586E+00
    endloop
  endfacet
  facet normal  0.00000000E+00  1.00000000E+00  0.00000000E+00
    outer loop
      vertex  5.48482895E+00  3.79999995E+00 -2.08012104E+00
      vertex  4.82764387E+00  3.79999995E+00 -3.33228207E+00
      vertex  3.89711404E+00  3.79999995E+00 -2.25000000E+00
    endloop
  endfacet
  facet normal  0.00000000E+00  1.00000000E+00  0.00000000E+00
    outer loop
      vertex  3.89711404E+00  3.79999995E+00 -2.25000000E+00
      vertex  4.82764387E+00  3.79999995E+00 -3.33228207E+00
      vertex  3.18198109E+00  3.79999995E+00 -3.18198109E+00
    endloop
  endfacet
  facet normal  0.00000000E+00  1.00000000E+00  0.00000000E+00
    outer loop
      vertex  3.18198109E+00  3.79999995E+00 -3.18198109E+00
      vertex  3.88989401E+00  3.79999995E+00 -4.39078283E+00
      vertex  2.25000000E+00  3.79999995E+00 -3.89711404E+00
    endloop
  endfacet
  facet normal  0.00000000E+00  1.00000000E+00  0.00000000E+00
    outer loop
      vertex  4.82764387E+00  3.79999995E+00 -3.33228207E+00
      vertex  3.88989401E+00  3.79999995E+00 -4.39078283E+00
      vertex  3.18198109E+00  3.79999995E+00 -3.18198109E+00
    endloop
  endfacet
  facet normal  0.00000000E+00  1.00000000E+00  0.00000000E+00
    outer loop
      vertex  2.25000000E+00  3.79999995E+00 -3.89711404E+00
      vertex  3.88989401E+00  3.79999995E+00 -4.39078283E+00
      vertex  2.72607803E+00  3.79999995E+00 -5.19410801E+00
    endloop
  endfacet
  facet normal -1.20536506E-01  0.00000000E+00  9.92708921E-01
    outer loop
      vertex -0.00000000E+00  5.00000000E-01  6.00000000E+00
      vertex -0.00000000E+00  3.29999995E+00  6.00000000E+00
      vertex -1.43589401E+00  3.29999995E+00  5.82565117E+00
    endloop
  endfacet
  facet normal -3.54605138E-01  0.00000000E+00  9.35016155E-01
    outer loop
      vertex -1.43589401E+00  5.00000000E-01  5.82565117E+00
      vertex -1.43589401E+00  3.29999995E+00  5.82565117E+00
      vertex -2.78833890E+00  3.29999995E+00  5.31273603E+00
    endloop
  endfacet
  facet normal -1.20536506E-01  0.00000000E+00  9.92708921E-01
    outer loop
      vertex -1.43589401E+00  5.00000000E-01  5.82565117E+00
      vertex -0.00000000E+00  5.00000000E-01  6.00000000E+00
      vertex -1.43589401E+00  3.29999995E+00  5.82565117E+00
    endloop
  endfacet
  facet normal -5.68064392E-01  0.00000000E+00  8.22984099E-01
    outer loop
      vertex -2.78833890E+00  5.00000000E-01  5.31273603E+00
      vertex -2.78833890E+00  3.29999995E+00  5.31273603E+00
      vertex -3.97873592E+00  3.29999995E+00  4.49106503E+00
    endloop
  endfacet
  facet normal -3.54605138E-01  0.00000000E+00  9.35016155E-01
    outer loop
      vertex -2.78833890E+00  5.00000000E-01  5.31273603E+00
      vertex -1.43589401E+00  5.00000000E-01  5.82565117E+00
      vertex -2.78833890E+00  3.29999995E+00  5.31273603E+00
    endloop
  endfacet
  facet normal -7.48511195E-01  0.00000000E+00  6.63122177E-01
    outer loop
      vertex -3.97873592E+00  5.00000000E-01  4.49106503E+00
      vertex -3.97873592E+00  3.29999995E+00  4.49106503E+00
      vertex -4.93790293E+00  3.29999995E+00  3.40838790E+00
    endloop
  endfacet
  facet normal -5.68064392E-01  0.00000000E+00  8.22984099E-01
    outer loop
      vertex -3.97873592E+00  5.00000000E-01  4.49106503E+00
      vertex -2.78833890E+00  5.00000000E-01  5.31273603E+00
      vertex -3.97873592E+00  3.29999995E+00  4.49106503E+00
    endloop
  endfacet
  facet normal -8.85456026E-01  0.00000000E+00  4.64723110E-01
    outer loop
      vertex -4.93790293E+00  5.00000000E-01  3.40838790E+00
      vertex -4.93790293E+00  3.29999995E+00  3.40838790E+00
      vertex -5.61009693E+00  3.29999995E+00  2.12762904E+00
    endloop
  endfacet
  facet normal -7.48511195E-01  0.00000000E+00  6.63122177E-01
    outer loop
      vertex -4.93790293E+00  5.00000000E-01  3.40838790E+00
      vertex -3.97873592E+00  5.00000000E-01  4.49106503E+00
      vertex -4.93790293E+00  3.29999995E+00  3.40838790E+00
    endloop
  endfacet
  facet normal -9.70941782E-01  0.00000000E+00  2.39315912E-01
    outer loop
      vertex -5.61009693E+00  5.00000000E-01  2.12762904E+00
      vertex -5.61009693E+00  3.29999995E+00  2.12762904E+00
      vertex -5.95625305E+00  3.29999995E+00  7.23219991E-01
    endloop
  endfacet
  facet normal -8.85456026E-01  0.00000000E+00  4.64723110E-01
    outer loop
      vertex -5.61009693E+00  5.00000000E-01  2.12762904E+00
      vertex -4.93790293E+00  5.00000000E-01  3.40838790E+00
      vertex -5.61009693E+00  3.29999995E+00  2.12762904E+00
    endloop
  endfacet
  facet normal -1.00000000E+00  0.00000000E+00  0.00000000E+00
    outer loop
      vertex -5.95625305E+00  5.00000000E-01  7.23219991E-01
      vertex -5.95625305E+00  3.29999995E+00  7.23219991E-01
      vertex -5.95625305E+00  3.29999995E+00 -7.23219991E-01
    endloop
  endfacet
  facet normal -9.70941782E-01  0.00000000E+00  2.39315912E-01
    outer loop
      vertex -5.95625305E+00  5.00000000E-01  7.23219991E-01
      vertex -5.61009693E+00  5.00000000E-01  2.12762904E+00
      vertex -5.95625305E+00  3.29999995E+00  7.23219991E-01
    endloop
  endfacet
  facet normal -9.70941782E-01  0.00000000E+00 -2.39315912E-01
    outer loop
      vertex -5.95625305E+00  5.00000000E-01 -7.23219991E-01
      vertex -5.95625305E+00  3.29999995E+00 -7.23219991E-01
      vertex -5.61009693E+00  3.29999995E+00 -2.12762904E+00
    endloop
  endfacet
  facet normal -1.00000000E+00  0.00000000E+00  0.00000000E+00
    outer loop
      vertex -5.95625305E+00  5.00000000E-01 -7.23219991E-01
      vertex -5.95625305E+00  5.00000000E-01  7.23219991E-01
      vertex -5.95625305E+00  3.29999995E+00 -7.23219991E-01
    endloop
  endfacet
  facet normal -8.85456026E-01  0.00000000E+00 -4.64723110E-01
    outer loop
      vertex -5.61009693E+00  5.00000000E-01 -2.12762904E+00
      vertex -5.61009693E+00  3.29999995E+00 -2.12762904E+00
      vertex -4.93790293E+00  3.29999995E+00 -3.40838790E+00
    endloop
  endfacet
  facet normal -9.70941782E-01  0.00000000E+00 -2.39315912E-01
    outer loop
      vertex -5.61009693E+00  5.00000000E-01 -2.12762904E+00
      vertex -5.95625305E+00  5.00000000E-01 -7.23219991E-01
      vertex -5.61009693E+00  3.29999995E+00 -2.12762904E+00
    endloop
  endfacet
  facet normal -7.48511195E-01  0.00000000E+00 -6.63122177E-01
    outer loop
      vertex -4.93790293E+00  5.00000000E-01 -3.40838790E+00
      vertex -4.93790293E+00  3.29999995E+00 -3.40838790E+00
      vertex -3.97873592E+00  3.29999995E+00 -4.49106503E+00
    endloop
  endfacet
  facet normal -8.85456026E-01  0.00000000E+00 -4.64723110E-01
    outer loop
      vertex -4.93790293E+00  5.00000000E-01 -3.40838790E+00
      vertex -5.61009693E+00  5.00000000E-01 -2.12762904E+00
      vertex -4.93790293E+00  3.29999995E+00 -3.40838790E+00
    endloop
  endfacet
  facet normal -5.68064392E-01  0.00000000E+00 -8.22984099E-01
    outer loop
      vertex -3.97873592E+00  5.00000000E-01 -4.49106503E+00
      vertex -3.97873592E+00  3.29999995E+00 -4.49106503E+00
      vertex -2.78833890E+00  3.29999995E+00 -5.31273603E+00
    endloop
  endfacet
  facet normal -7.48511195E-01  0.00000000E+00 -6.63122177E-01
    outer loop
      vertex -3.97873592E+00  5.00000000E-01 -4.49106503E+00
      vertex -4.93790293E+00  5.00000000E-01 -3.40838790E+00
      vertex -3.97873592E+00  3.29999995E+00 -4.49106503E+00
    endloop
  endfacet
  facet normal -5.68064392E-01  0.00000000E+00 -8.22984099E-01
    outer loop
      vertex -2.78833890E+00  5.00000000E-01 -5.31273603E+00
      vertex -3.97873592E+00  5.00000000E-01 -4.49106503E+00
      vertex -2.78833890E+00  3.29999995E+00 -5.31273603E+00
    endloop
  endfacet
  facet normal -3.54605138E-01  0.00000000E+00 -9.35016155E-01
    outer loop
      vertex -1.43589401E+00  5.00000000E-01 -5.82565117E+00
      vertex -2.78833890E+00  3.29999995E+00 -5.31273603E+00
      vertex -1.43589401E+00  3.29999995E+00 -5.82565117E+00
    endloop
  endfacet
  facet normal -1.20536506E-01  0.00000000E+00 -9.92708921E-01
    outer loop
      vertex -1.43589401E+00  5.00000000E-01 -5.82565117E+00
      vertex -1.43589401E+00  3.29999995E+00 -5.82565117E+00
      vertex  0.00000000E+00  3.29999995E+00 -6.00000000E+00
    endloop
  endfacet
  facet normal -3.54605138E-01 -3.55932395E-09 -9.35016155E-01
    outer loop
      vertex -1.43589401E+00  5.00000000E-01 -5.82565117E+00
      vertex -2.78833890E+00  5.00000000E-01 -5.31273603E+00
      vertex -2.78833890E+00  3.29999995E+00 -5.31273603E+00
    endloop
  endfacet
  facet normal -1.20536506E-01  0.00000000E+00 -9.92708921E-01
    outer loop
      vertex  0.00000000E+00  5.00000000E-01 -6.00000000E+00
      vertex -1.43589401E+00  5.00000000E-01 -5.82565117E+00
      vertex  0.00000000E+00  3.29999995E+00 -6.00000000E+00
    endloop
  endfacet
  facet normal  0.00000000E+00 -1.00000000E+00  0.00000000E+00
    outer loop
      vertex -3.88989401E+00 -0.00000000E+00 -4.39078283E+00
      vertex -3.18198109E+00 -0.00000000E+00 -3.18198109E+00
      vertex -4.82764387E+00 -0.00000000E+00 -3.33228207E+00
    endloop
  endfacet
  facet normal  0.00000000E+00 -1.00000000E+00 -0.00000000E+00
    outer loop
      vertex -2.72607803E+00  0.00000000E+00 -5.19410801E+00
      vertex -2.25000000E+00 -0.00000000E+00 -3.89711404E+00
      vertex -3.88989401E+00 -0.00000000E+00 -4.39078283E+00
    endloop
  endfacet
  facet normal  0.00000000E+00 -1.00000000E+00  0.00000000E+00
    outer loop
      vertex -3.88989401E+00 -0.00000000E+00 -4.39078283E+00
      vertex -2.25000000E+00 -0.00000000E+00 -3.89711404E+00
      vertex -3.18198109E+00 -0.00000000E+00 -3.18198109E+00
    endloop
  endfacet
  facet normal  0.00000000E+00 -1.00000000E+00  0.00000000E+00
    outer loop
      vertex -4.82764387E+00 -0.00000000E+00 -3.33228207E+00
      vertex -3.89711404E+00 -0.00000000E+00 -2.25000000E+00
      vertex -5.48482895E+00 -0.00000000E+00 -2.08012104E+00
    endloop
  endfacet
  facet normal -0.00000000E+00 -1.00000000E+00  0.00000000E+00
    outer loop
      vertex -3.18198109E+00 -0.00000000E+00 -3.18198109E+00
      vertex -3.89711404E+00 -0.00000000E+00 -2.25000000E+00
      vertex -4.82764387E+00 -0.00000000E+00 -3.33228207E+00
    endloop
  endfacet
  facet normal  0.00000000E+00 -1.00000000E+00  0.00000000E+00
    outer loop
      vertex -1.40383196E+00  0.00000000E+00 -5.69556999E+00
      vertex -1.16468596E+00  0.00000000E+00 -4.34666586E+00
      vertex -2.72607803E+00  0.00000000E+00 -5.19410801E+00
    endloop
  endfacet
  facet normal  0.00000000E+00 -1.00000000E+00 -0.00000000E+00
    outer loop
      vertex -2.72607803E+00  0.00000000E+00 -5.19410801E+00
      vertex -1.16468596E+00  0.00000000E+00 -4.34666586E+00
      vertex -2.25000000E+00 -0.00000000E+00 -3.89711404E+00
    endloop
  endfacet
  facet normal  0.00000000E+00 -1.00000000E+00  0.00000000E+00
    outer loop
      vertex -5.48482895E+00 -0.00000000E+00 -2.08012104E+00
      vertex -4.34666586E+00 -0.00000000E+00 -1.16468596E+00
      vertex -5.82325602E+00 -0.00000000E+00 -7.07071006E-01
    endloop
  endfacet
  facet normal  0.00000000E+00 -1.00000000E+00  0.00000000E+00
    outer loop
      vertex -3.89711404E+00 -0.00000000E+00 -2.25000000E+00
      vertex -4.34666586E+00 -0.00000000E+00 -1.16468596E+00
      vertex -5.48482895E+00 -0.00000000E+00 -2.08012104E+00
    endloop
  endfacet
  facet normal  0.00000000E+00 -1.00000000E+00  0.00000000E+00
    outer loop
      vertex -5.82325602E+00 -0.00000000E+00 -7.07071006E-01
      vertex -4.50000000E+00 -0.00000000E+00 -0.00000000E+00
      vertex -5.82325602E+00 -0.00000000E+00  7.07071006E-01
    endloop
  endfacet
  facet normal  0.00000000E+00 -1.00000000E+00  0.00000000E+00
    outer loop
      vertex -4.34666586E+00 -0.00000000E+00 -1.16468596E+00
      vertex -4.50000000E+00 -0.00000000E+00 -0.00000000E+00
      vertex -5.82325602E+00 -0.00000000E+00 -7.07071006E-01
    endloop
  endfacet
  facet normal -0.00000000E+00 -1.00000000E+00  0.00000000E+00
    outer loop
      vertex  0.00000000E+00  0.00000000E+00 -5.86602497E+00
      vertex  0.00000000E+00 -0.00000000E+00 -4.50000000E+00
      vertex -1.40383196E+00  0.00000000E+00 -5.69556999E+00
    endloop
  endfacet
  facet normal -0.00000000E+00 -1.00000000E+00  0.00000000E+00
    outer loop
      vertex -1.40383196E+00  0.00000000E+00 -5.69556999E+00
      vertex  0.00000000E+00 -0.00000000E+00 -4.50000000E+00
      vertex -1.16468596E+00  0.00000000E+00 -4.34666586E+00
    endloop
  endfacet
  facet normal  0.00000000E+00 -1.00000000E+00 -0.00000000E+00
    outer loop
      vertex  0.00000000E+00  0.00000000E+00 -5.86602497E+00
      vertex  1.40383196E+00  0.00000000E+00 -5.69556999E+00
      vertex  0.00000000E+00 -0.00000000E+00 -4.50000000E+00
    endloop
  endfacet
  facet normal  0.00000000E+00 -1.00000000E+00  0.00000000E+00
    outer loop
      vertex -5.82325602E+00 -0.00000000E+00  7.07071006E-01
      vertex -4.34666586E+00 -0.00000000E+00  1.16468596E+00
      vertex -5.48482895E+00 -0.00000000E+00  2.08012104E+00
    endloop
  endfacet
  facet normal  0.00000000E+00 -1.00000000E+00  0.00000000E+00
    outer loop
      vertex -4.50000000E+00 -0.00000000E+00 -0.00000000E+00
      vertex -4.34666586E+00 -0.00000000E+00  1.16468596E+00
      vertex -5.82325602E+00 -0.00000000E+00  7.07071006E-01
    endloop
  endfacet
  facet normal  0.00000000E+00 -1.00000000E+00  0.00000000E+00
    outer loop
      vertex  1.40383196E+00  0.00000000E+00 -5.69556999E+00
      vertex  1.16468596E+00  0.00000000E+00 -4.34666586E+00
      vertex  0.00000000E+00 -0.00000000E+00 -4.50000000E+00
    endloop
  endfacet
  facet normal  0.00000000E+00 -1.00000000E+00  0.00000000E+00
    outer loop
      vertex  1.40383196E+00  0.00000000E+00 -5.69556999E+00
      vertex  2.72607803E+00  0.00000000E+00 -5.19410801E+00
      vertex  1.16468596E+00  0.00000000E+00 -4.34666586E+00
    endloop
  endfacet
  facet normal  0.00000000E+00 -1.00000000E+00  0.00000000E+00
    outer loop
      vertex -4.34666586E+00 -0.00000000E+00  1.16468596E+00
      vertex -3.89711404E+00 -0.00000000E+00  2.25000000E+00
      vertex -5.48482895E+00 -0.00000000E+00  2.08012104E+00
    endloop
  endfacet
  facet normal  0.00000000E+00 -1.00000000E+00  0.00000000E+00
    outer loop
      vertex  2.72607803E+00  0.00000000E+00 -5.19410801E+00
      vertex  2.25000000E+00  0.00000000E+00 -3.89711404E+00
      vertex  1.16468596E+00  0.00000000E+00 -4.34666586E+00
    endloop
  endfacet
  facet normal -0.00000000E+00 -1.00000000E+00  0.00000000E+00
    outer loop
      vertex -3.89711404E+00 -0.00000000E+00  2.25000000E+00
      vertex -4.82764387E+00 -0.00000000E+00  3.33228207E+00
      vertex -5.48482895E+00 -0.00000000E+00  2.08012104E+00
    endloop
  endfacet
  facet normal  0.00000000E+00 -1.00000000E+00  0.00000000E+00
    outer loop
      vertex  2.72607803E+00  0.00000000E+00 -5.19410801E+00
      vertex  3.88989401E+00  0.00000000E+00 -4.39078283E+00
      vertex  2.25000000E+00  0.00000000E+00 -3.89711404E+00
    endloop
  endfacet
  facet normal  0.00000000E+00 -1.00000000E+00  0.00000000E+00
    outer loop
      vertex -3.89711404E+00 -0.00000000E+00  2.25000000E+00
      vertex -3.18198109E+00 -0.00000000E+00  3.18198109E+00
      vertex -4.82764387E+00 -0.00000000E+00  3.33228207E+00
    endloop
  endfacet
  facet normal  0.00000000E+00 -1.00000000E+00  0.00000000E+00
    outer loop
      vertex  3.88989401E+00  0.00000000E+00 -4.39078283E+00
      vertex  3.18198109E+00  0.00000000E+00 -3.18198109E+00
      vertex  2.25000000E+00  0.00000000E+00 -3.89711404E+00
    endloop
  endfacet
  facet normal  0.00000000E+00 -1.00000000E+00  0.00000000E+00
    outer loop
      vertex -3.18198109E+00 -0.00000000E+00  3.18198109E+00
      vertex -3.88989401E+00 -0.00000000E+00  4.39078283E+00
      vertex -4.82764387E+00 -0.00000000E+00  3.33228207E+00
    endloop
  endfacet
  facet normal  0.00000000E+00 -1.00000000E+00  0.00000000E+00
    outer loop
      vertex  3.88989401E+00  0.00000000E+00 -4.39078283E+00
      vertex  4.82764387E+00  0.00000000E+00 -3.33228207E+00
      vertex  3.18198109E+00  0.00000000E+00 -3.18198109E+00
    endloop
  endfacet
  facet normal  0.00000000E+00 -1.00000000E+00  0.00000000E+00
    outer loop
      vertex -3.18198109E+00 -0.00000000E+00  3.18198109E+00
      vertex -2.25000000E+00 -0.00000000E+00  3.89711404E+00
      vertex -3.88989401E+00 -0.00000000E+00  4.39078283E+00
    endloop
  endfacet
  facet normal  0.00000000E+00 -1.00000000E+00  0.00000000E+00
    outer loop
      vertex  4.82764387E+00  0.00000000E+00 -3.33228207E+00
      vertex  3.89711404E+00  0.00000000E+00 -2.25000000E+00
      vertex  3.18198109E+00  0.00000000E+00 -3.18198109E+00
    endloop
  endfacet
  facet normal  0.00000000E+00 -1.00000000E+00  0.00000000E+00
    outer loop
      vertex -2.25000000E+00 -0.00000000E+00  3.89711404E+00
      vertex -2.72607803E+00 -0.00000000E+00  5.19410801E+00
      vertex -3.88989401E+00 -0.00000000E+00  4.39078283E+00
    endloop
  endfacet
  facet normal  0.00000000E+00 -1.00000000E+00  0.00000000E+00
    outer loop
      vertex -2.25000000E+00 -0.00000000E+00  3.89711404E+00
      vertex -1.16468596E+00 -0.00000000E+00  4.34666586E+00
      vertex -2.72607803E+00 -0.00000000E+00  5.19410801E+00
    endloop
  endfacet
  facet normal  0.00000000E+00 -1.00000000E+00  0.00000000E+00
    outer loop
      vertex  4.82764387E+00  0.00000000E+00 -3.33228207E+00
      vertex  5.48482895E+00  0.00000000E+00 -2.08012104E+00
      vertex  3.89711404E+00  0.00000000E+00 -2.25000000E+00
    endloop
  endfacet
  facet normal  0.00000000E+00 -1.00000000E+00  0.00000000E+00
    outer loop
      vertex  3.89711404E+00  0.00000000E+00 -2.25000000E+00
      vertex  5.48482895E+00  0.00000000E+00 -2.08012104E+00
      vertex  4.34666586E+00  0.00000000E+00 -1.16468596E+00
    endloop
  endfacet
  facet normal  0.00000000E+00 -1.00000000E+00  0.00000000E+00
    outer loop
      vertex -1.16468596E+00 -0.00000000E+00  4.34666586E+00
      vertex -1.40383196E+00 -0.00000000E+00  5.69556999E+00
      vertex -2.72607803E+00 -0.00000000E+00  5.19410801E+00
    endloop
  endfacet
  facet normal  0.00000000E+00 -1.00000000E+00  0.00000000E+00
    outer loop
      vertex -1.16468596E+00 -0.00000000E+00  4.34666586E+00
      vertex -0.00000000E+00 -0.00000000E+00  4.50000000E+00
      vertex -1.40383196E+00 -0.00000000E+00  5.69556999E+00
    endloop
  endfacet
  facet normal  0.00000000E+00 -1.00000000E+00  0.00000000E+00
    outer loop
      vertex  5.48482895E+00  0.00000000E+00 -2.08012104E+00
      vertex  5.82325602E+00  0.00000000E+00 -7.07071006E-01
      vertex  4.34666586E+00  0.00000000E+00 -1.16468596E+00
    endloop
  endfacet
  facet normal  0.00000000E+00 -1.00000000E+00  0.00000000E+00
    outer loop
      vertex  4.34666586E+00  0.00000000E+00 -1.16468596E+00
      vertex  5.82325602E+00  0.00000000E+00 -7.07071006E-01
      vertex  4.50000000E+00  0.00000000E+00 -0.00000000E+00
    endloop
  endfacet
  facet normal  0.00000000E+00 -1.00000000E+00  0.00000000E+00
    outer loop
      vertex -0.00000000E+00 -0.00000000E+00  4.50000000E+00
      vertex -0.00000000E+00  0.00000000E+00  5.86602497E+00
      vertex -1.40383196E+00 -0.00000000E+00  5.69556999E+00
    endloop
  endfacet
  facet normal  0.00000000E+00 -1.00000000E+00  0.00000000E+00
    outer loop
      vertex  5.82325602E+00  0.00000000E+00 -7.07071006E-01
      vertex  5.82325602E+00  0.00000000E+00  7.07071006E-01
      vertex  4.50000000E+00  0.00000000E+00 -0.00000000E+00
    endloop
  endfacet
  facet normal  0.00000000E+00 -1.00000000E+00  0.00000000E+00
    outer loop
      vertex  4.50000000E+00  0.00000000E+00 -0.00000000E+00
      vertex  5.82325602E+00  0.00000000E+00  7.07071006E-01
      vertex  4.34666586E+00  0.00000000E+00  1.16468596E+00
    endloop
  endfacet
  facet normal  0.00000000E+00 -1.00000000E+00  0.00000000E+00
    outer loop
      vertex -0.00000000E+00 -0.00000000E+00  4.50000000E+00
      vertex  1.40383196E+00 -0.00000000E+00  5.69556999E+00
      vertex -0.00000000E+00  0.00000000E+00  5.86602497E+00
    endloop
  endfacet
  facet normal  0.00000000E+00 -1.00000000E+00  0.00000000E+00
    outer loop
      vertex  1.16468596E+00 -0.00000000E+00  4.34666586E+00
      vertex  1.40383196E+00 -0.00000000E+00  5.69556999E+00
      vertex -0.00000000E+00 -0.00000000E+00  4.50000000E+00
    endloop
  endfacet
  facet normal  0.00000000E+00 -1.00000000E+00  0.00000000E+00
    outer loop
      vertex  5.82325602E+00  0.00000000E+00  7.07071006E-01
      vertex  5.48482895E+00  0.00000000E+00  2.08012104E+00
      vertex  4.34666586E+00  0.00000000E+00  1.16468596E+00
    endloop
  endfacet
  facet normal  0.00000000E+00 -1.00000000E+00  0.00000000E+00
    outer loop
      vertex  4.34666586E+00  0.00000000E+00  1.16468596E+00
      vertex  5.48482895E+00  0.00000000E+00  2.08012104E+00
      vertex  3.89711404E+00  0.00000000E+00  2.25000000E+00
    endloop
  endfacet
  facet normal  0.00000000E+00 -1.00000000E+00  0.00000000E+00
    outer loop
      vertex  1.16468596E+00 -0.00000000E+00  4.34666586E+00
      vertex  2.72607803E+00 -0.00000000E+00  5.19410801E+00
      vertex  1.40383196E+00 -0.00000000E+00  5.69556999E+00
    endloop
  endfacet
  facet normal  0.00000000E+00 -1.00000000E+00 -0.00000000E+00
    outer loop
      vertex  2.25000000E+00  0.00000000E+00  3.89711404E+00
      vertex  2.72607803E+00 -0.00000000E+00  5.19410801E+00
      vertex  1.16468596E+00 -0.00000000E+00  4.34666586E+00
    endloop
  endfacet
  facet normal  0.00000000E+00 -1.00000000E+00  0.00000000E+00
    outer loop
      vertex  3.89711404E+00  0.00000000E+00  2.25000000E+00
      vertex  4.82764387E+00  0.00000000E+00  3.33228207E+00
      vertex  3.18198109E+00  0.00000000E+00  3.18198109E+00
    endloop
  endfacet
  facet normal  0.00000000E+00 -1.00000000E+00  0.00000000E+00
    outer loop
      vertex  5.48482895E+00  0.00000000E+00  2.08012104E+00
      vertex  4.82764387E+00  0.00000000E+00  3.33228207E+00
      vertex  3.89711404E+00  0.00000000E+00  2.25000000E+00
    endloop
  endfacet
  facet normal  0.00000000E+00 -1.00000000E+00  0.00000000E+00
    outer loop
      vertex  3.18198109E+00  0.00000000E+00  3.18198109E+00
      vertex  3.88989401E+00  0.00000000E+00  4.39078283E+00
      vertex  2.25000000E+00  0.00000000E+00  3.89711404E+00
    endloop
  endfacet
  facet normal  0.00000000E+00 -1.00000000E+00 -0.00000000E+00
    outer loop
      vertex  2.25000000E+00  0.00000000E+00  3.89711404E+00
      vertex  3.88989401E+00  0.00000000E+00  4.39078283E+00
      vertex  2.72607803E+00 -0.00000000E+00  5.19410801E+00
    endloop
  endfacet
  facet normal -0.00000000E+00 -1.00000000E+00  0.00000000E+00
    outer loop
      vertex  4.82764387E+00  0.00000000E+00  3.33228207E+00
      vertex  3.88989401E+00  0.00000000E+00  4.39078283E+00
      vertex  3.18198109E+00  0.00000000E+00  3.18198109E+00
    endloop
  endfacet
  facet normal -1.16485991E-01  2.57057875E-01  9.59349930E-01
    outer loop
      vertex -1.43589401E+00  3.29999995E+00  5.82565117E+00
      vertex -0.00000000E+00  3.29999995E+00  6.00000000E+00
      vertex -0.00000000E+00  3.79999995E+00  5.86602497E+00
    endloop
  endfacet
  facet normal -1.16485484E-01  2.57056385E-01  9.59350348E-01
    outer loop
      vertex -1.43589401E+00  3.29999995E+00  5.82565117E+00
      vertex -0.00000000E+00  3.79999995E+00  5.86602497E+00
      vertex -1.40383196E+00  3.79999995E+00  5.69556999E+00
    endloop
  endfacet
  facet normal -3.42689037E-01  2.57055938E-01  9.03596401E-01
    outer loop
      vertex -2.78833890E+00  3.29999995E+00  5.31273603E+00
      vertex -1.40383196E+00  3.79999995E+00  5.69556999E+00
      vertex -2.72607803E+00  3.79999995E+00  5.19410801E+00
    endloop
  endfacet
  facet normal -3.42689157E-01  2.57056355E-01  9.03596222E-01
    outer loop
      vertex -2.78833890E+00  3.29999995E+00  5.31273603E+00
      vertex -1.43589401E+00  3.29999995E+00  5.82565117E+00
      vertex -1.40383196E+00  3.79999995E+00  5.69556999E+00
    endloop
  endfacet
  facet normal -5.48975885E-01  2.57058591E-01  7.95327842E-01
    outer loop
      vertex -3.97873592E+00  3.29999995E+00  4.49106503E+00
      vertex -2.72607803E+00  3.79999995E+00  5.19410801E+00
      vertex -3.88989401E+00  3.79999995E+00  4.39078283E+00
    endloop
  endfacet
  facet normal -5.48975468E-01  2.57055998E-01  7.95328975E-01
    outer loop
      vertex -3.97873592E+00  3.29999995E+00  4.49106503E+00
      vertex -2.78833890E+00  3.29999995E+00  5.31273603E+00
      vertex -2.72607803E+00  3.79999995E+00  5.19410801E+00
    endloop
  endfacet
  facet normal -7.23358035E-01  2.57056773E-01  6.40839279E-01
    outer loop
      vertex -4.93790293E+00  3.29999995E+00  3.40838790E+00
      vertex -3.88989401E+00  3.79999995E+00  4.39078283E+00
      vertex -4.82764387E+00  3.79999995E+00  3.33228207E+00
    endloop
  endfacet
  facet normal -7.23358095E-01  2.57058382E-01  6.40838563E-01
    outer loop
      vertex -4.93790293E+00  3.29999995E+00  3.40838790E+00
      vertex -3.97873592E+00  3.29999995E+00  4.49106503E+00
      vertex -3.88989401E+00  3.79999995E+00  4.39078283E+00
    endloop
  endfacet
  facet normal -8.55701447E-01  2.57056326E-01  4.49106961E-01
    outer loop
      vertex -5.61009693E+00  3.29999995E+00  2.12762904E+00
      vertex -4.82764387E+00  3.79999995E+00  3.33228207E+00
      vertex -5.48482895E+00  3.79999995E+00  2.08012104E+00
    endloop
  endfacet
  facet normal -8.55701387E-01  2.57056981E-01  4.49106663E-01
    outer loop
      vertex -5.61009693E+00  3.29999995E+00  2.12762904E+00
      vertex -4.93790293E+00  3.29999995E+00  3.40838790E+00
      vertex -4.82764387E+00  3.79999995E+00  3.33228207E+00
    endloop
  endfacet
  facet normal -9.38314736E-01  2.57055849E-01  2.31274247E-01
    outer loop
      vertex -5.95625305E+00  3.29999995E+00  7.23219991E-01
      vertex -5.48482895E+00  3.79999995E+00  2.08012104E+00
      vertex -5.82325602E+00  3.79999995E+00  7.07071006E-01
    endloop
  endfacet
  facet normal -9.38314617E-01  2.57056326E-01  2.31274039E-01
    outer loop
      vertex -5.95625305E+00  3.29999995E+00  7.23219991E-01
      vertex -5.61009693E+00  3.29999995E+00  2.12762904E+00
      vertex -5.48482895E+00  3.79999995E+00  2.08012104E+00
    endloop
  endfacet
  facet normal -9.66396570E-01  2.57055759E-01  0.00000000E+00
    outer loop
      vertex -5.95625305E+00  3.29999995E+00 -7.23219991E-01
      vertex -5.82325602E+00  3.79999995E+00  7.07071006E-01
      vertex -5.82325602E+00  3.79999995E+00 -7.07071006E-01
    endloop
  endfacet
  facet normal -9.66396570E-01  2.57055759E-01  0.00000000E+00
    outer loop
      vertex -5.95625305E+00  3.29999995E+00 -7.23219991E-01
      vertex -5.95625305E+00  3.29999995E+00  7.23219991E-01
      vertex -5.82325602E+00  3.79999995E+00  7.07071006E-01
    endloop
  endfacet
  facet normal -9.38314617E-01  2.57056296E-01 -2.31274217E-01
    outer loop
      vertex -5.61009693E+00  3.29999995E+00 -2.12762904E+00
      vertex -5.82325602E+00  3.79999995E+00 -7.07071006E-01
      vertex -5.48482895E+00  3.79999995E+00 -2.08012104E+00
    endloop
  endfacet
  facet normal -9.38314795E-01  2.57055819E-01 -2.31274068E-01
    outer loop
      vertex -5.61009693E+00  3.29999995E+00 -2.12762904E+00
      vertex -5.95625305E+00  3.29999995E+00 -7.23219991E-01
      vertex -5.82325602E+00  3.79999995E+00 -7.07071006E-01
    endloop
  endfacet
  facet normal -8.55701327E-01  2.57056952E-01 -4.49106872E-01
    outer loop
      vertex -4.93790293E+00  3.29999995E+00 -3.40838790E+00
      vertex -5.48482895E+00  3.79999995E+00 -2.08012104E+00
      vertex -4.82764387E+00  3.79999995E+00 -3.33228207E+00
    endloop
  endfacet
  facet normal -8.55701566E-01  2.57056355E-01 -4.49106753E-01
    outer loop
      vertex -4.93790293E+00  3.29999995E+00 -3.40838790E+00
      vertex -5.61009693E+00  3.29999995E+00 -2.12762904E+00
      vertex -5.48482895E+00  3.79999995E+00 -2.08012104E+00
    endloop
  endfacet
  facet normal -7.23357677E-01  2.57058442E-01 -6.40838981E-01
    outer loop
      vertex -3.97873592E+00  3.29999995E+00 -4.49106503E+00
      vertex -4.82764387E+00  3.79999995E+00 -3.33228207E+00
      vertex -3.88989401E+00  3.79999995E+00 -4.39078283E+00
    endloop
  endfacet
  facet normal -7.23358393E-01  2.57056803E-01 -6.40838802E-01
    outer loop
      vertex -3.97873592E+00  3.29999995E+00 -4.49106503E+00
      vertex -4.93790293E+00  3.29999995E+00 -3.40838790E+00
      vertex -4.82764387E+00  3.79999995E+00 -3.33228207E+00
    endloop
  endfacet
  facet normal -5.48976243E-01  2.57055968E-01 -7.95328438E-01
    outer loop
      vertex -2.78833890E+00  3.29999995E+00 -5.31273603E+00
      vertex -3.88989401E+00  3.79999995E+00 -4.39078283E+00
      vertex -2.72607803E+00  3.79999995E+00 -5.19410801E+00
    endloop
  endfacet
  facet normal -5.48975050E-01  2.57058531E-01 -7.95328438E-01
    outer loop
      vertex -2.78833890E+00  3.29999995E+00 -5.31273603E+00
      vertex -3.97873592E+00  3.29999995E+00 -4.49106503E+00
      vertex -3.88989401E+00  3.79999995E+00 -4.39078283E+00
    endloop
  endfacet
  facet normal -3.42689008E-01  2.57056355E-01 -9.03596282E-01
    outer loop
      vertex -1.43589401E+00  3.29999995E+00 -5.82565117E+00
      vertex -2.72607803E+00  3.79999995E+00 -5.19410801E+00
      vertex -1.40383196E+00  3.79999995E+00 -5.69556999E+00
    endloop
  endfacet
  facet normal -3.42689186E-01  2.57055968E-01 -9.03596342E-01
    outer loop
      vertex -1.43589401E+00  3.29999995E+00 -5.82565117E+00
      vertex -2.78833890E+00  3.29999995E+00 -5.31273603E+00
      vertex -2.72607803E+00  3.79999995E+00 -5.19410801E+00
    endloop
  endfacet
  facet normal -1.16485439E-01  2.57057905E-01 -9.59349990E-01
    outer loop
      vertex  0.00000000E+00  3.29999995E+00 -6.00000000E+00
      vertex -1.40383196E+00  3.79999995E+00 -5.69556999E+00
      vertex  0.00000000E+00  3.79999995E+00 -5.86602497E+00
    endloop
  endfacet
  facet normal -1.16486035E-01  2.57056415E-01 -9.59350288E-01
    outer loop
      vertex  0.00000000E+00  3.29999995E+00 -6.00000000E+00
      vertex -1.43589401E+00  3.29999995E+00 -5.82565117E+00
      vertex -1.40383196E+00  3.79999995E+00 -5.69556999E+00
    endloop
  endfacet
  facet normal -1.16485991E-01 -2.57057875E-01 -9.59349930E-01
    outer loop
      vertex -1.43589401E+00  5.00000000E-01 -5.82565117E+00
      vertex  0.00000000E+00  5.00000000E-01 -6.00000000E+00
      vertex  0.00000000E+00  0.00000000E+00 -5.86602497E+00
    endloop
  endfacet
  facet normal -1.16485484E-01 -2.57056385E-01 -9.59350348E-01
    outer loop
      vertex -1.43589401E+00  5.00000000E-01 -5.82565117E+00
      vertex  0.00000000E+00  0.00000000E+00 -5.86602497E+00
      vertex -1.40383196E+00  0.00000000E+00 -5.69556999E+00
    endloop
  endfacet
  facet normal -3.42689037E-01 -2.57055938E-01 -9.03596401E-01
    outer loop
      vertex -2.78833890E+00  5.00000000E-01 -5.31273603E+00
      vertex -1.40383196E+00  0.00000000E+00 -5.69556999E+00
      vertex -2.72607803E+00  0.00000000E+00 -5.19410801E+00
    endloop
  endfacet
  facet normal -3.42689157E-01 -2.57056355E-01 -9.03596222E-01
    outer loop
      vertex -2.78833890E+00  5.00000000E-01 -5.31273603E+00
      vertex -1.43589401E+00  5.00000000E-01 -5.82565117E+00
      vertex -1.40383196E+00  0.00000000E+00 -5.69556999E+00
    endloop
  endfacet
  facet normal -5.48975885E-01 -2.57058591E-01 -7.95327842E-01
    outer loop
      vertex -3.97873592E+00  5.00000000E-01 -4.49106503E+00
      vertex -2.72607803E+00  0.00000000E+00 -5.19410801E+00
      vertex -3.88989401E+00 -0.00000000E+00 -4.39078283E+00
    endloop
  endfacet
  facet normal -5.48975468E-01 -2.57055998E-01 -7.95328975E-01
    outer loop
      vertex -3.97873592E+00  5.00000000E-01 -4.49106503E+00
      vertex -2.78833890E+00  5.00000000E-01 -5.31273603E+00
      vertex -2.72607803E+00  0.00000000E+00 -5.19410801E+00
    endloop
  endfacet
  facet normal -7.23358035E-01 -2.57056773E-01 -6.40839279E-01
    outer loop
      vertex -4.93790293E+00  5.00000000E-01 -3.40838790E+00
      vertex -3.88989401E+00 -0.00000000E+00 -4.39078283E+00
      vertex -4.82764387E+00 -0.00000000E+00 -3.33228207E+00
    endloop
  endfacet
  facet normal -7.23358095E-01 -2.57058382E-01 -6.40838563E-01
    outer loop
      vertex -4.93790293E+00  5.00000000E-01 -3.40838790E+00
      vertex -3.97873592E+00  5.00000000E-01 -4.49106503E+00
      vertex -3.88989401E+00 -0.00000000E+00 -4.39078283E+00
    endloop
  endfacet
  facet normal -8.55701447E-01 -2.57056326E-01 -4.49106961E-01
    outer loop
      vertex -5.61009693E+00  5.00000000E-01 -2.12762904E+00
      vertex -4.82764387E+00 -0.00000000E+00 -3.33228207E+00
      vertex -5.48482895E+00 -0.00000000E+00 -2.08012104E+00
    endloop
  endfacet
  facet normal -8.55701387E-01 -2.57056981E-01 -4.49106663E-01
    outer loop
      vertex -5.61009693E+00  5.00000000E-01 -2.12762904E+00
      vertex -4.93790293E+00  5.00000000E-01 -3.40838790E+00
      vertex -4.82764387E+00 -0.00000000E+00 -3.33228207E+00
    endloop
  endfacet
  facet normal -9.38314736E-01 -2.57055849E-01 -2.31274247E-01
    outer loop
      vertex -5.95625305E+00  5.00000000E-01 -7.23219991E-01
      vertex -5.48482895E+00 -0.00000000E+00 -2.08012104E+00
      vertex -5.82325602E+00 -0.00000000E+00 -7.07071006E-01
    endloop
  endfacet
  facet normal -9.38314617E-01 -2.57056326E-01 -2.31274039E-01
    outer loop
      vertex -5.95625305E+00  5.00000000E-01 -7.23219991E-01
      vertex -5.61009693E+00  5.00000000E-01 -2.12762904E+00
      vertex -5.48482895E+00 -0.00000000E+00 -2.08012104E+00
    endloop
  endfacet
  facet normal -9.66396570E-01 -2.57055759E-01  0.00000000E+00
    outer loop
      vertex -5.95625305E+00  5.00000000E-01  7.23219991E-01
      vertex -5.82325602E+00 -0.00000000E+00 -7.07071006E-01
      vertex -5.82325602E+00 -0.00000000E+00  7.07071006E-01
    endloop
  endfacet
  facet normal -9.66396570E-01 -2.57055759E-01 -0.00000000E+00
    outer loop
      vertex -5.95625305E+00  5.00000000E-01  7.23219991E-01
      vertex -5.95625305E+00  5.00000000E-01 -7.23219991E-01
      vertex -5.82325602E+00 -0.00000000E+00 -7.07071006E-01
    endloop
  endfacet
  facet normal -9.38314617E-01 -2.57056296E-01  2.31274217E-01
    outer loop
      vertex -5.61009693E+00  5.00000000E-01  2.12762904E+00
      vertex -5.82325602E+00 -0.00000000E+00  7.07071006E-01
      vertex -5.48482895E+00 -0.00000000E+00  2.08012104E+00
    endloop
  endfacet
  facet normal -9.38314795E-01 -2.57055819E-01  2.31274068E-01
    outer loop
      vertex -5.61009693E+00  5.00000000E-01  2.12762904E+00
      vertex -5.95625305E+00  5.00000000E-01  7.23219991E-01
      vertex -5.82325602E+00 -0.00000000E+00  7.07071006E-01
    endloop
  endfacet
  facet normal -8.55701327E-01 -2.57056952E-01  4.49106872E-01
    outer loop
      vertex -4.93790293E+00  5.00000000E-01  3.40838790E+00
      vertex -5.48482895E+00 -0.00000000E+00  2.08012104E+00
      vertex -4.82764387E+00 -0.00000000E+00  3.33228207E+00
    endloop
  endfacet
  facet normal -8.55701566E-01 -2.57056355E-01  4.49106753E-01
    outer loop
      vertex -4.93790293E+00  5.00000000E-01  3.40838790E+00
      vertex -5.61009693E+00  5.00000000E-01  2.12762904E+00
      vertex -5.48482895E+00 -0.00000000E+00  2.08012104E+00
    endloop
  endfacet
  facet normal -7.23357677E-01 -2.57058442E-01  6.40838981E-01
    outer loop
      vertex -3.97873592E+00  5.00000000E-01  4.49106503E+00
      vertex -4.82764387E+00 -0.00000000E+00  3.33228207E+00
      vertex -3.88989401E+00 -0.00000000E+00  4.39078283E+00
    endloop
  endfacet
  facet normal -7.23358393E-01 -2.57056803E-01  6.40838802E-01
    outer loop
      vertex -3.97873592E+00  5.00000000E-01  4.49106503E+00
      vertex -4.93790293E+00  5.00000000E-01  3.40838790E+00
      vertex -4.82764387E+00 -0.00000000E+00  3.33228207E+00
    endloop
  endfacet
  facet normal -5.48976243E-01 -2.57055968E-01  7.95328438E-01
    outer loop
      vertex -2.78833890E+00  5.00000000E-01  5.31273603E+00
      vertex -3.88989401E+00 -0.00000000E+00  4.39078283E+00
      vertex -2.72607803E+00 -0.00000000E+00  5.19410801E+00
    endloop
  endfacet
  facet normal -5.48975050E-01 -2.57058531E-01  7.95328438E-01
    outer loop
      vertex -2.78833890E+00  5.00000000E-01  5.31273603E+00
      vertex -3.97873592E+00  5.00000000E-01  4.49106503E+00
      vertex -3.88989401E+00 -0.00000000E+00  4.39078283E+00
    endloop
  endfacet
  facet normal -3.42689008E-01 -2.57056355E-01  9.03596282E-01
    outer loop
      vertex -1.43589401E+00  5.00000000E-01  5.82565117E+00
      vertex -2.72607803E+00 -0.00000000E+00  5.19410801E+00
      vertex -1.40383196E+00 -0.00000000E+00  5.69556999E+00
    endloop
  endfacet
  facet normal -3.42689186E-01 -2.57055968E-01  9.03596342E-01
    outer loop
      vertex -1.43589401E+00  5.00000000E-01  5.82565117E+00
      vertex -2.78833890E+00  5.00000000E-01  5.31273603E+00
      vertex -2.72607803E+00 -0.00000000E+00  5.19410801E+00
    endloop
  endfacet
  facet normal -1.16485439E-01 -2.57057905E-01  9.59349990E-01
    outer loop
      vertex -0.00000000E+00  5.00000000E-01  6.00000000E+00
      vertex -1.40383196E+00 -0.00000000E+00  5.69556999E+00
      vertex -0.00000000E+00  0.00000000E+00  5.86602497E+00
    endloop
  endfacet
  facet normal -1.16486035E-01 -2.57056415E-01  9.59350288E-01
    outer loop
      vertex -0.00000000E+00  5.00000000E-01  6.00000000E+00
      vertex -1.43589401E+00  5.00000000E-01  5.82565117E+00
      vertex -1.40383196E+00 -0.00000000E+00  5.69556999E+00
    endloop
  endfacet
endsolid  Processed by ADMesh version 0.98.4
