solid  Processed by ADMesh version 0.98.4
  facet normal  1.26149982E-01  9.58209217E-01  2.56751299E-01
    outer loop
      vertex  7.76457012E-01  2.89777803E+00  3.79999995E+00
      vertex -0.00000000E+00  3.00000000E+00  3.79999995E+00
      vertex -0.00000000E+00  2.67846107E+00  5.00000000E+00
    endloop
  endfacet
  facet normal  1.26150295E-01  9.58209157E-01  2.56751508E-01
    outer loop
      vertex  7.76457012E-01  2.89777803E+00  3.79999995E+00
      vertex -0.00000000E+00  2.67846107E+00  5.00000000E+00
      vertex  6.93237007E-01  2.58719492E+00  5.00000000E+00
    endloop
  endfacet
  facet normal  3.69855583E-01  8.92908514E-01  2.56751388E-01
    outer loop
      vertex  1.50000000E+00  2.59807611E+00  3.79999995E+00
      vertex  6.93237007E-01  2.58719492E+00  5.00000000E+00
      vertex  1.33923101E+00  2.31961489E+00  5.00000000E+00
    endloop
  endfacet
  facet normal  3.69855553E-01  8.92908514E-01  2.56751388E-01
    outer loop
      vertex  1.50000000E+00  2.59807611E+00  3.79999995E+00
      vertex  7.76457012E-01  2.89777803E+00  3.79999995E+00
      vertex  6.93237007E-01  2.58719492E+00  5.00000000E+00
    endloop
  endfacet
  facet normal  5.88354230E-01  7.66758263E-01  2.56750941E-01
    outer loop
      vertex  2.12132001E+00  2.12132001E+00  3.79999995E+00
      vertex  1.33923101E+00  2.31961489E+00  5.00000000E+00
      vertex  1.89395797E+00  1.89395797E+00  5.00000000E+00
    endloop
  endfacet
  facet normal  5.88354588E-01  7.66757905E-01  2.56751239E-01
    outer loop
      vertex  2.12132001E+00  2.12132001E+00  3.79999995E+00
      vertex  1.50000000E+00  2.59807611E+00  3.79999995E+00
      vertex  1.33923101E+00  2.31961489E+00  5.00000000E+00
    endloop
  endfacet
  facet normal  7.66758204E-01  5.88354170E-01  2.56751269E-01
    outer loop
      vertex  2.59807611E+00  1.50000000E+00  3.79999995E+00
      vertex  1.89395797E+00  1.89395797E+00  5.00000000E+00
      vertex  2.31961489E+00  1.33923101E+00  5.00000000E+00
    endloop
  endfacet
  facet normal  7.66757965E-01  5.88354647E-01  2.56750971E-01
    outer loop
      vertex  2.59807611E+00  1.50000000E+00  3.79999995E+00
      vertex  2.12132001E+00  2.12132001E+00  3.79999995E+00
      vertex  1.89395797E+00  1.89395797E+00  5.00000000E+00
    endloop
  endfacet
  facet normal  8.92908514E-01  3.69855583E-01  2.56751388E-01
    outer loop
      vertex  2.89777803E+00  7.76457012E-01  3.79999995E+00
      vertex  2.31961489E+00  1.33923101E+00  5.00000000E+00
      vertex  2.58719492E+00  6.93237007E-01  5.00000000E+00
    endloop
  endfacet
  facet normal  8.92908514E-01  3.69855553E-01  2.56751388E-01
    outer loop
      vertex  2.89777803E+00  7.76457012E-01  3.79999995E+00
      vertex  2.59807611E+00  1.50000000E+00  3.79999995E+00
      vertex  2.31961489E+00  1.33923101E+00  5.00000000E+00
    endloop
  endfacet
  facet normal  9.58209217E-01  1.26150310E-01  2.56751299E-01
    outer loop
      vertex  3.00000000E+00  0.00000000E+00  3.79999995E+00
      vertex  2.58719492E+00  6.93237007E-01  5.00000000E+00
      vertex  2.67846107E+00  0.00000000E+00  5.00000000E+00
    endloop
  endfacet
  facet normal  9.58209217E-01  1.26149967E-01  2.56751478E-01
    outer loop
      vertex  3.00000000E+00  0.00000000E+00  3.79999995E+00
      vertex  2.89777803E+00  7.76457012E-01  3.79999995E+00
      vertex  2.58719492E+00  6.93237007E-01  5.00000000E+00
    endloop
  endfacet
  facet normal  9.58209157E-01 -1.26150295E-01  2.56751508E-01
    outer loop
      vertex  2.89777803E+00 -7.76457012E-01  3.79999995E+00
      vertex  2.67846107E+00  0.00000000E+00  5.00000000E+00
      vertex  2.58719492E+00 -6.93237007E-01  5.00000000E+00
    endloop
  endfacet
  facet normal  9.58209217E-01 -1.26149982E-01  2.56751299E-01
    outer loop
      vertex  2.89777803E+00 -7.76457012E-01  3.79999995E+00
      vertex  3.00000000E+00  0.00000000E+00  3.79999995E+00
      vertex  2.67846107E+00  0.00000000E+00  5.00000000E+00
    endloop
  endfacet
  facet normal  8.92908514E-01 -3.69855583E-01  2.56751388E-01
    outer loop
      vertex  2.59807611E+00 -1.50000000E+00  3.79999995E+00
      vertex  2.58719492E+00 -6.93237007E-01  5.00000000E+00
      vertex  2.31961489E+00 -1.33923101E+00  5.00000000E+00
    endloop
  endfacet
  facet normal  8.92908514E-01 -3.69855553E-01  2.56751388E-01
    outer loop
      vertex  2.59807611E+00 -1.50000000E+00  3.79999995E+00
      vertex  2.89777803E+00 -7.76457012E-01  3.79999995E+00
      vertex  2.58719492E+00 -6.93237007E-01  5.00000000E+00
    endloop
  endfacet
  facet normal  7.66758263E-01 -5.88354230E-01  2.56750941E-01
    outer loop
      vertex  2.12132001E+00 -2.12132001E+00  3.79999995E+00
      vertex  2.31961489E+00 -1.33923101E+00  5.00000000E+00
      vertex  1.89395797E+00 -1.89395797E+00  5.00000000E+00
    endloop
  endfacet
  facet normal  7.66757905E-01 -5.88354588E-01  2.56751269E-01
    outer loop
      vertex  2.12132001E+00 -2.12132001E+00  3.79999995E+00
      vertex  2.59807611E+00 -1.50000000E+00  3.79999995E+00
      vertex  2.31961489E+00 -1.33923101E+00  5.00000000E+00
    endloop
  endfacet
  facet normal  3.69855583E-01 -8.92908514E-01  2.56751388E-01
    outer loop
      vertex  1.50000000E+00 -2.59807611E+00  3.79999995E+00
      vertex  1.33923101E+00 -2.31961489E+00  5.00000000E+00
      vertex  6.93237007E-01 -2.58719492E+00  5.00000000E+00
    endloop
  endfacet
  facet normal  5.88354170E-01 -7.66758204E-01  2.56751269E-01
    outer loop
      vertex  1.50000000E+00 -2.59807611E+00  3.79999995E+00
      vertex  1.89395797E+00 -1.89395797E+00  5.00000000E+00
      vertex  1.33923101E+00 -2.31961489E+00  5.00000000E+00
    endloop
  endfacet
  facet normal  5.88354647E-01 -7.66757965E-01  2.56750971E-01
    outer loop
      vertex  1.50000000E+00 -2.59807611E+00  3.79999995E+00
      vertex  2.12132001E+00 -2.12132001E+00  3.79999995E+00
      vertex  1.89395797E+00 -1.89395797E+00  5.00000000E+00
    endloop
  endfacet
  facet normal  1.26150295E-01 -9.58209157E-01  2.56751508E-01
    outer loop
      vertex  7.76457012E-01 -2.89777803E+00  3.79999995E+00
      vertex  6.93237007E-01 -2.58719492E+00  5.00000000E+00
      vertex  0.00000000E+00 -2.67846107E+00  5.00000000E+00
    endloop
  endfacet
  facet normal  3.69855553E-01 -8.92908514E-01  2.56751388E-01
    outer loop
      vertex  7.76457012E-01 -2.89777803E+00  3.79999995E+00
      vertex  1.50000000E+00 -2.59807611E+00  3.79999995E+00
      vertex  6.93237007E-01 -2.58719492E+00  5.00000000E+00
    endloop
  endfacet
  facet normal  1.26149982E-01 -9.58209217E-01  2.56751299E-01
    outer loop
      vertex  0.00000000E+00 -3.00000000E+00  3.79999995E+00
      vertex  7.76457012E-01 -2.89777803E+00  3.79999995E+00
      vertex  0.00000000E+00 -2.67846107E+00  5.00000000E+00
    endloop
  endfacet
  facet normal  1.30525529E-01 -9.91444945E-01 -5.02012432E-10
    outer loop
      vertex  7.76457012E-01 -2.89777803E+00  3.79999995E+00
      vertex  0.00000000E+00 -3.00000000E+00  3.79999995E+00
      vertex  0.00000000E+00 -3.00000000E+00  0.00000000E+00
    endloop
  endfacet
  facet normal  1.30525529E-01 -9.91444945E-01  0.00000000E+00
    outer loop
      vertex  7.76457012E-01 -2.89777803E+00  3.79999995E+00
      vertex  0.00000000E+00 -3.00000000E+00  0.00000000E+00
      vertex  7.76457012E-01 -2.89777803E+00  0.00000000E+00
    endloop
  endfacet
  facet normal  3.82684082E-01 -9.23879266E-01  0.00000000E+00
    outer loop
      vertex  1.50000000E+00 -2.59807611E+00  3.79999995E+00
      vertex  7.76457012E-01 -2.89777803E+00  0.00000000E+00
      vertex  1.50000000E+00 -2.59807611E+00  0.00000000E+00
    endloop
  endfacet
  facet normal  3.82684082E-01 -9.23879266E-01 -1.12608189E-09
    outer loop
      vertex  1.50000000E+00 -2.59807611E+00  3.79999995E+00
      vertex  7.76457012E-01 -2.89777803E+00  3.79999995E+00
      vertex  7.76457012E-01 -2.89777803E+00  0.00000000E+00
    endloop
  endfacet
  facet normal  6.08761847E-01 -7.93353021E-01  0.00000000E+00
    outer loop
      vertex  2.12132001E+00 -2.12132001E+00  3.79999995E+00
      vertex  1.50000000E+00 -2.59807611E+00  0.00000000E+00
      vertex  2.12132001E+00 -2.12132001E+00  0.00000000E+00
    endloop
  endfacet
  facet normal  7.93353021E-01 -6.08761847E-01  0.00000000E+00
    outer loop
      vertex  2.12132001E+00 -2.12132001E+00  3.79999995E+00
      vertex  2.12132001E+00 -2.12132001E+00  0.00000000E+00
      vertex  2.59807611E+00 -1.50000000E+00  0.00000000E+00
    endloop
  endfacet
  facet normal  6.08761847E-01 -7.93353021E-01 -1.57503810E-09
    outer loop
      vertex  2.12132001E+00 -2.12132001E+00  3.79999995E+00
      vertex  1.50000000E+00 -2.59807611E+00  3.79999995E+00
      vertex  1.50000000E+00 -2.59807611E+00  0.00000000E+00
    endloop
  endfacet
  facet normal  7.93353021E-01 -6.08761847E-01  0.00000000E+00
    outer loop
      vertex  2.59807611E+00 -1.50000000E+00  3.79999995E+00
      vertex  2.12132001E+00 -2.12132001E+00  3.79999995E+00
      vertex  2.59807611E+00 -1.50000000E+00  0.00000000E+00
    endloop
  endfacet
  facet normal  9.23879266E-01 -3.82684082E-01  0.00000000E+00
    outer loop
      vertex  2.89777803E+00 -7.76457012E-01  3.79999995E+00
      vertex  2.59807611E+00 -1.50000000E+00  0.00000000E+00
      vertex  2.89777803E+00 -7.76457012E-01  0.00000000E+00
    endloop
  endfacet
  facet normal  9.23879266E-01 -3.82684082E-01 -1.12608189E-09
    outer loop
      vertex  2.89777803E+00 -7.76457012E-01  3.79999995E+00
      vertex  2.59807611E+00 -1.50000000E+00  3.79999995E+00
      vertex  2.59807611E+00 -1.50000000E+00  0.00000000E+00
    endloop
  endfacet
  facet normal  9.91444945E-01 -1.30525529E-01  0.00000000E+00
    outer loop
      vertex  3.00000000E+00  0.00000000E+00  3.79999995E+00
      vertex  2.89777803E+00 -7.76457012E-01  0.00000000E+00
      vertex  3.00000000E+00  0.00000000E+00  0.00000000E+00
    endloop
  endfacet
  facet normal  9.91444945E-01 -1.30525529E-01 -5.02012432E-10
    outer loop
      vertex  3.00000000E+00  0.00000000E+00  3.79999995E+00
      vertex  2.89777803E+00 -7.76457012E-01  3.79999995E+00
      vertex  2.89777803E+00 -7.76457012E-01  0.00000000E+00
    endloop
  endfacet
  facet normal  9.91444945E-01  1.30525529E-01  0.00000000E+00
    outer loop
      vertex  2.89777803E+00  7.76457012E-01  3.79999995E+00
      vertex  3.00000000E+00  0.00000000E+00  0.00000000E+00
      vertex  2.89777803E+00  7.76457012E-01  0.00000000E+00
    endloop
  endfacet
  facet normal  9.23879266E-01  3.82684082E-01  0.00000000E+00
    outer loop
      vertex  2.89777803E+00  7.76457012E-01  3.79999995E+00
      vertex  2.89777803E+00  7.76457012E-01  0.00000000E+00
      vertex  2.59807611E+00  1.50000000E+00  0.00000000E+00
    endloop
  endfacet
  facet normal  9.91444945E-01  1.30525529E-01  5.02012432E-10
    outer loop
      vertex  2.89777803E+00  7.76457012E-01  3.79999995E+00
      vertex  3.00000000E+00  0.00000000E+00  3.79999995E+00
      vertex  3.00000000E+00  0.00000000E+00  0.00000000E+00
    endloop
  endfacet
  facet normal  9.23879266E-01  3.82684082E-01  0.00000000E+00
    outer loop
      vertex  2.59807611E+00  1.50000000E+00  3.79999995E+00
      vertex  2.89777803E+00  7.76457012E-01  3.79999995E+00
      vertex  2.59807611E+00  1.50000000E+00  0.00000000E+00
    endloop
  endfacet
  facet normal  7.93353021E-01  6.08761847E-01  0.00000000E+00
    outer loop
      vertex  2.12132001E+00  2.12132001E+00  3.79999995E+00
      vertex  2.59807611E+00  1.50000000E+00  0.00000000E+00
      vertex  2.12132001E+00  2.12132001E+00  0.00000000E+00
    endloop
  endfacet
  facet normal  6.08761847E-01  7.93353021E-01  0.00000000E+00
    outer loop
      vertex  2.12132001E+00  2.12132001E+00  3.79999995E+00
      vertex  2.12132001E+00  2.12132001E+00  0.00000000E+00
      vertex  1.50000000E+00  2.59807611E+00  0.00000000E+00
    endloop
  endfacet
  facet normal  7.93353021E-01  6.08761847E-01  1.57503810E-09
    outer loop
      vertex  2.12132001E+00  2.12132001E+00  3.79999995E+00
      vertex  2.59807611E+00  1.50000000E+00  3.79999995E+00
      vertex  2.59807611E+00  1.50000000E+00  0.00000000E+00
    endloop
  endfacet
  facet normal  6.08761847E-01  7.93353021E-01  0.00000000E+00
    outer loop
      vertex  1.50000000E+00  2.59807611E+00  3.79999995E+00
      vertex  2.12132001E+00  2.12132001E+00  3.79999995E+00
      vertex  1.50000000E+00  2.59807611E+00  0.00000000E+00
    endloop
  endfacet
  facet normal  3.82684082E-01  9.23879266E-01  0.00000000E+00
    outer loop
      vertex  7.76457012E-01  2.89777803E+00  3.79999995E+00
      vertex  1.50000000E+00  2.59807611E+00  0.00000000E+00
      vertex  7.76457012E-01  2.89777803E+00  0.00000000E+00
    endloop
  endfacet
  facet normal  3.82684082E-01  9.23879266E-01  1.12608189E-09
    outer loop
      vertex  7.76457012E-01  2.89777803E+00  3.79999995E+00
      vertex  1.50000000E+00  2.59807611E+00  3.79999995E+00
      vertex  1.50000000E+00  2.59807611E+00  0.00000000E+00
    endloop
  endfacet
  facet normal  1.30525529E-01  9.91444945E-01  0.00000000E+00
    outer loop
      vertex -0.00000000E+00  3.00000000E+00  3.79999995E+00
      vertex  7.76457012E-01  2.89777803E+00  0.00000000E+00
      vertex -0.00000000E+00  3.00000000E+00  0.00000000E+00
    endloop
  endfacet
  facet normal  1.30525529E-01  9.91444945E-01  5.02012432E-10
    outer loop
      vertex -0.00000000E+00  3.00000000E+00  3.79999995E+00
      vertex  7.76457012E-01  2.89777803E+00  3.79999995E+00
      vertex  7.76457012E-01  2.89777803E+00  0.00000000E+00
    endloop
  endfacet
  facet normal  1.30525589E-01 -9.91444945E-01  7.02651215E-10
    outer loop
      vertex  5.17638028E-01 -1.93185198E+00  0.00000000E+00
      vertex  0.00000000E+00 -2.00000000E+00  0.00000000E+00
      vertex  0.00000000E+00 -2.00000000E+00 -5.00000000E+00
    endloop
  endfacet
  facet normal  1.30525589E-01 -9.91444945E-01  0.00000000E+00
    outer loop
      vertex  5.17638028E-01 -1.93185198E+00  0.00000000E+00
      vertex  0.00000000E+00 -2.00000000E+00 -5.00000000E+00
      vertex  5.17638028E-01 -1.93185198E+00 -5.00000000E+00
    endloop
  endfacet
  facet normal  3.82683575E-01 -9.23879445E-01  0.00000000E+00
    outer loop
      vertex  1.00000000E+00 -1.73205101E+00  0.00000000E+00
      vertex  5.17638028E-01 -1.93185198E+00 -5.00000000E+00
      vertex  1.00000000E+00 -1.73205101E+00 -5.00000000E+00
    endloop
  endfacet
  facet normal  3.82683575E-01 -9.23879445E-01  7.07351538E-11
    outer loop
      vertex  1.00000000E+00 -1.73205101E+00  0.00000000E+00
      vertex  5.17638028E-01 -1.93185198E+00  0.00000000E+00
      vertex  5.17638028E-01 -1.93185198E+00 -5.00000000E+00
    endloop
  endfacet
  facet normal  6.08760715E-01 -7.93353915E-01  0.00000000E+00
    outer loop
      vertex  1.41421402E+00 -1.41421402E+00  0.00000000E+00
      vertex  1.00000000E+00 -1.73205101E+00 -5.00000000E+00
      vertex  1.41421402E+00 -1.41421402E+00 -5.00000000E+00
    endloop
  endfacet
  facet normal  6.08760715E-01 -7.93353915E-01 -2.23538055E-09
    outer loop
      vertex  1.41421402E+00 -1.41421402E+00  0.00000000E+00
      vertex  1.00000000E+00 -1.73205101E+00  0.00000000E+00
      vertex  1.00000000E+00 -1.73205101E+00 -5.00000000E+00
    endloop
  endfacet
  facet normal  7.93353915E-01 -6.08760715E-01  0.00000000E+00
    outer loop
      vertex  1.73205101E+00 -1.00000000E+00  0.00000000E+00
      vertex  1.41421402E+00 -1.41421402E+00 -5.00000000E+00
      vertex  1.73205101E+00 -1.00000000E+00 -5.00000000E+00
    endloop
  endfacet
  facet normal  9.23879445E-01 -3.82683575E-01  0.00000000E+00
    outer loop
      vertex  1.73205101E+00 -1.00000000E+00  0.00000000E+00
      vertex  1.73205101E+00 -1.00000000E+00 -5.00000000E+00
      vertex  1.93185198E+00 -5.17638028E-01 -5.00000000E+00
    endloop
  endfacet
  facet normal  7.93353915E-01 -6.08760715E-01 -2.23538055E-09
    outer loop
      vertex  1.73205101E+00 -1.00000000E+00  0.00000000E+00
      vertex  1.41421402E+00 -1.41421402E+00  0.00000000E+00
      vertex  1.41421402E+00 -1.41421402E+00 -5.00000000E+00
    endloop
  endfacet
  facet normal  9.23879445E-01 -3.82683575E-01  0.00000000E+00
    outer loop
      vertex  1.93185198E+00 -5.17638028E-01  0.00000000E+00
      vertex  1.73205101E+00 -1.00000000E+00  0.00000000E+00
      vertex  1.93185198E+00 -5.17638028E-01 -5.00000000E+00
    endloop
  endfacet
  facet normal  9.91444945E-01 -1.30525589E-01  0.00000000E+00
    outer loop
      vertex  2.00000000E+00  0.00000000E+00  0.00000000E+00
      vertex  1.93185198E+00 -5.17638028E-01 -5.00000000E+00
      vertex  2.00000000E+00  0.00000000E+00 -5.00000000E+00
    endloop
  endfacet
  facet normal  9.91444945E-01  1.30525589E-01  0.00000000E+00
    outer loop
      vertex  2.00000000E+00  0.00000000E+00  0.00000000E+00
      vertex  2.00000000E+00  0.00000000E+00 -5.00000000E+00
      vertex  1.93185198E+00  5.17638028E-01 -5.00000000E+00
    endloop
  endfacet
  facet normal  9.91444945E-01 -1.30525589E-01  7.02651215E-10
    outer loop
      vertex  2.00000000E+00  0.00000000E+00  0.00000000E+00
      vertex  1.93185198E+00 -5.17638028E-01  0.00000000E+00
      vertex  1.93185198E+00 -5.17638028E-01 -5.00000000E+00
    endloop
  endfacet
  facet normal  9.91444945E-01  1.30525589E-01  0.00000000E+00
    outer loop
      vertex  1.93185198E+00  5.17638028E-01  0.00000000E+00
      vertex  2.00000000E+00  0.00000000E+00  0.00000000E+00
      vertex  1.93185198E+00  5.17638028E-01 -5.00000000E+00
    endloop
  endfacet
  facet normal  9.23879445E-01  3.82683575E-01  0.00000000E+00
    outer loop
      vertex  1.73205101E+00  1.00000000E+00  0.00000000E+00
      vertex  1.93185198E+00  5.17638028E-01 -5.00000000E+00
      vertex  1.73205101E+00  1.00000000E+00 -5.00000000E+00
    endloop
  endfacet
  facet normal  9.23879445E-01  3.82683575E-01 -7.07351538E-11
    outer loop
      vertex  1.73205101E+00  1.00000000E+00  0.00000000E+00
      vertex  1.93185198E+00  5.17638028E-01  0.00000000E+00
      vertex  1.93185198E+00  5.17638028E-01 -5.00000000E+00
    endloop
  endfacet
  facet normal  7.93353915E-01  6.08760715E-01  0.00000000E+00
    outer loop
      vertex  1.41421402E+00  1.41421402E+00  0.00000000E+00
      vertex  1.73205101E+00  1.00000000E+00 -5.00000000E+00
      vertex  1.41421402E+00  1.41421402E+00 -5.00000000E+00
    endloop
  endfacet
  facet normal  7.93353915E-01  6.08760715E-01  2.23538055E-09
    outer loop
      vertex  1.41421402E+00  1.41421402E+00  0.00000000E+00
      vertex  1.73205101E+00  1.00000000E+00  0.00000000E+00
      vertex  1.73205101E+00  1.00000000E+00 -5.00000000E+00
    endloop
  endfacet
  facet normal  6.08760715E-01  7.93353915E-01  0.00000000E+00
    outer loop
      vertex  1.00000000E+00  1.73205101E+00  0.00000000E+00
      vertex  1.41421402E+00  1.41421402E+00 -5.00000000E+00
      vertex  1.00000000E+00  1.73205101E+00 -5.00000000E+00
    endloop
  endfacet
  facet normal  6.08760715E-01  7.93353915E-01  2.23538055E-09
    outer loop
      vertex  1.00000000E+00  1.73205101E+00  0.00000000E+00
      vertex  1.41421402E+00  1.41421402E+00  0.00000000E+00
      vertex  1.41421402E+00  1.41421402E+00 -5.00000000E+00
    endloop
  endfacet
  facet normal  3.82683575E-01  9.23879445E-01  0.00000000E+00
    outer loop
      vertex  5.17638028E-01  1.93185198E+00  0.00000000E+00
      vertex  1.00000000E+00  1.73205101E+00 -5.00000000E+00
      vertex  5.17638028E-01  1.93185198E+00 -5.00000000E+00
    endloop
  endfacet
  facet normal  3.82683575E-01  9.23879445E-01 -7.07351538E-11
    outer loop
      vertex  5.17638028E-01  1.93185198E+00  0.00000000E+00
      vertex  1.00000000E+00  1.73205101E+00  0.00000000E+00
      vertex  1.00000000E+00  1.73205101E+00 -5.00000000E+00
    endloop
  endfacet
  facet normal  1.30525589E-01  9.91444945E-01  0.00000000E+00
    outer loop
      vertex -0.00000000E+00  2.00000000E+00  0.00000000E+00
      vertex  5.17638028E-01  1.93185198E+00 -5.00000000E+00
      vertex -0.00000000E+00  2.00000000E+00 -5.00000000E+00
    endloop
  endfacet
  facet normal  1.30525589E-01  9.91444945E-01 -7.02651215E-10
    outer loop
      vertex -0.00000000E+00  2.00000000E+00  0.00000000E+00
      vertex  5.17638028E-01  1.93185198E+00  0.00000000E+00
      vertex  5.17638028E-01  1.93185198E+00 -5.00000000E+00
    endloop
  endfacet
  facet normal  1.26150042E-01 -9.58209276E-01 -2.56751209E-01
    outer loop
      vertex  5.17638028E-01 -1.93185198E+00 -5.00000000E+00
      vertex  0.00000000E+00 -2.00000000E+00 -5.00000000E+00
      vertex  0.00000000E+00 -1.73205101E+00 -6.00000000E+00
    endloop
  endfacet
  facet normal  1.26150176E-01 -9.58209217E-01 -2.56751269E-01
    outer loop
      vertex  5.17638028E-01 -1.93185198E+00 -5.00000000E+00
      vertex  0.00000000E+00 -1.73205101E+00 -6.00000000E+00
      vertex  4.48287994E-01 -1.67303300E+00 -6.00000000E+00
    endloop
  endfacet
  facet normal  3.69856089E-01 -8.92908156E-01 -2.56751716E-01
    outer loop
      vertex  1.00000000E+00 -1.73205101E+00 -5.00000000E+00
      vertex  4.48287994E-01 -1.67303300E+00 -6.00000000E+00
      vertex  8.66024971E-01 -1.50000000E+00 -6.00000000E+00
    endloop
  endfacet
  facet normal  3.69855106E-01 -8.92908752E-01 -2.56751209E-01
    outer loop
      vertex  1.00000000E+00 -1.73205101E+00 -5.00000000E+00
      vertex  5.17638028E-01 -1.93185198E+00 -5.00000000E+00
      vertex  4.48287994E-01 -1.67303300E+00 -6.00000000E+00
    endloop
  endfacet
  facet normal  5.88353336E-01 -7.66758740E-01 -2.56751686E-01
    outer loop
      vertex  1.41421402E+00 -1.41421402E+00 -5.00000000E+00
      vertex  8.66024971E-01 -1.50000000E+00 -6.00000000E+00
      vertex  1.22474504E+00 -1.22474504E+00 -6.00000000E+00
    endloop
  endfacet
  facet normal  5.88353455E-01 -7.66758561E-01 -2.56751776E-01
    outer loop
      vertex  1.41421402E+00 -1.41421402E+00 -5.00000000E+00
      vertex  1.00000000E+00 -1.73205101E+00 -5.00000000E+00
      vertex  8.66024971E-01 -1.50000000E+00 -6.00000000E+00
    endloop
  endfacet
  facet normal  7.66758680E-01 -5.88353336E-01 -2.56751776E-01
    outer loop
      vertex  1.73205101E+00 -1.00000000E+00 -5.00000000E+00
      vertex  1.22474504E+00 -1.22474504E+00 -6.00000000E+00
      vertex  1.50000000E+00 -8.66024971E-01 -6.00000000E+00
    endloop
  endfacet
  facet normal  7.66758621E-01 -5.88353455E-01 -2.56751716E-01
    outer loop
      vertex  1.73205101E+00 -1.00000000E+00 -5.00000000E+00
      vertex  1.41421402E+00 -1.41421402E+00 -5.00000000E+00
      vertex  1.22474504E+00 -1.22474504E+00 -6.00000000E+00
    endloop
  endfacet
  facet normal  8.92908335E-01 -3.69856179E-01 -2.56751150E-01
    outer loop
      vertex  1.93185198E+00 -5.17638028E-01 -5.00000000E+00
      vertex  1.50000000E+00 -8.66024971E-01 -6.00000000E+00
      vertex  1.67303300E+00 -4.48287994E-01 -6.00000000E+00
    endloop
  endfacet
  facet normal  8.92908633E-01 -3.69855046E-01 -2.56751716E-01
    outer loop
      vertex  1.93185198E+00 -5.17638028E-01 -5.00000000E+00
      vertex  1.73205101E+00 -1.00000000E+00 -5.00000000E+00
      vertex  1.50000000E+00 -8.66024971E-01 -6.00000000E+00
    endloop
  endfacet
  facet normal  9.58209217E-01 -1.26150176E-01 -2.56751180E-01
    outer loop
      vertex  2.00000000E+00  0.00000000E+00 -5.00000000E+00
      vertex  1.67303300E+00 -4.48287994E-01 -6.00000000E+00
      vertex  1.73205101E+00  0.00000000E+00 -6.00000000E+00
    endloop
  endfacet
  facet normal  9.58209217E-01 -1.26150042E-01 -2.56751269E-01
    outer loop
      vertex  2.00000000E+00  0.00000000E+00 -5.00000000E+00
      vertex  1.93185198E+00 -5.17638028E-01 -5.00000000E+00
      vertex  1.67303300E+00 -4.48287994E-01 -6.00000000E+00
    endloop
  endfacet
  facet normal  9.58209217E-01  1.26150176E-01 -2.56751239E-01
    outer loop
      vertex  1.93185198E+00  5.17638028E-01 -5.00000000E+00
      vertex  1.73205101E+00  0.00000000E+00 -6.00000000E+00
      vertex  1.67303300E+00  4.48287994E-01 -6.00000000E+00
    endloop
  endfacet
  facet normal  9.58209276E-01  1.26150042E-01 -2.56751209E-01
    outer loop
      vertex  1.93185198E+00  5.17638028E-01 -5.00000000E+00
      vertex  2.00000000E+00  0.00000000E+00 -5.00000000E+00
      vertex  1.73205101E+00  0.00000000E+00 -6.00000000E+00
    endloop
  endfacet
  facet normal  8.92908156E-01  3.69856089E-01 -2.56751716E-01
    outer loop
      vertex  1.73205101E+00  1.00000000E+00 -5.00000000E+00
      vertex  1.67303300E+00  4.48287994E-01 -6.00000000E+00
      vertex  1.50000000E+00  8.66024971E-01 -6.00000000E+00
    endloop
  endfacet
  facet normal  7.66758680E-01  5.88353336E-01 -2.56751776E-01
    outer loop
      vertex  1.73205101E+00  1.00000000E+00 -5.00000000E+00
      vertex  1.50000000E+00  8.66024971E-01 -6.00000000E+00
      vertex  1.22474504E+00  1.22474504E+00 -6.00000000E+00
    endloop
  endfacet
  facet normal  8.92908752E-01  3.69855106E-01 -2.56751209E-01
    outer loop
      vertex  1.73205101E+00  1.00000000E+00 -5.00000000E+00
      vertex  1.93185198E+00  5.17638028E-01 -5.00000000E+00
      vertex  1.67303300E+00  4.48287994E-01 -6.00000000E+00
    endloop
  endfacet
  facet normal  7.66758621E-01  5.88353455E-01 -2.56751716E-01
    outer loop
      vertex  1.41421402E+00  1.41421402E+00 -5.00000000E+00
      vertex  1.73205101E+00  1.00000000E+00 -5.00000000E+00
      vertex  1.22474504E+00  1.22474504E+00 -6.00000000E+00
    endloop
  endfacet
  facet normal  5.88353336E-01  7.66758680E-01 -2.56751776E-01
    outer loop
      vertex  1.00000000E+00  1.73205101E+00 -5.00000000E+00
      vertex  1.22474504E+00  1.22474504E+00 -6.00000000E+00
      vertex  8.66024971E-01  1.50000000E+00 -6.00000000E+00
    endloop
  endfacet
  facet normal  5.88353455E-01  7.66758621E-01 -2.56751686E-01
    outer loop
      vertex  1.00000000E+00  1.73205101E+00 -5.00000000E+00
      vertex  1.41421402E+00  1.41421402E+00 -5.00000000E+00
      vertex  1.22474504E+00  1.22474504E+00 -6.00000000E+00
    endloop
  endfacet
  facet normal  3.69856179E-01  8.92908335E-01 -2.56751150E-01
    outer loop
      vertex  5.17638028E-01  1.93185198E+00 -5.00000000E+00
      vertex  8.66024971E-01  1.50000000E+00 -6.00000000E+00
      vertex  4.48287994E-01  1.67303300E+00 -6.00000000E+00
    endloop
  endfacet
  facet normal  3.69855046E-01  8.92908633E-01 -2.56751716E-01
    outer loop
      vertex  5.17638028E-01  1.93185198E+00 -5.00000000E+00
      vertex  1.00000000E+00  1.73205101E+00 -5.00000000E+00
      vertex  8.66024971E-01  1.50000000E+00 -6.00000000E+00
    endloop
  endfacet
  facet normal  1.26150176E-01  9.58209217E-01 -2.56751180E-01
    outer loop
      vertex -0.00000000E+00  2.00000000E+00 -5.00000000E+00
      vertex  4.48287994E-01  1.67303300E+00 -6.00000000E+00
      vertex -0.00000000E+00  1.73205101E+00 -6.00000000E+00
    endloop
  endfacet
  facet normal  1.26150042E-01  9.58209276E-01 -2.56751239E-01
    outer loop
      vertex -0.00000000E+00  2.00000000E+00 -5.00000000E+00
      vertex  5.17638028E-01  1.93185198E+00 -5.00000000E+00
      vertex  4.48287994E-01  1.67303300E+00 -6.00000000E+00
    endloop
  endfacet
  facet normal  0.00000000E+00  0.00000000E+00 -1.00000000E+00
    outer loop
      vertex -1.67303300E+00 -4.48287994E-01 -6.00000000E+00
      vertex -1.22474504E+00 -1.22474504E+00 -6.00000000E+00
      vertex -1.50000000E+00 -8.66024971E-01 -6.00000000E+00
    endloop
  endfacet
  facet normal  0.00000000E+00  0.00000000E+00 -1.00000000E+00
    outer loop
      vertex  0.00000000E+00 -1.73205101E+00 -6.00000000E+00
      vertex -4.48287994E-01 -1.67303300E+00 -6.00000000E+00
      vertex -8.66024971E-01 -1.50000000E+00 -6.00000000E+00
    endloop
  endfacet
  facet normal  0.00000000E+00  0.00000000E+00 -1.00000000E+00
    outer loop
      vertex -1.50000000E+00  8.66024971E-01 -6.00000000E+00
      vertex -1.73205101E+00 -0.00000000E+00 -6.00000000E+00
      vertex -1.67303300E+00  4.48287994E-01 -6.00000000E+00
    endloop
  endfacet
  facet normal  0.00000000E+00  0.00000000E+00 -1.00000000E+00
    outer loop
      vertex  8.66024971E-01 -1.50000000E+00 -6.00000000E+00
      vertex  4.48287994E-01 -1.67303300E+00 -6.00000000E+00
      vertex  0.00000000E+00 -1.73205101E+00 -6.00000000E+00
    endloop
  endfacet
  facet normal  0.00000000E+00  0.00000000E+00 -1.00000000E+00
    outer loop
      vertex -8.66024971E-01  1.50000000E+00 -6.00000000E+00
      vertex -1.50000000E+00  8.66024971E-01 -6.00000000E+00
      vertex -1.22474504E+00  1.22474504E+00 -6.00000000E+00
    endloop
  endfacet
  facet normal  0.00000000E+00  0.00000000E+00 -1.00000000E+00
    outer loop
      vertex  1.73205101E+00  0.00000000E+00 -6.00000000E+00
      vertex  1.22474504E+00 -1.22474504E+00 -6.00000000E+00
      vertex  8.66024971E-01 -1.50000000E+00 -6.00000000E+00
    endloop
  endfacet
  facet normal  0.00000000E+00  0.00000000E+00 -1.00000000E+00
    outer loop
      vertex  1.73205101E+00  0.00000000E+00 -6.00000000E+00
      vertex  1.50000000E+00 -8.66024971E-01 -6.00000000E+00
      vertex  1.22474504E+00 -1.22474504E+00 -6.00000000E+00
    endloop
  endfacet
  facet normal  0.00000000E+00  0.00000000E+00 -1.00000000E+00
    outer loop
      vertex  1.73205101E+00  0.00000000E+00 -6.00000000E+00
      vertex  1.67303300E+00 -4.48287994E-01 -6.00000000E+00
      vertex  1.50000000E+00 -8.66024971E-01 -6.00000000E+00
    endloop
  endfacet
  facet normal  0.00000000E+00  0.00000000E+00 -1.00000000E+00
    outer loop
      vertex  4.48287994E-01  1.67303300E+00 -6.00000000E+00
      vertex -4.48287994E-01  1.67303300E+00 -6.00000000E+00
      vertex -0.00000000E+00  1.73205101E+00 -6.00000000E+00
    endloop
  endfacet
  facet normal -0.00000000E+00  0.00000000E+00 -1.00000000E+00
    outer loop
      vertex  4.48287994E-01  1.67303300E+00 -6.00000000E+00
      vertex -8.66024971E-01  1.50000000E+00 -6.00000000E+00
      vertex -4.48287994E-01  1.67303300E+00 -6.00000000E+00
    endloop
  endfacet
  facet normal  0.00000000E+00  0.00000000E+00 -1.00000000E+00
    outer loop
      vertex  4.48287994E-01  1.67303300E+00 -6.00000000E+00
      vertex -1.67303300E+00 -4.48287994E-01 -6.00000000E+00
      vertex -1.73205101E+00 -0.00000000E+00 -6.00000000E+00
    endloop
  endfacet
  facet normal  0.00000000E+00  0.00000000E+00 -1.00000000E+00
    outer loop
      vertex  4.48287994E-01  1.67303300E+00 -6.00000000E+00
      vertex -1.50000000E+00  8.66024971E-01 -6.00000000E+00
      vertex -8.66024971E-01  1.50000000E+00 -6.00000000E+00
    endloop
  endfacet
  facet normal  0.00000000E+00  0.00000000E+00 -1.00000000E+00
    outer loop
      vertex  4.48287994E-01  1.67303300E+00 -6.00000000E+00
      vertex -1.73205101E+00 -0.00000000E+00 -6.00000000E+00
      vertex -1.50000000E+00  8.66024971E-01 -6.00000000E+00
    endloop
  endfacet
  facet normal  0.00000000E+00  0.00000000E+00 -1.00000000E+00
    outer loop
      vertex  1.22474504E+00  1.22474504E+00 -6.00000000E+00
      vertex  1.67303300E+00  4.48287994E-01 -6.00000000E+00
      vertex  1.73205101E+00  0.00000000E+00 -6.00000000E+00
    endloop
  endfacet
  facet normal  0.00000000E+00  0.00000000E+00 -1.00000000E+00
    outer loop
      vertex  1.22474504E+00  1.22474504E+00 -6.00000000E+00
      vertex  1.50000000E+00  8.66024971E-01 -6.00000000E+00
      vertex  1.67303300E+00  4.48287994E-01 -6.00000000E+00
    endloop
  endfacet
  facet normal  0.00000000E+00  0.00000000E+00 -1.00000000E+00
    outer loop
      vertex  1.22474504E+00  1.22474504E+00 -6.00000000E+00
      vertex  4.48287994E-01  1.67303300E+00 -6.00000000E+00
      vertex  8.66024971E-01  1.50000000E+00 -6.00000000E+00
    endloop
  endfacet
  facet normal  0.00000000E+00  0.00000000E+00 -1.00000000E+00
    outer loop
      vertex  1.22474504E+00  1.22474504E+00 -6.00000000E+00
      vertex -8.66024971E-01 -1.50000000E+00 -6.00000000E+00
      vertex -1.22474504E+00 -1.22474504E+00 -6.00000000E+00
    endloop
  endfacet
  facet normal  0.00000000E+00  0.00000000E+00 -1.00000000E+00
    outer loop
      vertex  1.22474504E+00  1.22474504E+00 -6.00000000E+00
      vertex -1.22474504E+00 -1.22474504E+00 -6.00000000E+00
      vertex -1.67303300E+00 -4.48287994E-01 -6.00000000E+00
    endloop
  endfacet
  facet normal  0.00000000E+00  0.00000000E+00 -1.00000000E+00
    outer loop
      vertex  1.22474504E+00  1.22474504E+00 -6.00000000E+00
      vertex  0.00000000E+00 -1.73205101E+00 -6.00000000E+00
      vertex -8.66024971E-01 -1.50000000E+00 -6.00000000E+00
    endloop
  endfacet
  facet normal  0.00000000E+00  0.00000000E+00 -1.00000000E+00
    outer loop
      vertex  1.22474504E+00  1.22474504E+00 -6.00000000E+00
      vertex  8.66024971E-01 -1.50000000E+00 -6.00000000E+00
      vertex  0.00000000E+00 -1.73205101E+00 -6.00000000E+00
    endloop
  endfacet
  facet normal  0.00000000E+00 -0.00000000E+00 -1.00000000E+00
    outer loop
      vertex  1.22474504E+00  1.22474504E+00 -6.00000000E+00
      vertex  1.73205101E+00  0.00000000E+00 -6.00000000E+00
      vertex  8.66024971E-01 -1.50000000E+00 -6.00000000E+00
    endloop
  endfacet
  facet normal -0.00000000E+00  0.00000000E+00 -1.00000000E+00
    outer loop
      vertex  1.22474504E+00  1.22474504E+00 -6.00000000E+00
      vertex -1.67303300E+00 -4.48287994E-01 -6.00000000E+00
      vertex  4.48287994E-01  1.67303300E+00 -6.00000000E+00
    endloop
  endfacet
  facet normal -1.26150042E-01  9.58209276E-01 -2.56751209E-01
    outer loop
      vertex -5.17638028E-01  1.93185198E+00 -5.00000000E+00
      vertex -0.00000000E+00  2.00000000E+00 -5.00000000E+00
      vertex -0.00000000E+00  1.73205101E+00 -6.00000000E+00
    endloop
  endfacet
  facet normal -1.26150176E-01  9.58209217E-01 -2.56751269E-01
    outer loop
      vertex -5.17638028E-01  1.93185198E+00 -5.00000000E+00
      vertex -0.00000000E+00  1.73205101E+00 -6.00000000E+00
      vertex -4.48287994E-01  1.67303300E+00 -6.00000000E+00
    endloop
  endfacet
  facet normal -3.69856089E-01  8.92908156E-01 -2.56751716E-01
    outer loop
      vertex -1.00000000E+00  1.73205101E+00 -5.00000000E+00
      vertex -4.48287994E-01  1.67303300E+00 -6.00000000E+00
      vertex -8.66024971E-01  1.50000000E+00 -6.00000000E+00
    endloop
  endfacet
  facet normal -3.69855106E-01  8.92908752E-01 -2.56751209E-01
    outer loop
      vertex -1.00000000E+00  1.73205101E+00 -5.00000000E+00
      vertex -5.17638028E-01  1.93185198E+00 -5.00000000E+00
      vertex -4.48287994E-01  1.67303300E+00 -6.00000000E+00
    endloop
  endfacet
  facet normal -5.88353336E-01  7.66758740E-01 -2.56751686E-01
    outer loop
      vertex -1.41421402E+00  1.41421402E+00 -5.00000000E+00
      vertex -8.66024971E-01  1.50000000E+00 -6.00000000E+00
      vertex -1.22474504E+00  1.22474504E+00 -6.00000000E+00
    endloop
  endfacet
  facet normal -5.88353455E-01  7.66758561E-01 -2.56751776E-01
    outer loop
      vertex -1.41421402E+00  1.41421402E+00 -5.00000000E+00
      vertex -1.00000000E+00  1.73205101E+00 -5.00000000E+00
      vertex -8.66024971E-01  1.50000000E+00 -6.00000000E+00
    endloop
  endfacet
  facet normal -7.66758680E-01  5.88353336E-01 -2.56751776E-01
    outer loop
      vertex -1.73205101E+00  1.00000000E+00 -5.00000000E+00
      vertex -1.22474504E+00  1.22474504E+00 -6.00000000E+00
      vertex -1.50000000E+00  8.66024971E-01 -6.00000000E+00
    endloop
  endfacet
  facet normal -7.66758621E-01  5.88353455E-01 -2.56751716E-01
    outer loop
      vertex -1.73205101E+00  1.00000000E+00 -5.00000000E+00
      vertex -1.41421402E+00  1.41421402E+00 -5.00000000E+00
      vertex -1.22474504E+00  1.22474504E+00 -6.00000000E+00
    endloop
  endfacet
  facet normal -8.92908335E-01  3.69856179E-01 -2.56751150E-01
    outer loop
      vertex -1.93185198E+00  5.17638028E-01 -5.00000000E+00
      vertex -1.50000000E+00  8.66024971E-01 -6.00000000E+00
      vertex -1.67303300E+00  4.48287994E-01 -6.00000000E+00
    endloop
  endfacet
  facet normal -9.58209217E-01  1.26150176E-01 -2.56751269E-01
    outer loop
      vertex -1.93185198E+00  5.17638028E-01 -5.00000000E+00
      vertex -1.67303300E+00  4.48287994E-01 -6.00000000E+00
      vertex -1.73205101E+00 -0.00000000E+00 -6.00000000E+00
    endloop
  endfacet
  facet normal -8.92908633E-01  3.69855046E-01 -2.56751716E-01
    outer loop
      vertex -1.93185198E+00  5.17638028E-01 -5.00000000E+00
      vertex -1.73205101E+00  1.00000000E+00 -5.00000000E+00
      vertex -1.50000000E+00  8.66024971E-01 -6.00000000E+00
    endloop
  endfacet
  facet normal -9.58209276E-01  1.26150042E-01 -2.56751209E-01
    outer loop
      vertex -2.00000000E+00 -0.00000000E+00 -5.00000000E+00
      vertex -1.93185198E+00  5.17638028E-01 -5.00000000E+00
      vertex -1.73205101E+00 -0.00000000E+00 -6.00000000E+00
    endloop
  endfacet
  facet normal -9.58209217E-01 -1.26150176E-01 -2.56751239E-01
    outer loop
      vertex -1.93185198E+00 -5.17638028E-01 -5.00000000E+00
      vertex -1.73205101E+00 -0.00000000E+00 -6.00000000E+00
      vertex -1.67303300E+00 -4.48287994E-01 -6.00000000E+00
    endloop
  endfacet
  facet normal -9.58209276E-01 -1.26150042E-01 -2.56751209E-01
    outer loop
      vertex -1.93185198E+00 -5.17638028E-01 -5.00000000E+00
      vertex -2.00000000E+00 -0.00000000E+00 -5.00000000E+00
      vertex -1.73205101E+00 -0.00000000E+00 -6.00000000E+00
    endloop
  endfacet
  facet normal -8.92908156E-01 -3.69856089E-01 -2.56751716E-01
    outer loop
      vertex -1.73205101E+00 -1.00000000E+00 -5.00000000E+00
      vertex -1.67303300E+00 -4.48287994E-01 -6.00000000E+00
      vertex -1.50000000E+00 -8.66024971E-01 -6.00000000E+00
    endloop
  endfacet
  facet normal -8.92908752E-01 -3.69855106E-01 -2.56751209E-01
    outer loop
      vertex -1.73205101E+00 -1.00000000E+00 -5.00000000E+00
      vertex -1.93185198E+00 -5.17638028E-01 -5.00000000E+00
      vertex -1.67303300E+00 -4.48287994E-01 -6.00000000E+00
    endloop
  endfacet
  facet normal -7.66758740E-01 -5.88353336E-01 -2.56751686E-01
    outer loop
      vertex -1.41421402E+00 -1.41421402E+00 -5.00000000E+00
      vertex -1.50000000E+00 -8.66024971E-01 -6.00000000E+00
      vertex -1.22474504E+00 -1.22474504E+00 -6.00000000E+00
    endloop
  endfacet
  facet normal -7.66758561E-01 -5.88353455E-01 -2.56751776E-01
    outer loop
      vertex -1.41421402E+00 -1.41421402E+00 -5.00000000E+00
      vertex -1.73205101E+00 -1.00000000E+00 -5.00000000E+00
      vertex -1.50000000E+00 -8.66024971E-01 -6.00000000E+00
    endloop
  endfacet
  facet normal -5.88353336E-01 -7.66758680E-01 -2.56751776E-01
    outer loop
      vertex -1.00000000E+00 -1.73205101E+00 -5.00000000E+00
      vertex -1.22474504E+00 -1.22474504E+00 -6.00000000E+00
      vertex -8.66024971E-01 -1.50000000E+00 -6.00000000E+00
    endloop
  endfacet
  facet normal -5.88353455E-01 -7.66758621E-01 -2.56751686E-01
    outer loop
      vertex -1.00000000E+00 -1.73205101E+00 -5.00000000E+00
      vertex -1.41421402E+00 -1.41421402E+00 -5.00000000E+00
      vertex -1.22474504E+00 -1.22474504E+00 -6.00000000E+00
    endloop
  endfacet
  facet normal -3.69856179E-01 -8.92908335E-01 -2.56751150E-01
    outer loop
      vertex -5.17638028E-01 -1.93185198E+00 -5.00000000E+00
      vertex -8.66024971E-01 -1.50000000E+00 -6.00000000E+00
      vertex -4.48287994E-01 -1.67303300E+00 -6.00000000E+00
    endloop
  endfacet
  facet normal -3.69855046E-01 -8.92908633E-01 -2.56751716E-01
    outer loop
      vertex -5.17638028E-01 -1.93185198E+00 -5.00000000E+00
      vertex -1.00000000E+00 -1.73205101E+00 -5.00000000E+00
      vertex -8.66024971E-01 -1.50000000E+00 -6.00000000E+00
    endloop
  endfacet
  facet normal -1.26150176E-01 -9.58209217E-01 -2.56751180E-01
    outer loop
      vertex  0.00000000E+00 -2.00000000E+00 -5.00000000E+00
      vertex -4.48287994E-01 -1.67303300E+00 -6.00000000E+00
      vertex  0.00000000E+00 -1.73205101E+00 -6.00000000E+00
    endloop
  endfacet
  facet normal -1.26150042E-01 -9.58209276E-01 -2.56751239E-01
    outer loop
      vertex  0.00000000E+00 -2.00000000E+00 -5.00000000E+00
      vertex -5.17638028E-01 -1.93185198E+00 -5.00000000E+00
      vertex -4.48287994E-01 -1.67303300E+00 -6.00000000E+00
    endloop
  endfacet
  facet normal -1.30525589E-01  9.91444945E-01  7.02651215E-10
    outer loop
      vertex -5.17638028E-01  1.93185198E+00  0.00000000E+00
      vertex -0.00000000E+00  2.00000000E+00  0.00000000E+00
      vertex -0.00000000E+00  2.00000000E+00 -5.00000000E+00
    endloop
  endfacet
  facet normal -1.30525589E-01  9.91444945E-01  0.00000000E+00
    outer loop
      vertex -5.17638028E-01  1.93185198E+00  0.00000000E+00
      vertex -0.00000000E+00  2.00000000E+00 -5.00000000E+00
      vertex -5.17638028E-01  1.93185198E+00 -5.00000000E+00
    endloop
  endfacet
  facet normal -3.82683575E-01  9.23879445E-01  0.00000000E+00
    outer loop
      vertex -1.00000000E+00  1.73205101E+00  0.00000000E+00
      vertex -5.17638028E-01  1.93185198E+00 -5.00000000E+00
      vertex -1.00000000E+00  1.73205101E+00 -5.00000000E+00
    endloop
  endfacet
  facet normal -6.08760715E-01  7.93353915E-01  0.00000000E+00
    outer loop
      vertex -1.00000000E+00  1.73205101E+00  0.00000000E+00
      vertex -1.00000000E+00  1.73205101E+00 -5.00000000E+00
      vertex -1.41421402E+00  1.41421402E+00 -5.00000000E+00
    endloop
  endfacet
  facet normal -3.82683575E-01  9.23879445E-01  7.07351538E-11
    outer loop
      vertex -1.00000000E+00  1.73205101E+00  0.00000000E+00
      vertex -5.17638028E-01  1.93185198E+00  0.00000000E+00
      vertex -5.17638028E-01  1.93185198E+00 -5.00000000E+00
    endloop
  endfacet
  facet normal -6.08760715E-01  7.93353915E-01  0.00000000E+00
    outer loop
      vertex -1.41421402E+00  1.41421402E+00  0.00000000E+00
      vertex -1.00000000E+00  1.73205101E+00  0.00000000E+00
      vertex -1.41421402E+00  1.41421402E+00 -5.00000000E+00
    endloop
  endfacet
  facet normal -7.93353915E-01  6.08760715E-01  0.00000000E+00
    outer loop
      vertex -1.73205101E+00  1.00000000E+00  0.00000000E+00
      vertex -1.41421402E+00  1.41421402E+00 -5.00000000E+00
      vertex -1.73205101E+00  1.00000000E+00 -5.00000000E+00
    endloop
  endfacet
  facet normal -7.93353915E-01  6.08760715E-01 -2.23538055E-09
    outer loop
      vertex -1.73205101E+00  1.00000000E+00  0.00000000E+00
      vertex -1.41421402E+00  1.41421402E+00  0.00000000E+00
      vertex -1.41421402E+00  1.41421402E+00 -5.00000000E+00
    endloop
  endfacet
  facet normal -9.23879445E-01  3.82683575E-01  0.00000000E+00
    outer loop
      vertex -1.93185198E+00  5.17638028E-01  0.00000000E+00
      vertex -1.73205101E+00  1.00000000E+00 -5.00000000E+00
      vertex -1.93185198E+00  5.17638028E-01 -5.00000000E+00
    endloop
  endfacet
  facet normal -9.23879445E-01  3.82683575E-01  7.07351538E-11
    outer loop
      vertex -1.93185198E+00  5.17638028E-01  0.00000000E+00
      vertex -1.73205101E+00  1.00000000E+00  0.00000000E+00
      vertex -1.73205101E+00  1.00000000E+00 -5.00000000E+00
    endloop
  endfacet
  facet normal -9.91444945E-01  1.30525589E-01  0.00000000E+00
    outer loop
      vertex -2.00000000E+00 -0.00000000E+00  0.00000000E+00
      vertex -1.93185198E+00  5.17638028E-01 -5.00000000E+00
      vertex -2.00000000E+00 -0.00000000E+00 -5.00000000E+00
    endloop
  endfacet
  facet normal -9.91444945E-01 -1.30525589E-01 -0.00000000E+00
    outer loop
      vertex -2.00000000E+00 -0.00000000E+00  0.00000000E+00
      vertex -2.00000000E+00 -0.00000000E+00 -5.00000000E+00
      vertex -1.93185198E+00 -5.17638028E-01 -5.00000000E+00
    endloop
  endfacet
  facet normal -9.91444945E-01  1.30525589E-01  7.02651215E-10
    outer loop
      vertex -2.00000000E+00 -0.00000000E+00  0.00000000E+00
      vertex -1.93185198E+00  5.17638028E-01  0.00000000E+00
      vertex -1.93185198E+00  5.17638028E-01 -5.00000000E+00
    endloop
  endfacet
  facet normal -9.91444945E-01 -1.30525589E-01 -0.00000000E+00
    outer loop
      vertex -1.93185198E+00 -5.17638028E-01  0.00000000E+00
      vertex -2.00000000E+00 -0.00000000E+00  0.00000000E+00
      vertex -1.93185198E+00 -5.17638028E-01 -5.00000000E+00
    endloop
  endfacet
  facet normal -9.23879445E-01 -3.82683575E-01 -0.00000000E+00
    outer loop
      vertex -1.73205101E+00 -1.00000000E+00  0.00000000E+00
      vertex -1.93185198E+00 -5.17638028E-01 -5.00000000E+00
      vertex -1.73205101E+00 -1.00000000E+00 -5.00000000E+00
    endloop
  endfacet
  facet normal -9.23879445E-01 -3.82683575E-01 -7.07351538E-11
    outer loop
      vertex -1.73205101E+00 -1.00000000E+00  0.00000000E+00
      vertex -1.93185198E+00 -5.17638028E-01  0.00000000E+00
      vertex -1.93185198E+00 -5.17638028E-01 -5.00000000E+00
    endloop
  endfacet
  facet normal -7.93353915E-01 -6.08760715E-01 -0.00000000E+00
    outer loop
      vertex -1.41421402E+00 -1.41421402E+00  0.00000000E+00
      vertex -1.73205101E+00 -1.00000000E+00 -5.00000000E+00
      vertex -1.41421402E+00 -1.41421402E+00 -5.00000000E+00
    endloop
  endfacet
  facet normal -7.93353915E-01 -6.08760715E-01  2.23538055E-09
    outer loop
      vertex -1.41421402E+00 -1.41421402E+00  0.00000000E+00
      vertex -1.73205101E+00 -1.00000000E+00  0.00000000E+00
      vertex -1.73205101E+00 -1.00000000E+00 -5.00000000E+00
    endloop
  endfacet
  facet normal -6.08760715E-01 -7.93353915E-01 -0.00000000E+00
    outer loop
      vertex -1.00000000E+00 -1.73205101E+00  0.00000000E+00
      vertex -1.41421402E+00 -1.41421402E+00 -5.00000000E+00
      vertex -1.00000000E+00 -1.73205101E+00 -5.00000000E+00
    endloop
  endfacet
  facet normal -3.82683575E-01 -9.23879445E-01 -0.00000000E+00
    outer loop
      vertex -1.00000000E+00 -1.73205101E+00  0.00000000E+00
      vertex -1.00000000E+00 -1.73205101E+00 -5.00000000E+00
      vertex -5.17638028E-01 -1.93185198E+00 -5.00000000E+00
    endloop
  endfacet
  facet normal -6.08760715E-01 -7.93353915E-01  2.23538055E-09
    outer loop
      vertex -1.00000000E+00 -1.73205101E+00  0.00000000E+00
      vertex -1.41421402E+00 -1.41421402E+00  0.00000000E+00
      vertex -1.41421402E+00 -1.41421402E+00 -5.00000000E+00
    endloop
  endfacet
  facet normal -3.82683575E-01 -9.23879445E-01 -0.00000000E+00
    outer loop
      vertex -5.17638028E-01 -1.93185198E+00  0.00000000E+00
      vertex -1.00000000E+00 -1.73205101E+00  0.00000000E+00
      vertex -5.17638028E-01 -1.93185198E+00 -5.00000000E+00
    endloop
  endfacet
  facet normal -1.30525589E-01 -9.91444945E-01 -0.00000000E+00
    outer loop
      vertex  0.00000000E+00 -2.00000000E+00  0.00000000E+00
      vertex -5.17638028E-01 -1.93185198E+00 -5.00000000E+00
      vertex  0.00000000E+00 -2.00000000E+00 -5.00000000E+00
    endloop
  endfacet
  facet normal -1.30525589E-01 -9.91444945E-01 -7.02651215E-10
    outer loop
      vertex  0.00000000E+00 -2.00000000E+00  0.00000000E+00
      vertex -5.17638028E-01 -1.93185198E+00  0.00000000E+00
      vertex -5.17638028E-01 -1.93185198E+00 -5.00000000E+00
    endloop
  endfacet
  facet normal  0.00000000E+00  0.00000000E+00 -1.00000000E+00
    outer loop
      vertex -1.41421402E+00 -1.41421402E+00  0.00000000E+00
      vertex -1.50000000E+00 -2.59807611E+00  0.00000000E+00
      vertex -2.12132001E+00 -2.12132001E+00  0.00000000E+00
    endloop
  endfacet
  facet normal  0.00000000E+00  0.00000000E+00 -1.00000000E+00
    outer loop
      vertex -1.73205101E+00 -1.00000000E+00  0.00000000E+00
      vertex -2.12132001E+00 -2.12132001E+00  0.00000000E+00
      vertex -2.59807611E+00 -1.50000000E+00  0.00000000E+00
    endloop
  endfacet
  facet normal  0.00000000E+00 -0.00000000E+00 -1.00000000E+00
    outer loop
      vertex -1.73205101E+00 -1.00000000E+00  0.00000000E+00
      vertex -1.41421402E+00 -1.41421402E+00  0.00000000E+00
      vertex -2.12132001E+00 -2.12132001E+00  0.00000000E+00
    endloop
  endfacet
  facet normal -0.00000000E+00  0.00000000E+00 -1.00000000E+00
    outer loop
      vertex -1.00000000E+00 -1.73205101E+00  0.00000000E+00
      vertex -1.50000000E+00 -2.59807611E+00  0.00000000E+00
      vertex -1.41421402E+00 -1.41421402E+00  0.00000000E+00
    endloop
  endfacet
  facet normal  0.00000000E+00  0.00000000E+00 -1.00000000E+00
    outer loop
      vertex -1.93185198E+00 -5.17638028E-01  0.00000000E+00
      vertex -2.59807611E+00 -1.50000000E+00  0.00000000E+00
      vertex -2.89777803E+00 -7.76457012E-01  0.00000000E+00
    endloop
  endfacet
  facet normal  0.00000000E+00 -0.00000000E+00 -1.00000000E+00
    outer loop
      vertex -1.93185198E+00 -5.17638028E-01  0.00000000E+00
      vertex -1.73205101E+00 -1.00000000E+00  0.00000000E+00
      vertex -2.59807611E+00 -1.50000000E+00  0.00000000E+00
    endloop
  endfacet
  facet normal  0.00000000E+00  0.00000000E+00 -1.00000000E+00
    outer loop
      vertex -5.17638028E-01 -1.93185198E+00  0.00000000E+00
      vertex -7.76457012E-01 -2.89777803E+00  0.00000000E+00
      vertex -1.50000000E+00 -2.59807611E+00  0.00000000E+00
    endloop
  endfacet
  facet normal -0.00000000E+00  0.00000000E+00 -1.00000000E+00
    outer loop
      vertex -5.17638028E-01 -1.93185198E+00  0.00000000E+00
      vertex -1.50000000E+00 -2.59807611E+00  0.00000000E+00
      vertex -1.00000000E+00 -1.73205101E+00  0.00000000E+00
    endloop
  endfacet
  facet normal  0.00000000E+00  0.00000000E+00 -1.00000000E+00
    outer loop
      vertex -2.00000000E+00 -0.00000000E+00  0.00000000E+00
      vertex -3.00000000E+00 -0.00000000E+00  0.00000000E+00
      vertex -2.89777803E+00  7.76457012E-01  0.00000000E+00
    endloop
  endfacet
  facet normal -0.00000000E+00  0.00000000E+00 -1.00000000E+00
    outer loop
      vertex -2.00000000E+00 -0.00000000E+00  0.00000000E+00
      vertex -2.89777803E+00 -7.76457012E-01  0.00000000E+00
      vertex -3.00000000E+00 -0.00000000E+00  0.00000000E+00
    endloop
  endfacet
  facet normal  0.00000000E+00 -0.00000000E+00 -1.00000000E+00
    outer loop
      vertex -2.00000000E+00 -0.00000000E+00  0.00000000E+00
      vertex -1.93185198E+00 -5.17638028E-01  0.00000000E+00
      vertex -2.89777803E+00 -7.76457012E-01  0.00000000E+00
    endloop
  endfacet
  facet normal  0.00000000E+00 -0.00000000E+00 -1.00000000E+00
    outer loop
      vertex  0.00000000E+00 -2.00000000E+00  0.00000000E+00
      vertex  0.00000000E+00 -3.00000000E+00  0.00000000E+00
      vertex -7.76457012E-01 -2.89777803E+00  0.00000000E+00
    endloop
  endfacet
  facet normal -0.00000000E+00  0.00000000E+00 -1.00000000E+00
    outer loop
      vertex  0.00000000E+00 -2.00000000E+00  0.00000000E+00
      vertex -7.76457012E-01 -2.89777803E+00  0.00000000E+00
      vertex -5.17638028E-01 -1.93185198E+00  0.00000000E+00
    endloop
  endfacet
  facet normal -0.00000000E+00  0.00000000E+00 -1.00000000E+00
    outer loop
      vertex -1.93185198E+00  5.17638028E-01  0.00000000E+00
      vertex -2.00000000E+00 -0.00000000E+00  0.00000000E+00
      vertex -2.89777803E+00  7.76457012E-01  0.00000000E+00
    endloop
  endfacet
  facet normal  0.00000000E+00 -0.00000000E+00 -1.00000000E+00
    outer loop
      vertex  5.17638028E-01 -1.93185198E+00  0.00000000E+00
      vertex  7.76457012E-01 -2.89777803E+00  0.00000000E+00
      vertex  0.00000000E+00 -3.00000000E+00  0.00000000E+00
    endloop
  endfacet
  facet normal  0.00000000E+00  0.00000000E+00 -1.00000000E+00
    outer loop
      vertex  5.17638028E-01 -1.93185198E+00  0.00000000E+00
      vertex  0.00000000E+00 -3.00000000E+00  0.00000000E+00
      vertex  0.00000000E+00 -2.00000000E+00  0.00000000E+00
    endloop
  endfacet
  facet normal -0.00000000E+00  0.00000000E+00 -1.00000000E+00
    outer loop
      vertex -1.73205101E+00  1.00000000E+00  0.00000000E+00
      vertex -2.89777803E+00  7.76457012E-01  0.00000000E+00
      vertex -2.59807611E+00  1.50000000E+00  0.00000000E+00
    endloop
  endfacet
  facet normal  0.00000000E+00  0.00000000E+00 -1.00000000E+00
    outer loop
      vertex -1.73205101E+00  1.00000000E+00  0.00000000E+00
      vertex -1.93185198E+00  5.17638028E-01  0.00000000E+00
      vertex -2.89777803E+00  7.76457012E-01  0.00000000E+00
    endloop
  endfacet
  facet normal  0.00000000E+00 -0.00000000E+00 -1.00000000E+00
    outer loop
      vertex  1.00000000E+00 -1.73205101E+00  0.00000000E+00
      vertex  1.50000000E+00 -2.59807611E+00  0.00000000E+00
      vertex  7.76457012E-01 -2.89777803E+00  0.00000000E+00
    endloop
  endfacet
  facet normal  0.00000000E+00  0.00000000E+00 -1.00000000E+00
    outer loop
      vertex  1.00000000E+00 -1.73205101E+00  0.00000000E+00
      vertex  7.76457012E-01 -2.89777803E+00  0.00000000E+00
      vertex  5.17638028E-01 -1.93185198E+00  0.00000000E+00
    endloop
  endfacet
  facet normal  0.00000000E+00  0.00000000E+00 -1.00000000E+00
    outer loop
      vertex -1.41421402E+00  1.41421402E+00  0.00000000E+00
      vertex -2.59807611E+00  1.50000000E+00  0.00000000E+00
      vertex -2.12132001E+00  2.12132001E+00  0.00000000E+00
    endloop
  endfacet
  facet normal -0.00000000E+00  0.00000000E+00 -1.00000000E+00
    outer loop
      vertex -1.41421402E+00  1.41421402E+00  0.00000000E+00
      vertex -1.73205101E+00  1.00000000E+00  0.00000000E+00
      vertex -2.59807611E+00  1.50000000E+00  0.00000000E+00
    endloop
  endfacet
  facet normal  0.00000000E+00 -0.00000000E+00 -1.00000000E+00
    outer loop
      vertex  1.41421402E+00 -1.41421402E+00  0.00000000E+00
      vertex  1.50000000E+00 -2.59807611E+00  0.00000000E+00
      vertex  1.00000000E+00 -1.73205101E+00  0.00000000E+00
    endloop
  endfacet
  facet normal -0.00000000E+00  0.00000000E+00 -1.00000000E+00
    outer loop
      vertex  2.12132001E+00 -2.12132001E+00  0.00000000E+00
      vertex  1.50000000E+00 -2.59807611E+00  0.00000000E+00
      vertex  1.41421402E+00 -1.41421402E+00  0.00000000E+00
    endloop
  endfacet
  facet normal -0.00000000E+00  0.00000000E+00 -1.00000000E+00
    outer loop
      vertex -1.00000000E+00  1.73205101E+00  0.00000000E+00
      vertex -1.41421402E+00  1.41421402E+00  0.00000000E+00
      vertex -2.12132001E+00  2.12132001E+00  0.00000000E+00
    endloop
  endfacet
  facet normal  0.00000000E+00 -0.00000000E+00 -1.00000000E+00
    outer loop
      vertex -1.50000000E+00  2.59807611E+00  0.00000000E+00
      vertex -1.00000000E+00  1.73205101E+00  0.00000000E+00
      vertex -2.12132001E+00  2.12132001E+00  0.00000000E+00
    endloop
  endfacet
  facet normal -0.00000000E+00  0.00000000E+00 -1.00000000E+00
    outer loop
      vertex  2.59807611E+00 -1.50000000E+00  0.00000000E+00
      vertex  2.12132001E+00 -2.12132001E+00  0.00000000E+00
      vertex  1.41421402E+00 -1.41421402E+00  0.00000000E+00
    endloop
  endfacet
  facet normal  0.00000000E+00  0.00000000E+00 -1.00000000E+00
    outer loop
      vertex  2.59807611E+00 -1.50000000E+00  0.00000000E+00
      vertex  1.41421402E+00 -1.41421402E+00  0.00000000E+00
      vertex  1.73205101E+00 -1.00000000E+00  0.00000000E+00
    endloop
  endfacet
  facet normal -0.00000000E+00  0.00000000E+00 -1.00000000E+00
    outer loop
      vertex -5.17638028E-01  1.93185198E+00  0.00000000E+00
      vertex -1.00000000E+00  1.73205101E+00  0.00000000E+00
      vertex -1.50000000E+00  2.59807611E+00  0.00000000E+00
    endloop
  endfacet
  facet normal  0.00000000E+00  0.00000000E+00 -1.00000000E+00
    outer loop
      vertex -7.76457012E-01  2.89777803E+00  0.00000000E+00
      vertex -0.00000000E+00  2.00000000E+00  0.00000000E+00
      vertex -5.17638028E-01  1.93185198E+00  0.00000000E+00
    endloop
  endfacet
  facet normal  0.00000000E+00 -0.00000000E+00 -1.00000000E+00
    outer loop
      vertex -7.76457012E-01  2.89777803E+00  0.00000000E+00
      vertex -5.17638028E-01  1.93185198E+00  0.00000000E+00
      vertex -1.50000000E+00  2.59807611E+00  0.00000000E+00
    endloop
  endfacet
  facet normal  0.00000000E+00  0.00000000E+00 -1.00000000E+00
    outer loop
      vertex  2.89777803E+00 -7.76457012E-01  0.00000000E+00
      vertex  2.59807611E+00 -1.50000000E+00  0.00000000E+00
      vertex  1.73205101E+00 -1.00000000E+00  0.00000000E+00
    endloop
  endfacet
  facet normal -0.00000000E+00  0.00000000E+00 -1.00000000E+00
    outer loop
      vertex  2.89777803E+00 -7.76457012E-01  0.00000000E+00
      vertex  1.73205101E+00 -1.00000000E+00  0.00000000E+00
      vertex  1.93185198E+00 -5.17638028E-01  0.00000000E+00
    endloop
  endfacet
  facet normal  0.00000000E+00 -0.00000000E+00 -1.00000000E+00
    outer loop
      vertex -0.00000000E+00  3.00000000E+00  0.00000000E+00
      vertex -0.00000000E+00  2.00000000E+00  0.00000000E+00
      vertex -7.76457012E-01  2.89777803E+00  0.00000000E+00
    endloop
  endfacet
  facet normal  0.00000000E+00  0.00000000E+00 -1.00000000E+00
    outer loop
      vertex  3.00000000E+00  0.00000000E+00  0.00000000E+00
      vertex  2.89777803E+00 -7.76457012E-01  0.00000000E+00
      vertex  1.93185198E+00 -5.17638028E-01  0.00000000E+00
    endloop
  endfacet
  facet normal -0.00000000E+00  0.00000000E+00 -1.00000000E+00
    outer loop
      vertex  3.00000000E+00  0.00000000E+00  0.00000000E+00
      vertex  1.93185198E+00 -5.17638028E-01  0.00000000E+00
      vertex  2.00000000E+00  0.00000000E+00  0.00000000E+00
    endloop
  endfacet
  facet normal  0.00000000E+00  0.00000000E+00 -1.00000000E+00
    outer loop
      vertex  3.00000000E+00  0.00000000E+00  0.00000000E+00
      vertex  2.00000000E+00  0.00000000E+00  0.00000000E+00
      vertex  1.93185198E+00  5.17638028E-01  0.00000000E+00
    endloop
  endfacet
  facet normal -0.00000000E+00  0.00000000E+00 -1.00000000E+00
    outer loop
      vertex  7.76457012E-01  2.89777803E+00  0.00000000E+00
      vertex -0.00000000E+00  2.00000000E+00  0.00000000E+00
      vertex -0.00000000E+00  3.00000000E+00  0.00000000E+00
    endloop
  endfacet
  facet normal  0.00000000E+00  0.00000000E+00 -1.00000000E+00
    outer loop
      vertex  7.76457012E-01  2.89777803E+00  0.00000000E+00
      vertex  5.17638028E-01  1.93185198E+00  0.00000000E+00
      vertex -0.00000000E+00  2.00000000E+00  0.00000000E+00
    endloop
  endfacet
  facet normal  0.00000000E+00 -0.00000000E+00 -1.00000000E+00
    outer loop
      vertex  2.89777803E+00  7.76457012E-01  0.00000000E+00
      vertex  3.00000000E+00  0.00000000E+00  0.00000000E+00
      vertex  1.93185198E+00  5.17638028E-01  0.00000000E+00
    endloop
  endfacet
  facet normal  0.00000000E+00  0.00000000E+00 -1.00000000E+00
    outer loop
      vertex  1.50000000E+00  2.59807611E+00  0.00000000E+00
      vertex  1.00000000E+00  1.73205101E+00  0.00000000E+00
      vertex  5.17638028E-01  1.93185198E+00  0.00000000E+00
    endloop
  endfacet
  facet normal -0.00000000E+00  0.00000000E+00 -1.00000000E+00
    outer loop
      vertex  1.50000000E+00  2.59807611E+00  0.00000000E+00
      vertex  5.17638028E-01  1.93185198E+00  0.00000000E+00
      vertex  7.76457012E-01  2.89777803E+00  0.00000000E+00
    endloop
  endfacet
  facet normal  0.00000000E+00  0.00000000E+00 -1.00000000E+00
    outer loop
      vertex  2.59807611E+00  1.50000000E+00  0.00000000E+00
      vertex  1.93185198E+00  5.17638028E-01  0.00000000E+00
      vertex  1.73205101E+00  1.00000000E+00  0.00000000E+00
    endloop
  endfacet
  facet normal  0.00000000E+00  0.00000000E+00 -1.00000000E+00
    outer loop
      vertex  2.59807611E+00  1.50000000E+00  0.00000000E+00
      vertex  1.73205101E+00  1.00000000E+00  0.00000000E+00
      vertex  1.41421402E+00  1.41421402E+00  0.00000000E+00
    endloop
  endfacet
  facet normal  0.00000000E+00 -0.00000000E+00 -1.00000000E+00
    outer loop
      vertex  2.59807611E+00  1.50000000E+00  0.00000000E+00
      vertex  2.89777803E+00  7.76457012E-01  0.00000000E+00
      vertex  1.93185198E+00  5.17638028E-01  0.00000000E+00
    endloop
  endfacet
  facet normal -0.00000000E+00  0.00000000E+00 -1.00000000E+00
    outer loop
      vertex  2.12132001E+00  2.12132001E+00  0.00000000E+00
      vertex  1.00000000E+00  1.73205101E+00  0.00000000E+00
      vertex  1.50000000E+00  2.59807611E+00  0.00000000E+00
    endloop
  endfacet
  facet normal  0.00000000E+00  0.00000000E+00 -1.00000000E+00
    outer loop
      vertex  2.12132001E+00  2.12132001E+00  0.00000000E+00
      vertex  1.41421402E+00  1.41421402E+00  0.00000000E+00
      vertex  1.00000000E+00  1.73205101E+00  0.00000000E+00
    endloop
  endfacet
  facet normal  0.00000000E+00 -0.00000000E+00 -1.00000000E+00
    outer loop
      vertex  2.12132001E+00  2.12132001E+00  0.00000000E+00
      vertex  2.59807611E+00  1.50000000E+00  0.00000000E+00
      vertex  1.41421402E+00  1.41421402E+00  0.00000000E+00
    endloop
  endfacet
  facet normal -1.30525529E-01  9.91444945E-01 -5.02012432E-10
    outer loop
      vertex -7.76457012E-01  2.89777803E+00  3.79999995E+00
      vertex -0.00000000E+00  3.00000000E+00  3.79999995E+00
      vertex -0.00000000E+00  3.00000000E+00  0.00000000E+00
    endloop
  endfacet
  facet normal -1.30525529E-01  9.91444945E-01  0.00000000E+00
    outer loop
      vertex -7.76457012E-01  2.89777803E+00  3.79999995E+00
      vertex -0.00000000E+00  3.00000000E+00  0.00000000E+00
      vertex -7.76457012E-01  2.89777803E+00  0.00000000E+00
    endloop
  endfacet
  facet normal -3.82684082E-01  9.23879266E-01  0.00000000E+00
    outer loop
      vertex -1.50000000E+00  2.59807611E+00  3.79999995E+00
      vertex -7.76457012E-01  2.89777803E+00  0.00000000E+00
      vertex -1.50000000E+00  2.59807611E+00  0.00000000E+00
    endloop
  endfacet
  facet normal -6.08761847E-01  7.93353021E-01  0.00000000E+00
    outer loop
      vertex -1.50000000E+00  2.59807611E+00  3.79999995E+00
      vertex -1.50000000E+00  2.59807611E+00  0.00000000E+00
      vertex -2.12132001E+00  2.12132001E+00  0.00000000E+00
    endloop
  endfacet
  facet normal -3.82684082E-01  9.23879266E-01 -1.12608189E-09
    outer loop
      vertex -1.50000000E+00  2.59807611E+00  3.79999995E+00
      vertex -7.76457012E-01  2.89777803E+00  3.79999995E+00
      vertex -7.76457012E-01  2.89777803E+00  0.00000000E+00
    endloop
  endfacet
  facet normal -6.08761847E-01  7.93353021E-01  0.00000000E+00
    outer loop
      vertex -2.12132001E+00  2.12132001E+00  3.79999995E+00
      vertex -1.50000000E+00  2.59807611E+00  3.79999995E+00
      vertex -2.12132001E+00  2.12132001E+00  0.00000000E+00
    endloop
  endfacet
  facet normal -7.93353021E-01  6.08761847E-01  0.00000000E+00
    outer loop
      vertex -2.59807611E+00  1.50000000E+00  3.79999995E+00
      vertex -2.12132001E+00  2.12132001E+00  0.00000000E+00
      vertex -2.59807611E+00  1.50000000E+00  0.00000000E+00
    endloop
  endfacet
  facet normal -7.93353021E-01  6.08761847E-01 -1.57503810E-09
    outer loop
      vertex -2.59807611E+00  1.50000000E+00  3.79999995E+00
      vertex -2.12132001E+00  2.12132001E+00  3.79999995E+00
      vertex -2.12132001E+00  2.12132001E+00  0.00000000E+00
    endloop
  endfacet
  facet normal -9.23879266E-01  3.82684082E-01  0.00000000E+00
    outer loop
      vertex -2.89777803E+00  7.76457012E-01  3.79999995E+00
      vertex -2.59807611E+00  1.50000000E+00  0.00000000E+00
      vertex -2.89777803E+00  7.76457012E-01  0.00000000E+00
    endloop
  endfacet
  facet normal -9.23879266E-01  3.82684082E-01 -1.12608189E-09
    outer loop
      vertex -2.89777803E+00  7.76457012E-01  3.79999995E+00
      vertex -2.59807611E+00  1.50000000E+00  3.79999995E+00
      vertex -2.59807611E+00  1.50000000E+00  0.00000000E+00
    endloop
  endfacet
  facet normal -9.91444945E-01  1.30525529E-01  0.00000000E+00
    outer loop
      vertex -3.00000000E+00 -0.00000000E+00  3.79999995E+00
      vertex -2.89777803E+00  7.76457012E-01  0.00000000E+00
      vertex -3.00000000E+00 -0.00000000E+00  0.00000000E+00
    endloop
  endfacet
  facet normal -9.91444945E-01  1.30525529E-01 -5.02012432E-10
    outer loop
      vertex -3.00000000E+00 -0.00000000E+00  3.79999995E+00
      vertex -2.89777803E+00  7.76457012E-01  3.79999995E+00
      vertex -2.89777803E+00  7.76457012E-01  0.00000000E+00
    endloop
  endfacet
  facet normal -9.91444945E-01 -1.30525529E-01 -0.00000000E+00
    outer loop
      vertex -2.89777803E+00 -7.76457012E-01  3.79999995E+00
      vertex -3.00000000E+00 -0.00000000E+00  0.00000000E+00
      vertex -2.89777803E+00 -7.76457012E-01  0.00000000E+00
    endloop
  endfacet
  facet normal -9.91444945E-01 -1.30525529E-01  5.02012432E-10
    outer loop
      vertex -2.89777803E+00 -7.76457012E-01  3.79999995E+00
      vertex -3.00000000E+00 -0.00000000E+00  3.79999995E+00
      vertex -3.00000000E+00 -0.00000000E+00  0.00000000E+00
    endloop
  endfacet
  facet normal -9.23879266E-01 -3.82684082E-01 -0.00000000E+00
    outer loop
      vertex -2.59807611E+00 -1.50000000E+00  3.79999995E+00
      vertex -2.89777803E+00 -7.76457012E-01  0.00000000E+00
      vertex -2.59807611E+00 -1.50000000E+00  0.00000000E+00
    endloop
  endfacet
  facet normal -9.23879266E-01 -3.82684082E-01  1.12608189E-09
    outer loop
      vertex -2.59807611E+00 -1.50000000E+00  3.79999995E+00
      vertex -2.89777803E+00 -7.76457012E-01  3.79999995E+00
      vertex -2.89777803E+00 -7.76457012E-01  0.00000000E+00
    endloop
  endfacet
  facet normal -7.93353021E-01 -6.08761847E-01 -0.00000000E+00
    outer loop
      vertex -2.12132001E+00 -2.12132001E+00  3.79999995E+00
      vertex -2.59807611E+00 -1.50000000E+00  0.00000000E+00
      vertex -2.12132001E+00 -2.12132001E+00  0.00000000E+00
    endloop
  endfacet
  facet normal -6.08761847E-01 -7.93353021E-01 -0.00000000E+00
    outer loop
      vertex -2.12132001E+00 -2.12132001E+00  3.79999995E+00
      vertex -2.12132001E+00 -2.12132001E+00  0.00000000E+00
      vertex -1.50000000E+00 -2.59807611E+00  0.00000000E+00
    endloop
  endfacet
  facet normal -7.93353021E-01 -6.08761847E-01  1.57503810E-09
    outer loop
      vertex -2.12132001E+00 -2.12132001E+00  3.79999995E+00
      vertex -2.59807611E+00 -1.50000000E+00  3.79999995E+00
      vertex -2.59807611E+00 -1.50000000E+00  0.00000000E+00
    endloop
  endfacet
  facet normal -6.08761847E-01 -7.93353021E-01 -0.00000000E+00
    outer loop
      vertex -1.50000000E+00 -2.59807611E+00  3.79999995E+00
      vertex -2.12132001E+00 -2.12132001E+00  3.79999995E+00
      vertex -1.50000000E+00 -2.59807611E+00  0.00000000E+00
    endloop
  endfacet
  facet normal -3.82684082E-01 -9.23879266E-01 -0.00000000E+00
    outer loop
      vertex -7.76457012E-01 -2.89777803E+00  3.79999995E+00
      vertex -1.50000000E+00 -2.59807611E+00  0.00000000E+00
      vertex -7.76457012E-01 -2.89777803E+00  0.00000000E+00
    endloop
  endfacet
  facet normal -3.82684082E-01 -9.23879266E-01  1.12608189E-09
    outer loop
      vertex -7.76457012E-01 -2.89777803E+00  3.79999995E+00
      vertex -1.50000000E+00 -2.59807611E+00  3.79999995E+00
      vertex -1.50000000E+00 -2.59807611E+00  0.00000000E+00
    endloop
  endfacet
  facet normal -1.30525529E-01 -9.91444945E-01 -0.00000000E+00
    outer loop
      vertex  0.00000000E+00 -3.00000000E+00  3.79999995E+00
      vertex -7.76457012E-01 -2.89777803E+00  0.00000000E+00
      vertex  0.00000000E+00 -3.00000000E+00  0.00000000E+00
    endloop
  endfacet
  facet normal -1.30525529E-01 -9.91444945E-01  5.02012432E-10
    outer loop
      vertex  0.00000000E+00 -3.00000000E+00  3.79999995E+00
      vertex -7.76457012E-01 -2.89777803E+00  3.79999995E+00
      vertex -7.76457012E-01 -2.89777803E+00  0.00000000E+00
    endloop
  endfacet
  facet normal -1.26149982E-01 -9.58209217E-01  2.56751299E-01
    outer loop
      vertex -7.76457012E-01 -2.89777803E+00  3.79999995E+00
      vertex  0.00000000E+00 -3.00000000E+00  3.79999995E+00
      vertex  0.00000000E+00 -2.67846107E+00  5.00000000E+00
    endloop
  endfacet
  facet normal -1.26150295E-01 -9.58209157E-01  2.56751508E-01
    outer loop
      vertex -7.76457012E-01 -2.89777803E+00  3.79999995E+00
      vertex  0.00000000E+00 -2.67846107E+00  5.00000000E+00
      vertex -6.93237007E-01 -2.58719492E+00  5.00000000E+00
    endloop
  endfacet
  facet normal -3.69855583E-01 -8.92908514E-01  2.56751388E-01
    outer loop
      vertex -1.50000000E+00 -2.59807611E+00  3.79999995E+00
      vertex -6.93237007E-01 -2.58719492E+00  5.00000000E+00
      vertex -1.33923101E+00 -2.31961489E+00  5.00000000E+00
    endloop
  endfacet
  facet normal -3.69855553E-01 -8.92908514E-01  2.56751388E-01
    outer loop
      vertex -1.50000000E+00 -2.59807611E+00  3.79999995E+00
      vertex -7.76457012E-01 -2.89777803E+00  3.79999995E+00
      vertex -6.93237007E-01 -2.58719492E+00  5.00000000E+00
    endloop
  endfacet
  facet normal -5.88354230E-01 -7.66758263E-01  2.56750941E-01
    outer loop
      vertex -2.12132001E+00 -2.12132001E+00  3.79999995E+00
      vertex -1.33923101E+00 -2.31961489E+00  5.00000000E+00
      vertex -1.89395797E+00 -1.89395797E+00  5.00000000E+00
    endloop
  endfacet
  facet normal -5.88354588E-01 -7.66757905E-01  2.56751239E-01
    outer loop
      vertex -2.12132001E+00 -2.12132001E+00  3.79999995E+00
      vertex -1.50000000E+00 -2.59807611E+00  3.79999995E+00
      vertex -1.33923101E+00 -2.31961489E+00  5.00000000E+00
    endloop
  endfacet
  facet normal -7.66758204E-01 -5.88354170E-01  2.56751269E-01
    outer loop
      vertex -2.59807611E+00 -1.50000000E+00  3.79999995E+00
      vertex -1.89395797E+00 -1.89395797E+00  5.00000000E+00
      vertex -2.31961489E+00 -1.33923101E+00  5.00000000E+00
    endloop
  endfacet
  facet normal -7.66757965E-01 -5.88354647E-01  2.56750971E-01
    outer loop
      vertex -2.59807611E+00 -1.50000000E+00  3.79999995E+00
      vertex -2.12132001E+00 -2.12132001E+00  3.79999995E+00
      vertex -1.89395797E+00 -1.89395797E+00  5.00000000E+00
    endloop
  endfacet
  facet normal -8.92908514E-01 -3.69855583E-01  2.56751388E-01
    outer loop
      vertex -2.89777803E+00 -7.76457012E-01  3.79999995E+00
      vertex -2.31961489E+00 -1.33923101E+00  5.00000000E+00
      vertex -2.58719492E+00 -6.93237007E-01  5.00000000E+00
    endloop
  endfacet
  facet normal -8.92908514E-01 -3.69855553E-01  2.56751388E-01
    outer loop
      vertex -2.89777803E+00 -7.76457012E-01  3.79999995E+00
      vertex -2.59807611E+00 -1.50000000E+00  3.79999995E+00
      vertex -2.31961489E+00 -1.33923101E+00  5.00000000E+00
    endloop
  endfacet
  facet normal -9.58209217E-01 -1.26150310E-01  2.56751299E-01
    outer loop
      vertex -3.00000000E+00 -0.00000000E+00  3.79999995E+00
      vertex -2.58719492E+00 -6.93237007E-01  5.00000000E+00
      vertex -2.67846107E+00 -0.00000000E+00  5.00000000E+00
    endloop
  endfacet
  facet normal -9.58209217E-01 -1.26149967E-01  2.56751478E-01
    outer loop
      vertex -3.00000000E+00 -0.00000000E+00  3.79999995E+00
      vertex -2.89777803E+00 -7.76457012E-01  3.79999995E+00
      vertex -2.58719492E+00 -6.93237007E-01  5.00000000E+00
    endloop
  endfacet
  facet normal -9.58209157E-01  1.26150295E-01  2.56751508E-01
    outer loop
      vertex -2.89777803E+00  7.76457012E-01  3.79999995E+00
      vertex -2.67846107E+00 -0.00000000E+00  5.00000000E+00
      vertex -2.58719492E+00  6.93237007E-01  5.00000000E+00
    endloop
  endfacet
  facet normal -9.58209217E-01  1.26149982E-01  2.56751299E-01
    outer loop
      vertex -2.89777803E+00  7.76457012E-01  3.79999995E+00
      vertex -3.00000000E+00 -0.00000000E+00  3.79999995E+00
      vertex -2.67846107E+00 -0.00000000E+00  5.00000000E+00
    endloop
  endfacet
  facet normal -8.92908514E-01  3.69855583E-01  2.56751388E-01
    outer loop
      vertex -2.59807611E+00  1.50000000E+00  3.79999995E+00
      vertex -2.58719492E+00  6.93237007E-01  5.00000000E+00
      vertex -2.31961489E+00  1.33923101E+00  5.00000000E+00
    endloop
  endfacet
  facet normal -8.92908514E-01  3.69855553E-01  2.56751388E-01
    outer loop
      vertex -2.59807611E+00  1.50000000E+00  3.79999995E+00
      vertex -2.89777803E+00  7.76457012E-01  3.79999995E+00
      vertex -2.58719492E+00  6.93237007E-01  5.00000000E+00
    endloop
  endfacet
  facet normal -7.66758263E-01  5.88354230E-01  2.56750941E-01
    outer loop
      vertex -2.12132001E+00  2.12132001E+00  3.79999995E+00
      vertex -2.31961489E+00  1.33923101E+00  5.00000000E+00
      vertex -1.89395797E+00  1.89395797E+00  5.00000000E+00
    endloop
  endfacet
  facet normal -7.66757905E-01  5.88354588E-01  2.56751269E-01
    outer loop
      vertex -2.12132001E+00  2.12132001E+00  3.79999995E+00
      vertex -2.59807611E+00  1.50000000E+00  3.79999995E+00
      vertex -2.31961489E+00  1.33923101E+00  5.00000000E+00
    endloop
  endfacet
  facet normal -5.88354170E-01  7.66758204E-01  2.56751269E-01
    outer loop
      vertex -1.50000000E+00  2.59807611E+00  3.79999995E+00
      vertex -1.89395797E+00  1.89395797E+00  5.00000000E+00
      vertex -1.33923101E+00  2.31961489E+00  5.00000000E+00
    endloop
  endfacet
  facet normal -5.88354647E-01  7.66757965E-01  2.56750971E-01
    outer loop
      vertex -1.50000000E+00  2.59807611E+00  3.79999995E+00
      vertex -2.12132001E+00  2.12132001E+00  3.79999995E+00
      vertex -1.89395797E+00  1.89395797E+00  5.00000000E+00
    endloop
  endfacet
  facet normal -1.26150295E-01  9.58209157E-01  2.56751508E-01
    outer loop
      vertex -7.76457012E-01  2.89777803E+00  3.79999995E+00
      vertex -6.93237007E-01  2.58719492E+00  5.00000000E+00
      vertex -0.00000000E+00  2.67846107E+00  5.00000000E+00
    endloop
  endfacet
  facet normal -3.69855583E-01  8.92908514E-01  2.56751388E-01
    outer loop
      vertex -7.76457012E-01  2.89777803E+00  3.79999995E+00
      vertex -1.33923101E+00  2.31961489E+00  5.00000000E+00
      vertex -6.93237007E-01  2.58719492E+00  5.00000000E+00
    endloop
  endfacet
  facet normal -3.69855553E-01  8.92908514E-01  2.56751418E-01
    outer loop
      vertex -7.76457012E-01  2.89777803E+00  3.79999995E+00
      vertex -1.50000000E+00  2.59807611E+00  3.79999995E+00
      vertex -1.33923101E+00  2.31961489E+00  5.00000000E+00
    endloop
  endfacet
  facet normal -1.26149982E-01  9.58209217E-01  2.56751299E-01
    outer loop
      vertex -0.00000000E+00  3.00000000E+00  3.79999995E+00
      vertex -7.76457012E-01  2.89777803E+00  3.79999995E+00
      vertex -0.00000000E+00  2.67846107E+00  5.00000000E+00
    endloop
  endfacet
  facet normal  0.00000000E+00  0.00000000E+00  1.00000000E+00
    outer loop
      vertex -2.58719492E+00 -6.93237007E-01  5.00000000E+00
      vertex -0.00000000E+00  2.67846107E+00  5.00000000E+00
      vertex -6.93237007E-01  2.58719492E+00  5.00000000E+00
    endloop
  endfacet
  facet normal  0.00000000E+00  0.00000000E+00  1.00000000E+00
    outer loop
      vertex -2.58719492E+00 -6.93237007E-01  5.00000000E+00
      vertex -6.93237007E-01  2.58719492E+00  5.00000000E+00
      vertex -1.33923101E+00  2.31961489E+00  5.00000000E+00
    endloop
  endfacet
  facet normal  0.00000000E+00  0.00000000E+00  1.00000000E+00
    outer loop
      vertex -2.58719492E+00 -6.93237007E-01  5.00000000E+00
      vertex -1.33923101E+00  2.31961489E+00  5.00000000E+00
      vertex -1.89395797E+00  1.89395797E+00  5.00000000E+00
    endloop
  endfacet
  facet normal  0.00000000E+00  0.00000000E+00  1.00000000E+00
    outer loop
      vertex -2.58719492E+00 -6.93237007E-01  5.00000000E+00
      vertex -1.89395797E+00  1.89395797E+00  5.00000000E+00
      vertex -2.31961489E+00  1.33923101E+00  5.00000000E+00
    endloop
  endfacet
  facet normal  0.00000000E+00  0.00000000E+00  1.00000000E+00
    outer loop
      vertex -2.58719492E+00 -6.93237007E-01  5.00000000E+00
      vertex -2.31961489E+00  1.33923101E+00  5.00000000E+00
      vertex -2.58719492E+00  6.93237007E-01  5.00000000E+00
    endloop
  endfacet
  facet normal  0.00000000E+00 -0.00000000E+00  1.00000000E+00
    outer loop
      vertex -2.58719492E+00 -6.93237007E-01  5.00000000E+00
      vertex -2.58719492E+00  6.93237007E-01  5.00000000E+00
      vertex -2.67846107E+00 -0.00000000E+00  5.00000000E+00
    endloop
  endfacet
  facet normal  0.00000000E+00  0.00000000E+00  1.00000000E+00
    outer loop
      vertex  1.89395797E+00  1.89395797E+00  5.00000000E+00
      vertex  1.33923101E+00  2.31961489E+00  5.00000000E+00
      vertex  6.93237007E-01  2.58719492E+00  5.00000000E+00
    endloop
  endfacet
  facet normal  0.00000000E+00  0.00000000E+00  1.00000000E+00
    outer loop
      vertex -1.33923101E+00 -2.31961489E+00  5.00000000E+00
      vertex -2.58719492E+00 -6.93237007E-01  5.00000000E+00
      vertex -2.31961489E+00 -1.33923101E+00  5.00000000E+00
    endloop
  endfacet
  facet normal  0.00000000E+00  0.00000000E+00  1.00000000E+00
    outer loop
      vertex -1.33923101E+00 -2.31961489E+00  5.00000000E+00
      vertex -2.31961489E+00 -1.33923101E+00  5.00000000E+00
      vertex -1.89395797E+00 -1.89395797E+00  5.00000000E+00
    endloop
  endfacet
  facet normal  0.00000000E+00  0.00000000E+00  1.00000000E+00
    outer loop
      vertex  2.58719492E+00 -6.93237007E-01  5.00000000E+00
      vertex  2.67846107E+00  0.00000000E+00  5.00000000E+00
      vertex  2.58719492E+00  6.93237007E-01  5.00000000E+00
    endloop
  endfacet
  facet normal  0.00000000E+00 -0.00000000E+00  1.00000000E+00
    outer loop
      vertex  2.58719492E+00 -6.93237007E-01  5.00000000E+00
      vertex  2.58719492E+00  6.93237007E-01  5.00000000E+00
      vertex  2.31961489E+00  1.33923101E+00  5.00000000E+00
    endloop
  endfacet
  facet normal  0.00000000E+00  0.00000000E+00  1.00000000E+00
    outer loop
      vertex  2.58719492E+00 -6.93237007E-01  5.00000000E+00
      vertex  2.31961489E+00  1.33923101E+00  5.00000000E+00
      vertex  1.89395797E+00  1.89395797E+00  5.00000000E+00
    endloop
  endfacet
  facet normal  0.00000000E+00  0.00000000E+00  1.00000000E+00
    outer loop
      vertex  2.58719492E+00 -6.93237007E-01  5.00000000E+00
      vertex  6.93237007E-01  2.58719492E+00  5.00000000E+00
      vertex -0.00000000E+00  2.67846107E+00  5.00000000E+00
    endloop
  endfacet
  facet normal  0.00000000E+00  0.00000000E+00  1.00000000E+00
    outer loop
      vertex  2.58719492E+00 -6.93237007E-01  5.00000000E+00
      vertex -0.00000000E+00  2.67846107E+00  5.00000000E+00
      vertex -2.58719492E+00 -6.93237007E-01  5.00000000E+00
    endloop
  endfacet
  facet normal  0.00000000E+00  0.00000000E+00  1.00000000E+00
    outer loop
      vertex  2.58719492E+00 -6.93237007E-01  5.00000000E+00
      vertex  1.89395797E+00  1.89395797E+00  5.00000000E+00
      vertex  6.93237007E-01  2.58719492E+00  5.00000000E+00
    endloop
  endfacet
  facet normal  0.00000000E+00  0.00000000E+00  1.00000000E+00
    outer loop
      vertex  1.89395797E+00 -1.89395797E+00  5.00000000E+00
      vertex  0.00000000E+00 -2.67846107E+00  5.00000000E+00
      vertex  6.93237007E-01 -2.58719492E+00  5.00000000E+00
    endloop
  endfacet
  facet normal  0.00000000E+00  0.00000000E+00  1.00000000E+00
    outer loop
      vertex  1.89395797E+00 -1.89395797E+00  5.00000000E+00
      vertex  6.93237007E-01 -2.58719492E+00  5.00000000E+00
      vertex  1.33923101E+00 -2.31961489E+00  5.00000000E+00
    endloop
  endfacet
  facet normal  0.00000000E+00  0.00000000E+00  1.00000000E+00
    outer loop
      vertex  1.89395797E+00 -1.89395797E+00  5.00000000E+00
      vertex  2.31961489E+00 -1.33923101E+00  5.00000000E+00
      vertex  2.58719492E+00 -6.93237007E-01  5.00000000E+00
    endloop
  endfacet
  facet normal  0.00000000E+00  0.00000000E+00  1.00000000E+00
    outer loop
      vertex  1.89395797E+00 -1.89395797E+00  5.00000000E+00
      vertex -1.33923101E+00 -2.31961489E+00  5.00000000E+00
      vertex -6.93237007E-01 -2.58719492E+00  5.00000000E+00
    endloop
  endfacet
  facet normal  0.00000000E+00  0.00000000E+00  1.00000000E+00
    outer loop
      vertex  1.89395797E+00 -1.89395797E+00  5.00000000E+00
      vertex -6.93237007E-01 -2.58719492E+00  5.00000000E+00
      vertex  0.00000000E+00 -2.67846107E+00  5.00000000E+00
    endloop
  endfacet
  facet normal  0.00000000E+00  0.00000000E+00  1.00000000E+00
    outer loop
      vertex  1.89395797E+00 -1.89395797E+00  5.00000000E+00
      vertex -2.58719492E+00 -6.93237007E-01  5.00000000E+00
      vertex -1.33923101E+00 -2.31961489E+00  5.00000000E+00
    endloop
  endfacet
  facet normal  0.00000000E+00 -0.00000000E+00  1.00000000E+00
    outer loop
      vertex  1.89395797E+00 -1.89395797E+00  5.00000000E+00
      vertex  2.58719492E+00 -6.93237007E-01  5.00000000E+00
      vertex -2.58719492E+00 -6.93237007E-01  5.00000000E+00
    endloop
  endfacet
endsolid  Processed by ADMesh version 0.98.4
