solid  Processed by ADMesh version 0.98.4
  facet normal  9.26917493E-02  7.04062998E-01 -7.04062164E-01
    outer loop
      vertex  1.03527606E+00  5.80000019E+00 -3.86370301E+00
      vertex  0.00000000E+00  5.80000019E+00 -4.00000000E+00
      vertex  0.00000000E+00  6.00000000E+00 -3.79999995E+00
    endloop
  endfacet
  facet normal  9.26917270E-02  7.04062879E-01 -7.04062283E-01
    outer loop
      vertex  1.03527606E+00  5.80000019E+00 -3.86370301E+00
      vertex  0.00000000E+00  6.00000000E+00 -3.79999995E+00
      vertex  9.83511984E-01  6.00000000E+00 -3.67051792E+00
    endloop
  endfacet
  facet normal  2.71757364E-01  7.04064608E-01 -6.56080008E-01
    outer loop
      vertex  2.00000000E+00  5.80000019E+00 -3.46410203E+00
      vertex  9.83511984E-01  6.00000000E+00 -3.67051792E+00
      vertex  1.89999998E+00  6.00000000E+00 -3.29089594E+00
    endloop
  endfacet
  facet normal  2.71757394E-01  7.04063058E-01 -6.56081676E-01
    outer loop
      vertex  2.00000000E+00  5.80000019E+00 -3.46410203E+00
      vertex  1.03527606E+00  5.80000019E+00 -3.86370301E+00
      vertex  9.83511984E-01  6.00000000E+00 -3.67051792E+00
    endloop
  endfacet
  facet normal  4.32304353E-01  7.04062164E-01 -5.63390970E-01
    outer loop
      vertex  2.82842708E+00  5.80000019E+00 -2.82842708E+00
      vertex  1.89999998E+00  6.00000000E+00 -3.29089594E+00
      vertex  2.68700600E+00  6.00000000E+00 -2.68700600E+00
    endloop
  endfacet
  facet normal  4.32303756E-01  7.04064369E-01 -5.63388765E-01
    outer loop
      vertex  2.82842708E+00  5.80000019E+00 -2.82842708E+00
      vertex  2.00000000E+00  5.80000019E+00 -3.46410203E+00
      vertex  1.89999998E+00  6.00000000E+00 -3.29089594E+00
    endloop
  endfacet
  facet normal  5.63389182E-01  7.04064429E-01 -4.32302982E-01
    outer loop
      vertex  3.46410203E+00  5.80000019E+00 -2.00000000E+00
      vertex  2.68700600E+00  6.00000000E+00 -2.68700600E+00
      vertex  3.29089594E+00  6.00000000E+00 -1.89999998E+00
    endloop
  endfacet
  facet normal  5.63390315E-01  7.04062283E-01 -4.32304978E-01
    outer loop
      vertex  3.46410203E+00  5.80000019E+00 -2.00000000E+00
      vertex  2.82842708E+00  5.80000019E+00 -2.82842708E+00
      vertex  2.68700600E+00  6.00000000E+00 -2.68700600E+00
    endloop
  endfacet
  facet normal  6.56081498E-01  7.04062939E-01 -2.71758020E-01
    outer loop
      vertex  3.86370301E+00  5.80000019E+00 -1.03527606E+00
      vertex  3.29089594E+00  6.00000000E+00 -1.89999998E+00
      vertex  3.67051792E+00  6.00000000E+00 -9.83511984E-01
    endloop
  endfacet
  facet normal  6.56080246E-01  7.04064548E-01 -2.71756828E-01
    outer loop
      vertex  3.86370301E+00  5.80000019E+00 -1.03527606E+00
      vertex  3.46410203E+00  5.80000019E+00 -2.00000000E+00
      vertex  3.29089594E+00  6.00000000E+00 -1.89999998E+00
    endloop
  endfacet
  facet normal  7.04062343E-01  7.04062879E-01 -9.26917195E-02
    outer loop
      vertex  3.79999995E+00  6.00000000E+00 -0.00000000E+00
      vertex  3.86370301E+00  5.80000019E+00 -1.03527606E+00
      vertex  3.67051792E+00  6.00000000E+00 -9.83511984E-01
    endloop
  endfacet
  facet normal  7.04062164E-01  7.04062998E-01 -9.26917568E-02
    outer loop
      vertex  4.00000000E+00  5.80000019E+00 -0.00000000E+00
      vertex  3.86370301E+00  5.80000019E+00 -1.03527606E+00
      vertex  3.79999995E+00  6.00000000E+00 -0.00000000E+00
    endloop
  endfacet
  facet normal  7.04062283E-01  7.04062879E-01  9.26917195E-02
    outer loop
      vertex  3.86370301E+00  5.80000019E+00  1.03527606E+00
      vertex  3.79999995E+00  6.00000000E+00 -0.00000000E+00
      vertex  3.67051792E+00  6.00000000E+00  9.83511984E-01
    endloop
  endfacet
  facet normal  7.04062164E-01  7.04062998E-01  9.26917568E-02
    outer loop
      vertex  3.86370301E+00  5.80000019E+00  1.03527606E+00
      vertex  4.00000000E+00  5.80000019E+00 -0.00000000E+00
      vertex  3.79999995E+00  6.00000000E+00 -0.00000000E+00
    endloop
  endfacet
  facet normal  6.56080008E-01  7.04064608E-01  2.71757364E-01
    outer loop
      vertex  3.46410203E+00  5.80000019E+00  2.00000000E+00
      vertex  3.67051792E+00  6.00000000E+00  9.83511984E-01
      vertex  3.29089594E+00  6.00000000E+00  1.89999998E+00
    endloop
  endfacet
  facet normal  6.56081617E-01  7.04063058E-01  2.71757394E-01
    outer loop
      vertex  3.46410203E+00  5.80000019E+00  2.00000000E+00
      vertex  3.86370301E+00  5.80000019E+00  1.03527606E+00
      vertex  3.67051792E+00  6.00000000E+00  9.83511984E-01
    endloop
  endfacet
  facet normal  5.63390911E-01  7.04062223E-01  4.32304353E-01
    outer loop
      vertex  2.82842708E+00  5.80000019E+00  2.82842708E+00
      vertex  3.29089594E+00  6.00000000E+00  1.89999998E+00
      vertex  2.68700600E+00  6.00000000E+00  2.68700600E+00
    endloop
  endfacet
  facet normal  5.63388705E-01  7.04064369E-01  4.32303727E-01
    outer loop
      vertex  2.82842708E+00  5.80000019E+00  2.82842708E+00
      vertex  3.46410203E+00  5.80000019E+00  2.00000000E+00
      vertex  3.29089594E+00  6.00000000E+00  1.89999998E+00
    endloop
  endfacet
  facet normal  4.32303011E-01  7.04064429E-01  5.63389182E-01
    outer loop
      vertex  2.00000000E+00  5.80000019E+00  3.46410203E+00
      vertex  2.68700600E+00  6.00000000E+00  2.68700600E+00
      vertex  1.89999998E+00  6.00000000E+00  3.29089594E+00
    endloop
  endfacet
  facet normal  4.32305008E-01  7.04062283E-01  5.63390374E-01
    outer loop
      vertex  2.00000000E+00  5.80000019E+00  3.46410203E+00
      vertex  2.82842708E+00  5.80000019E+00  2.82842708E+00
      vertex  2.68700600E+00  6.00000000E+00  2.68700600E+00
    endloop
  endfacet
  facet normal  2.71757990E-01  7.04062998E-01  6.56081498E-01
    outer loop
      vertex  1.03527606E+00  5.80000019E+00  3.86370301E+00
      vertex  1.89999998E+00  6.00000000E+00  3.29089594E+00
      vertex  9.83511984E-01  6.00000000E+00  3.67051792E+00
    endloop
  endfacet
  facet normal  2.71756828E-01  7.04064608E-01  6.56080246E-01
    outer loop
      vertex  1.03527606E+00  5.80000019E+00  3.86370301E+00
      vertex  2.00000000E+00  5.80000019E+00  3.46410203E+00
      vertex  1.89999998E+00  6.00000000E+00  3.29089594E+00
    endloop
  endfacet
  facet normal  9.26916897E-02  7.04062998E-01  7.04062164E-01
    outer loop
      vertex  0.00000000E+00  5.80000019E+00  4.00000000E+00
      vertex  9.83511984E-01  6.00000000E+00  3.67051792E+00
      vertex -0.00000000E+00  6.00000000E+00  3.79999995E+00
    endloop
  endfacet
  facet normal  9.26917717E-02  7.04062879E-01  7.04062283E-01
    outer loop
      vertex  0.00000000E+00  5.80000019E+00  4.00000000E+00
      vertex  1.03527606E+00  5.80000019E+00  3.86370301E+00
      vertex  9.83511984E-01  6.00000000E+00  3.67051792E+00
    endloop
  endfacet
  facet normal -1.30526483E-01  6.56769250E-10  9.91444826E-01
    outer loop
      vertex -1.03527606E+00  6.99999988E-01  3.86370301E+00
      vertex  0.00000000E+00  6.99999988E-01  4.00000000E+00
      vertex  0.00000000E+00  5.80000019E+00  4.00000000E+00
    endloop
  endfacet
  facet normal -1.30526483E-01  0.00000000E+00  9.91444826E-01
    outer loop
      vertex -1.03527606E+00  6.99999988E-01  3.86370301E+00
      vertex  0.00000000E+00  5.80000019E+00  4.00000000E+00
      vertex -1.03527606E+00  5.80000019E+00  3.86370301E+00
    endloop
  endfacet
  facet normal -3.82682800E-01  0.00000000E+00  9.23879802E-01
    outer loop
      vertex -2.00000000E+00  6.99999988E-01  3.46410203E+00
      vertex -1.03527606E+00  5.80000019E+00  3.86370301E+00
      vertex -2.00000000E+00  5.80000019E+00  3.46410203E+00
    endloop
  endfacet
  facet normal -3.82682800E-01 -5.82281612E-10  9.23879802E-01
    outer loop
      vertex -2.00000000E+00  6.99999988E-01  3.46410203E+00
      vertex -1.03527606E+00  6.99999988E-01  3.86370301E+00
      vertex -1.03527606E+00  5.80000019E+00  3.86370301E+00
    endloop
  endfacet
  facet normal -6.08761728E-01  0.00000000E+00  7.93353140E-01
    outer loop
      vertex -2.82842708E+00  6.99999988E-01  2.82842708E+00
      vertex -2.00000000E+00  5.80000019E+00  3.46410203E+00
      vertex -2.82842708E+00  5.80000019E+00  2.82842708E+00
    endloop
  endfacet
  facet normal -6.08761728E-01 -5.32380984E-09  7.93353140E-01
    outer loop
      vertex -2.82842708E+00  6.99999988E-01  2.82842708E+00
      vertex -2.00000000E+00  6.99999988E-01  3.46410203E+00
      vertex -2.00000000E+00  5.80000019E+00  3.46410203E+00
    endloop
  endfacet
  facet normal -7.93353140E-01  0.00000000E+00  6.08761728E-01
    outer loop
      vertex -3.46410203E+00  6.99999988E-01  2.00000000E+00
      vertex -2.82842708E+00  5.80000019E+00  2.82842708E+00
      vertex -3.46410203E+00  5.80000019E+00  2.00000000E+00
    endloop
  endfacet
  facet normal -7.93353140E-01 -5.32380984E-09  6.08761728E-01
    outer loop
      vertex -3.46410203E+00  6.99999988E-01  2.00000000E+00
      vertex -2.82842708E+00  6.99999988E-01  2.82842708E+00
      vertex -2.82842708E+00  5.80000019E+00  2.82842708E+00
    endloop
  endfacet
  facet normal -9.23879802E-01  0.00000000E+00  3.82682800E-01
    outer loop
      vertex -3.86370301E+00  6.99999988E-01  1.03527606E+00
      vertex -3.46410203E+00  5.80000019E+00  2.00000000E+00
      vertex -3.86370301E+00  5.80000019E+00  1.03527606E+00
    endloop
  endfacet
  facet normal -9.91444826E-01  0.00000000E+00  1.30526483E-01
    outer loop
      vertex -3.86370301E+00  6.99999988E-01  1.03527606E+00
      vertex -3.86370301E+00  5.80000019E+00  1.03527606E+00
      vertex -4.00000000E+00  5.80000019E+00  0.00000000E+00
    endloop
  endfacet
  facet normal -9.23879802E-01 -5.82281612E-10  3.82682800E-01
    outer loop
      vertex -3.86370301E+00  6.99999988E-01  1.03527606E+00
      vertex -3.46410203E+00  6.99999988E-01  2.00000000E+00
      vertex -3.46410203E+00  5.80000019E+00  2.00000000E+00
    endloop
  endfacet
  facet normal -9.91444826E-01  0.00000000E+00 -1.30526483E-01
    outer loop
      vertex -4.00000000E+00  6.99999988E-01  0.00000000E+00
      vertex -4.00000000E+00  5.80000019E+00  0.00000000E+00
      vertex -3.86370301E+00  5.80000019E+00 -1.03527606E+00
    endloop
  endfacet
  facet normal -9.91444826E-01  0.00000000E+00  1.30526483E-01
    outer loop
      vertex -4.00000000E+00  6.99999988E-01  0.00000000E+00
      vertex -3.86370301E+00  6.99999988E-01  1.03527606E+00
      vertex -4.00000000E+00  5.80000019E+00  0.00000000E+00
    endloop
  endfacet
  facet normal -9.91444826E-01  0.00000000E+00 -1.30526483E-01
    outer loop
      vertex -3.86370301E+00  6.99999988E-01 -1.03527606E+00
      vertex -4.00000000E+00  6.99999988E-01  0.00000000E+00
      vertex -3.86370301E+00  5.80000019E+00 -1.03527606E+00
    endloop
  endfacet
  facet normal -9.23879802E-01  0.00000000E+00 -3.82682800E-01
    outer loop
      vertex -3.46410203E+00  6.99999988E-01 -2.00000000E+00
      vertex -3.86370301E+00  5.80000019E+00 -1.03527606E+00
      vertex -3.46410203E+00  5.80000019E+00 -2.00000000E+00
    endloop
  endfacet
  facet normal -9.23879802E-01  5.82281612E-10 -3.82682800E-01
    outer loop
      vertex -3.46410203E+00  6.99999988E-01 -2.00000000E+00
      vertex -3.86370301E+00  6.99999988E-01 -1.03527606E+00
      vertex -3.86370301E+00  5.80000019E+00 -1.03527606E+00
    endloop
  endfacet
  facet normal -7.93353140E-01  0.00000000E+00 -6.08761728E-01
    outer loop
      vertex -2.82842708E+00  6.99999988E-01 -2.82842708E+00
      vertex -3.46410203E+00  5.80000019E+00 -2.00000000E+00
      vertex -2.82842708E+00  5.80000019E+00 -2.82842708E+00
    endloop
  endfacet
  facet normal -7.93353140E-01  5.32380984E-09 -6.08761728E-01
    outer loop
      vertex -2.82842708E+00  6.99999988E-01 -2.82842708E+00
      vertex -3.46410203E+00  6.99999988E-01 -2.00000000E+00
      vertex -3.46410203E+00  5.80000019E+00 -2.00000000E+00
    endloop
  endfacet
  facet normal -6.08761728E-01  0.00000000E+00 -7.93353140E-01
    outer loop
      vertex -2.00000000E+00  6.99999988E-01 -3.46410203E+00
      vertex -2.82842708E+00  5.80000019E+00 -2.82842708E+00
      vertex -2.00000000E+00  5.80000019E+00 -3.46410203E+00
    endloop
  endfacet
  facet normal -3.82682800E-01  0.00000000E+00 -9.23879802E-01
    outer loop
      vertex -2.00000000E+00  6.99999988E-01 -3.46410203E+00
      vertex -2.00000000E+00  5.80000019E+00 -3.46410203E+00
      vertex -1.03527606E+00  5.80000019E+00 -3.86370301E+00
    endloop
  endfacet
  facet normal -6.08761728E-01  5.32380984E-09 -7.93353140E-01
    outer loop
      vertex -2.00000000E+00  6.99999988E-01 -3.46410203E+00
      vertex -2.82842708E+00  6.99999988E-01 -2.82842708E+00
      vertex -2.82842708E+00  5.80000019E+00 -2.82842708E+00
    endloop
  endfacet
  facet normal -3.82682800E-01  0.00000000E+00 -9.23879802E-01
    outer loop
      vertex -1.03527606E+00  6.99999988E-01 -3.86370301E+00
      vertex -2.00000000E+00  6.99999988E-01 -3.46410203E+00
      vertex -1.03527606E+00  5.80000019E+00 -3.86370301E+00
    endloop
  endfacet
  facet normal -1.30526483E-01  0.00000000E+00 -9.91444826E-01
    outer loop
      vertex  0.00000000E+00  6.99999988E-01 -4.00000000E+00
      vertex -1.03527606E+00  5.80000019E+00 -3.86370301E+00
      vertex  0.00000000E+00  5.80000019E+00 -4.00000000E+00
    endloop
  endfacet
  facet normal -1.30526483E-01 -6.56769250E-10 -9.91444826E-01
    outer loop
      vertex  0.00000000E+00  6.99999988E-01 -4.00000000E+00
      vertex -1.03527606E+00  6.99999988E-01 -3.86370301E+00
      vertex -1.03527606E+00  5.80000019E+00 -3.86370301E+00
    endloop
  endfacet
  facet normal  1.13280766E-01 -4.96781349E-01  8.60450923E-01
    outer loop
      vertex  1.03527606E+00  6.99999988E-01  3.86370301E+00
      vertex  0.00000000E+00  6.99999988E-01  4.00000000E+00
      vertex  0.00000000E+00  0.00000000E+00  3.59585500E+00
    endloop
  endfacet
  facet normal  1.13280632E-01 -4.96781170E-01  8.60451043E-01
    outer loop
      vertex  1.03527606E+00  6.99999988E-01  3.86370301E+00
      vertex  0.00000000E+00  0.00000000E+00  3.59585500E+00
      vertex  9.30675983E-01  0.00000000E+00  3.47332907E+00
    endloop
  endfacet
  facet normal  3.32121581E-01 -4.96781796E-01  8.01812410E-01
    outer loop
      vertex  2.00000000E+00  6.99999988E-01  3.46410203E+00
      vertex  9.30675983E-01  0.00000000E+00  3.47332907E+00
      vertex  1.79792702E+00  0.00000000E+00  3.11410189E+00
    endloop
  endfacet
  facet normal  3.32121193E-01 -4.96781141E-01  8.01812947E-01
    outer loop
      vertex  2.00000000E+00  6.99999988E-01  3.46410203E+00
      vertex  1.03527606E+00  6.99999988E-01  3.86370301E+00
      vertex  9.30675983E-01  0.00000000E+00  3.47332907E+00
    endloop
  endfacet
  facet normal  5.28329372E-01 -4.96781796E-01  6.88531756E-01
    outer loop
      vertex  2.82842708E+00  6.99999988E-01  2.82842708E+00
      vertex  1.79792702E+00  0.00000000E+00  3.11410189E+00
      vertex  2.54265308E+00  0.00000000E+00  2.54265308E+00
    endloop
  endfacet
  facet normal  5.28329372E-01 -4.96781856E-01  6.88531697E-01
    outer loop
      vertex  2.82842708E+00  6.99999988E-01  2.82842708E+00
      vertex  2.00000000E+00  6.99999988E-01  3.46410203E+00
      vertex  1.79792702E+00  0.00000000E+00  3.11410189E+00
    endloop
  endfacet
  facet normal  6.88531756E-01 -4.96781826E-01  5.28329313E-01
    outer loop
      vertex  3.46410203E+00  6.99999988E-01  2.00000000E+00
      vertex  2.54265308E+00  0.00000000E+00  2.54265308E+00
      vertex  3.11410189E+00  0.00000000E+00  1.79792702E+00
    endloop
  endfacet
  facet normal  6.88531756E-01 -4.96781766E-01  5.28329372E-01
    outer loop
      vertex  3.46410203E+00  6.99999988E-01  2.00000000E+00
      vertex  2.82842708E+00  6.99999988E-01  2.82842708E+00
      vertex  2.54265308E+00  0.00000000E+00  2.54265308E+00
    endloop
  endfacet
  facet normal  8.01812708E-01 -4.96781111E-01  3.32121760E-01
    outer loop
      vertex  3.86370301E+00  6.99999988E-01  1.03527606E+00
      vertex  3.11410189E+00  0.00000000E+00  1.79792702E+00
      vertex  3.47332907E+00  0.00000000E+00  9.30675983E-01
    endloop
  endfacet
  facet normal  8.01812589E-01 -4.96781796E-01  3.32121044E-01
    outer loop
      vertex  3.86370301E+00  6.99999988E-01  1.03527606E+00
      vertex  3.46410203E+00  6.99999988E-01  2.00000000E+00
      vertex  3.11410189E+00  0.00000000E+00  1.79792702E+00
    endloop
  endfacet
  facet normal  8.60450923E-01 -4.96781349E-01  1.13280639E-01
    outer loop
      vertex  4.00000000E+00  6.99999988E-01 -0.00000000E+00
      vertex  3.47332907E+00  0.00000000E+00  9.30675983E-01
      vertex  3.59585500E+00  0.00000000E+00 -0.00000000E+00
    endloop
  endfacet
  facet normal  8.60450983E-01 -4.96781200E-01  1.13280773E-01
    outer loop
      vertex  4.00000000E+00  6.99999988E-01 -0.00000000E+00
      vertex  3.86370301E+00  6.99999988E-01  1.03527606E+00
      vertex  3.47332907E+00  0.00000000E+00  9.30675983E-01
    endloop
  endfacet
  facet normal  8.60451043E-01 -4.96781170E-01 -1.13280632E-01
    outer loop
      vertex  3.86370301E+00  6.99999988E-01 -1.03527606E+00
      vertex  3.59585500E+00  0.00000000E+00 -0.00000000E+00
      vertex  3.47332907E+00  0.00000000E+00 -9.30675983E-01
    endloop
  endfacet
  facet normal  8.60450923E-01 -4.96781319E-01 -1.13280766E-01
    outer loop
      vertex  3.86370301E+00  6.99999988E-01 -1.03527606E+00
      vertex  4.00000000E+00  6.99999988E-01 -0.00000000E+00
      vertex  3.59585500E+00  0.00000000E+00 -0.00000000E+00
    endloop
  endfacet
  facet normal  8.01812410E-01 -4.96781766E-01 -3.32121611E-01
    outer loop
      vertex  3.46410203E+00  6.99999988E-01 -2.00000000E+00
      vertex  3.47332907E+00  0.00000000E+00 -9.30675983E-01
      vertex  3.11410189E+00  0.00000000E+00 -1.79792702E+00
    endloop
  endfacet
  facet normal  8.01812947E-01 -4.96781141E-01 -3.32121193E-01
    outer loop
      vertex  3.46410203E+00  6.99999988E-01 -2.00000000E+00
      vertex  3.86370301E+00  6.99999988E-01 -1.03527606E+00
      vertex  3.47332907E+00  0.00000000E+00 -9.30675983E-01
    endloop
  endfacet
  facet normal  6.88531756E-01 -4.96781796E-01 -5.28329372E-01
    outer loop
      vertex  2.82842708E+00  6.99999988E-01 -2.82842708E+00
      vertex  3.11410189E+00  0.00000000E+00 -1.79792702E+00
      vertex  2.54265308E+00  0.00000000E+00 -2.54265308E+00
    endloop
  endfacet
  facet normal  6.88531697E-01 -4.96781826E-01 -5.28329372E-01
    outer loop
      vertex  2.82842708E+00  6.99999988E-01 -2.82842708E+00
      vertex  3.46410203E+00  6.99999988E-01 -2.00000000E+00
      vertex  3.11410189E+00  0.00000000E+00 -1.79792702E+00
    endloop
  endfacet
  facet normal  5.28329313E-01 -4.96781826E-01 -6.88531697E-01
    outer loop
      vertex  2.00000000E+00  6.99999988E-01 -3.46410203E+00
      vertex  2.54265308E+00  0.00000000E+00 -2.54265308E+00
      vertex  1.79792702E+00  0.00000000E+00 -3.11410189E+00
    endloop
  endfacet
  facet normal  5.28329372E-01 -4.96781796E-01 -6.88531697E-01
    outer loop
      vertex  2.00000000E+00  6.99999988E-01 -3.46410203E+00
      vertex  2.82842708E+00  6.99999988E-01 -2.82842708E+00
      vertex  2.54265308E+00  0.00000000E+00 -2.54265308E+00
    endloop
  endfacet
  facet normal  3.32121760E-01 -4.96781081E-01 -8.01812768E-01
    outer loop
      vertex  1.03527606E+00  6.99999988E-01 -3.86370301E+00
      vertex  1.79792702E+00  0.00000000E+00 -3.11410189E+00
      vertex  9.30675983E-01  0.00000000E+00 -3.47332907E+00
    endloop
  endfacet
  facet normal  3.32121044E-01 -4.96781766E-01 -8.01812649E-01
    outer loop
      vertex  1.03527606E+00  6.99999988E-01 -3.86370301E+00
      vertex  2.00000000E+00  6.99999988E-01 -3.46410203E+00
      vertex  1.79792702E+00  0.00000000E+00 -3.11410189E+00
    endloop
  endfacet
  facet normal  1.13280617E-01 -4.96781349E-01 -8.60450923E-01
    outer loop
      vertex  0.00000000E+00  6.99999988E-01 -4.00000000E+00
      vertex  9.30675983E-01  0.00000000E+00 -3.47332907E+00
      vertex  0.00000000E+00  0.00000000E+00 -3.59585500E+00
    endloop
  endfacet
  facet normal  1.13280773E-01 -4.96781200E-01 -8.60450983E-01
    outer loop
      vertex  0.00000000E+00  6.99999988E-01 -4.00000000E+00
      vertex  1.03527606E+00  6.99999988E-01 -3.86370301E+00
      vertex  9.30675983E-01  0.00000000E+00 -3.47332907E+00
    endloop
  endfacet
  facet normal  1.30526975E-01  0.00000000E+00 -9.91444767E-01
    outer loop
      vertex  0.00000000E+00  0.00000000E+00  2.50000000E+00
      vertex -6.47047997E-01  0.00000000E+00  2.41481400E+00
      vertex  0.00000000E+00  6.00000000E+00  2.50000000E+00
    endloop
  endfacet
  facet normal  1.30526975E-01 -2.87077667E-10 -9.91444767E-01
    outer loop
      vertex  0.00000000E+00  6.00000000E+00  2.50000000E+00
      vertex -6.47047997E-01  0.00000000E+00  2.41481400E+00
      vertex -6.47047997E-01  6.00000000E+00  2.41481400E+00
    endloop
  endfacet
  facet normal  3.82682115E-01 -2.03869671E-10 -9.23880100E-01
    outer loop
      vertex -6.47047997E-01  6.00000000E+00  2.41481400E+00
      vertex -1.25000000E+00  0.00000000E+00  2.16506410E+00
      vertex -1.25000000E+00  6.00000000E+00  2.16506410E+00
    endloop
  endfacet
  facet normal  3.82682115E-01  0.00000000E+00 -9.23880100E-01
    outer loop
      vertex -6.47047997E-01  0.00000000E+00  2.41481400E+00
      vertex -1.25000000E+00  0.00000000E+00  2.16506410E+00
      vertex -6.47047997E-01  6.00000000E+00  2.41481400E+00
    endloop
  endfacet
  facet normal  6.08761966E-01 -1.25828770E-09 -7.93352902E-01
    outer loop
      vertex -1.25000000E+00  6.00000000E+00  2.16506410E+00
      vertex -1.76776695E+00  0.00000000E+00  1.76776695E+00
      vertex -1.76776695E+00  6.00000000E+00  1.76776695E+00
    endloop
  endfacet
  facet normal  7.93352902E-01  0.00000000E+00 -6.08761966E-01
    outer loop
      vertex -1.76776695E+00  6.00000000E+00  1.76776695E+00
      vertex -1.76776695E+00  0.00000000E+00  1.76776695E+00
      vertex -2.16506410E+00  6.00000000E+00  1.25000000E+00
    endloop
  endfacet
  facet normal  6.08761966E-01  0.00000000E+00 -7.93352902E-01
    outer loop
      vertex -1.25000000E+00  0.00000000E+00  2.16506410E+00
      vertex -1.76776695E+00  0.00000000E+00  1.76776695E+00
      vertex -1.25000000E+00  6.00000000E+00  2.16506410E+00
    endloop
  endfacet
  facet normal  7.93352902E-01 -1.25828770E-09 -6.08761966E-01
    outer loop
      vertex -1.76776695E+00  0.00000000E+00  1.76776695E+00
      vertex -2.16506410E+00  0.00000000E+00  1.25000000E+00
      vertex -2.16506410E+00  6.00000000E+00  1.25000000E+00
    endloop
  endfacet
  facet normal  9.23880100E-01 -2.03869671E-10 -3.82682115E-01
    outer loop
      vertex -2.16506410E+00  6.00000000E+00  1.25000000E+00
      vertex -2.41481400E+00  0.00000000E+00  6.47047997E-01
      vertex -2.41481400E+00  6.00000000E+00  6.47047997E-01
    endloop
  endfacet
  facet normal  9.23880100E-01  0.00000000E+00 -3.82682115E-01
    outer loop
      vertex -2.16506410E+00  0.00000000E+00  1.25000000E+00
      vertex -2.41481400E+00  0.00000000E+00  6.47047997E-01
      vertex -2.16506410E+00  6.00000000E+00  1.25000000E+00
    endloop
  endfacet
  facet normal  9.91444767E-01 -2.87077667E-10 -1.30526975E-01
    outer loop
      vertex -2.41481400E+00  6.00000000E+00  6.47047997E-01
      vertex -2.50000000E+00  0.00000000E+00  0.00000000E+00
      vertex -2.50000000E+00  6.00000000E+00  0.00000000E+00
    endloop
  endfacet
  facet normal  9.91444767E-01  0.00000000E+00  1.30526975E-01
    outer loop
      vertex -2.50000000E+00  6.00000000E+00  0.00000000E+00
      vertex -2.50000000E+00  0.00000000E+00  0.00000000E+00
      vertex -2.41481400E+00  6.00000000E+00 -6.47047997E-01
    endloop
  endfacet
  facet normal  9.91444767E-01  0.00000000E+00 -1.30526975E-01
    outer loop
      vertex -2.41481400E+00  0.00000000E+00  6.47047997E-01
      vertex -2.50000000E+00  0.00000000E+00  0.00000000E+00
      vertex -2.41481400E+00  6.00000000E+00  6.47047997E-01
    endloop
  endfacet
  facet normal  9.91444767E-01  2.87077667E-10  1.30526975E-01
    outer loop
      vertex -2.50000000E+00  0.00000000E+00  0.00000000E+00
      vertex -2.41481400E+00  0.00000000E+00 -6.47047997E-01
      vertex -2.41481400E+00  6.00000000E+00 -6.47047997E-01
    endloop
  endfacet
  facet normal  9.23880100E-01  2.03869671E-10  3.82682115E-01
    outer loop
      vertex -2.41481400E+00  6.00000000E+00 -6.47047997E-01
      vertex -2.16506410E+00  0.00000000E+00 -1.25000000E+00
      vertex -2.16506410E+00  6.00000000E+00 -1.25000000E+00
    endloop
  endfacet
  facet normal  9.23880100E-01 -0.00000000E+00  3.82682115E-01
    outer loop
      vertex -2.41481400E+00  0.00000000E+00 -6.47047997E-01
      vertex -2.16506410E+00  0.00000000E+00 -1.25000000E+00
      vertex -2.41481400E+00  6.00000000E+00 -6.47047997E-01
    endloop
  endfacet
  facet normal  7.93352902E-01  1.25828770E-09  6.08761966E-01
    outer loop
      vertex -2.16506410E+00  6.00000000E+00 -1.25000000E+00
      vertex -1.76776695E+00  0.00000000E+00 -1.76776695E+00
      vertex -1.76776695E+00  6.00000000E+00 -1.76776695E+00
    endloop
  endfacet
  facet normal  7.93352902E-01 -0.00000000E+00  6.08761966E-01
    outer loop
      vertex -2.16506410E+00  0.00000000E+00 -1.25000000E+00
      vertex -1.76776695E+00  0.00000000E+00 -1.76776695E+00
      vertex -2.16506410E+00  6.00000000E+00 -1.25000000E+00
    endloop
  endfacet
  facet normal  6.08761966E-01  1.25828770E-09  7.93352902E-01
    outer loop
      vertex -1.76776695E+00  6.00000000E+00 -1.76776695E+00
      vertex -1.25000000E+00  0.00000000E+00 -2.16506410E+00
      vertex -1.25000000E+00  6.00000000E+00 -2.16506410E+00
    endloop
  endfacet
  facet normal  3.82682115E-01  0.00000000E+00  9.23880100E-01
    outer loop
      vertex -1.25000000E+00  6.00000000E+00 -2.16506410E+00
      vertex -1.25000000E+00  0.00000000E+00 -2.16506410E+00
      vertex -6.47047997E-01  6.00000000E+00 -2.41481400E+00
    endloop
  endfacet
  facet normal  6.08761966E-01 -0.00000000E+00  7.93352902E-01
    outer loop
      vertex -1.76776695E+00  0.00000000E+00 -1.76776695E+00
      vertex -1.25000000E+00  0.00000000E+00 -2.16506410E+00
      vertex -1.76776695E+00  6.00000000E+00 -1.76776695E+00
    endloop
  endfacet
  facet normal  3.82682115E-01  2.03869671E-10  9.23880100E-01
    outer loop
      vertex -1.25000000E+00  0.00000000E+00 -2.16506410E+00
      vertex -6.47047997E-01  0.00000000E+00 -2.41481400E+00
      vertex -6.47047997E-01  6.00000000E+00 -2.41481400E+00
    endloop
  endfacet
  facet normal  1.30526975E-01  2.87077667E-10  9.91444767E-01
    outer loop
      vertex -6.47047997E-01  6.00000000E+00 -2.41481400E+00
      vertex  0.00000000E+00  0.00000000E+00 -2.50000000E+00
      vertex  0.00000000E+00  6.00000000E+00 -2.50000000E+00
    endloop
  endfacet
  facet normal  1.30526975E-01 -0.00000000E+00  9.91444767E-01
    outer loop
      vertex -6.47047997E-01  0.00000000E+00 -2.41481400E+00
      vertex  0.00000000E+00  0.00000000E+00 -2.50000000E+00
      vertex -6.47047997E-01  6.00000000E+00 -2.41481400E+00
    endloop
  endfacet
  facet normal  0.00000000E+00  1.00000000E+00  0.00000000E+00
    outer loop
      vertex -1.25000000E+00  6.00000000E+00  2.16506410E+00
      vertex -2.68700600E+00  6.00000000E+00  2.68700600E+00
      vertex -1.89999998E+00  6.00000000E+00  3.29089594E+00
    endloop
  endfacet
  facet normal  0.00000000E+00  1.00000000E+00  0.00000000E+00
    outer loop
      vertex -1.25000000E+00  6.00000000E+00  2.16506410E+00
      vertex -1.76776695E+00  6.00000000E+00  1.76776695E+00
      vertex -2.68700600E+00  6.00000000E+00  2.68700600E+00
    endloop
  endfacet
  facet normal  0.00000000E+00  1.00000000E+00  0.00000000E+00
    outer loop
      vertex -2.16506410E+00  6.00000000E+00  1.25000000E+00
      vertex -3.29089594E+00  6.00000000E+00  1.89999998E+00
      vertex -2.68700600E+00  6.00000000E+00  2.68700600E+00
    endloop
  endfacet
  facet normal  0.00000000E+00  1.00000000E+00 -0.00000000E+00
    outer loop
      vertex -2.16506410E+00  6.00000000E+00  1.25000000E+00
      vertex -2.68700600E+00  6.00000000E+00  2.68700600E+00
      vertex -1.76776695E+00  6.00000000E+00  1.76776695E+00
    endloop
  endfacet
  facet normal  0.00000000E+00  1.00000000E+00  0.00000000E+00
    outer loop
      vertex -6.47047997E-01  6.00000000E+00  2.41481400E+00
      vertex -1.89999998E+00  6.00000000E+00  3.29089594E+00
      vertex -9.83511984E-01  6.00000000E+00  3.67051792E+00
    endloop
  endfacet
  facet normal  0.00000000E+00  1.00000000E+00  0.00000000E+00
    outer loop
      vertex -6.47047997E-01  6.00000000E+00  2.41481400E+00
      vertex -1.25000000E+00  6.00000000E+00  2.16506410E+00
      vertex -1.89999998E+00  6.00000000E+00  3.29089594E+00
    endloop
  endfacet
  facet normal  0.00000000E+00  1.00000000E+00  0.00000000E+00
    outer loop
      vertex -2.41481400E+00  6.00000000E+00  6.47047997E-01
      vertex -3.67051792E+00  6.00000000E+00  9.83511984E-01
      vertex -3.29089594E+00  6.00000000E+00  1.89999998E+00
    endloop
  endfacet
  facet normal  0.00000000E+00  1.00000000E+00 -0.00000000E+00
    outer loop
      vertex -2.41481400E+00  6.00000000E+00  6.47047997E-01
      vertex -3.29089594E+00  6.00000000E+00  1.89999998E+00
      vertex -2.16506410E+00  6.00000000E+00  1.25000000E+00
    endloop
  endfacet
  facet normal  0.00000000E+00  1.00000000E+00  0.00000000E+00
    outer loop
      vertex -2.50000000E+00  6.00000000E+00  0.00000000E+00
      vertex -3.79999995E+00  6.00000000E+00  0.00000000E+00
      vertex -3.67051792E+00  6.00000000E+00  9.83511984E-01
    endloop
  endfacet
  facet normal  0.00000000E+00  1.00000000E+00 -0.00000000E+00
    outer loop
      vertex -2.50000000E+00  6.00000000E+00  0.00000000E+00
      vertex -3.67051792E+00  6.00000000E+00  9.83511984E-01
      vertex -2.41481400E+00  6.00000000E+00  6.47047997E-01
    endloop
  endfacet
  facet normal  0.00000000E+00  1.00000000E+00  0.00000000E+00
    outer loop
      vertex  0.00000000E+00  6.00000000E+00  2.50000000E+00
      vertex -9.83511984E-01  6.00000000E+00  3.67051792E+00
      vertex -0.00000000E+00  6.00000000E+00  3.79999995E+00
    endloop
  endfacet
  facet normal  0.00000000E+00  1.00000000E+00  0.00000000E+00
    outer loop
      vertex  0.00000000E+00  6.00000000E+00  2.50000000E+00
      vertex -6.47047997E-01  6.00000000E+00  2.41481400E+00
      vertex -9.83511984E-01  6.00000000E+00  3.67051792E+00
    endloop
  endfacet
  facet normal  0.00000000E+00  1.00000000E+00  0.00000000E+00
    outer loop
      vertex -2.41481400E+00  6.00000000E+00 -6.47047997E-01
      vertex -3.67051792E+00  6.00000000E+00 -9.83511984E-01
      vertex -3.79999995E+00  6.00000000E+00  0.00000000E+00
    endloop
  endfacet
  facet normal  0.00000000E+00  1.00000000E+00  0.00000000E+00
    outer loop
      vertex -2.41481400E+00  6.00000000E+00 -6.47047997E-01
      vertex -3.79999995E+00  6.00000000E+00  0.00000000E+00
      vertex -2.50000000E+00  6.00000000E+00  0.00000000E+00
    endloop
  endfacet
  facet normal  0.00000000E+00  1.00000000E+00 -0.00000000E+00
    outer loop
      vertex  6.47047997E-01  6.00000000E+00  2.41481400E+00
      vertex -0.00000000E+00  6.00000000E+00  3.79999995E+00
      vertex  9.83511984E-01  6.00000000E+00  3.67051792E+00
    endloop
  endfacet
  facet normal  0.00000000E+00  1.00000000E+00  0.00000000E+00
    outer loop
      vertex  6.47047997E-01  6.00000000E+00  2.41481400E+00
      vertex  0.00000000E+00  6.00000000E+00  2.50000000E+00
      vertex -0.00000000E+00  6.00000000E+00  3.79999995E+00
    endloop
  endfacet
  facet normal  0.00000000E+00  1.00000000E+00  0.00000000E+00
    outer loop
      vertex -2.16506410E+00  6.00000000E+00 -1.25000000E+00
      vertex -3.29089594E+00  6.00000000E+00 -1.89999998E+00
      vertex -3.67051792E+00  6.00000000E+00 -9.83511984E-01
    endloop
  endfacet
  facet normal  0.00000000E+00  1.00000000E+00  0.00000000E+00
    outer loop
      vertex -2.16506410E+00  6.00000000E+00 -1.25000000E+00
      vertex -3.67051792E+00  6.00000000E+00 -9.83511984E-01
      vertex -2.41481400E+00  6.00000000E+00 -6.47047997E-01
    endloop
  endfacet
  facet normal  0.00000000E+00  1.00000000E+00 -0.00000000E+00
    outer loop
      vertex  1.25000000E+00  6.00000000E+00  2.16506410E+00
      vertex  9.83511984E-01  6.00000000E+00  3.67051792E+00
      vertex  1.89999998E+00  6.00000000E+00  3.29089594E+00
    endloop
  endfacet
  facet normal  0.00000000E+00  1.00000000E+00  0.00000000E+00
    outer loop
      vertex  1.25000000E+00  6.00000000E+00  2.16506410E+00
      vertex  6.47047997E-01  6.00000000E+00  2.41481400E+00
      vertex  9.83511984E-01  6.00000000E+00  3.67051792E+00
    endloop
  endfacet
  facet normal  0.00000000E+00  1.00000000E+00  0.00000000E+00
    outer loop
      vertex -1.76776695E+00  6.00000000E+00 -1.76776695E+00
      vertex -2.68700600E+00  6.00000000E+00 -2.68700600E+00
      vertex -3.29089594E+00  6.00000000E+00 -1.89999998E+00
    endloop
  endfacet
  facet normal  0.00000000E+00  1.00000000E+00  0.00000000E+00
    outer loop
      vertex -1.76776695E+00  6.00000000E+00 -1.76776695E+00
      vertex -3.29089594E+00  6.00000000E+00 -1.89999998E+00
      vertex -2.16506410E+00  6.00000000E+00 -1.25000000E+00
    endloop
  endfacet
  facet normal  0.00000000E+00  1.00000000E+00  0.00000000E+00
    outer loop
      vertex  2.68700600E+00  6.00000000E+00  2.68700600E+00
      vertex  1.76776695E+00  6.00000000E+00  1.76776695E+00
      vertex  1.25000000E+00  6.00000000E+00  2.16506410E+00
    endloop
  endfacet
  facet normal  0.00000000E+00  1.00000000E+00  0.00000000E+00
    outer loop
      vertex  2.68700600E+00  6.00000000E+00  2.68700600E+00
      vertex  1.25000000E+00  6.00000000E+00  2.16506410E+00
      vertex  1.89999998E+00  6.00000000E+00  3.29089594E+00
    endloop
  endfacet
  facet normal  0.00000000E+00  1.00000000E+00  0.00000000E+00
    outer loop
      vertex -1.89999998E+00  6.00000000E+00 -3.29089594E+00
      vertex -1.76776695E+00  6.00000000E+00 -1.76776695E+00
      vertex -1.25000000E+00  6.00000000E+00 -2.16506410E+00
    endloop
  endfacet
  facet normal  0.00000000E+00  1.00000000E+00 -0.00000000E+00
    outer loop
      vertex -1.89999998E+00  6.00000000E+00 -3.29089594E+00
      vertex -2.68700600E+00  6.00000000E+00 -2.68700600E+00
      vertex -1.76776695E+00  6.00000000E+00 -1.76776695E+00
    endloop
  endfacet
  facet normal  0.00000000E+00  1.00000000E+00  0.00000000E+00
    outer loop
      vertex  3.29089594E+00  6.00000000E+00  1.89999998E+00
      vertex  1.76776695E+00  6.00000000E+00  1.76776695E+00
      vertex  2.68700600E+00  6.00000000E+00  2.68700600E+00
    endloop
  endfacet
  facet normal  0.00000000E+00  1.00000000E+00  0.00000000E+00
    outer loop
      vertex  3.29089594E+00  6.00000000E+00  1.89999998E+00
      vertex  2.16506410E+00  6.00000000E+00  1.25000000E+00
      vertex  1.76776695E+00  6.00000000E+00  1.76776695E+00
    endloop
  endfacet
  facet normal  0.00000000E+00  1.00000000E+00  0.00000000E+00
    outer loop
      vertex -6.47047997E-01  6.00000000E+00 -2.41481400E+00
      vertex -1.89999998E+00  6.00000000E+00 -3.29089594E+00
      vertex -1.25000000E+00  6.00000000E+00 -2.16506410E+00
    endloop
  endfacet
  facet normal  0.00000000E+00  1.00000000E+00 -0.00000000E+00
    outer loop
      vertex  2.41481400E+00  6.00000000E+00  6.47047997E-01
      vertex  2.16506410E+00  6.00000000E+00  1.25000000E+00
      vertex  3.29089594E+00  6.00000000E+00  1.89999998E+00
    endloop
  endfacet
  facet normal  0.00000000E+00  1.00000000E+00 -0.00000000E+00
    outer loop
      vertex -9.83511984E-01  6.00000000E+00 -3.67051792E+00
      vertex -1.89999998E+00  6.00000000E+00 -3.29089594E+00
      vertex -6.47047997E-01  6.00000000E+00 -2.41481400E+00
    endloop
  endfacet
  facet normal  0.00000000E+00  1.00000000E+00  0.00000000E+00
    outer loop
      vertex  3.67051792E+00  6.00000000E+00  9.83511984E-01
      vertex  2.41481400E+00  6.00000000E+00  6.47047997E-01
      vertex  3.29089594E+00  6.00000000E+00  1.89999998E+00
    endloop
  endfacet
  facet normal  0.00000000E+00  1.00000000E+00  0.00000000E+00
    outer loop
      vertex  0.00000000E+00  6.00000000E+00 -3.79999995E+00
      vertex -9.83511984E-01  6.00000000E+00 -3.67051792E+00
      vertex -6.47047997E-01  6.00000000E+00 -2.41481400E+00
    endloop
  endfacet
  facet normal  0.00000000E+00  1.00000000E+00 -0.00000000E+00
    outer loop
      vertex  0.00000000E+00  6.00000000E+00 -3.79999995E+00
      vertex -6.47047997E-01  6.00000000E+00 -2.41481400E+00
      vertex  0.00000000E+00  6.00000000E+00 -2.50000000E+00
    endloop
  endfacet
  facet normal  0.00000000E+00  1.00000000E+00  0.00000000E+00
    outer loop
      vertex  3.79999995E+00  6.00000000E+00 -0.00000000E+00
      vertex  2.41481400E+00  6.00000000E+00  6.47047997E-01
      vertex  3.67051792E+00  6.00000000E+00  9.83511984E-01
    endloop
  endfacet
  facet normal  0.00000000E+00  1.00000000E+00  0.00000000E+00
    outer loop
      vertex  3.79999995E+00  6.00000000E+00 -0.00000000E+00
      vertex  2.50000000E+00  6.00000000E+00 -0.00000000E+00
      vertex  2.41481400E+00  6.00000000E+00  6.47047997E-01
    endloop
  endfacet
  facet normal  0.00000000E+00  1.00000000E+00  0.00000000E+00
    outer loop
      vertex  9.83511984E-01  6.00000000E+00 -3.67051792E+00
      vertex  0.00000000E+00  6.00000000E+00 -2.50000000E+00
      vertex  6.47047997E-01  6.00000000E+00 -2.41481400E+00
    endloop
  endfacet
  facet normal  0.00000000E+00  1.00000000E+00  0.00000000E+00
    outer loop
      vertex  9.83511984E-01  6.00000000E+00 -3.67051792E+00
      vertex  0.00000000E+00  6.00000000E+00 -3.79999995E+00
      vertex  0.00000000E+00  6.00000000E+00 -2.50000000E+00
    endloop
  endfacet
  facet normal  0.00000000E+00  1.00000000E+00  0.00000000E+00
    outer loop
      vertex  3.67051792E+00  6.00000000E+00 -9.83511984E-01
      vertex  2.41481400E+00  6.00000000E+00 -6.47047997E-01
      vertex  2.50000000E+00  6.00000000E+00 -0.00000000E+00
    endloop
  endfacet
  facet normal  0.00000000E+00  1.00000000E+00 -0.00000000E+00
    outer loop
      vertex  3.67051792E+00  6.00000000E+00 -9.83511984E-01
      vertex  2.50000000E+00  6.00000000E+00 -0.00000000E+00
      vertex  3.79999995E+00  6.00000000E+00 -0.00000000E+00
    endloop
  endfacet
  facet normal  0.00000000E+00  1.00000000E+00 -0.00000000E+00
    outer loop
      vertex  3.29089594E+00  6.00000000E+00 -1.89999998E+00
      vertex  2.41481400E+00  6.00000000E+00 -6.47047997E-01
      vertex  3.67051792E+00  6.00000000E+00 -9.83511984E-01
    endloop
  endfacet
  facet normal  0.00000000E+00  1.00000000E+00  0.00000000E+00
    outer loop
      vertex  3.29089594E+00  6.00000000E+00 -1.89999998E+00
      vertex  1.76776695E+00  6.00000000E+00 -1.76776695E+00
      vertex  2.16506410E+00  6.00000000E+00 -1.25000000E+00
    endloop
  endfacet
  facet normal  0.00000000E+00  1.00000000E+00  0.00000000E+00
    outer loop
      vertex  3.29089594E+00  6.00000000E+00 -1.89999998E+00
      vertex  2.16506410E+00  6.00000000E+00 -1.25000000E+00
      vertex  2.41481400E+00  6.00000000E+00 -6.47047997E-01
    endloop
  endfacet
  facet normal  0.00000000E+00  1.00000000E+00  0.00000000E+00
    outer loop
      vertex  1.89999998E+00  6.00000000E+00 -3.29089594E+00
      vertex  9.83511984E-01  6.00000000E+00 -3.67051792E+00
      vertex  6.47047997E-01  6.00000000E+00 -2.41481400E+00
    endloop
  endfacet
  facet normal  0.00000000E+00  1.00000000E+00  0.00000000E+00
    outer loop
      vertex  1.89999998E+00  6.00000000E+00 -3.29089594E+00
      vertex  6.47047997E-01  6.00000000E+00 -2.41481400E+00
      vertex  1.25000000E+00  6.00000000E+00 -2.16506410E+00
    endloop
  endfacet
  facet normal  0.00000000E+00  1.00000000E+00  0.00000000E+00
    outer loop
      vertex  2.68700600E+00  6.00000000E+00 -2.68700600E+00
      vertex  1.25000000E+00  6.00000000E+00 -2.16506410E+00
      vertex  1.76776695E+00  6.00000000E+00 -1.76776695E+00
    endloop
  endfacet
  facet normal  0.00000000E+00  1.00000000E+00  0.00000000E+00
    outer loop
      vertex  2.68700600E+00  6.00000000E+00 -2.68700600E+00
      vertex  1.89999998E+00  6.00000000E+00 -3.29089594E+00
      vertex  1.25000000E+00  6.00000000E+00 -2.16506410E+00
    endloop
  endfacet
  facet normal  0.00000000E+00  1.00000000E+00 -0.00000000E+00
    outer loop
      vertex  2.68700600E+00  6.00000000E+00 -2.68700600E+00
      vertex  1.76776695E+00  6.00000000E+00 -1.76776695E+00
      vertex  3.29089594E+00  6.00000000E+00 -1.89999998E+00
    endloop
  endfacet
  facet normal -1.30526975E-01 -2.87077667E-10  9.91444767E-01
    outer loop
      vertex  0.00000000E+00  6.00000000E+00 -2.50000000E+00
      vertex  6.47047997E-01  0.00000000E+00 -2.41481400E+00
      vertex  6.47047997E-01  6.00000000E+00 -2.41481400E+00
    endloop
  endfacet
  facet normal -1.30526975E-01  0.00000000E+00  9.91444767E-01
    outer loop
      vertex  0.00000000E+00  0.00000000E+00 -2.50000000E+00
      vertex  6.47047997E-01  0.00000000E+00 -2.41481400E+00
      vertex  0.00000000E+00  6.00000000E+00 -2.50000000E+00
    endloop
  endfacet
  facet normal -3.82682115E-01 -2.03869671E-10  9.23880100E-01
    outer loop
      vertex  6.47047997E-01  6.00000000E+00 -2.41481400E+00
      vertex  1.25000000E+00  0.00000000E+00 -2.16506410E+00
      vertex  1.25000000E+00  6.00000000E+00 -2.16506410E+00
    endloop
  endfacet
  facet normal -3.82682115E-01  0.00000000E+00  9.23880100E-01
    outer loop
      vertex  6.47047997E-01  0.00000000E+00 -2.41481400E+00
      vertex  1.25000000E+00  0.00000000E+00 -2.16506410E+00
      vertex  6.47047997E-01  6.00000000E+00 -2.41481400E+00
    endloop
  endfacet
  facet normal -6.08761966E-01 -1.25828770E-09  7.93352902E-01
    outer loop
      vertex  1.25000000E+00  6.00000000E+00 -2.16506410E+00
      vertex  1.76776695E+00  0.00000000E+00 -1.76776695E+00
      vertex  1.76776695E+00  6.00000000E+00 -1.76776695E+00
    endloop
  endfacet
  facet normal -6.08761966E-01  0.00000000E+00  7.93352902E-01
    outer loop
      vertex  1.25000000E+00  0.00000000E+00 -2.16506410E+00
      vertex  1.76776695E+00  0.00000000E+00 -1.76776695E+00
      vertex  1.25000000E+00  6.00000000E+00 -2.16506410E+00
    endloop
  endfacet
  facet normal -7.93352902E-01 -1.25828770E-09  6.08761966E-01
    outer loop
      vertex  1.76776695E+00  6.00000000E+00 -1.76776695E+00
      vertex  2.16506410E+00  0.00000000E+00 -1.25000000E+00
      vertex  2.16506410E+00  6.00000000E+00 -1.25000000E+00
    endloop
  endfacet
  facet normal -9.23880100E-01  0.00000000E+00  3.82682115E-01
    outer loop
      vertex  2.16506410E+00  6.00000000E+00 -1.25000000E+00
      vertex  2.16506410E+00  0.00000000E+00 -1.25000000E+00
      vertex  2.41481400E+00  6.00000000E+00 -6.47047997E-01
    endloop
  endfacet
  facet normal -7.93352902E-01  0.00000000E+00  6.08761966E-01
    outer loop
      vertex  1.76776695E+00  0.00000000E+00 -1.76776695E+00
      vertex  2.16506410E+00  0.00000000E+00 -1.25000000E+00
      vertex  1.76776695E+00  6.00000000E+00 -1.76776695E+00
    endloop
  endfacet
  facet normal -9.23880100E-01 -2.03869671E-10  3.82682115E-01
    outer loop
      vertex  2.16506410E+00  0.00000000E+00 -1.25000000E+00
      vertex  2.41481400E+00  0.00000000E+00 -6.47047997E-01
      vertex  2.41481400E+00  6.00000000E+00 -6.47047997E-01
    endloop
  endfacet
  facet normal -9.91444767E-01 -2.87077667E-10  1.30526975E-01
    outer loop
      vertex  2.41481400E+00  6.00000000E+00 -6.47047997E-01
      vertex  2.50000000E+00  0.00000000E+00 -0.00000000E+00
      vertex  2.50000000E+00  6.00000000E+00 -0.00000000E+00
    endloop
  endfacet
  facet normal -9.91444767E-01 -0.00000000E+00 -1.30526975E-01
    outer loop
      vertex  2.50000000E+00  6.00000000E+00 -0.00000000E+00
      vertex  2.50000000E+00  0.00000000E+00 -0.00000000E+00
      vertex  2.41481400E+00  6.00000000E+00  6.47047997E-01
    endloop
  endfacet
  facet normal -9.91444767E-01  0.00000000E+00  1.30526975E-01
    outer loop
      vertex  2.41481400E+00  0.00000000E+00 -6.47047997E-01
      vertex  2.50000000E+00  0.00000000E+00 -0.00000000E+00
      vertex  2.41481400E+00  6.00000000E+00 -6.47047997E-01
    endloop
  endfacet
  facet normal -9.91444767E-01  2.87077667E-10 -1.30526975E-01
    outer loop
      vertex  2.50000000E+00  0.00000000E+00 -0.00000000E+00
      vertex  2.41481400E+00  0.00000000E+00  6.47047997E-01
      vertex  2.41481400E+00  6.00000000E+00  6.47047997E-01
    endloop
  endfacet
  facet normal -9.23880100E-01  2.03869671E-10 -3.82682115E-01
    outer loop
      vertex  2.41481400E+00  6.00000000E+00  6.47047997E-01
      vertex  2.16506410E+00  0.00000000E+00  1.25000000E+00
      vertex  2.16506410E+00  6.00000000E+00  1.25000000E+00
    endloop
  endfacet
  facet normal -9.23880100E-01  0.00000000E+00 -3.82682115E-01
    outer loop
      vertex  2.41481400E+00  0.00000000E+00  6.47047997E-01
      vertex  2.16506410E+00  0.00000000E+00  1.25000000E+00
      vertex  2.41481400E+00  6.00000000E+00  6.47047997E-01
    endloop
  endfacet
  facet normal -7.93352902E-01  1.25828770E-09 -6.08761966E-01
    outer loop
      vertex  2.16506410E+00  6.00000000E+00  1.25000000E+00
      vertex  1.76776695E+00  0.00000000E+00  1.76776695E+00
      vertex  1.76776695E+00  6.00000000E+00  1.76776695E+00
    endloop
  endfacet
  facet normal -7.93352902E-01  0.00000000E+00 -6.08761966E-01
    outer loop
      vertex  2.16506410E+00  0.00000000E+00  1.25000000E+00
      vertex  1.76776695E+00  0.00000000E+00  1.76776695E+00
      vertex  2.16506410E+00  6.00000000E+00  1.25000000E+00
    endloop
  endfacet
  facet normal -6.08761966E-01  1.25828770E-09 -7.93352902E-01
    outer loop
      vertex  1.76776695E+00  6.00000000E+00  1.76776695E+00
      vertex  1.25000000E+00  0.00000000E+00  2.16506410E+00
      vertex  1.25000000E+00  6.00000000E+00  2.16506410E+00
    endloop
  endfacet
  facet normal -3.82682115E-01 -0.00000000E+00 -9.23880100E-01
    outer loop
      vertex  1.25000000E+00  6.00000000E+00  2.16506410E+00
      vertex  1.25000000E+00  0.00000000E+00  2.16506410E+00
      vertex  6.47047997E-01  6.00000000E+00  2.41481400E+00
    endloop
  endfacet
  facet normal -6.08761966E-01  0.00000000E+00 -7.93352902E-01
    outer loop
      vertex  1.76776695E+00  0.00000000E+00  1.76776695E+00
      vertex  1.25000000E+00  0.00000000E+00  2.16506410E+00
      vertex  1.76776695E+00  6.00000000E+00  1.76776695E+00
    endloop
  endfacet
  facet normal -3.82682115E-01  2.03869671E-10 -9.23880100E-01
    outer loop
      vertex  1.25000000E+00  0.00000000E+00  2.16506410E+00
      vertex  6.47047997E-01  0.00000000E+00  2.41481400E+00
      vertex  6.47047997E-01  6.00000000E+00  2.41481400E+00
    endloop
  endfacet
  facet normal -1.30526975E-01  2.87077667E-10 -9.91444767E-01
    outer loop
      vertex  6.47047997E-01  6.00000000E+00  2.41481400E+00
      vertex  0.00000000E+00  0.00000000E+00  2.50000000E+00
      vertex  0.00000000E+00  6.00000000E+00  2.50000000E+00
    endloop
  endfacet
  facet normal -1.30526975E-01  0.00000000E+00 -9.91444767E-01
    outer loop
      vertex  6.47047997E-01  0.00000000E+00  2.41481400E+00
      vertex  0.00000000E+00  0.00000000E+00  2.50000000E+00
      vertex  6.47047997E-01  6.00000000E+00  2.41481400E+00
    endloop
  endfacet
  facet normal  0.00000000E+00 -1.00000000E+00  0.00000000E+00
    outer loop
      vertex -1.25000000E+00  0.00000000E+00  2.16506410E+00
      vertex -1.79792702E+00  0.00000000E+00  3.11410189E+00
      vertex -2.54265308E+00  0.00000000E+00  2.54265308E+00
    endloop
  endfacet
  facet normal -0.00000000E+00 -1.00000000E+00  0.00000000E+00
    outer loop
      vertex -1.25000000E+00  0.00000000E+00  2.16506410E+00
      vertex -2.54265308E+00  0.00000000E+00  2.54265308E+00
      vertex -1.76776695E+00  0.00000000E+00  1.76776695E+00
    endloop
  endfacet
  facet normal  0.00000000E+00 -1.00000000E+00  0.00000000E+00
    outer loop
      vertex -2.16506410E+00  0.00000000E+00  1.25000000E+00
      vertex -2.54265308E+00  0.00000000E+00  2.54265308E+00
      vertex -3.11410189E+00  0.00000000E+00  1.79792702E+00
    endloop
  endfacet
  facet normal -0.00000000E+00 -1.00000000E+00  0.00000000E+00
    outer loop
      vertex -2.16506410E+00  0.00000000E+00  1.25000000E+00
      vertex -3.11410189E+00  0.00000000E+00  1.79792702E+00
      vertex -3.47332907E+00  0.00000000E+00  9.30675983E-01
    endloop
  endfacet
  facet normal  0.00000000E+00 -1.00000000E+00  0.00000000E+00
    outer loop
      vertex -2.16506410E+00  0.00000000E+00  1.25000000E+00
      vertex -1.76776695E+00  0.00000000E+00  1.76776695E+00
      vertex -2.54265308E+00  0.00000000E+00  2.54265308E+00
    endloop
  endfacet
  facet normal  0.00000000E+00 -1.00000000E+00  0.00000000E+00
    outer loop
      vertex -6.47047997E-01  0.00000000E+00  2.41481400E+00
      vertex -9.30675983E-01  0.00000000E+00  3.47332907E+00
      vertex -1.79792702E+00  0.00000000E+00  3.11410189E+00
    endloop
  endfacet
  facet normal -0.00000000E+00 -1.00000000E+00  0.00000000E+00
    outer loop
      vertex -6.47047997E-01  0.00000000E+00  2.41481400E+00
      vertex -1.79792702E+00  0.00000000E+00  3.11410189E+00
      vertex -1.25000000E+00  0.00000000E+00  2.16506410E+00
    endloop
  endfacet
  facet normal  0.00000000E+00 -1.00000000E+00  0.00000000E+00
    outer loop
      vertex -2.41481400E+00  0.00000000E+00  6.47047997E-01
      vertex -2.16506410E+00  0.00000000E+00  1.25000000E+00
      vertex -3.47332907E+00  0.00000000E+00  9.30675983E-01
    endloop
  endfacet
  facet normal  0.00000000E+00 -1.00000000E+00  0.00000000E+00
    outer loop
      vertex -2.50000000E+00  0.00000000E+00  0.00000000E+00
      vertex -3.47332907E+00  0.00000000E+00  9.30675983E-01
      vertex -3.59585500E+00  0.00000000E+00  0.00000000E+00
    endloop
  endfacet
  facet normal  0.00000000E+00 -1.00000000E+00  0.00000000E+00
    outer loop
      vertex -2.50000000E+00  0.00000000E+00  0.00000000E+00
      vertex -2.41481400E+00  0.00000000E+00  6.47047997E-01
      vertex -3.47332907E+00  0.00000000E+00  9.30675983E-01
    endloop
  endfacet
  facet normal  0.00000000E+00 -1.00000000E+00  0.00000000E+00
    outer loop
      vertex  0.00000000E+00  0.00000000E+00  2.50000000E+00
      vertex  0.00000000E+00  0.00000000E+00  3.59585500E+00
      vertex -9.30675983E-01  0.00000000E+00  3.47332907E+00
    endloop
  endfacet
  facet normal -0.00000000E+00 -1.00000000E+00  0.00000000E+00
    outer loop
      vertex  0.00000000E+00  0.00000000E+00  2.50000000E+00
      vertex -9.30675983E-01  0.00000000E+00  3.47332907E+00
      vertex -6.47047997E-01  0.00000000E+00  2.41481400E+00
    endloop
  endfacet
  facet normal -0.00000000E+00 -1.00000000E+00  0.00000000E+00
    outer loop
      vertex -2.41481400E+00  0.00000000E+00 -6.47047997E-01
      vertex -3.59585500E+00  0.00000000E+00  0.00000000E+00
      vertex -3.47332907E+00  0.00000000E+00 -9.30675983E-01
    endloop
  endfacet
  facet normal  0.00000000E+00 -1.00000000E+00  0.00000000E+00
    outer loop
      vertex -2.41481400E+00  0.00000000E+00 -6.47047997E-01
      vertex -2.50000000E+00  0.00000000E+00  0.00000000E+00
      vertex -3.59585500E+00  0.00000000E+00  0.00000000E+00
    endloop
  endfacet
  facet normal  0.00000000E+00 -1.00000000E+00  0.00000000E+00
    outer loop
      vertex  6.47047997E-01  0.00000000E+00  2.41481400E+00
      vertex  9.30675983E-01  0.00000000E+00  3.47332907E+00
      vertex  0.00000000E+00  0.00000000E+00  3.59585500E+00
    endloop
  endfacet
  facet normal  0.00000000E+00 -1.00000000E+00  0.00000000E+00
    outer loop
      vertex  6.47047997E-01  0.00000000E+00  2.41481400E+00
      vertex  0.00000000E+00  0.00000000E+00  3.59585500E+00
      vertex  0.00000000E+00  0.00000000E+00  2.50000000E+00
    endloop
  endfacet
  facet normal -0.00000000E+00 -1.00000000E+00  0.00000000E+00
    outer loop
      vertex -2.16506410E+00  0.00000000E+00 -1.25000000E+00
      vertex -3.47332907E+00  0.00000000E+00 -9.30675983E-01
      vertex -3.11410189E+00  0.00000000E+00 -1.79792702E+00
    endloop
  endfacet
  facet normal  0.00000000E+00 -1.00000000E+00  0.00000000E+00
    outer loop
      vertex -2.16506410E+00  0.00000000E+00 -1.25000000E+00
      vertex -2.41481400E+00  0.00000000E+00 -6.47047997E-01
      vertex -3.47332907E+00  0.00000000E+00 -9.30675983E-01
    endloop
  endfacet
  facet normal  0.00000000E+00 -1.00000000E+00  0.00000000E+00
    outer loop
      vertex  1.25000000E+00  0.00000000E+00  2.16506410E+00
      vertex  1.79792702E+00  0.00000000E+00  3.11410189E+00
      vertex  9.30675983E-01  0.00000000E+00  3.47332907E+00
    endloop
  endfacet
  facet normal  0.00000000E+00 -1.00000000E+00  0.00000000E+00
    outer loop
      vertex  1.25000000E+00  0.00000000E+00  2.16506410E+00
      vertex  9.30675983E-01  0.00000000E+00  3.47332907E+00
      vertex  6.47047997E-01  0.00000000E+00  2.41481400E+00
    endloop
  endfacet
  facet normal  0.00000000E+00 -1.00000000E+00  0.00000000E+00
    outer loop
      vertex -1.76776695E+00  0.00000000E+00 -1.76776695E+00
      vertex -3.11410189E+00  0.00000000E+00 -1.79792702E+00
      vertex -2.54265308E+00  0.00000000E+00 -2.54265308E+00
    endloop
  endfacet
  facet normal -0.00000000E+00 -1.00000000E+00  0.00000000E+00
    outer loop
      vertex -1.76776695E+00  0.00000000E+00 -1.76776695E+00
      vertex -2.16506410E+00  0.00000000E+00 -1.25000000E+00
      vertex -3.11410189E+00  0.00000000E+00 -1.79792702E+00
    endloop
  endfacet
  facet normal  0.00000000E+00 -1.00000000E+00  0.00000000E+00
    outer loop
      vertex  1.76776695E+00  0.00000000E+00  1.76776695E+00
      vertex  1.79792702E+00  0.00000000E+00  3.11410189E+00
      vertex  1.25000000E+00  0.00000000E+00  2.16506410E+00
    endloop
  endfacet
  facet normal -0.00000000E+00 -1.00000000E+00  0.00000000E+00
    outer loop
      vertex  2.54265308E+00  0.00000000E+00  2.54265308E+00
      vertex  1.79792702E+00  0.00000000E+00  3.11410189E+00
      vertex  1.76776695E+00  0.00000000E+00  1.76776695E+00
    endloop
  endfacet
  facet normal  0.00000000E+00 -1.00000000E+00  0.00000000E+00
    outer loop
      vertex -1.79792702E+00  0.00000000E+00 -3.11410189E+00
      vertex -1.25000000E+00  0.00000000E+00 -2.16506410E+00
      vertex -1.76776695E+00  0.00000000E+00 -1.76776695E+00
    endloop
  endfacet
  facet normal  0.00000000E+00 -1.00000000E+00  0.00000000E+00
    outer loop
      vertex -1.79792702E+00  0.00000000E+00 -3.11410189E+00
      vertex -1.76776695E+00  0.00000000E+00 -1.76776695E+00
      vertex -2.54265308E+00  0.00000000E+00 -2.54265308E+00
    endloop
  endfacet
  facet normal -0.00000000E+00 -1.00000000E+00  0.00000000E+00
    outer loop
      vertex  3.11410189E+00  0.00000000E+00  1.79792702E+00
      vertex  2.54265308E+00  0.00000000E+00  2.54265308E+00
      vertex  1.76776695E+00  0.00000000E+00  1.76776695E+00
    endloop
  endfacet
  facet normal  0.00000000E+00 -1.00000000E+00  0.00000000E+00
    outer loop
      vertex  3.11410189E+00  0.00000000E+00  1.79792702E+00
      vertex  1.76776695E+00  0.00000000E+00  1.76776695E+00
      vertex  2.16506410E+00  0.00000000E+00  1.25000000E+00
    endloop
  endfacet
  facet normal  0.00000000E+00 -1.00000000E+00  0.00000000E+00
    outer loop
      vertex -9.30675983E-01  0.00000000E+00 -3.47332907E+00
      vertex -1.25000000E+00  0.00000000E+00 -2.16506410E+00
      vertex -1.79792702E+00  0.00000000E+00 -3.11410189E+00
    endloop
  endfacet
  facet normal  0.00000000E+00 -1.00000000E+00  0.00000000E+00
    outer loop
      vertex -9.30675983E-01  0.00000000E+00 -3.47332907E+00
      vertex -6.47047997E-01  0.00000000E+00 -2.41481400E+00
      vertex -1.25000000E+00  0.00000000E+00 -2.16506410E+00
    endloop
  endfacet
  facet normal  0.00000000E+00 -1.00000000E+00  0.00000000E+00
    outer loop
      vertex  3.47332907E+00  0.00000000E+00  9.30675983E-01
      vertex  3.11410189E+00  0.00000000E+00  1.79792702E+00
      vertex  2.16506410E+00  0.00000000E+00  1.25000000E+00
    endloop
  endfacet
  facet normal -0.00000000E+00 -1.00000000E+00  0.00000000E+00
    outer loop
      vertex  3.47332907E+00  0.00000000E+00  9.30675983E-01
      vertex  2.16506410E+00  0.00000000E+00  1.25000000E+00
      vertex  2.41481400E+00  0.00000000E+00  6.47047997E-01
    endloop
  endfacet
  facet normal  0.00000000E+00 -1.00000000E+00  0.00000000E+00
    outer loop
      vertex  0.00000000E+00  0.00000000E+00 -3.59585500E+00
      vertex -6.47047997E-01  0.00000000E+00 -2.41481400E+00
      vertex -9.30675983E-01  0.00000000E+00 -3.47332907E+00
    endloop
  endfacet
  facet normal  0.00000000E+00 -1.00000000E+00  0.00000000E+00
    outer loop
      vertex  0.00000000E+00  0.00000000E+00 -3.59585500E+00
      vertex  0.00000000E+00  0.00000000E+00 -2.50000000E+00
      vertex -6.47047997E-01  0.00000000E+00 -2.41481400E+00
    endloop
  endfacet
  facet normal  0.00000000E+00 -1.00000000E+00  0.00000000E+00
    outer loop
      vertex  3.59585500E+00  0.00000000E+00 -0.00000000E+00
      vertex  3.47332907E+00  0.00000000E+00  9.30675983E-01
      vertex  2.41481400E+00  0.00000000E+00  6.47047997E-01
    endloop
  endfacet
  facet normal  0.00000000E+00 -1.00000000E+00  0.00000000E+00
    outer loop
      vertex  3.59585500E+00  0.00000000E+00 -0.00000000E+00
      vertex  2.41481400E+00  0.00000000E+00  6.47047997E-01
      vertex  2.50000000E+00  0.00000000E+00 -0.00000000E+00
    endloop
  endfacet
  facet normal -0.00000000E+00 -1.00000000E+00  0.00000000E+00
    outer loop
      vertex  9.30675983E-01  0.00000000E+00 -3.47332907E+00
      vertex  0.00000000E+00  0.00000000E+00 -2.50000000E+00
      vertex  0.00000000E+00  0.00000000E+00 -3.59585500E+00
    endloop
  endfacet
  facet normal  0.00000000E+00 -1.00000000E+00  0.00000000E+00
    outer loop
      vertex  9.30675983E-01  0.00000000E+00 -3.47332907E+00
      vertex  6.47047997E-01  0.00000000E+00 -2.41481400E+00
      vertex  0.00000000E+00  0.00000000E+00 -2.50000000E+00
    endloop
  endfacet
  facet normal  0.00000000E+00 -1.00000000E+00  0.00000000E+00
    outer loop
      vertex  9.30675983E-01  0.00000000E+00 -3.47332907E+00
      vertex  1.25000000E+00  0.00000000E+00 -2.16506410E+00
      vertex  6.47047997E-01  0.00000000E+00 -2.41481400E+00
    endloop
  endfacet
  facet normal -0.00000000E+00 -1.00000000E+00  0.00000000E+00
    outer loop
      vertex  3.47332907E+00  0.00000000E+00 -9.30675983E-01
      vertex  2.41481400E+00  0.00000000E+00 -6.47047997E-01
      vertex  2.16506410E+00  0.00000000E+00 -1.25000000E+00
    endloop
  endfacet
  facet normal  0.00000000E+00 -1.00000000E+00  0.00000000E+00
    outer loop
      vertex  3.47332907E+00  0.00000000E+00 -9.30675983E-01
      vertex  2.50000000E+00  0.00000000E+00 -0.00000000E+00
      vertex  2.41481400E+00  0.00000000E+00 -6.47047997E-01
    endloop
  endfacet
  facet normal  0.00000000E+00 -1.00000000E+00  0.00000000E+00
    outer loop
      vertex  3.47332907E+00  0.00000000E+00 -9.30675983E-01
      vertex  3.59585500E+00  0.00000000E+00 -0.00000000E+00
      vertex  2.50000000E+00  0.00000000E+00 -0.00000000E+00
    endloop
  endfacet
  facet normal -0.00000000E+00 -1.00000000E+00  0.00000000E+00
    outer loop
      vertex  1.79792702E+00  0.00000000E+00 -3.11410189E+00
      vertex  1.25000000E+00  0.00000000E+00 -2.16506410E+00
      vertex  9.30675983E-01  0.00000000E+00 -3.47332907E+00
    endloop
  endfacet
  facet normal  0.00000000E+00 -1.00000000E+00  0.00000000E+00
    outer loop
      vertex  3.11410189E+00  0.00000000E+00 -1.79792702E+00
      vertex  3.47332907E+00  0.00000000E+00 -9.30675983E-01
      vertex  2.16506410E+00  0.00000000E+00 -1.25000000E+00
    endloop
  endfacet
  facet normal -0.00000000E+00 -1.00000000E+00  0.00000000E+00
    outer loop
      vertex  2.54265308E+00  0.00000000E+00 -2.54265308E+00
      vertex  1.25000000E+00  0.00000000E+00 -2.16506410E+00
      vertex  1.79792702E+00  0.00000000E+00 -3.11410189E+00
    endloop
  endfacet
  facet normal  0.00000000E+00 -1.00000000E+00  0.00000000E+00
    outer loop
      vertex  2.54265308E+00  0.00000000E+00 -2.54265308E+00
      vertex  1.76776695E+00  0.00000000E+00 -1.76776695E+00
      vertex  1.25000000E+00  0.00000000E+00 -2.16506410E+00
    endloop
  endfacet
  facet normal  0.00000000E+00 -1.00000000E+00  0.00000000E+00
    outer loop
      vertex  2.54265308E+00  0.00000000E+00 -2.54265308E+00
      vertex  2.16506410E+00  0.00000000E+00 -1.25000000E+00
      vertex  1.76776695E+00  0.00000000E+00 -1.76776695E+00
    endloop
  endfacet
  facet normal  0.00000000E+00 -1.00000000E+00  0.00000000E+00
    outer loop
      vertex  2.54265308E+00  0.00000000E+00 -2.54265308E+00
      vertex  3.11410189E+00  0.00000000E+00 -1.79792702E+00
      vertex  2.16506410E+00  0.00000000E+00 -1.25000000E+00
    endloop
  endfacet
  facet normal -1.13280766E-01 -4.96781349E-01 -8.60450923E-01
    outer loop
      vertex -1.03527606E+00  6.99999988E-01 -3.86370301E+00
      vertex  0.00000000E+00  6.99999988E-01 -4.00000000E+00
      vertex  0.00000000E+00  0.00000000E+00 -3.59585500E+00
    endloop
  endfacet
  facet normal -1.13280632E-01 -4.96781170E-01 -8.60451043E-01
    outer loop
      vertex -1.03527606E+00  6.99999988E-01 -3.86370301E+00
      vertex  0.00000000E+00  0.00000000E+00 -3.59585500E+00
      vertex -9.30675983E-01  0.00000000E+00 -3.47332907E+00
    endloop
  endfacet
  facet normal -3.32121581E-01 -4.96781796E-01 -8.01812410E-01
    outer loop
      vertex -2.00000000E+00  6.99999988E-01 -3.46410203E+00
      vertex -9.30675983E-01  0.00000000E+00 -3.47332907E+00
      vertex -1.79792702E+00  0.00000000E+00 -3.11410189E+00
    endloop
  endfacet
  facet normal -3.32121193E-01 -4.96781141E-01 -8.01812947E-01
    outer loop
      vertex -2.00000000E+00  6.99999988E-01 -3.46410203E+00
      vertex -1.03527606E+00  6.99999988E-01 -3.86370301E+00
      vertex -9.30675983E-01  0.00000000E+00 -3.47332907E+00
    endloop
  endfacet
  facet normal -5.28329372E-01 -4.96781796E-01 -6.88531756E-01
    outer loop
      vertex -2.82842708E+00  6.99999988E-01 -2.82842708E+00
      vertex -1.79792702E+00  0.00000000E+00 -3.11410189E+00
      vertex -2.54265308E+00  0.00000000E+00 -2.54265308E+00
    endloop
  endfacet
  facet normal -5.28329372E-01 -4.96781856E-01 -6.88531697E-01
    outer loop
      vertex -2.82842708E+00  6.99999988E-01 -2.82842708E+00
      vertex -2.00000000E+00  6.99999988E-01 -3.46410203E+00
      vertex -1.79792702E+00  0.00000000E+00 -3.11410189E+00
    endloop
  endfacet
  facet normal -6.88531756E-01 -4.96781826E-01 -5.28329313E-01
    outer loop
      vertex -3.46410203E+00  6.99999988E-01 -2.00000000E+00
      vertex -2.54265308E+00  0.00000000E+00 -2.54265308E+00
      vertex -3.11410189E+00  0.00000000E+00 -1.79792702E+00
    endloop
  endfacet
  facet normal -6.88531756E-01 -4.96781766E-01 -5.28329372E-01
    outer loop
      vertex -3.46410203E+00  6.99999988E-01 -2.00000000E+00
      vertex -2.82842708E+00  6.99999988E-01 -2.82842708E+00
      vertex -2.54265308E+00  0.00000000E+00 -2.54265308E+00
    endloop
  endfacet
  facet normal -8.01812708E-01 -4.96781111E-01 -3.32121760E-01
    outer loop
      vertex -3.86370301E+00  6.99999988E-01 -1.03527606E+00
      vertex -3.11410189E+00  0.00000000E+00 -1.79792702E+00
      vertex -3.47332907E+00  0.00000000E+00 -9.30675983E-01
    endloop
  endfacet
  facet normal -8.01812589E-01 -4.96781796E-01 -3.32121044E-01
    outer loop
      vertex -3.86370301E+00  6.99999988E-01 -1.03527606E+00
      vertex -3.46410203E+00  6.99999988E-01 -2.00000000E+00
      vertex -3.11410189E+00  0.00000000E+00 -1.79792702E+00
    endloop
  endfacet
  facet normal -8.60450923E-01 -4.96781349E-01 -1.13280639E-01
    outer loop
      vertex -4.00000000E+00  6.99999988E-01  0.00000000E+00
      vertex -3.47332907E+00  0.00000000E+00 -9.30675983E-01
      vertex -3.59585500E+00  0.00000000E+00  0.00000000E+00
    endloop
  endfacet
  facet normal -8.60450983E-01 -4.96781200E-01 -1.13280773E-01
    outer loop
      vertex -4.00000000E+00  6.99999988E-01  0.00000000E+00
      vertex -3.86370301E+00  6.99999988E-01 -1.03527606E+00
      vertex -3.47332907E+00  0.00000000E+00 -9.30675983E-01
    endloop
  endfacet
  facet normal -8.60451043E-01 -4.96781170E-01  1.13280632E-01
    outer loop
      vertex -3.86370301E+00  6.99999988E-01  1.03527606E+00
      vertex -3.59585500E+00  0.00000000E+00  0.00000000E+00
      vertex -3.47332907E+00  0.00000000E+00  9.30675983E-01
    endloop
  endfacet
  facet normal -8.60450923E-01 -4.96781319E-01  1.13280766E-01
    outer loop
      vertex -3.86370301E+00  6.99999988E-01  1.03527606E+00
      vertex -4.00000000E+00  6.99999988E-01  0.00000000E+00
      vertex -3.59585500E+00  0.00000000E+00  0.00000000E+00
    endloop
  endfacet
  facet normal -8.01812708E-01 -4.96781111E-01  3.32121760E-01
    outer loop
      vertex -3.11410189E+00  0.00000000E+00  1.79792702E+00
      vertex -3.86370301E+00  6.99999988E-01  1.03527606E+00
      vertex -3.47332907E+00  0.00000000E+00  9.30675983E-01
    endloop
  endfacet
  facet normal -8.01812649E-01 -4.96781766E-01  3.32121044E-01
    outer loop
      vertex -3.46410203E+00  6.99999988E-01  2.00000000E+00
      vertex -3.86370301E+00  6.99999988E-01  1.03527606E+00
      vertex -3.11410189E+00  0.00000000E+00  1.79792702E+00
    endloop
  endfacet
  facet normal -6.88531756E-01 -4.96781796E-01  5.28329372E-01
    outer loop
      vertex -2.82842708E+00  6.99999988E-01  2.82842708E+00
      vertex -3.11410189E+00  0.00000000E+00  1.79792702E+00
      vertex -2.54265308E+00  0.00000000E+00  2.54265308E+00
    endloop
  endfacet
  facet normal -6.88531697E-01 -4.96781826E-01  5.28329372E-01
    outer loop
      vertex -2.82842708E+00  6.99999988E-01  2.82842708E+00
      vertex -3.46410203E+00  6.99999988E-01  2.00000000E+00
      vertex -3.11410189E+00  0.00000000E+00  1.79792702E+00
    endloop
  endfacet
  facet normal -5.28329313E-01 -4.96781826E-01  6.88531697E-01
    outer loop
      vertex -2.00000000E+00  6.99999988E-01  3.46410203E+00
      vertex -2.54265308E+00  0.00000000E+00  2.54265308E+00
      vertex -1.79792702E+00  0.00000000E+00  3.11410189E+00
    endloop
  endfacet
  facet normal -5.28329372E-01 -4.96781796E-01  6.88531697E-01
    outer loop
      vertex -2.00000000E+00  6.99999988E-01  3.46410203E+00
      vertex -2.82842708E+00  6.99999988E-01  2.82842708E+00
      vertex -2.54265308E+00  0.00000000E+00  2.54265308E+00
    endloop
  endfacet
  facet normal -3.32121760E-01 -4.96781081E-01  8.01812768E-01
    outer loop
      vertex -1.03527606E+00  6.99999988E-01  3.86370301E+00
      vertex -1.79792702E+00  0.00000000E+00  3.11410189E+00
      vertex -9.30675983E-01  0.00000000E+00  3.47332907E+00
    endloop
  endfacet
  facet normal -3.32121044E-01 -4.96781766E-01  8.01812649E-01
    outer loop
      vertex -1.03527606E+00  6.99999988E-01  3.86370301E+00
      vertex -2.00000000E+00  6.99999988E-01  3.46410203E+00
      vertex -1.79792702E+00  0.00000000E+00  3.11410189E+00
    endloop
  endfacet
  facet normal -1.13280617E-01 -4.96781349E-01  8.60450923E-01
    outer loop
      vertex  0.00000000E+00  6.99999988E-01  4.00000000E+00
      vertex -9.30675983E-01  0.00000000E+00  3.47332907E+00
      vertex  0.00000000E+00  0.00000000E+00  3.59585500E+00
    endloop
  endfacet
  facet normal -1.13280773E-01 -4.96781200E-01  8.60450983E-01
    outer loop
      vertex  0.00000000E+00  6.99999988E-01  4.00000000E+00
      vertex -1.03527606E+00  6.99999988E-01  3.86370301E+00
      vertex -9.30675983E-01  0.00000000E+00  3.47332907E+00
    endloop
  endfacet
  facet normal  1.30526483E-01  6.56769250E-10 -9.91444826E-01
    outer loop
      vertex  1.03527606E+00  6.99999988E-01 -3.86370301E+00
      vertex  0.00000000E+00  6.99999988E-01 -4.00000000E+00
      vertex  0.00000000E+00  5.80000019E+00 -4.00000000E+00
    endloop
  endfacet
  facet normal  1.30526483E-01  0.00000000E+00 -9.91444826E-01
    outer loop
      vertex  1.03527606E+00  6.99999988E-01 -3.86370301E+00
      vertex  0.00000000E+00  5.80000019E+00 -4.00000000E+00
      vertex  1.03527606E+00  5.80000019E+00 -3.86370301E+00
    endloop
  endfacet
  facet normal  3.82682800E-01  0.00000000E+00 -9.23879802E-01
    outer loop
      vertex  2.00000000E+00  6.99999988E-01 -3.46410203E+00
      vertex  1.03527606E+00  5.80000019E+00 -3.86370301E+00
      vertex  2.00000000E+00  5.80000019E+00 -3.46410203E+00
    endloop
  endfacet
  facet normal  3.82682800E-01 -5.82281612E-10 -9.23879802E-01
    outer loop
      vertex  2.00000000E+00  6.99999988E-01 -3.46410203E+00
      vertex  1.03527606E+00  6.99999988E-01 -3.86370301E+00
      vertex  1.03527606E+00  5.80000019E+00 -3.86370301E+00
    endloop
  endfacet
  facet normal  6.08761728E-01  0.00000000E+00 -7.93353140E-01
    outer loop
      vertex  2.82842708E+00  6.99999988E-01 -2.82842708E+00
      vertex  2.00000000E+00  5.80000019E+00 -3.46410203E+00
      vertex  2.82842708E+00  5.80000019E+00 -2.82842708E+00
    endloop
  endfacet
  facet normal  6.08761728E-01 -5.32380984E-09 -7.93353140E-01
    outer loop
      vertex  2.82842708E+00  6.99999988E-01 -2.82842708E+00
      vertex  2.00000000E+00  6.99999988E-01 -3.46410203E+00
      vertex  2.00000000E+00  5.80000019E+00 -3.46410203E+00
    endloop
  endfacet
  facet normal  7.93353140E-01  0.00000000E+00 -6.08761728E-01
    outer loop
      vertex  3.46410203E+00  6.99999988E-01 -2.00000000E+00
      vertex  2.82842708E+00  5.80000019E+00 -2.82842708E+00
      vertex  3.46410203E+00  5.80000019E+00 -2.00000000E+00
    endloop
  endfacet
  facet normal  7.93353140E-01 -5.32380984E-09 -6.08761728E-01
    outer loop
      vertex  3.46410203E+00  6.99999988E-01 -2.00000000E+00
      vertex  2.82842708E+00  6.99999988E-01 -2.82842708E+00
      vertex  2.82842708E+00  5.80000019E+00 -2.82842708E+00
    endloop
  endfacet
  facet normal  9.23879802E-01  0.00000000E+00 -3.82682800E-01
    outer loop
      vertex  3.86370301E+00  6.99999988E-01 -1.03527606E+00
      vertex  3.46410203E+00  5.80000019E+00 -2.00000000E+00
      vertex  3.86370301E+00  5.80000019E+00 -1.03527606E+00
    endloop
  endfacet
  facet normal  9.23879802E-01 -5.82281612E-10 -3.82682800E-01
    outer loop
      vertex  3.86370301E+00  6.99999988E-01 -1.03527606E+00
      vertex  3.46410203E+00  6.99999988E-01 -2.00000000E+00
      vertex  3.46410203E+00  5.80000019E+00 -2.00000000E+00
    endloop
  endfacet
  facet normal  9.91444826E-01  0.00000000E+00 -1.30526483E-01
    outer loop
      vertex  4.00000000E+00  6.99999988E-01 -0.00000000E+00
      vertex  3.86370301E+00  5.80000019E+00 -1.03527606E+00
      vertex  4.00000000E+00  5.80000019E+00 -0.00000000E+00
    endloop
  endfacet
  facet normal  9.91444826E-01 -0.00000000E+00  1.30526483E-01
    outer loop
      vertex  4.00000000E+00  6.99999988E-01 -0.00000000E+00
      vertex  4.00000000E+00  5.80000019E+00 -0.00000000E+00
      vertex  3.86370301E+00  5.80000019E+00  1.03527606E+00
    endloop
  endfacet
  facet normal  9.91444826E-01  6.56769250E-10 -1.30526483E-01
    outer loop
      vertex  4.00000000E+00  6.99999988E-01 -0.00000000E+00
      vertex  3.86370301E+00  6.99999988E-01 -1.03527606E+00
      vertex  3.86370301E+00  5.80000019E+00 -1.03527606E+00
    endloop
  endfacet
  facet normal  9.91444826E-01 -0.00000000E+00  1.30526483E-01
    outer loop
      vertex  3.86370301E+00  6.99999988E-01  1.03527606E+00
      vertex  4.00000000E+00  6.99999988E-01 -0.00000000E+00
      vertex  3.86370301E+00  5.80000019E+00  1.03527606E+00
    endloop
  endfacet
  facet normal  9.23879802E-01 -0.00000000E+00  3.82682800E-01
    outer loop
      vertex  3.46410203E+00  6.99999988E-01  2.00000000E+00
      vertex  3.86370301E+00  5.80000019E+00  1.03527606E+00
      vertex  3.46410203E+00  5.80000019E+00  2.00000000E+00
    endloop
  endfacet
  facet normal  9.23879802E-01  5.82281612E-10  3.82682800E-01
    outer loop
      vertex  3.46410203E+00  6.99999988E-01  2.00000000E+00
      vertex  3.86370301E+00  6.99999988E-01  1.03527606E+00
      vertex  3.86370301E+00  5.80000019E+00  1.03527606E+00
    endloop
  endfacet
  facet normal  7.93353140E-01 -0.00000000E+00  6.08761728E-01
    outer loop
      vertex  2.82842708E+00  6.99999988E-01  2.82842708E+00
      vertex  3.46410203E+00  5.80000019E+00  2.00000000E+00
      vertex  2.82842708E+00  5.80000019E+00  2.82842708E+00
    endloop
  endfacet
  facet normal  6.08761728E-01 -0.00000000E+00  7.93353140E-01
    outer loop
      vertex  2.82842708E+00  6.99999988E-01  2.82842708E+00
      vertex  2.82842708E+00  5.80000019E+00  2.82842708E+00
      vertex  2.00000000E+00  5.80000019E+00  3.46410203E+00
    endloop
  endfacet
  facet normal  7.93353140E-01  5.32380984E-09  6.08761728E-01
    outer loop
      vertex  2.82842708E+00  6.99999988E-01  2.82842708E+00
      vertex  3.46410203E+00  6.99999988E-01  2.00000000E+00
      vertex  3.46410203E+00  5.80000019E+00  2.00000000E+00
    endloop
  endfacet
  facet normal  6.08761728E-01 -0.00000000E+00  7.93353140E-01
    outer loop
      vertex  2.00000000E+00  6.99999988E-01  3.46410203E+00
      vertex  2.82842708E+00  6.99999988E-01  2.82842708E+00
      vertex  2.00000000E+00  5.80000019E+00  3.46410203E+00
    endloop
  endfacet
  facet normal  3.82682800E-01 -0.00000000E+00  9.23879802E-01
    outer loop
      vertex  1.03527606E+00  6.99999988E-01  3.86370301E+00
      vertex  2.00000000E+00  5.80000019E+00  3.46410203E+00
      vertex  1.03527606E+00  5.80000019E+00  3.86370301E+00
    endloop
  endfacet
  facet normal  1.30526483E-01 -0.00000000E+00  9.91444826E-01
    outer loop
      vertex  1.03527606E+00  6.99999988E-01  3.86370301E+00
      vertex  1.03527606E+00  5.80000019E+00  3.86370301E+00
      vertex  0.00000000E+00  5.80000019E+00  4.00000000E+00
    endloop
  endfacet
  facet normal  3.82682800E-01  5.82281612E-10  9.23879802E-01
    outer loop
      vertex  1.03527606E+00  6.99999988E-01  3.86370301E+00
      vertex  2.00000000E+00  6.99999988E-01  3.46410203E+00
      vertex  2.00000000E+00  5.80000019E+00  3.46410203E+00
    endloop
  endfacet
  facet normal  1.30526483E-01 -0.00000000E+00  9.91444826E-01
    outer loop
      vertex  0.00000000E+00  6.99999988E-01  4.00000000E+00
      vertex  1.03527606E+00  6.99999988E-01  3.86370301E+00
      vertex  0.00000000E+00  5.80000019E+00  4.00000000E+00
    endloop
  endfacet
  facet normal -9.26917493E-02  7.04062998E-01  7.04062164E-01
    outer loop
      vertex -1.03527606E+00  5.80000019E+00  3.86370301E+00
      vertex  0.00000000E+00  5.80000019E+00  4.00000000E+00
      vertex -0.00000000E+00  6.00000000E+00  3.79999995E+00
    endloop
  endfacet
  facet normal -9.26917270E-02  7.04062879E-01  7.04062283E-01
    outer loop
      vertex -1.03527606E+00  5.80000019E+00  3.86370301E+00
      vertex -0.00000000E+00  6.00000000E+00  3.79999995E+00
      vertex -9.83511984E-01  6.00000000E+00  3.67051792E+00
    endloop
  endfacet
  facet normal -2.71757364E-01  7.04064608E-01  6.56080008E-01
    outer loop
      vertex -2.00000000E+00  5.80000019E+00  3.46410203E+00
      vertex -9.83511984E-01  6.00000000E+00  3.67051792E+00
      vertex -1.89999998E+00  6.00000000E+00  3.29089594E+00
    endloop
  endfacet
  facet normal -2.71757394E-01  7.04063058E-01  6.56081676E-01
    outer loop
      vertex -2.00000000E+00  5.80000019E+00  3.46410203E+00
      vertex -1.03527606E+00  5.80000019E+00  3.86370301E+00
      vertex -9.83511984E-01  6.00000000E+00  3.67051792E+00
    endloop
  endfacet
  facet normal -4.32303041E-01  7.04064369E-01  5.63389242E-01
    outer loop
      vertex -2.68700600E+00  6.00000000E+00  2.68700600E+00
      vertex -2.00000000E+00  5.80000019E+00  3.46410203E+00
      vertex -1.89999998E+00  6.00000000E+00  3.29089594E+00
    endloop
  endfacet
  facet normal -4.32305008E-01  7.04062283E-01  5.63390374E-01
    outer loop
      vertex -2.82842708E+00  5.80000019E+00  2.82842708E+00
      vertex -2.00000000E+00  5.80000019E+00  3.46410203E+00
      vertex -2.68700600E+00  6.00000000E+00  2.68700600E+00
    endloop
  endfacet
  facet normal -5.63389182E-01  7.04064429E-01  4.32302982E-01
    outer loop
      vertex -3.46410203E+00  5.80000019E+00  2.00000000E+00
      vertex -2.68700600E+00  6.00000000E+00  2.68700600E+00
      vertex -3.29089594E+00  6.00000000E+00  1.89999998E+00
    endloop
  endfacet
  facet normal -5.63390315E-01  7.04062283E-01  4.32304978E-01
    outer loop
      vertex -3.46410203E+00  5.80000019E+00  2.00000000E+00
      vertex -2.82842708E+00  5.80000019E+00  2.82842708E+00
      vertex -2.68700600E+00  6.00000000E+00  2.68700600E+00
    endloop
  endfacet
  facet normal -6.56079948E-01  7.04064667E-01  2.71757364E-01
    outer loop
      vertex -3.67051792E+00  6.00000000E+00  9.83511984E-01
      vertex -3.46410203E+00  5.80000019E+00  2.00000000E+00
      vertex -3.29089594E+00  6.00000000E+00  1.89999998E+00
    endloop
  endfacet
  facet normal -6.56081676E-01  7.04062998E-01  2.71757424E-01
    outer loop
      vertex -3.86370301E+00  5.80000019E+00  1.03527606E+00
      vertex -3.46410203E+00  5.80000019E+00  2.00000000E+00
      vertex -3.67051792E+00  6.00000000E+00  9.83511984E-01
    endloop
  endfacet
  facet normal -7.04062343E-01  7.04062879E-01  9.26917195E-02
    outer loop
      vertex -3.79999995E+00  6.00000000E+00  0.00000000E+00
      vertex -3.86370301E+00  5.80000019E+00  1.03527606E+00
      vertex -3.67051792E+00  6.00000000E+00  9.83511984E-01
    endloop
  endfacet
  facet normal -7.04062164E-01  7.04062998E-01  9.26917568E-02
    outer loop
      vertex -4.00000000E+00  5.80000019E+00  0.00000000E+00
      vertex -3.86370301E+00  5.80000019E+00  1.03527606E+00
      vertex -3.79999995E+00  6.00000000E+00  0.00000000E+00
    endloop
  endfacet
  facet normal -7.04062283E-01  7.04062879E-01 -9.26917195E-02
    outer loop
      vertex -3.86370301E+00  5.80000019E+00 -1.03527606E+00
      vertex -3.79999995E+00  6.00000000E+00  0.00000000E+00
      vertex -3.67051792E+00  6.00000000E+00 -9.83511984E-01
    endloop
  endfacet
  facet normal -7.04062164E-01  7.04062998E-01 -9.26917568E-02
    outer loop
      vertex -3.86370301E+00  5.80000019E+00 -1.03527606E+00
      vertex -4.00000000E+00  5.80000019E+00  0.00000000E+00
      vertex -3.79999995E+00  6.00000000E+00  0.00000000E+00
    endloop
  endfacet
  facet normal -6.56081498E-01  7.04062998E-01 -2.71757990E-01
    outer loop
      vertex -3.29089594E+00  6.00000000E+00 -1.89999998E+00
      vertex -3.86370301E+00  5.80000019E+00 -1.03527606E+00
      vertex -3.67051792E+00  6.00000000E+00 -9.83511984E-01
    endloop
  endfacet
  facet normal -6.56080246E-01  7.04064608E-01 -2.71756828E-01
    outer loop
      vertex -3.46410203E+00  5.80000019E+00 -2.00000000E+00
      vertex -3.86370301E+00  5.80000019E+00 -1.03527606E+00
      vertex -3.29089594E+00  6.00000000E+00 -1.89999998E+00
    endloop
  endfacet
  facet normal -5.63390911E-01  7.04062223E-01 -4.32304353E-01
    outer loop
      vertex -2.82842708E+00  5.80000019E+00 -2.82842708E+00
      vertex -3.29089594E+00  6.00000000E+00 -1.89999998E+00
      vertex -2.68700600E+00  6.00000000E+00 -2.68700600E+00
    endloop
  endfacet
  facet normal -5.63388705E-01  7.04064369E-01 -4.32303727E-01
    outer loop
      vertex -2.82842708E+00  5.80000019E+00 -2.82842708E+00
      vertex -3.46410203E+00  5.80000019E+00 -2.00000000E+00
      vertex -3.29089594E+00  6.00000000E+00 -1.89999998E+00
    endloop
  endfacet
  facet normal -4.32303011E-01  7.04064429E-01 -5.63389182E-01
    outer loop
      vertex -2.00000000E+00  5.80000019E+00 -3.46410203E+00
      vertex -2.68700600E+00  6.00000000E+00 -2.68700600E+00
      vertex -1.89999998E+00  6.00000000E+00 -3.29089594E+00
    endloop
  endfacet
  facet normal -4.32305008E-01  7.04062283E-01 -5.63390374E-01
    outer loop
      vertex -2.00000000E+00  5.80000019E+00 -3.46410203E+00
      vertex -2.82842708E+00  5.80000019E+00 -2.82842708E+00
      vertex -2.68700600E+00  6.00000000E+00 -2.68700600E+00
    endloop
  endfacet
  facet normal -2.71757990E-01  7.04062998E-01 -6.56081498E-01
    outer loop
      vertex -1.03527606E+00  5.80000019E+00 -3.86370301E+00
      vertex -1.89999998E+00  6.00000000E+00 -3.29089594E+00
      vertex -9.83511984E-01  6.00000000E+00 -3.67051792E+00
    endloop
  endfacet
  facet normal -2.71756828E-01  7.04064608E-01 -6.56080246E-01
    outer loop
      vertex -1.03527606E+00  5.80000019E+00 -3.86370301E+00
      vertex -2.00000000E+00  5.80000019E+00 -3.46410203E+00
      vertex -1.89999998E+00  6.00000000E+00 -3.29089594E+00
    endloop
  endfacet
  facet normal -9.26916897E-02  7.04062998E-01 -7.04062164E-01
    outer loop
      vertex  0.00000000E+00  5.80000019E+00 -4.00000000E+00
      vertex -9.83511984E-01  6.00000000E+00 -3.67051792E+00
      vertex  0.00000000E+00  6.00000000E+00 -3.79999995E+00
    endloop
  endfacet
  facet normal -9.26917717E-02  7.04062879E-01 -7.04062283E-01
    outer loop
      vertex  0.00000000E+00  5.80000019E+00 -4.00000000E+00
      vertex -1.03527606E+00  5.80000019E+00 -3.86370301E+00
      vertex -9.83511984E-01  6.00000000E+00 -3.67051792E+00
    endloop
  endfacet
endsolid  Processed by ADMesh version 0.98.4
