solid ascii_stl
  facet normal 0.0000000000000000 -1.0000000000000000 0.0000000000000000
    outer loop
      vertex 12.0000000000000000 26.5000019073486328 20.0000000000000000
      vertex 4.0000000000000000 26.5000019073486328 20.0000000000000000
      vertex 12.0000000000000000 26.5000019073486328 0.0000000000000000
    endloop
  endfacet
  facet normal 0.0000000000000000 -1.0000000000000000 0.0000000000000000
    outer loop
      vertex 12.0000000000000000 26.5000019073486328 0.0000000000000000
      vertex 4.0000000000000000 26.5000019073486328 20.0000000000000000
      vertex 4.0000000000000000 26.5000019073486328 0.0000000000000000
    endloop
  endfacet
  facet normal 1.0000000000000000 0.0000000000000000 0.0000000000000000
    outer loop
      vertex 12.0000000000000000 30.5000000000000000 20.0000000000000000
      vertex 12.0000000000000000 26.5000019073486328 20.0000000000000000
      vertex 12.0000000000000000 30.5000000000000000 0.0000000000000000
    endloop
  endfacet
  facet normal 1.0000000000000000 0.0000000000000000 0.0000000000000000
    outer loop
      vertex 12.0000000000000000 30.5000000000000000 0.0000000000000000
      vertex 12.0000000000000000 26.5000019073486328 20.0000000000000000
      vertex 12.0000000000000000 26.5000019073486328 0.0000000000000000
    endloop
  endfacet
  facet normal 0.0000000000000000 1.0000000000000000 0.0000000000000000
    outer loop
      vertex 2.0000000000000000 30.5000000000000000 20.0000000000000000
      vertex 12.0000000000000000 30.5000000000000000 20.0000000000000000
      vertex 2.0000000000000000 30.5000000000000000 0.0000000000000000
    endloop
  endfacet
  facet normal 0.0000000000000000 1.0000000000000000 0.0000000000000000
    outer loop
      vertex 2.0000000000000000 30.5000000000000000 0.0000000000000000
      vertex 12.0000000000000000 30.5000000000000000 20.0000000000000000
      vertex 12.0000000000000000 30.5000000000000000 0.0000000000000000
    endloop
  endfacet
  facet normal -0.0580791383981705 0.9983119964599609 0.0000000000000000
    outer loop
      vertex 2.0000000000000000 30.5000000000000000 20.0000000000000000
      vertex 2.0000000000000000 30.5000000000000000 0.0000000000000000
      vertex 1.6527036428451538 30.4696159362792969 0.0000000000000000
    endloop
  endfacet
  facet normal -0.1161582767963409 0.9932307004928589 0.0000000000000000
    outer loop
      vertex 2.0000000000000000 30.5000000000000000 20.0000000000000000
      vertex 1.6527036428451538 30.4696159362792969 0.0000000000000000
      vertex 1.6527036428451538 30.4696159362792969 20.0000000000000000
    endloop
  endfacet
  facet normal -0.2305518537759781 0.9730600118637085 0.0000000000000000
    outer loop
      vertex 1.6527036428451538 30.4696159362792969 20.0000000000000000
      vertex 1.6527036428451538 30.4696159362792969 0.0000000000000000
      vertex 1.3159596920013428 30.3793849945068359 0.0000000000000000
    endloop
  endfacet
  facet normal -0.2868662774562836 0.9579706192016602 0.0000000000000000
    outer loop
      vertex 1.6527036428451538 30.4696159362792969 20.0000000000000000
      vertex 1.3159596920013428 30.3793849945068359 0.0000000000000000
      vertex 1.3159596920013428 30.3793849945068359 20.0000000000000000
    endloop
  endfacet
  facet normal -0.3960193693637848 0.9182421565055847 0.0000000000000000
    outer loop
      vertex 1.3159596920013428 30.3793849945068359 20.0000000000000000
      vertex 1.3159596920013428 30.3793849945068359 0.0000000000000000
      vertex 1.0000000000000000 30.2320518493652344 0.0000000000000000
    endloop
  endfacet
  facet normal -0.4488579928874969 0.8936030864715576 0.0000000000000000
    outer loop
      vertex 1.3159596920013428 30.3793849945068359 20.0000000000000000
      vertex 1.0000000000000000 30.2320518493652344 0.0000000000000000
      vertex 1.0000000000000000 30.2320518493652344 20.0000000000000000
    endloop
  endfacet
  facet normal -0.5494540333747864 0.8355239629745483 0.0000000000000000
    outer loop
      vertex 1.0000000000000000 30.2320518493652344 20.0000000000000000
      vertex 1.0000000000000000 30.2320518493652344 0.0000000000000000
      vertex 0.7144247889518738 30.0320892333984375 0.0000000000000000
    endloop
  endfacet
  facet normal -0.5972114205360413 0.8020839095115662 0.0000000000000000
    outer loop
      vertex 1.0000000000000000 30.2320518493652344 20.0000000000000000
      vertex 0.7144247889518738 30.0320892333984375 0.0000000000000000
      vertex 0.7144247889518738 30.0320892333984375 20.0000000000000000
    endloop
  endfacet
  facet normal -0.6861937642097473 0.7274187803268433 0.0000000000000000
    outer loop
      vertex 0.7144247889518738 30.0320892333984375 20.0000000000000000
      vertex 0.7144247889518738 30.0320892333984375 0.0000000000000000
      vertex 0.4679110944271088 29.7855758666992188 0.0000000000000000
    endloop
  endfacet
  facet normal -0.7274187803268433 0.6861937642097473 0.0000000000000000
    outer loop
      vertex 0.7144247889518738 30.0320892333984375 20.0000000000000000
      vertex 0.4679110944271088 29.7855758666992188 0.0000000000000000
      vertex 0.4679110944271088 29.7855758666992188 20.0000000000000000
    endloop
  endfacet
  facet normal -0.8020839095115662 0.5972114205360413 0.0000000000000000
    outer loop
      vertex 0.4679110944271088 29.7855758666992188 20.0000000000000000
      vertex 0.4679110944271088 29.7855758666992188 0.0000000000000000
      vertex 0.2679491937160492 29.5000000000000000 0.0000000000000000
    endloop
  endfacet
  facet normal -0.8355239629745483 0.5494540333747864 0.0000000000000000
    outer loop
      vertex 0.4679110944271088 29.7855758666992188 20.0000000000000000
      vertex 0.2679491937160492 29.5000000000000000 0.0000000000000000
      vertex 0.2679491937160492 29.5000000000000000 20.0000000000000000
    endloop
  endfacet
  facet normal -0.8936030864715576 0.4488579928874969 0.0000000000000000
    outer loop
      vertex 0.2679491937160492 29.5000000000000000 20.0000000000000000
      vertex 0.2679491937160492 29.5000000000000000 0.0000000000000000
      vertex 0.1206147596240044 29.1840400695800781 0.0000000000000000
    endloop
  endfacet
  facet normal -0.9182421565055847 0.3960193693637848 0.0000000000000000
    outer loop
      vertex 0.2679491937160492 29.5000000000000000 20.0000000000000000
      vertex 0.1206147596240044 29.1840400695800781 0.0000000000000000
      vertex 0.1206147596240044 29.1840400695800781 20.0000000000000000
    endloop
  endfacet
  facet normal -0.9579706192016602 0.2868662774562836 0.0000000000000000
    outer loop
      vertex 0.1206147596240044 29.1840400695800781 20.0000000000000000
      vertex 0.1206147596240044 29.1840400695800781 0.0000000000000000
      vertex 0.0303844939917326 28.8472957611083984 0.0000000000000000
    endloop
  endfacet
  facet normal -0.9730600118637085 0.2305518537759781 0.0000000000000000
    outer loop
      vertex 0.1206147596240044 29.1840400695800781 20.0000000000000000
      vertex 0.0303844939917326 28.8472957611083984 0.0000000000000000
      vertex 0.0303844939917326 28.8472957611083984 20.0000000000000000
    endloop
  endfacet
  facet normal -0.9932307004928589 0.1161582767963409 0.0000000000000000
    outer loop
      vertex 0.0303844939917326 28.8472957611083984 20.0000000000000000
      vertex 0.0303844939917326 28.8472957611083984 0.0000000000000000
      vertex 0.0000000000000056 28.5000000000000000 0.0000000000000000
    endloop
  endfacet
  facet normal -0.9983119964599609 0.0580791383981705 0.0000000000000000
    outer loop
      vertex 0.0303844939917326 28.8472957611083984 20.0000000000000000
      vertex 0.0000000000000056 28.5000000000000000 0.0000000000000000
      vertex 0.0000000000000056 28.5000000000000000 20.0000000000000000
    endloop
  endfacet
  facet normal -1.0000000000000000 0.0000000000000000 0.0000000000000000
    outer loop
      vertex 0.0000000000000056 16.0314159393310547 5.5683650970458984
      vertex 0.0000000000000056 16.7890892028808594 5.7713832855224609
      vertex 0.0000000000000056 28.5000000000000000 0.0000000000000000
    endloop
  endfacet
  facet normal -1.0000000000000000 0.0000000000000000 0.0000000000000000
    outer loop
      vertex 0.0000000000000056 28.5000000000000000 0.0000000000000000
      vertex 0.0000000000000056 16.7890892028808594 5.7713832855224609
      vertex 0.0000000000000056 17.5000000000000000 6.1028852462768555
    endloop
  endfacet
  facet normal -1.0000000000000000 0.0000000000000000 0.0000000000000000
    outer loop
      vertex 0.0000000000000056 28.5000000000000000 0.0000000000000000
      vertex 0.0000000000000056 17.5000000000000000 6.1028852462768555
      vertex 0.0000000000000056 18.1425437927246094 6.5527997016906738
    endloop
  endfacet
  facet normal -1.0000000000000000 0.0000000000000000 0.0000000000000000
    outer loop
      vertex 0.0000000000000056 13.7109098434448242 14.2286157608032227
      vertex 0.0000000000000056 13.0000000000000000 13.8971147537231445
      vertex 0.0000000000000056 2.0000002384185791 20.0000000000000000
    endloop
  endfacet
  facet normal -1.0000000000000000 0.0000000000000000 0.0000000000000000
    outer loop
      vertex 0.0000000000000056 2.0000002384185791 20.0000000000000000
      vertex 0.0000000000000056 13.0000000000000000 13.8971147537231445
      vertex 0.0000000000000056 12.3574552536010742 13.4471998214721680
    endloop
  endfacet
  facet normal -1.0000000000000000 0.0000000000000000 0.0000000000000000
    outer loop
      vertex 0.0000000000000056 18.1425437927246094 6.5527997016906738
      vertex 0.0000000000000056 18.6972007751464844 7.1074552536010742
      vertex 0.0000000000000056 28.5000000000000000 0.0000000000000000
    endloop
  endfacet
  facet normal -1.0000000000000000 0.0000000000000000 0.0000000000000000
    outer loop
      vertex 0.0000000000000056 28.5000000000000000 0.0000000000000000
      vertex 0.0000000000000056 18.6972007751464844 7.1074552536010742
      vertex 0.0000000000000056 19.1471157073974609 7.7500000000000000
    endloop
  endfacet
  facet normal -1.0000000000000000 0.0000000000000000 0.0000000000000000
    outer loop
      vertex 0.0000000000000056 28.5000000000000000 0.0000000000000000
      vertex 0.0000000000000056 19.1471157073974609 7.7500000000000000
      vertex 0.0000000000000056 19.4786167144775391 8.4609088897705078
    endloop
  endfacet
  facet normal -1.0000000000000000 0.0000000000000000 0.0000000000000000
    outer loop
      vertex 0.0000000000000056 19.4786167144775391 8.4609088897705078
      vertex 0.0000000000000056 19.6816349029541016 9.2185831069946289
      vertex 0.0000000000000056 28.5000000000000000 0.0000000000000000
    endloop
  endfacet
  facet normal -1.0000000000000000 0.0000000000000000 0.0000000000000000
    outer loop
      vertex 0.0000000000000056 28.5000000000000000 0.0000000000000000
      vertex 0.0000000000000056 19.6816349029541016 9.2185831069946289
      vertex 0.0000000000000056 19.7500000000000000 10.0000000000000000
    endloop
  endfacet
  facet normal -1.0000000000000000 0.0000000000000000 0.0000000000000000
    outer loop
      vertex 0.0000000000000056 28.5000000000000000 0.0000000000000000
      vertex 0.0000000000000056 19.7500000000000000 10.0000000000000000
      vertex 0.0000000000000056 28.5000000000000000 20.0000000000000000
    endloop
  endfacet
  facet normal -1.0000000000000000 0.0000000000000000 0.0000000000000000
    outer loop
      vertex 0.0000000000000056 19.7500000000000000 10.0000000000000000
      vertex 0.0000000000000056 19.6816349029541016 10.7814168930053711
      vertex 0.0000000000000056 28.5000000000000000 20.0000000000000000
    endloop
  endfacet
  facet normal -1.0000000000000000 0.0000000000000000 0.0000000000000000
    outer loop
      vertex 0.0000000000000056 28.5000000000000000 20.0000000000000000
      vertex 0.0000000000000056 19.6816349029541016 10.7814168930053711
      vertex 0.0000000000000056 19.4786167144775391 11.5390901565551758
    endloop
  endfacet
  facet normal -1.0000000000000000 0.0000000000000000 0.0000000000000000
    outer loop
      vertex 0.0000000000000056 28.5000000000000000 20.0000000000000000
      vertex 0.0000000000000056 19.4786167144775391 11.5390901565551758
      vertex 0.0000000000000056 19.1471157073974609 12.2500000000000000
    endloop
  endfacet
  facet normal -1.0000000000000000 0.0000000000000000 0.0000000000000000
    outer loop
      vertex 0.0000000000000056 12.3574552536010742 13.4471998214721680
      vertex 0.0000000000000056 11.8028001785278320 12.8925437927246094
      vertex 0.0000000000000056 2.0000002384185791 20.0000000000000000
    endloop
  endfacet
  facet normal -1.0000000000000000 0.0000000000000000 0.0000000000000000
    outer loop
      vertex 0.0000000000000056 2.0000002384185791 20.0000000000000000
      vertex 0.0000000000000056 11.8028001785278320 12.8925437927246094
      vertex 0.0000000000000056 11.3528852462768555 12.2500000000000000
    endloop
  endfacet
  facet normal -1.0000000000000000 0.0000000000000000 0.0000000000000000
    outer loop
      vertex 0.0000000000000056 2.0000002384185791 20.0000000000000000
      vertex 0.0000000000000056 11.3528852462768555 12.2500000000000000
      vertex 0.0000000000000056 11.0213832855224609 11.5390901565551758
    endloop
  endfacet
  facet normal -1.0000000000000000 0.0000000000000000 0.0000000000000000
    outer loop
      vertex 0.0000000000000056 11.0213832855224609 11.5390901565551758
      vertex 0.0000000000000056 10.8183660507202148 10.7814168930053711
      vertex 0.0000000000000056 2.0000002384185791 20.0000000000000000
    endloop
  endfacet
  facet normal -1.0000000000000000 0.0000000000000000 0.0000000000000000
    outer loop
      vertex 0.0000000000000056 2.0000002384185791 20.0000000000000000
      vertex 0.0000000000000056 10.8183660507202148 10.7814168930053711
      vertex 0.0000000000000056 10.7500000000000000 10.0000000000000000
    endloop
  endfacet
  facet normal -1.0000000000000000 0.0000000000000000 0.0000000000000000
    outer loop
      vertex 0.0000000000000056 2.0000002384185791 20.0000000000000000
      vertex 0.0000000000000056 10.7500000000000000 10.0000000000000000
      vertex 0.0000000000000056 2.0000002384185791 0.0000000000000000
    endloop
  endfacet
  facet normal -1.0000000000000000 0.0000000000000000 0.0000000000000000
    outer loop
      vertex 0.0000000000000056 2.0000002384185791 0.0000000000000000
      vertex 0.0000000000000056 10.7500000000000000 10.0000000000000000
      vertex 0.0000000000000056 10.8183660507202148 9.2185831069946289
    endloop
  endfacet
  facet normal -1.0000000000000000 0.0000000000000000 0.0000000000000000
    outer loop
      vertex 0.0000000000000056 2.0000002384185791 0.0000000000000000
      vertex 0.0000000000000056 10.8183660507202148 9.2185831069946289
      vertex 0.0000000000000056 11.0213832855224609 8.4609088897705078
    endloop
  endfacet
  facet normal -1.0000000000000000 0.0000000000000000 0.0000000000000000
    outer loop
      vertex 0.0000000000000056 16.0314159393310547 5.5683650970458984
      vertex 0.0000000000000056 28.5000000000000000 0.0000000000000000
      vertex 0.0000000000000056 15.2500000000000000 5.5000000000000000
    endloop
  endfacet
  facet normal -1.0000000000000000 0.0000000000000000 0.0000000000000000
    outer loop
      vertex 0.0000000000000056 15.2500000000000000 5.5000000000000000
      vertex 0.0000000000000056 28.5000000000000000 0.0000000000000000
      vertex 0.0000000000000056 2.0000002384185791 0.0000000000000000
    endloop
  endfacet
  facet normal -1.0000000000000000 0.0000000000000000 0.0000000000000000
    outer loop
      vertex 0.0000000000000056 15.2500000000000000 5.5000000000000000
      vertex 0.0000000000000056 2.0000002384185791 0.0000000000000000
      vertex 0.0000000000000056 14.4685831069946289 5.5683650970458984
    endloop
  endfacet
  facet normal -1.0000000000000000 0.0000000000000000 0.0000000000000000
    outer loop
      vertex 0.0000000000000056 28.5000000000000000 20.0000000000000000
      vertex 0.0000000000000056 17.5000000000000000 13.8971147537231445
      vertex 0.0000000000000056 16.7890892028808594 14.2286157608032227
    endloop
  endfacet
  facet normal -1.0000000000000000 0.0000000000000000 0.0000000000000000
    outer loop
      vertex 0.0000000000000056 12.3574552536010742 6.5527997016906738
      vertex 0.0000000000000056 13.0000000000000000 6.1028852462768555
      vertex 0.0000000000000056 2.0000002384185791 0.0000000000000000
    endloop
  endfacet
  facet normal -1.0000000000000000 0.0000000000000000 0.0000000000000000
    outer loop
      vertex 0.0000000000000056 2.0000002384185791 0.0000000000000000
      vertex 0.0000000000000056 13.0000000000000000 6.1028852462768555
      vertex 0.0000000000000056 13.7109098434448242 5.7713832855224609
    endloop
  endfacet
  facet normal -1.0000000000000000 0.0000000000000000 0.0000000000000000
    outer loop
      vertex 0.0000000000000056 2.0000002384185791 0.0000000000000000
      vertex 0.0000000000000056 13.7109098434448242 5.7713832855224609
      vertex 0.0000000000000056 14.4685831069946289 5.5683650970458984
    endloop
  endfacet
  facet normal -1.0000000000000000 0.0000000000000000 0.0000000000000000
    outer loop
      vertex 0.0000000000000056 19.1471157073974609 12.2500000000000000
      vertex 0.0000000000000056 18.6972007751464844 12.8925437927246094
      vertex 0.0000000000000056 28.5000000000000000 20.0000000000000000
    endloop
  endfacet
  facet normal -1.0000000000000000 0.0000000000000000 0.0000000000000000
    outer loop
      vertex 0.0000000000000056 28.5000000000000000 20.0000000000000000
      vertex 0.0000000000000056 18.6972007751464844 12.8925437927246094
      vertex 0.0000000000000056 18.1425437927246094 13.4471998214721680
    endloop
  endfacet
  facet normal -1.0000000000000000 0.0000000000000000 0.0000000000000000
    outer loop
      vertex 0.0000000000000056 28.5000000000000000 20.0000000000000000
      vertex 0.0000000000000056 18.1425437927246094 13.4471998214721680
      vertex 0.0000000000000056 17.5000000000000000 13.8971147537231445
    endloop
  endfacet
  facet normal -1.0000000000000000 0.0000000000000000 0.0000000000000000
    outer loop
      vertex 0.0000000000000056 16.7890892028808594 14.2286157608032227
      vertex 0.0000000000000056 16.0314159393310547 14.4316349029541016
      vertex 0.0000000000000056 28.5000000000000000 20.0000000000000000
    endloop
  endfacet
  facet normal -1.0000000000000000 0.0000000000000000 0.0000000000000000
    outer loop
      vertex 0.0000000000000056 28.5000000000000000 20.0000000000000000
      vertex 0.0000000000000056 16.0314159393310547 14.4316349029541016
      vertex 0.0000000000000056 15.2500000000000000 14.5000000000000000
    endloop
  endfacet
  facet normal -1.0000000000000000 0.0000000000000000 0.0000000000000000
    outer loop
      vertex 0.0000000000000056 28.5000000000000000 20.0000000000000000
      vertex 0.0000000000000056 15.2500000000000000 14.5000000000000000
      vertex 0.0000000000000056 2.0000002384185791 20.0000000000000000
    endloop
  endfacet
  facet normal -1.0000000000000000 0.0000000000000000 0.0000000000000000
    outer loop
      vertex 0.0000000000000056 2.0000002384185791 20.0000000000000000
      vertex 0.0000000000000056 15.2500000000000000 14.5000000000000000
      vertex 0.0000000000000056 14.4685831069946289 14.4316349029541016
    endloop
  endfacet
  facet normal -1.0000000000000000 0.0000000000000000 0.0000000000000000
    outer loop
      vertex 0.0000000000000056 2.0000002384185791 20.0000000000000000
      vertex 0.0000000000000056 14.4685831069946289 14.4316349029541016
      vertex 0.0000000000000056 13.7109098434448242 14.2286157608032227
    endloop
  endfacet
  facet normal -1.0000000000000000 0.0000000000000000 0.0000000000000000
    outer loop
      vertex 0.0000000000000056 11.0213832855224609 8.4609088897705078
      vertex 0.0000000000000056 11.3528852462768555 7.7500000000000000
      vertex 0.0000000000000056 2.0000002384185791 0.0000000000000000
    endloop
  endfacet
  facet normal -1.0000000000000000 0.0000000000000000 0.0000000000000000
    outer loop
      vertex 0.0000000000000056 2.0000002384185791 0.0000000000000000
      vertex 0.0000000000000056 11.3528852462768555 7.7500000000000000
      vertex 0.0000000000000056 11.8028001785278320 7.1074552536010742
    endloop
  endfacet
  facet normal -1.0000000000000000 0.0000000000000000 0.0000000000000000
    outer loop
      vertex 0.0000000000000056 2.0000002384185791 0.0000000000000000
      vertex 0.0000000000000056 11.8028001785278320 7.1074552536010742
      vertex 0.0000000000000056 12.3574552536010742 6.5527997016906738
    endloop
  endfacet
  facet normal -0.9983119964599609 -0.0580791383981705 0.0000000000000000
    outer loop
      vertex 0.0000000000000056 2.0000002384185791 20.0000000000000000
      vertex 0.0000000000000056 2.0000002384185791 0.0000000000000000
      vertex 0.0303844939917326 1.6527036428451538 0.0000000000000000
    endloop
  endfacet
  facet normal -0.9932307004928589 -0.1161582767963409 0.0000000000000000
    outer loop
      vertex 0.0000000000000056 2.0000002384185791 20.0000000000000000
      vertex 0.0303844939917326 1.6527036428451538 0.0000000000000000
      vertex 0.0303844939917326 1.6527036428451538 20.0000000000000000
    endloop
  endfacet
  facet normal -0.9730600118637085 -0.2305518537759781 0.0000000000000000
    outer loop
      vertex 0.0303844939917326 1.6527036428451538 20.0000000000000000
      vertex 0.0303844939917326 1.6527036428451538 0.0000000000000000
      vertex 0.1206147596240044 1.3159596920013428 0.0000000000000000
    endloop
  endfacet
  facet normal -0.9579706192016602 -0.2868662774562836 0.0000000000000000
    outer loop
      vertex 0.0303844939917326 1.6527036428451538 20.0000000000000000
      vertex 0.1206147596240044 1.3159596920013428 0.0000000000000000
      vertex 0.1206147596240044 1.3159596920013428 20.0000000000000000
    endloop
  endfacet
  facet normal -0.9182421565055847 -0.3960193693637848 0.0000000000000000
    outer loop
      vertex 0.1206147596240044 1.3159596920013428 20.0000000000000000
      vertex 0.1206147596240044 1.3159596920013428 0.0000000000000000
      vertex 0.2679491937160492 1.0000001192092896 0.0000000000000000
    endloop
  endfacet
  facet normal -0.8936030864715576 -0.4488579928874969 0.0000000000000000
    outer loop
      vertex 0.1206147596240044 1.3159596920013428 20.0000000000000000
      vertex 0.2679491937160492 1.0000001192092896 0.0000000000000000
      vertex 0.2679491937160492 1.0000001192092896 20.0000000000000000
    endloop
  endfacet
  facet normal -0.8355239629745483 -0.5494540333747864 0.0000000000000000
    outer loop
      vertex 0.2679491937160492 1.0000001192092896 20.0000000000000000
      vertex 0.2679491937160492 1.0000001192092896 0.0000000000000000
      vertex 0.4679110944271088 0.7144249677658081 0.0000000000000000
    endloop
  endfacet
  facet normal -0.8020839095115662 -0.5972114205360413 0.0000000000000000
    outer loop
      vertex 0.2679491937160492 1.0000001192092896 20.0000000000000000
      vertex 0.4679110944271088 0.7144249677658081 0.0000000000000000
      vertex 0.4679110944271088 0.7144249677658081 20.0000000000000000
    endloop
  endfacet
  facet normal -0.7274187803268433 -0.6861937642097473 0.0000000000000000
    outer loop
      vertex 0.4679110944271088 0.7144249677658081 20.0000000000000000
      vertex 0.4679110944271088 0.7144249677658081 0.0000000000000000
      vertex 0.7144247889518738 0.4679113626480103 0.0000000000000000
    endloop
  endfacet
  facet normal -0.6861937642097473 -0.7274187803268433 0.0000000000000000
    outer loop
      vertex 0.4679110944271088 0.7144249677658081 20.0000000000000000
      vertex 0.7144247889518738 0.4679113626480103 0.0000000000000000
      vertex 0.7144247889518738 0.4679113626480103 20.0000000000000000
    endloop
  endfacet
  facet normal -0.5972114205360413 -0.8020839095115662 0.0000000000000000
    outer loop
      vertex 0.7144247889518738 0.4679113626480103 20.0000000000000000
      vertex 0.7144247889518738 0.4679113626480103 0.0000000000000000
      vertex 1.0000000000000000 0.2679489552974701 0.0000000000000000
    endloop
  endfacet
  facet normal -0.5494540333747864 -0.8355239629745483 0.0000000000000000
    outer loop
      vertex 0.7144247889518738 0.4679113626480103 20.0000000000000000
      vertex 1.0000000000000000 0.2679489552974701 0.0000000000000000
      vertex 1.0000000000000000 0.2679489552974701 20.0000000000000000
    endloop
  endfacet
  facet normal -0.4488579928874969 -0.8936030864715576 0.0000000000000000
    outer loop
      vertex 1.0000000000000000 0.2679489552974701 20.0000000000000000
      vertex 1.0000000000000000 0.2679489552974701 0.0000000000000000
      vertex 1.3159596920013428 0.1206146553158760 0.0000000000000000
    endloop
  endfacet
  facet normal -0.3960193693637848 -0.9182421565055847 0.0000000000000000
    outer loop
      vertex 1.0000000000000000 0.2679489552974701 20.0000000000000000
      vertex 1.3159596920013428 0.1206146553158760 0.0000000000000000
      vertex 1.3159596920013428 0.1206146553158760 20.0000000000000000
    endloop
  endfacet
  facet normal -0.2868662774562836 -0.9579706192016602 0.0000000000000000
    outer loop
      vertex 1.3159596920013428 0.1206146553158760 20.0000000000000000
      vertex 1.3159596920013428 0.1206146553158760 0.0000000000000000
      vertex 1.6527036428451538 0.0303843989968300 0.0000000000000000
    endloop
  endfacet
  facet normal -0.2305518537759781 -0.9730600118637085 0.0000000000000000
    outer loop
      vertex 1.3159596920013428 0.1206146553158760 20.0000000000000000
      vertex 1.6527036428451538 0.0303843989968300 0.0000000000000000
      vertex 1.6527036428451538 0.0303843989968300 20.0000000000000000
    endloop
  endfacet
  facet normal -0.1161582767963409 -0.9932307004928589 0.0000000000000000
    outer loop
      vertex 1.6527036428451538 0.0303843989968300 20.0000000000000000
      vertex 1.6527036428451538 0.0303843989968300 0.0000000000000000
      vertex 2.0000000000000000 0.0000000000000000 0.0000000000000000
    endloop
  endfacet
  facet normal -0.0580791383981705 -0.9983119964599609 0.0000000000000000
    outer loop
      vertex 1.6527036428451538 0.0303843989968300 20.0000000000000000
      vertex 2.0000000000000000 0.0000000000000000 0.0000000000000000
      vertex 2.0000000000000000 0.0000000000000000 20.0000000000000000
    endloop
  endfacet
  facet normal 0.0000000000000000 -1.0000000000000000 0.0000000000000000
    outer loop
      vertex 12.0000000000000000 0.0000000000000000 20.0000000000000000
      vertex 2.0000000000000000 0.0000000000000000 20.0000000000000000
      vertex 12.0000000000000000 0.0000000000000000 0.0000000000000000
    endloop
  endfacet
  facet normal 0.0000000000000000 -1.0000000000000000 0.0000000000000000
    outer loop
      vertex 12.0000000000000000 0.0000000000000000 0.0000000000000000
      vertex 2.0000000000000000 0.0000000000000000 20.0000000000000000
      vertex 2.0000000000000000 0.0000000000000000 0.0000000000000000
    endloop
  endfacet
  facet normal 1.0000000000000000 0.0000000000000000 0.0000000000000000
    outer loop
      vertex 12.0000000000000000 3.9999997615814209 20.0000000000000000
      vertex 12.0000000000000000 0.0000000000000000 20.0000000000000000
      vertex 12.0000000000000000 3.9999997615814209 0.0000000000000000
    endloop
  endfacet
  facet normal 1.0000000000000000 0.0000000000000000 0.0000000000000000
    outer loop
      vertex 12.0000000000000000 3.9999997615814209 0.0000000000000000
      vertex 12.0000000000000000 0.0000000000000000 20.0000000000000000
      vertex 12.0000000000000000 0.0000000000000000 0.0000000000000000
    endloop
  endfacet
  facet normal 0.0000000000000000 1.0000000000000000 0.0000000000000000
    outer loop
      vertex 4.0000000000000000 3.9999997615814209 20.0000000000000000
      vertex 12.0000000000000000 3.9999997615814209 20.0000000000000000
      vertex 4.0000000000000000 3.9999997615814209 0.0000000000000000
    endloop
  endfacet
  facet normal 0.0000000000000000 1.0000000000000000 0.0000000000000000
    outer loop
      vertex 4.0000000000000000 3.9999997615814209 0.0000000000000000
      vertex 12.0000000000000000 3.9999997615814209 20.0000000000000000
      vertex 12.0000000000000000 3.9999997615814209 0.0000000000000000
    endloop
  endfacet
  facet normal 1.0000000000000000 0.0000000000000000 0.0000000000000000
    outer loop
      vertex 4.0000000000000000 26.5000019073486328 0.0000000000000000
      vertex 4.0000000000000000 15.2500000000000000 5.5000000000000000
      vertex 4.0000000000000000 3.9999997615814209 0.0000000000000000
    endloop
  endfacet
  facet normal 1.0000000000000000 0.0000000000000000 0.0000000000000000
    outer loop
      vertex 4.0000000000000000 3.9999997615814209 0.0000000000000000
      vertex 4.0000000000000000 15.2500000000000000 5.5000000000000000
      vertex 4.0000000000000000 14.4685831069946289 5.5683650970458984
    endloop
  endfacet
  facet normal 1.0000000000000000 0.0000000000000000 0.0000000000000000
    outer loop
      vertex 4.0000000000000000 3.9999997615814209 0.0000000000000000
      vertex 4.0000000000000000 14.4685831069946289 5.5683650970458984
      vertex 4.0000000000000000 13.7109098434448242 5.7713832855224609
    endloop
  endfacet
  facet normal 1.0000000000000000 0.0000000000000000 0.0000000000000000
    outer loop
      vertex 4.0000000000000000 10.8183660507202148 10.7814168930053711
      vertex 4.0000000000000000 3.9999997615814209 20.0000000000000000
      vertex 4.0000000000000000 10.7500000000000000 10.0000000000000000
    endloop
  endfacet
  facet normal 1.0000000000000000 0.0000000000000000 0.0000000000000000
    outer loop
      vertex 4.0000000000000000 10.7500000000000000 10.0000000000000000
      vertex 4.0000000000000000 3.9999997615814209 20.0000000000000000
      vertex 4.0000000000000000 3.9999997615814209 0.0000000000000000
    endloop
  endfacet
  facet normal 1.0000000000000000 0.0000000000000000 0.0000000000000000
    outer loop
      vertex 4.0000000000000000 10.7500000000000000 10.0000000000000000
      vertex 4.0000000000000000 3.9999997615814209 0.0000000000000000
      vertex 4.0000000000000000 10.8183660507202148 9.2185831069946289
    endloop
  endfacet
  facet normal 1.0000000000000000 0.0000000000000000 0.0000000000000000
    outer loop
      vertex 4.0000000000000000 10.8183660507202148 10.7814168930053711
      vertex 4.0000000000000000 11.0213832855224609 11.5390901565551758
      vertex 4.0000000000000000 3.9999997615814209 20.0000000000000000
    endloop
  endfacet
  facet normal 1.0000000000000000 0.0000000000000000 0.0000000000000000
    outer loop
      vertex 4.0000000000000000 3.9999997615814209 20.0000000000000000
      vertex 4.0000000000000000 11.0213832855224609 11.5390901565551758
      vertex 4.0000000000000000 11.3528852462768555 12.2500000000000000
    endloop
  endfacet
  facet normal 1.0000000000000000 0.0000000000000000 0.0000000000000000
    outer loop
      vertex 4.0000000000000000 3.9999997615814209 20.0000000000000000
      vertex 4.0000000000000000 11.3528852462768555 12.2500000000000000
      vertex 4.0000000000000000 11.8028001785278320 12.8925437927246094
    endloop
  endfacet
  facet normal 1.0000000000000000 0.0000000000000000 0.0000000000000000
    outer loop
      vertex 4.0000000000000000 18.6972007751464844 12.8925437927246094
      vertex 4.0000000000000000 19.1471157073974609 12.2500000000000000
      vertex 4.0000000000000000 26.5000019073486328 20.0000000000000000
    endloop
  endfacet
  facet normal 1.0000000000000000 0.0000000000000000 0.0000000000000000
    outer loop
      vertex 4.0000000000000000 26.5000019073486328 20.0000000000000000
      vertex 4.0000000000000000 19.1471157073974609 12.2500000000000000
      vertex 4.0000000000000000 19.4786167144775391 11.5390901565551758
    endloop
  endfacet
  facet normal 1.0000000000000000 0.0000000000000000 0.0000000000000000
    outer loop
      vertex 4.0000000000000000 13.7109098434448242 5.7713832855224609
      vertex 4.0000000000000000 13.0000000000000000 6.1028852462768555
      vertex 4.0000000000000000 3.9999997615814209 0.0000000000000000
    endloop
  endfacet
  facet normal 1.0000000000000000 0.0000000000000000 0.0000000000000000
    outer loop
      vertex 4.0000000000000000 3.9999997615814209 0.0000000000000000
      vertex 4.0000000000000000 13.0000000000000000 6.1028852462768555
      vertex 4.0000000000000000 12.3574552536010742 6.5527997016906738
    endloop
  endfacet
  facet normal 1.0000000000000000 0.0000000000000000 0.0000000000000000
    outer loop
      vertex 4.0000000000000000 3.9999997615814209 0.0000000000000000
      vertex 4.0000000000000000 12.3574552536010742 6.5527997016906738
      vertex 4.0000000000000000 11.8028001785278320 7.1074552536010742
    endloop
  endfacet
  facet normal 1.0000000000000000 0.0000000000000000 0.0000000000000000
    outer loop
      vertex 4.0000000000000000 11.8028001785278320 7.1074552536010742
      vertex 4.0000000000000000 11.3528852462768555 7.7500000000000000
      vertex 4.0000000000000000 3.9999997615814209 0.0000000000000000
    endloop
  endfacet
  facet normal 1.0000000000000000 0.0000000000000000 0.0000000000000000
    outer loop
      vertex 4.0000000000000000 3.9999997615814209 0.0000000000000000
      vertex 4.0000000000000000 11.3528852462768555 7.7500000000000000
      vertex 4.0000000000000000 11.0213832855224609 8.4609088897705078
    endloop
  endfacet
  facet normal 1.0000000000000000 0.0000000000000000 0.0000000000000000
    outer loop
      vertex 4.0000000000000000 3.9999997615814209 0.0000000000000000
      vertex 4.0000000000000000 11.0213832855224609 8.4609088897705078
      vertex 4.0000000000000000 10.8183660507202148 9.2185831069946289
    endloop
  endfacet
  facet normal 1.0000000000000000 0.0000000000000000 0.0000000000000000
    outer loop
      vertex 4.0000000000000000 11.8028001785278320 12.8925437927246094
      vertex 4.0000000000000000 12.3574552536010742 13.4471998214721680
      vertex 4.0000000000000000 3.9999997615814209 20.0000000000000000
    endloop
  endfacet
  facet normal 1.0000000000000000 0.0000000000000000 0.0000000000000000
    outer loop
      vertex 4.0000000000000000 3.9999997615814209 20.0000000000000000
      vertex 4.0000000000000000 12.3574552536010742 13.4471998214721680
      vertex 4.0000000000000000 13.0000000000000000 13.8971147537231445
    endloop
  endfacet
  facet normal 1.0000000000000000 0.0000000000000000 0.0000000000000000
    outer loop
      vertex 4.0000000000000000 3.9999997615814209 20.0000000000000000
      vertex 4.0000000000000000 13.0000000000000000 13.8971147537231445
      vertex 4.0000000000000000 13.7109098434448242 14.2286157608032227
    endloop
  endfacet
  facet normal 1.0000000000000000 0.0000000000000000 0.0000000000000000
    outer loop
      vertex 4.0000000000000000 16.7890892028808594 14.2286157608032227
      vertex 4.0000000000000000 17.5000000000000000 13.8971147537231445
      vertex 4.0000000000000000 26.5000019073486328 20.0000000000000000
    endloop
  endfacet
  facet normal 1.0000000000000000 0.0000000000000000 0.0000000000000000
    outer loop
      vertex 4.0000000000000000 26.5000019073486328 20.0000000000000000
      vertex 4.0000000000000000 17.5000000000000000 13.8971147537231445
      vertex 4.0000000000000000 18.1425437927246094 13.4471998214721680
    endloop
  endfacet
  facet normal 1.0000000000000000 0.0000000000000000 0.0000000000000000
    outer loop
      vertex 4.0000000000000000 26.5000019073486328 20.0000000000000000
      vertex 4.0000000000000000 18.1425437927246094 13.4471998214721680
      vertex 4.0000000000000000 18.6972007751464844 12.8925437927246094
    endloop
  endfacet
  facet normal 1.0000000000000000 0.0000000000000000 0.0000000000000000
    outer loop
      vertex 4.0000000000000000 13.7109098434448242 14.2286157608032227
      vertex 4.0000000000000000 14.4685831069946289 14.4316349029541016
      vertex 4.0000000000000000 3.9999997615814209 20.0000000000000000
    endloop
  endfacet
  facet normal 1.0000000000000000 0.0000000000000000 0.0000000000000000
    outer loop
      vertex 4.0000000000000000 3.9999997615814209 20.0000000000000000
      vertex 4.0000000000000000 14.4685831069946289 14.4316349029541016
      vertex 4.0000000000000000 15.2500000000000000 14.5000000000000000
    endloop
  endfacet
  facet normal 1.0000000000000000 0.0000000000000000 0.0000000000000000
    outer loop
      vertex 4.0000000000000000 3.9999997615814209 20.0000000000000000
      vertex 4.0000000000000000 15.2500000000000000 14.5000000000000000
      vertex 4.0000000000000000 26.5000019073486328 20.0000000000000000
    endloop
  endfacet
  facet normal 1.0000000000000000 0.0000000000000000 0.0000000000000000
    outer loop
      vertex 4.0000000000000000 26.5000019073486328 20.0000000000000000
      vertex 4.0000000000000000 15.2500000000000000 14.5000000000000000
      vertex 4.0000000000000000 16.0314159393310547 14.4316349029541016
    endloop
  endfacet
  facet normal 1.0000000000000000 0.0000000000000000 0.0000000000000000
    outer loop
      vertex 4.0000000000000000 26.5000019073486328 20.0000000000000000
      vertex 4.0000000000000000 16.0314159393310547 14.4316349029541016
      vertex 4.0000000000000000 16.7890892028808594 14.2286157608032227
    endloop
  endfacet
  facet normal 1.0000000000000000 0.0000000000000000 0.0000000000000000
    outer loop
      vertex 4.0000000000000000 26.5000019073486328 0.0000000000000000
      vertex 4.0000000000000000 19.4786167144775391 8.4609088897705078
      vertex 4.0000000000000000 19.1471157073974609 7.7500000000000000
    endloop
  endfacet
  facet normal 1.0000000000000000 0.0000000000000000 0.0000000000000000
    outer loop
      vertex 4.0000000000000000 19.1471157073974609 7.7500000000000000
      vertex 4.0000000000000000 18.6972007751464844 7.1074552536010742
      vertex 4.0000000000000000 26.5000019073486328 0.0000000000000000
    endloop
  endfacet
  facet normal 1.0000000000000000 0.0000000000000000 0.0000000000000000
    outer loop
      vertex 4.0000000000000000 26.5000019073486328 0.0000000000000000
      vertex 4.0000000000000000 18.6972007751464844 7.1074552536010742
      vertex 4.0000000000000000 18.1425437927246094 6.5527997016906738
    endloop
  endfacet
  facet normal 1.0000000000000000 0.0000000000000000 0.0000000000000000
    outer loop
      vertex 4.0000000000000000 26.5000019073486328 0.0000000000000000
      vertex 4.0000000000000000 18.1425437927246094 6.5527997016906738
      vertex 4.0000000000000000 17.5000000000000000 6.1028852462768555
    endloop
  endfacet
  facet normal 1.0000000000000000 0.0000000000000000 0.0000000000000000
    outer loop
      vertex 4.0000000000000000 19.4786167144775391 11.5390901565551758
      vertex 4.0000000000000000 19.6816349029541016 10.7814168930053711
      vertex 4.0000000000000000 26.5000019073486328 20.0000000000000000
    endloop
  endfacet
  facet normal 1.0000000000000000 0.0000000000000000 0.0000000000000000
    outer loop
      vertex 4.0000000000000000 26.5000019073486328 20.0000000000000000
      vertex 4.0000000000000000 19.6816349029541016 10.7814168930053711
      vertex 4.0000000000000000 19.7500000000000000 10.0000000000000000
    endloop
  endfacet
  facet normal 1.0000000000000000 0.0000000000000000 0.0000000000000000
    outer loop
      vertex 4.0000000000000000 26.5000019073486328 20.0000000000000000
      vertex 4.0000000000000000 19.7500000000000000 10.0000000000000000
      vertex 4.0000000000000000 26.5000019073486328 0.0000000000000000
    endloop
  endfacet
  facet normal 1.0000000000000000 0.0000000000000000 0.0000000000000000
    outer loop
      vertex 4.0000000000000000 26.5000019073486328 0.0000000000000000
      vertex 4.0000000000000000 19.7500000000000000 10.0000000000000000
      vertex 4.0000000000000000 19.6816349029541016 9.2185831069946289
    endloop
  endfacet
  facet normal 1.0000000000000000 0.0000000000000000 0.0000000000000000
    outer loop
      vertex 4.0000000000000000 26.5000019073486328 0.0000000000000000
      vertex 4.0000000000000000 19.6816349029541016 9.2185831069946289
      vertex 4.0000000000000000 19.4786167144775391 8.4609088897705078
    endloop
  endfacet
  facet normal 1.0000000000000000 0.0000000000000000 0.0000000000000000
    outer loop
      vertex 4.0000000000000000 17.5000000000000000 6.1028852462768555
      vertex 4.0000000000000000 16.7890892028808594 5.7713832855224609
      vertex 4.0000000000000000 26.5000019073486328 0.0000000000000000
    endloop
  endfacet
  facet normal 1.0000000000000000 0.0000000000000000 0.0000000000000000
    outer loop
      vertex 4.0000000000000000 26.5000019073486328 0.0000000000000000
      vertex 4.0000000000000000 16.7890892028808594 5.7713832855224609
      vertex 4.0000000000000000 16.0314159393310547 5.5683650970458984
    endloop
  endfacet
  facet normal 1.0000000000000000 0.0000000000000000 0.0000000000000000
    outer loop
      vertex 4.0000000000000000 26.5000019073486328 0.0000000000000000
      vertex 4.0000000000000000 16.0314159393310547 5.5683650970458984
      vertex 4.0000000000000000 15.2500000000000000 5.5000000000000000
    endloop
  endfacet
  facet normal 0.0000000000000000 0.0000000000000000 1.0000000000000000
    outer loop
      vertex 12.0000000000000000 0.0000000000000000 20.0000000000000000
      vertex 12.0000000000000000 3.9999997615814209 20.0000000000000000
      vertex 2.0000000000000000 0.0000000000000000 20.0000000000000000
    endloop
  endfacet
  facet normal 0.0000000000000000 0.0000000000000000 1.0000000000000000
    outer loop
      vertex 2.0000000000000000 0.0000000000000000 20.0000000000000000
      vertex 12.0000000000000000 3.9999997615814209 20.0000000000000000
      vertex 4.0000000000000000 3.9999997615814209 20.0000000000000000
    endloop
  endfacet
  facet normal 0.0000000000000000 0.0000000000000000 1.0000000000000000
    outer loop
      vertex 1.6527036428451538 0.0303843989968300 20.0000000000000000
      vertex 2.0000000000000000 0.0000000000000000 20.0000000000000000
      vertex 1.3159596920013428 0.1206146553158760 20.0000000000000000
    endloop
  endfacet
  facet normal 0.0000000000000000 0.0000000000000000 1.0000000000000000
    outer loop
      vertex 1.3159596920013428 0.1206146553158760 20.0000000000000000
      vertex 2.0000000000000000 0.0000000000000000 20.0000000000000000
      vertex 4.0000000000000000 3.9999997615814209 20.0000000000000000
    endloop
  endfacet
  facet normal 0.0000000000000000 0.0000000000000000 1.0000000000000000
    outer loop
      vertex 1.3159596920013428 0.1206146553158760 20.0000000000000000
      vertex 4.0000000000000000 3.9999997615814209 20.0000000000000000
      vertex 1.0000000000000000 0.2679489552974701 20.0000000000000000
    endloop
  endfacet
  facet normal 0.0000000000000000 0.0000000000000000 1.0000000000000000
    outer loop
      vertex 1.0000000000000000 0.2679489552974701 20.0000000000000000
      vertex 4.0000000000000000 3.9999997615814209 20.0000000000000000
      vertex 0.4679110944271088 0.7144249677658081 20.0000000000000000
    endloop
  endfacet
  facet normal 0.0000000000000000 0.0000000000000000 1.0000000000000000
    outer loop
      vertex 1.0000000000000000 0.2679489552974701 20.0000000000000000
      vertex 0.4679110944271088 0.7144249677658081 20.0000000000000000
      vertex 0.7144247889518738 0.4679113626480103 20.0000000000000000
    endloop
  endfacet
  facet normal 0.0000000000000000 0.0000000000000000 1.0000000000000000
    outer loop
      vertex 12.0000000000000000 26.5000019073486328 20.0000000000000000
      vertex 12.0000000000000000 30.5000000000000000 20.0000000000000000
      vertex 4.0000000000000000 26.5000019073486328 20.0000000000000000
    endloop
  endfacet
  facet normal 0.0000000000000000 0.0000000000000000 1.0000000000000000
    outer loop
      vertex 4.0000000000000000 26.5000019073486328 20.0000000000000000
      vertex 12.0000000000000000 30.5000000000000000 20.0000000000000000
      vertex 2.0000000000000000 30.5000000000000000 20.0000000000000000
    endloop
  endfacet
  facet normal 0.0000000000000000 0.0000000000000000 1.0000000000000000
    outer loop
      vertex 1.6527036428451538 30.4696159362792969 20.0000000000000000
      vertex 1.3159596920013428 30.3793849945068359 20.0000000000000000
      vertex 2.0000000000000000 30.5000000000000000 20.0000000000000000
    endloop
  endfacet
  facet normal 0.0000000000000000 0.0000000000000000 1.0000000000000000
    outer loop
      vertex 2.0000000000000000 30.5000000000000000 20.0000000000000000
      vertex 1.3159596920013428 30.3793849945068359 20.0000000000000000
      vertex 1.0000000000000000 30.2320518493652344 20.0000000000000000
    endloop
  endfacet
  facet normal 0.0000000000000000 0.0000000000000000 1.0000000000000000
    outer loop
      vertex 2.0000000000000000 30.5000000000000000 20.0000000000000000
      vertex 1.0000000000000000 30.2320518493652344 20.0000000000000000
      vertex 4.0000000000000000 26.5000019073486328 20.0000000000000000
    endloop
  endfacet
  facet normal 0.0000000000000000 0.0000000000000000 1.0000000000000000
    outer loop
      vertex 4.0000000000000000 26.5000019073486328 20.0000000000000000
      vertex 1.0000000000000000 30.2320518493652344 20.0000000000000000
      vertex 0.7144247889518738 30.0320892333984375 20.0000000000000000
    endloop
  endfacet
  facet normal 0.0000000000000000 0.0000000000000000 1.0000000000000000
    outer loop
      vertex 4.0000000000000000 26.5000019073486328 20.0000000000000000
      vertex 0.7144247889518738 30.0320892333984375 20.0000000000000000
      vertex 0.4679110944271088 29.7855758666992188 20.0000000000000000
    endloop
  endfacet
  facet normal 0.0000000000000000 0.0000000000000000 1.0000000000000000
    outer loop
      vertex 4.0000000000000000 26.5000019073486328 20.0000000000000000
      vertex 0.0000000000000056 28.5000000000000000 20.0000000000000000
      vertex 4.0000000000000000 3.9999997615814209 20.0000000000000000
    endloop
  endfacet
  facet normal 0.0000000000000000 0.0000000000000000 1.0000000000000000
    outer loop
      vertex 4.0000000000000000 3.9999997615814209 20.0000000000000000
      vertex 0.0000000000000056 28.5000000000000000 20.0000000000000000
      vertex 0.0000000000000056 2.0000002384185791 20.0000000000000000
    endloop
  endfacet
  facet normal 0.0000000000000000 0.0000000000000000 1.0000000000000000
    outer loop
      vertex 0.0303844939917326 28.8472957611083984 20.0000000000000000
      vertex 0.0000000000000056 28.5000000000000000 20.0000000000000000
      vertex 0.1206147596240044 29.1840400695800781 20.0000000000000000
    endloop
  endfacet
  facet normal 0.0000000000000000 0.0000000000000000 1.0000000000000000
    outer loop
      vertex 0.1206147596240044 29.1840400695800781 20.0000000000000000
      vertex 0.0000000000000056 28.5000000000000000 20.0000000000000000
      vertex 4.0000000000000000 26.5000019073486328 20.0000000000000000
    endloop
  endfacet
  facet normal 0.0000000000000000 0.0000000000000000 1.0000000000000000
    outer loop
      vertex 0.1206147596240044 29.1840400695800781 20.0000000000000000
      vertex 4.0000000000000000 26.5000019073486328 20.0000000000000000
      vertex 0.2679491937160492 29.5000000000000000 20.0000000000000000
    endloop
  endfacet
  facet normal 0.0000000000000000 0.0000000000000000 1.0000000000000000
    outer loop
      vertex 0.2679491937160492 29.5000000000000000 20.0000000000000000
      vertex 4.0000000000000000 26.5000019073486328 20.0000000000000000
      vertex 0.4679110944271088 29.7855758666992188 20.0000000000000000
    endloop
  endfacet
  facet normal 0.0000000000000000 0.0000000000000000 1.0000000000000000
    outer loop
      vertex 0.2679491937160492 1.0000001192092896 20.0000000000000000
      vertex 0.4679110944271088 0.7144249677658081 20.0000000000000000
      vertex 0.1206147596240044 1.3159596920013428 20.0000000000000000
    endloop
  endfacet
  facet normal 0.0000000000000000 0.0000000000000000 1.0000000000000000
    outer loop
      vertex 0.1206147596240044 1.3159596920013428 20.0000000000000000
      vertex 0.4679110944271088 0.7144249677658081 20.0000000000000000
      vertex 4.0000000000000000 3.9999997615814209 20.0000000000000000
    endloop
  endfacet
  facet normal 0.0000000000000000 0.0000000000000000 1.0000000000000000
    outer loop
      vertex 0.1206147596240044 1.3159596920013428 20.0000000000000000
      vertex 4.0000000000000000 3.9999997615814209 20.0000000000000000
      vertex 0.0303844939917326 1.6527036428451538 20.0000000000000000
    endloop
  endfacet
  facet normal 0.0000000000000000 0.0000000000000000 1.0000000000000000
    outer loop
      vertex 0.0303844939917326 1.6527036428451538 20.0000000000000000
      vertex 4.0000000000000000 3.9999997615814209 20.0000000000000000
      vertex 0.0000000000000056 2.0000002384185791 20.0000000000000000
    endloop
  endfacet
  facet normal 0.0000000000000000 0.0000000000000000 -1.0000000000000000
    outer loop
      vertex 0.4679110944271088 29.7855758666992188 0.0000000000000000
      vertex 0.7144247889518738 30.0320892333984375 0.0000000000000000
      vertex 4.0000000000000000 26.5000019073486328 0.0000000000000000
    endloop
  endfacet
  facet normal 0.0000000000000000 0.0000000000000000 -1.0000000000000000
    outer loop
      vertex 4.0000000000000000 26.5000019073486328 0.0000000000000000
      vertex 0.7144247889518738 30.0320892333984375 0.0000000000000000
      vertex 1.0000000000000000 30.2320518493652344 0.0000000000000000
    endloop
  endfacet
  facet normal 0.0000000000000000 0.0000000000000000 -1.0000000000000000
    outer loop
      vertex 12.0000000000000000 30.5000000000000000 0.0000000000000000
      vertex 12.0000000000000000 26.5000019073486328 0.0000000000000000
      vertex 2.0000000000000000 30.5000000000000000 0.0000000000000000
    endloop
  endfacet
  facet normal 0.0000000000000000 0.0000000000000000 -1.0000000000000000
    outer loop
      vertex 2.0000000000000000 30.5000000000000000 0.0000000000000000
      vertex 12.0000000000000000 26.5000019073486328 0.0000000000000000
      vertex 4.0000000000000000 26.5000019073486328 0.0000000000000000
    endloop
  endfacet
  facet normal 0.0000000000000000 0.0000000000000000 -1.0000000000000000
    outer loop
      vertex 2.0000000000000000 30.5000000000000000 0.0000000000000000
      vertex 4.0000000000000000 26.5000019073486328 0.0000000000000000
      vertex 1.6527036428451538 30.4696159362792969 0.0000000000000000
    endloop
  endfacet
  facet normal 0.0000000000000000 0.0000000000000000 -1.0000000000000000
    outer loop
      vertex 1.6527036428451538 30.4696159362792969 0.0000000000000000
      vertex 4.0000000000000000 26.5000019073486328 0.0000000000000000
      vertex 1.0000000000000000 30.2320518493652344 0.0000000000000000
    endloop
  endfacet
  facet normal 0.0000000000000000 0.0000000000000000 -1.0000000000000000
    outer loop
      vertex 1.6527036428451538 30.4696159362792969 0.0000000000000000
      vertex 1.0000000000000000 30.2320518493652344 0.0000000000000000
      vertex 1.3159596920013428 30.3793849945068359 0.0000000000000000
    endloop
  endfacet
  facet normal 0.0000000000000000 0.0000000000000000 -1.0000000000000000
    outer loop
      vertex 0.1206147596240044 1.3159596920013428 0.0000000000000000
      vertex 0.0303844939917326 1.6527036428451538 0.0000000000000000
      vertex 0.0000000000000056 2.0000002384185791 0.0000000000000000
    endloop
  endfacet
  facet normal 0.0000000000000000 0.0000000000000000 -1.0000000000000000
    outer loop
      vertex 0.1206147596240044 29.1840400695800781 0.0000000000000000
      vertex 0.2679491937160492 29.5000000000000000 0.0000000000000000
      vertex 0.0303844939917326 28.8472957611083984 0.0000000000000000
    endloop
  endfacet
  facet normal 0.0000000000000000 0.0000000000000000 -1.0000000000000000
    outer loop
      vertex 0.0303844939917326 28.8472957611083984 0.0000000000000000
      vertex 0.2679491937160492 29.5000000000000000 0.0000000000000000
      vertex 0.0000000000000056 28.5000000000000000 0.0000000000000000
    endloop
  endfacet
  facet normal 0.0000000000000000 0.0000000000000000 -1.0000000000000000
    outer loop
      vertex 12.0000000000000000 3.9999997615814209 0.0000000000000000
      vertex 12.0000000000000000 0.0000000000000000 0.0000000000000000
      vertex 4.0000000000000000 3.9999997615814209 0.0000000000000000
    endloop
  endfacet
  facet normal 0.0000000000000000 0.0000000000000000 -1.0000000000000000
    outer loop
      vertex 4.0000000000000000 3.9999997615814209 0.0000000000000000
      vertex 12.0000000000000000 0.0000000000000000 0.0000000000000000
      vertex 2.0000000000000000 0.0000000000000000 0.0000000000000000
    endloop
  endfacet
  facet normal 0.0000000000000000 0.0000000000000000 -1.0000000000000000
    outer loop
      vertex 4.0000000000000000 3.9999997615814209 0.0000000000000000
      vertex 2.0000000000000000 0.0000000000000000 0.0000000000000000
      vertex 1.6527036428451538 0.0303843989968300 0.0000000000000000
    endloop
  endfacet
  facet normal 0.0000000000000000 0.0000000000000000 -1.0000000000000000
    outer loop
      vertex 4.0000000000000000 3.9999997615814209 0.0000000000000000
      vertex 0.4679110944271088 0.7144249677658081 0.0000000000000000
      vertex 0.2679491937160492 1.0000001192092896 0.0000000000000000
    endloop
  endfacet
  facet normal 0.0000000000000000 0.0000000000000000 -1.0000000000000000
    outer loop
      vertex 0.2679491937160492 1.0000001192092896 0.0000000000000000
      vertex 0.1206147596240044 1.3159596920013428 0.0000000000000000
      vertex 4.0000000000000000 3.9999997615814209 0.0000000000000000
    endloop
  endfacet
  facet normal 0.0000000000000000 0.0000000000000000 -1.0000000000000000
    outer loop
      vertex 4.0000000000000000 3.9999997615814209 0.0000000000000000
      vertex 0.1206147596240044 1.3159596920013428 0.0000000000000000
      vertex 0.0000000000000056 2.0000002384185791 0.0000000000000000
    endloop
  endfacet
  facet normal 0.0000000000000000 0.0000000000000000 -1.0000000000000000
    outer loop
      vertex 4.0000000000000000 3.9999997615814209 0.0000000000000000
      vertex 0.0000000000000056 2.0000002384185791 0.0000000000000000
      vertex 4.0000000000000000 26.5000019073486328 0.0000000000000000
    endloop
  endfacet
  facet normal 0.0000000000000000 0.0000000000000000 -1.0000000000000000
    outer loop
      vertex 4.0000000000000000 26.5000019073486328 0.0000000000000000
      vertex 0.0000000000000056 2.0000002384185791 0.0000000000000000
      vertex 0.0000000000000056 28.5000000000000000 0.0000000000000000
    endloop
  endfacet
  facet normal 0.0000000000000000 0.0000000000000000 -1.0000000000000000
    outer loop
      vertex 4.0000000000000000 26.5000019073486328 0.0000000000000000
      vertex 0.0000000000000056 28.5000000000000000 0.0000000000000000
      vertex 0.4679110944271088 29.7855758666992188 0.0000000000000000
    endloop
  endfacet
  facet normal 0.0000000000000000 0.0000000000000000 -1.0000000000000000
    outer loop
      vertex 0.4679110944271088 29.7855758666992188 0.0000000000000000
      vertex 0.0000000000000056 28.5000000000000000 0.0000000000000000
      vertex 0.2679491937160492 29.5000000000000000 0.0000000000000000
    endloop
  endfacet
  facet normal 0.0000000000000000 0.0000000000000000 -1.0000000000000000
    outer loop
      vertex 0.7144247889518738 0.4679113626480103 0.0000000000000000
      vertex 0.4679110944271088 0.7144249677658081 0.0000000000000000
      vertex 1.0000000000000000 0.2679489552974701 0.0000000000000000
    endloop
  endfacet
  facet normal 0.0000000000000000 0.0000000000000000 -1.0000000000000000
    outer loop
      vertex 1.0000000000000000 0.2679489552974701 0.0000000000000000
      vertex 0.4679110944271088 0.7144249677658081 0.0000000000000000
      vertex 4.0000000000000000 3.9999997615814209 0.0000000000000000
    endloop
  endfacet
  facet normal 0.0000000000000000 0.0000000000000000 -1.0000000000000000
    outer loop
      vertex 1.0000000000000000 0.2679489552974701 0.0000000000000000
      vertex 4.0000000000000000 3.9999997615814209 0.0000000000000000
      vertex 1.3159596920013428 0.1206146553158760 0.0000000000000000
    endloop
  endfacet
  facet normal 0.0000000000000000 0.0000000000000000 -1.0000000000000000
    outer loop
      vertex 1.3159596920013428 0.1206146553158760 0.0000000000000000
      vertex 4.0000000000000000 3.9999997615814209 0.0000000000000000
      vertex 1.6527036428451538 0.0303843989968300 0.0000000000000000
    endloop
  endfacet
  facet normal 0.0000000000000000 0.0580791383981705 -0.9983119964599609
    outer loop
      vertex 4.0000000000000000 14.4685831069946289 14.4316349029541016
      vertex 0.0000000000000000 15.2500000000000000 14.5000000000000000
      vertex 4.0000000000000000 15.2500000000000000 14.5000000000000000
    endloop
  endfacet
  facet normal 0.0000000000000000 -0.0580791383981705 -0.9983119964599609
    outer loop
      vertex 4.0000000000000000 15.2500000000000000 14.5000000000000000
      vertex 0.0000000000000000 15.2500000000000000 14.5000000000000000
      vertex 0.0000000000000000 16.0314159393310547 14.4316349029541016
    endloop
  endfacet
  facet normal 0.0000000000000000 -0.1161582767963409 -0.9932307004928589
    outer loop
      vertex 4.0000000000000000 15.2500000000000000 14.5000000000000000
      vertex 0.0000000000000000 16.0314159393310547 14.4316349029541016
      vertex 4.0000000000000000 16.0314159393310547 14.4316349029541016
    endloop
  endfacet
  facet normal 0.0000000000000000 -0.2305518537759781 -0.9730600118637085
    outer loop
      vertex 4.0000000000000000 16.0314159393310547 14.4316349029541016
      vertex 0.0000000000000000 16.0314159393310547 14.4316349029541016
      vertex 0.0000000000000000 16.7890892028808594 14.2286157608032227
    endloop
  endfacet
  facet normal 0.0000000000000000 -0.2868662774562836 -0.9579706192016602
    outer loop
      vertex 4.0000000000000000 16.0314159393310547 14.4316349029541016
      vertex 0.0000000000000000 16.7890892028808594 14.2286157608032227
      vertex 4.0000000000000000 16.7890892028808594 14.2286157608032227
    endloop
  endfacet
  facet normal 0.0000000000000000 -0.3960193693637848 -0.9182421565055847
    outer loop
      vertex 4.0000000000000000 16.7890892028808594 14.2286157608032227
      vertex 0.0000000000000000 16.7890892028808594 14.2286157608032227
      vertex 0.0000000000000000 17.5000000000000000 13.8971147537231445
    endloop
  endfacet
  facet normal 0.0000000000000000 -0.4488579928874969 -0.8936030864715576
    outer loop
      vertex 4.0000000000000000 16.7890892028808594 14.2286157608032227
      vertex 0.0000000000000000 17.5000000000000000 13.8971147537231445
      vertex 4.0000000000000000 17.5000000000000000 13.8971147537231445
    endloop
  endfacet
  facet normal 0.0000000000000000 -0.5494540333747864 -0.8355239629745483
    outer loop
      vertex 4.0000000000000000 17.5000000000000000 13.8971147537231445
      vertex 0.0000000000000000 17.5000000000000000 13.8971147537231445
      vertex 0.0000000000000000 18.1425437927246094 13.4471998214721680
    endloop
  endfacet
  facet normal 0.0000000000000000 -0.5972114205360413 -0.8020838499069214
    outer loop
      vertex 4.0000000000000000 17.5000000000000000 13.8971147537231445
      vertex 0.0000000000000000 18.1425437927246094 13.4471998214721680
      vertex 4.0000000000000000 18.1425437927246094 13.4471998214721680
    endloop
  endfacet
  facet normal 0.0000000000000000 -0.6861937642097473 -0.7274187803268433
    outer loop
      vertex 4.0000000000000000 18.1425437927246094 13.4471998214721680
      vertex 0.0000000000000000 18.1425437927246094 13.4471998214721680
      vertex 0.0000000000000000 18.6972007751464844 12.8925437927246094
    endloop
  endfacet
  facet normal 0.0000000000000000 -0.7274187803268433 -0.6861937642097473
    outer loop
      vertex 4.0000000000000000 18.1425437927246094 13.4471998214721680
      vertex 0.0000000000000000 18.6972007751464844 12.8925437927246094
      vertex 4.0000000000000000 18.6972007751464844 12.8925437927246094
    endloop
  endfacet
  facet normal 0.0000000000000000 -0.8020838499069214 -0.5972113609313965
    outer loop
      vertex 4.0000000000000000 18.6972007751464844 12.8925437927246094
      vertex 0.0000000000000000 18.6972007751464844 12.8925437927246094
      vertex 0.0000000000000000 19.1471157073974609 12.2500000000000000
    endloop
  endfacet
  facet normal 0.0000000000000000 -0.8355239629745483 -0.5494540333747864
    outer loop
      vertex 4.0000000000000000 18.6972007751464844 12.8925437927246094
      vertex 0.0000000000000000 19.1471157073974609 12.2500000000000000
      vertex 4.0000000000000000 19.1471157073974609 12.2500000000000000
    endloop
  endfacet
  facet normal 0.0000000000000000 -0.8936030864715576 -0.4488579928874969
    outer loop
      vertex 4.0000000000000000 19.1471157073974609 12.2500000000000000
      vertex 0.0000000000000000 19.1471157073974609 12.2500000000000000
      vertex 0.0000000000000000 19.4786167144775391 11.5390901565551758
    endloop
  endfacet
  facet normal 0.0000000000000000 -0.9182421565055847 -0.3960193395614624
    outer loop
      vertex 4.0000000000000000 19.1471157073974609 12.2500000000000000
      vertex 0.0000000000000000 19.4786167144775391 11.5390901565551758
      vertex 4.0000000000000000 19.4786167144775391 11.5390901565551758
    endloop
  endfacet
  facet normal 0.0000000000000000 -0.9579706192016602 -0.2868663072586060
    outer loop
      vertex 4.0000000000000000 19.4786167144775391 11.5390901565551758
      vertex 0.0000000000000000 19.4786167144775391 11.5390901565551758
      vertex 0.0000000000000000 19.6816349029541016 10.7814168930053711
    endloop
  endfacet
  facet normal 0.0000000000000000 -0.9730600118637085 -0.2305518537759781
    outer loop
      vertex 4.0000000000000000 19.4786167144775391 11.5390901565551758
      vertex 0.0000000000000000 19.6816349029541016 10.7814168930053711
      vertex 4.0000000000000000 19.6816349029541016 10.7814168930053711
    endloop
  endfacet
  facet normal 0.0000000000000000 -0.9932307004928589 -0.1161582693457603
    outer loop
      vertex 4.0000000000000000 19.6816349029541016 10.7814168930053711
      vertex 0.0000000000000000 19.6816349029541016 10.7814168930053711
      vertex 0.0000000000000000 19.7500000000000000 10.0000000000000000
    endloop
  endfacet
  facet normal 0.0000000000000000 -0.9983119964599609 -0.0580791346728802
    outer loop
      vertex 4.0000000000000000 19.6816349029541016 10.7814168930053711
      vertex 0.0000000000000000 19.7500000000000000 10.0000000000000000
      vertex 4.0000000000000000 19.7500000000000000 10.0000000000000000
    endloop
  endfacet
  facet normal 0.0000000000000000 -0.9983119964599609 0.0580791346728802
    outer loop
      vertex 4.0000000000000000 19.7500000000000000 10.0000000000000000
      vertex 0.0000000000000000 19.7500000000000000 10.0000000000000000
      vertex 0.0000000000000000 19.6816349029541016 9.2185831069946289
    endloop
  endfacet
  facet normal 0.0000000000000000 -0.9932307004928589 0.1161582693457603
    outer loop
      vertex 4.0000000000000000 19.7500000000000000 10.0000000000000000
      vertex 0.0000000000000000 19.6816349029541016 9.2185831069946289
      vertex 4.0000000000000000 19.6816349029541016 9.2185831069946289
    endloop
  endfacet
  facet normal 0.0000000000000000 -0.9730600118637085 0.2305518537759781
    outer loop
      vertex 4.0000000000000000 19.6816349029541016 9.2185831069946289
      vertex 0.0000000000000000 19.6816349029541016 9.2185831069946289
      vertex 0.0000000000000000 19.4786167144775391 8.4609088897705078
    endloop
  endfacet
  facet normal 0.0000000000000000 -0.9579706192016602 0.2868663072586060
    outer loop
      vertex 4.0000000000000000 19.6816349029541016 9.2185831069946289
      vertex 0.0000000000000000 19.4786167144775391 8.4609088897705078
      vertex 4.0000000000000000 19.4786167144775391 8.4609088897705078
    endloop
  endfacet
  facet normal 0.0000000000000000 -0.9182421565055847 0.3960193395614624
    outer loop
      vertex 4.0000000000000000 19.4786167144775391 8.4609088897705078
      vertex 0.0000000000000000 19.4786167144775391 8.4609088897705078
      vertex 0.0000000000000000 19.1471157073974609 7.7500000000000000
    endloop
  endfacet
  facet normal 0.0000000000000000 -0.8936030864715576 0.4488579928874969
    outer loop
      vertex 4.0000000000000000 19.4786167144775391 8.4609088897705078
      vertex 0.0000000000000000 19.1471157073974609 7.7500000000000000
      vertex 4.0000000000000000 19.1471157073974609 7.7500000000000000
    endloop
  endfacet
  facet normal 0.0000000000000000 -0.8355239629745483 0.5494540333747864
    outer loop
      vertex 4.0000000000000000 19.1471157073974609 7.7500000000000000
      vertex 0.0000000000000000 19.1471157073974609 7.7500000000000000
      vertex 0.0000000000000000 18.6972007751464844 7.1074552536010742
    endloop
  endfacet
  facet normal 0.0000000000000000 -0.8020838499069214 0.5972113609313965
    outer loop
      vertex 4.0000000000000000 19.1471157073974609 7.7500000000000000
      vertex 0.0000000000000000 18.6972007751464844 7.1074552536010742
      vertex 4.0000000000000000 18.6972007751464844 7.1074552536010742
    endloop
  endfacet
  facet normal 0.0000000000000000 -0.7274187803268433 0.6861937642097473
    outer loop
      vertex 4.0000000000000000 18.6972007751464844 7.1074552536010742
      vertex 0.0000000000000000 18.6972007751464844 7.1074552536010742
      vertex 0.0000000000000000 18.1425437927246094 6.5527997016906738
    endloop
  endfacet
  facet normal 0.0000000000000000 -0.6861937642097473 0.7274187803268433
    outer loop
      vertex 4.0000000000000000 18.6972007751464844 7.1074552536010742
      vertex 0.0000000000000000 18.1425437927246094 6.5527997016906738
      vertex 4.0000000000000000 18.1425437927246094 6.5527997016906738
    endloop
  endfacet
  facet normal 0.0000000000000000 -0.5972114205360413 0.8020838499069214
    outer loop
      vertex 4.0000000000000000 18.1425437927246094 6.5527997016906738
      vertex 0.0000000000000000 18.1425437927246094 6.5527997016906738
      vertex 0.0000000000000000 17.5000000000000000 6.1028852462768555
    endloop
  endfacet
  facet normal 0.0000000000000000 -0.5494540333747864 0.8355239629745483
    outer loop
      vertex 4.0000000000000000 18.1425437927246094 6.5527997016906738
      vertex 0.0000000000000000 17.5000000000000000 6.1028852462768555
      vertex 4.0000000000000000 17.5000000000000000 6.1028852462768555
    endloop
  endfacet
  facet normal 0.0000000000000000 -0.4488579928874969 0.8936030864715576
    outer loop
      vertex 4.0000000000000000 17.5000000000000000 6.1028852462768555
      vertex 0.0000000000000000 17.5000000000000000 6.1028852462768555
      vertex 0.0000000000000000 16.7890892028808594 5.7713832855224609
    endloop
  endfacet
  facet normal 0.0000000000000000 -0.3960193693637848 0.9182421565055847
    outer loop
      vertex 4.0000000000000000 17.5000000000000000 6.1028852462768555
      vertex 0.0000000000000000 16.7890892028808594 5.7713832855224609
      vertex 4.0000000000000000 16.7890892028808594 5.7713832855224609
    endloop
  endfacet
  facet normal 0.0000000000000000 -0.2868662774562836 0.9579706192016602
    outer loop
      vertex 4.0000000000000000 16.7890892028808594 5.7713832855224609
      vertex 0.0000000000000000 16.7890892028808594 5.7713832855224609
      vertex 0.0000000000000000 16.0314159393310547 5.5683650970458984
    endloop
  endfacet
  facet normal 0.0000000000000000 -0.2305518537759781 0.9730600118637085
    outer loop
      vertex 4.0000000000000000 16.7890892028808594 5.7713832855224609
      vertex 0.0000000000000000 16.0314159393310547 5.5683650970458984
      vertex 4.0000000000000000 16.0314159393310547 5.5683650970458984
    endloop
  endfacet
  facet normal 0.0000000000000000 -0.1161582767963409 0.9932307004928589
    outer loop
      vertex 4.0000000000000000 16.0314159393310547 5.5683650970458984
      vertex 0.0000000000000000 16.0314159393310547 5.5683650970458984
      vertex 0.0000000000000000 15.2500000000000000 5.5000000000000000
    endloop
  endfacet
  facet normal 0.0000000000000000 -0.0580791383981705 0.9983119964599609
    outer loop
      vertex 4.0000000000000000 16.0314159393310547 5.5683650970458984
      vertex 0.0000000000000000 15.2500000000000000 5.5000000000000000
      vertex 4.0000000000000000 15.2500000000000000 5.5000000000000000
    endloop
  endfacet
  facet normal 0.0000000000000000 0.0580791383981705 0.9983119964599609
    outer loop
      vertex 4.0000000000000000 15.2500000000000000 5.5000000000000000
      vertex 0.0000000000000000 15.2500000000000000 5.5000000000000000
      vertex 0.0000000000000000 14.4685831069946289 5.5683650970458984
    endloop
  endfacet
  facet normal 0.0000000000000000 0.1161582767963409 0.9932307004928589
    outer loop
      vertex 4.0000000000000000 15.2500000000000000 5.5000000000000000
      vertex 0.0000000000000000 14.4685831069946289 5.5683650970458984
      vertex 4.0000000000000000 14.4685831069946289 5.5683650970458984
    endloop
  endfacet
  facet normal 0.0000000000000000 0.2305518537759781 0.9730600118637085
    outer loop
      vertex 4.0000000000000000 14.4685831069946289 5.5683650970458984
      vertex 0.0000000000000000 14.4685831069946289 5.5683650970458984
      vertex 0.0000000000000000 13.7109098434448242 5.7713832855224609
    endloop
  endfacet
  facet normal 0.0000000000000000 0.2868662774562836 0.9579706192016602
    outer loop
      vertex 4.0000000000000000 14.4685831069946289 5.5683650970458984
      vertex 0.0000000000000000 13.7109098434448242 5.7713832855224609
      vertex 4.0000000000000000 13.7109098434448242 5.7713832855224609
    endloop
  endfacet
  facet normal 0.0000000000000000 0.3960193693637848 0.9182421565055847
    outer loop
      vertex 4.0000000000000000 13.7109098434448242 5.7713832855224609
      vertex 0.0000000000000000 13.7109098434448242 5.7713832855224609
      vertex 0.0000000000000000 13.0000000000000000 6.1028852462768555
    endloop
  endfacet
  facet normal 0.0000000000000000 0.4488579928874969 0.8936030864715576
    outer loop
      vertex 4.0000000000000000 13.7109098434448242 5.7713832855224609
      vertex 0.0000000000000000 13.0000000000000000 6.1028852462768555
      vertex 4.0000000000000000 13.0000000000000000 6.1028852462768555
    endloop
  endfacet
  facet normal 0.0000000000000000 0.5494540333747864 0.8355239629745483
    outer loop
      vertex 4.0000000000000000 13.0000000000000000 6.1028852462768555
      vertex 0.0000000000000000 13.0000000000000000 6.1028852462768555
      vertex 0.0000000000000000 12.3574552536010742 6.5527997016906738
    endloop
  endfacet
  facet normal 0.0000000000000000 0.5972114205360413 0.8020838499069214
    outer loop
      vertex 4.0000000000000000 13.0000000000000000 6.1028852462768555
      vertex 0.0000000000000000 12.3574552536010742 6.5527997016906738
      vertex 4.0000000000000000 12.3574552536010742 6.5527997016906738
    endloop
  endfacet
  facet normal 0.0000000000000000 0.6861937642097473 0.7274187803268433
    outer loop
      vertex 4.0000000000000000 12.3574552536010742 6.5527997016906738
      vertex 0.0000000000000000 12.3574552536010742 6.5527997016906738
      vertex 0.0000000000000000 11.8028001785278320 7.1074552536010742
    endloop
  endfacet
  facet normal 0.0000000000000000 0.7274187803268433 0.6861937642097473
    outer loop
      vertex 4.0000000000000000 12.3574552536010742 6.5527997016906738
      vertex 0.0000000000000000 11.8028001785278320 7.1074552536010742
      vertex 4.0000000000000000 11.8028001785278320 7.1074552536010742
    endloop
  endfacet
  facet normal 0.0000000000000000 0.8020838499069214 0.5972113609313965
    outer loop
      vertex 4.0000000000000000 11.8028001785278320 7.1074552536010742
      vertex 0.0000000000000000 11.8028001785278320 7.1074552536010742
      vertex 0.0000000000000000 11.3528852462768555 7.7500000000000000
    endloop
  endfacet
  facet normal 0.0000000000000000 0.8355239629745483 0.5494540333747864
    outer loop
      vertex 4.0000000000000000 11.8028001785278320 7.1074552536010742
      vertex 0.0000000000000000 11.3528852462768555 7.7500000000000000
      vertex 4.0000000000000000 11.3528852462768555 7.7500000000000000
    endloop
  endfacet
  facet normal 0.0000000000000000 0.8936030864715576 0.4488579928874969
    outer loop
      vertex 4.0000000000000000 11.3528852462768555 7.7500000000000000
      vertex 0.0000000000000000 11.3528852462768555 7.7500000000000000
      vertex 0.0000000000000000 11.0213832855224609 8.4609088897705078
    endloop
  endfacet
  facet normal 0.0000000000000000 0.9182421565055847 0.3960193395614624
    outer loop
      vertex 4.0000000000000000 11.3528852462768555 7.7500000000000000
      vertex 0.0000000000000000 11.0213832855224609 8.4609088897705078
      vertex 4.0000000000000000 11.0213832855224609 8.4609088897705078
    endloop
  endfacet
  facet normal 0.0000000000000000 0.9579706192016602 0.2868663072586060
    outer loop
      vertex 4.0000000000000000 11.0213832855224609 8.4609088897705078
      vertex 0.0000000000000000 11.0213832855224609 8.4609088897705078
      vertex 0.0000000000000000 10.8183660507202148 9.2185831069946289
    endloop
  endfacet
  facet normal 0.0000000000000000 0.9730600118637085 0.2305518537759781
    outer loop
      vertex 4.0000000000000000 11.0213832855224609 8.4609088897705078
      vertex 0.0000000000000000 10.8183660507202148 9.2185831069946289
      vertex 4.0000000000000000 10.8183660507202148 9.2185831069946289
    endloop
  endfacet
  facet normal 0.0000000000000000 0.9932307004928589 0.1161582693457603
    outer loop
      vertex 4.0000000000000000 10.8183660507202148 9.2185831069946289
      vertex 0.0000000000000000 10.8183660507202148 9.2185831069946289
      vertex 0.0000000000000000 10.7500000000000000 10.0000000000000000
    endloop
  endfacet
  facet normal 0.0000000000000000 0.9983119964599609 0.0580791346728802
    outer loop
      vertex 4.0000000000000000 10.8183660507202148 9.2185831069946289
      vertex 0.0000000000000000 10.7500000000000000 10.0000000000000000
      vertex 4.0000000000000000 10.7500000000000000 10.0000000000000000
    endloop
  endfacet
  facet normal 0.0000000000000000 0.9983119964599609 -0.0580791346728802
    outer loop
      vertex 4.0000000000000000 10.7500000000000000 10.0000000000000000
      vertex 0.0000000000000000 10.7500000000000000 10.0000000000000000
      vertex 0.0000000000000000 10.8183660507202148 10.7814168930053711
    endloop
  endfacet
  facet normal 0.0000000000000000 0.9932307004928589 -0.1161582693457603
    outer loop
      vertex 4.0000000000000000 10.7500000000000000 10.0000000000000000
      vertex 0.0000000000000000 10.8183660507202148 10.7814168930053711
      vertex 4.0000000000000000 10.8183660507202148 10.7814168930053711
    endloop
  endfacet
  facet normal 0.0000000000000000 0.9730600118637085 -0.2305518537759781
    outer loop
      vertex 4.0000000000000000 10.8183660507202148 10.7814168930053711
      vertex 0.0000000000000000 10.8183660507202148 10.7814168930053711
      vertex 0.0000000000000000 11.0213832855224609 11.5390901565551758
    endloop
  endfacet
  facet normal 0.0000000000000000 0.9579706192016602 -0.2868663072586060
    outer loop
      vertex 4.0000000000000000 10.8183660507202148 10.7814168930053711
      vertex 0.0000000000000000 11.0213832855224609 11.5390901565551758
      vertex 4.0000000000000000 11.0213832855224609 11.5390901565551758
    endloop
  endfacet
  facet normal 0.0000000000000000 0.9182421565055847 -0.3960193395614624
    outer loop
      vertex 4.0000000000000000 11.0213832855224609 11.5390901565551758
      vertex 0.0000000000000000 11.0213832855224609 11.5390901565551758
      vertex 0.0000000000000000 11.3528852462768555 12.2500000000000000
    endloop
  endfacet
  facet normal 0.0000000000000000 0.8936030864715576 -0.4488579928874969
    outer loop
      vertex 4.0000000000000000 11.0213832855224609 11.5390901565551758
      vertex 0.0000000000000000 11.3528852462768555 12.2500000000000000
      vertex 4.0000000000000000 11.3528852462768555 12.2500000000000000
    endloop
  endfacet
  facet normal 0.0000000000000000 0.8355239629745483 -0.5494540333747864
    outer loop
      vertex 4.0000000000000000 11.3528852462768555 12.2500000000000000
      vertex 0.0000000000000000 11.3528852462768555 12.2500000000000000
      vertex 0.0000000000000000 11.8028001785278320 12.8925437927246094
    endloop
  endfacet
  facet normal 0.0000000000000000 0.8020838499069214 -0.5972113609313965
    outer loop
      vertex 4.0000000000000000 11.3528852462768555 12.2500000000000000
      vertex 0.0000000000000000 11.8028001785278320 12.8925437927246094
      vertex 4.0000000000000000 11.8028001785278320 12.8925437927246094
    endloop
  endfacet
  facet normal 0.0000000000000000 0.7274187803268433 -0.6861937642097473
    outer loop
      vertex 4.0000000000000000 11.8028001785278320 12.8925437927246094
      vertex 0.0000000000000000 11.8028001785278320 12.8925437927246094
      vertex 0.0000000000000000 12.3574552536010742 13.4471998214721680
    endloop
  endfacet
  facet normal 0.0000000000000000 0.6861937642097473 -0.7274187803268433
    outer loop
      vertex 4.0000000000000000 11.8028001785278320 12.8925437927246094
      vertex 0.0000000000000000 12.3574552536010742 13.4471998214721680
      vertex 4.0000000000000000 12.3574552536010742 13.4471998214721680
    endloop
  endfacet
  facet normal 0.0000000000000000 0.5972114205360413 -0.8020838499069214
    outer loop
      vertex 4.0000000000000000 12.3574552536010742 13.4471998214721680
      vertex 0.0000000000000000 12.3574552536010742 13.4471998214721680
      vertex 0.0000000000000000 13.0000000000000000 13.8971147537231445
    endloop
  endfacet
  facet normal 0.0000000000000000 0.5494540333747864 -0.8355239629745483
    outer loop
      vertex 4.0000000000000000 12.3574552536010742 13.4471998214721680
      vertex 0.0000000000000000 13.0000000000000000 13.8971147537231445
      vertex 4.0000000000000000 13.0000000000000000 13.8971147537231445
    endloop
  endfacet
  facet normal 0.0000000000000000 0.4488579928874969 -0.8936030864715576
    outer loop
      vertex 4.0000000000000000 13.0000000000000000 13.8971147537231445
      vertex 0.0000000000000000 13.0000000000000000 13.8971147537231445
      vertex 0.0000000000000000 13.7109098434448242 14.2286157608032227
    endloop
  endfacet
  facet normal 0.0000000000000000 0.3960193693637848 -0.9182421565055847
    outer loop
      vertex 4.0000000000000000 13.0000000000000000 13.8971147537231445
      vertex 0.0000000000000000 13.7109098434448242 14.2286157608032227
      vertex 4.0000000000000000 13.7109098434448242 14.2286157608032227
    endloop
  endfacet
  facet normal 0.0000000000000000 0.2868662774562836 -0.9579706192016602
    outer loop
      vertex 4.0000000000000000 13.7109098434448242 14.2286157608032227
      vertex 0.0000000000000000 13.7109098434448242 14.2286157608032227
      vertex 0.0000000000000000 14.4685831069946289 14.4316349029541016
    endloop
  endfacet
  facet normal 0.0000000000000000 0.2305518537759781 -0.9730600118637085
    outer loop
      vertex 4.0000000000000000 13.7109098434448242 14.2286157608032227
      vertex 0.0000000000000000 14.4685831069946289 14.4316349029541016
      vertex 4.0000000000000000 14.4685831069946289 14.4316349029541016
    endloop
  endfacet
  facet normal 0.0000000000000000 0.1161582767963409 -0.9932307004928589
    outer loop
      vertex 4.0000000000000000 14.4685831069946289 14.4316349029541016
      vertex 0.0000000000000000 14.4685831069946289 14.4316349029541016
      vertex 0.0000000000000000 15.2500000000000000 14.5000000000000000
    endloop
  endfacet
endsolid ascii_stl
