solid ascii_stl
  facet normal 0.0000000000000001 -1.0000000000000000 0.0000000000000000
    outer loop
      vertex 12.0000000000000000 17.5000000000000000 20.0000000000000000
      vertex 4.0000000000000000 17.5000000000000000 20.0000000000000000
      vertex 12.0000000000000000 17.5000000000000000 0.0000000000000000
    endloop
  endfacet
  facet normal 0.0000000000000001 -1.0000000000000000 0.0000000000000000
    outer loop
      vertex 12.0000000000000000 17.5000000000000000 0.0000000000000000
      vertex 4.0000000000000000 17.5000000000000000 20.0000000000000000
      vertex 4.0000000000000000 17.5000000000000000 0.0000000000000000
    endloop
  endfacet
  facet normal 1.0000000000000000 -0.0000000000000004 0.0000000000000000
    outer loop
      vertex 12.0000000000000000 21.5000000000000000 20.0000000000000000
      vertex 12.0000000000000000 17.5000000000000000 20.0000000000000000
      vertex 12.0000000000000000 21.5000000000000000 0.0000000000000000
    endloop
  endfacet
  facet normal 1.0000000000000000 -0.0000000000000004 0.0000000000000000
    outer loop
      vertex 12.0000000000000000 21.5000000000000000 0.0000000000000000
      vertex 12.0000000000000000 17.5000000000000000 20.0000000000000000
      vertex 12.0000000000000000 17.5000000000000000 0.0000000000000000
    endloop
  endfacet
  facet normal 0.0000000000000000 1.0000000000000000 0.0000000000000000
    outer loop
      vertex 2.0000000000000000 21.5000000000000000 20.0000000000000000
      vertex 12.0000000000000000 21.5000000000000000 20.0000000000000000
      vertex 2.0000000000000000 21.5000000000000000 0.0000000000000000
    endloop
  endfacet
  facet normal 0.0000000000000000 1.0000000000000000 0.0000000000000000
    outer loop
      vertex 2.0000000000000000 21.5000000000000000 0.0000000000000000
      vertex 12.0000000000000000 21.5000000000000000 20.0000000000000000
      vertex 12.0000000000000000 21.5000000000000000 0.0000000000000000
    endloop
  endfacet
  facet normal -0.0580791383981705 0.9983119964599609 0.0000000000000000
    outer loop
      vertex 2.0000000000000000 21.5000000000000000 20.0000000000000000
      vertex 2.0000000000000000 21.5000000000000000 0.0000000000000000
      vertex 1.6527036428451538 21.4696159362792969 0.0000000000000000
    endloop
  endfacet
  facet normal -0.1161582767963409 0.9932307004928589 0.0000000000000000
    outer loop
      vertex 2.0000000000000000 21.5000000000000000 20.0000000000000000
      vertex 1.6527036428451538 21.4696159362792969 0.0000000000000000
      vertex 1.6527036428451538 21.4696159362792969 20.0000000000000000
    endloop
  endfacet
  facet normal -0.2305518537759781 0.9730600118637085 0.0000000000000000
    outer loop
      vertex 1.6527036428451538 21.4696159362792969 20.0000000000000000
      vertex 1.6527036428451538 21.4696159362792969 0.0000000000000000
      vertex 1.3159596920013428 21.3793849945068359 0.0000000000000000
    endloop
  endfacet
  facet normal -0.2868662774562836 0.9579706192016602 0.0000000000000000
    outer loop
      vertex 1.6527036428451538 21.4696159362792969 20.0000000000000000
      vertex 1.3159596920013428 21.3793849945068359 0.0000000000000000
      vertex 1.3159596920013428 21.3793849945068359 20.0000000000000000
    endloop
  endfacet
  facet normal -0.3960193693637848 0.9182421565055847 0.0000000000000000
    outer loop
      vertex 1.3159596920013428 21.3793849945068359 20.0000000000000000
      vertex 1.3159596920013428 21.3793849945068359 0.0000000000000000
      vertex 1.0000000000000000 21.2320499420166016 0.0000000000000000
    endloop
  endfacet
  facet normal -0.4488579928874969 0.8936030864715576 0.0000000000000000
    outer loop
      vertex 1.3159596920013428 21.3793849945068359 20.0000000000000000
      vertex 1.0000000000000000 21.2320499420166016 0.0000000000000000
      vertex 1.0000000000000000 21.2320499420166016 20.0000000000000000
    endloop
  endfacet
  facet normal -0.5494540333747864 0.8355239629745483 0.0000000000000000
    outer loop
      vertex 1.0000000000000000 21.2320499420166016 20.0000000000000000
      vertex 1.0000000000000000 21.2320499420166016 0.0000000000000000
      vertex 0.7144247889518738 21.0320892333984375 0.0000000000000000
    endloop
  endfacet
  facet normal -0.5972114205360413 0.8020839095115662 0.0000000000000000
    outer loop
      vertex 1.0000000000000000 21.2320499420166016 20.0000000000000000
      vertex 0.7144247889518738 21.0320892333984375 0.0000000000000000
      vertex 0.7144247889518738 21.0320892333984375 20.0000000000000000
    endloop
  endfacet
  facet normal -0.6861937642097473 0.7274187803268433 0.0000000000000000
    outer loop
      vertex 0.7144247889518738 21.0320892333984375 20.0000000000000000
      vertex 0.7144247889518738 21.0320892333984375 0.0000000000000000
      vertex 0.4679110944271088 20.7855758666992188 0.0000000000000000
    endloop
  endfacet
  facet normal -0.7274187803268433 0.6861937642097473 0.0000000000000000
    outer loop
      vertex 0.7144247889518738 21.0320892333984375 20.0000000000000000
      vertex 0.4679110944271088 20.7855758666992188 0.0000000000000000
      vertex 0.4679110944271088 20.7855758666992188 20.0000000000000000
    endloop
  endfacet
  facet normal -0.8020839095115662 0.5972114205360413 0.0000000000000000
    outer loop
      vertex 0.4679110944271088 20.7855758666992188 20.0000000000000000
      vertex 0.4679110944271088 20.7855758666992188 0.0000000000000000
      vertex 0.2679491937160492 20.5000000000000000 0.0000000000000000
    endloop
  endfacet
  facet normal -0.8355239629745483 0.5494540333747864 0.0000000000000000
    outer loop
      vertex 0.4679110944271088 20.7855758666992188 20.0000000000000000
      vertex 0.2679491937160492 20.5000000000000000 0.0000000000000000
      vertex 0.2679491937160492 20.5000000000000000 20.0000000000000000
    endloop
  endfacet
  facet normal -0.8936030864715576 0.4488579928874969 0.0000000000000000
    outer loop
      vertex 0.2679491937160492 20.5000000000000000 20.0000000000000000
      vertex 0.2679491937160492 20.5000000000000000 0.0000000000000000
      vertex 0.1206147596240044 20.1840400695800781 0.0000000000000000
    endloop
  endfacet
  facet normal -0.9182421565055847 0.3960193693637848 0.0000000000000000
    outer loop
      vertex 0.2679491937160492 20.5000000000000000 20.0000000000000000
      vertex 0.1206147596240044 20.1840400695800781 0.0000000000000000
      vertex 0.1206147596240044 20.1840400695800781 20.0000000000000000
    endloop
  endfacet
  facet normal -0.9579706192016602 0.2868662774562836 0.0000000000000000
    outer loop
      vertex 0.1206147596240044 20.1840400695800781 20.0000000000000000
      vertex 0.1206147596240044 20.1840400695800781 0.0000000000000000
      vertex 0.0303844939917326 19.8472957611083984 0.0000000000000000
    endloop
  endfacet
  facet normal -0.9730600118637085 0.2305518537759781 0.0000000000000000
    outer loop
      vertex 0.1206147596240044 20.1840400695800781 20.0000000000000000
      vertex 0.0303844939917326 19.8472957611083984 0.0000000000000000
      vertex 0.0303844939917326 19.8472957611083984 20.0000000000000000
    endloop
  endfacet
  facet normal -0.9932307004928589 0.1161582767963409 0.0000000000000000
    outer loop
      vertex 0.0303844939917326 19.8472957611083984 20.0000000000000000
      vertex 0.0303844939917326 19.8472957611083984 0.0000000000000000
      vertex 0.0000000000000048 19.5000000000000000 0.0000000000000000
    endloop
  endfacet
  facet normal -0.9983119964599609 0.0580791383981705 0.0000000000000000
    outer loop
      vertex 0.0303844939917326 19.8472957611083984 20.0000000000000000
      vertex 0.0000000000000048 19.5000000000000000 0.0000000000000000
      vertex 0.0000000000000048 19.5000000000000000 20.0000000000000000
    endloop
  endfacet
  facet normal -1.0000000000000000 0.0000000000000000 0.0000000000000000
    outer loop
      vertex 0.0000000000000048 2.0000002384185791 20.0000000000000000
      vertex 0.0000000000000048 9.5529298782348633 13.2889242172241211
      vertex 0.0000000000000048 9.0000009536743164 13.0310888290405273
    endloop
  endfacet
  facet normal -1.0000000000000000 0.0000000000000000 0.0000000000000000
    outer loop
      vertex 0.0000000000000048 12.9997568130493164 12.6811552047729492
      vertex 0.0000000000000048 12.5000000000000000 13.0310888290405273
      vertex 0.0000000000000048 19.5000000000000000 20.0000000000000000
    endloop
  endfacet
  facet normal -1.0000000000000000 0.0000000000000000 0.0000000000000000
    outer loop
      vertex 0.0000000000000048 19.5000000000000000 20.0000000000000000
      vertex 0.0000000000000048 12.5000000000000000 13.0310888290405273
      vertex 0.0000000000000048 11.9470710754394531 13.2889242172241211
    endloop
  endfacet
  facet normal -1.0000000000000000 0.0000000000000000 0.0000000000000000
    outer loop
      vertex 0.0000000000000048 9.0000009536743164 13.0310888290405273
      vertex 0.0000000000000048 8.5002431869506836 12.6811552047729492
      vertex 0.0000000000000048 2.0000002384185791 20.0000000000000000
    endloop
  endfacet
  facet normal -1.0000000000000000 0.0000000000000000 0.0000000000000000
    outer loop
      vertex 0.0000000000000048 2.0000002384185791 20.0000000000000000
      vertex 0.0000000000000048 8.5002431869506836 12.6811552047729492
      vertex 0.0000000000000048 8.0688447952270508 12.2497568130493164
    endloop
  endfacet
  facet normal -1.0000000000000000 0.0000000000000000 0.0000000000000000
    outer loop
      vertex 0.0000000000000048 2.0000002384185791 20.0000000000000000
      vertex 0.0000000000000048 8.0688447952270508 12.2497568130493164
      vertex 0.0000000000000048 7.7189111709594727 11.7500000000000000
    endloop
  endfacet
  facet normal -1.0000000000000000 0.0000000000000000 0.0000000000000000
    outer loop
      vertex 0.0000000000000048 11.9470710754394531 13.2889242172241211
      vertex 0.0000000000000048 11.3577690124511719 13.4468269348144531
      vertex 0.0000000000000048 19.5000000000000000 20.0000000000000000
    endloop
  endfacet
  facet normal -1.0000000000000000 0.0000000000000000 0.0000000000000000
    outer loop
      vertex 0.0000000000000048 19.5000000000000000 20.0000000000000000
      vertex 0.0000000000000048 11.3577690124511719 13.4468269348144531
      vertex 0.0000000000000048 10.7500000000000000 13.4999990463256836
    endloop
  endfacet
  facet normal -1.0000000000000000 0.0000000000000000 0.0000000000000000
    outer loop
      vertex 0.0000000000000048 19.5000000000000000 20.0000000000000000
      vertex 0.0000000000000048 10.7500000000000000 13.4999990463256836
      vertex 0.0000000000000048 2.0000002384185791 20.0000000000000000
    endloop
  endfacet
  facet normal -1.0000000000000000 0.0000000000000000 0.0000000000000000
    outer loop
      vertex 0.0000000000000048 2.0000002384185791 20.0000000000000000
      vertex 0.0000000000000048 10.7500000000000000 13.4999990463256836
      vertex 0.0000000000000048 10.1422309875488281 13.4468269348144531
    endloop
  endfacet
  facet normal -1.0000000000000000 0.0000000000000000 0.0000000000000000
    outer loop
      vertex 0.0000000000000048 2.0000002384185791 20.0000000000000000
      vertex 0.0000000000000048 10.1422309875488281 13.4468269348144531
      vertex 0.0000000000000048 9.5529298782348633 13.2889242172241211
    endloop
  endfacet
  facet normal -1.0000000000000000 0.0000000000000000 0.0000000000000000
    outer loop
      vertex 0.0000000000000048 7.3031730651855469 9.3922309875488281
      vertex 0.0000000000000048 7.4610762596130371 8.8029289245605469
      vertex 0.0000000000000048 2.0000002384185791 0.0000000000000000
    endloop
  endfacet
  facet normal -1.0000000000000000 0.0000000000000000 0.0000000000000000
    outer loop
      vertex 0.0000000000000048 2.0000002384185791 0.0000000000000000
      vertex 0.0000000000000048 7.4610762596130371 8.8029289245605469
      vertex 0.0000000000000048 7.7189111709594727 8.2500000000000000
    endloop
  endfacet
  facet normal -1.0000000000000000 0.0000000000000000 0.0000000000000000
    outer loop
      vertex 0.0000000000000048 2.0000002384185791 0.0000000000000000
      vertex 0.0000000000000048 7.7189111709594727 8.2500000000000000
      vertex 0.0000000000000048 8.0688447952270508 7.7502431869506836
    endloop
  endfacet
  facet normal -1.0000000000000000 0.0000000000000000 0.0000000000000000
    outer loop
      vertex 0.0000000000000048 12.9997568130493164 7.3188443183898926
      vertex 0.0000000000000048 13.4311561584472656 7.7502431869506836
      vertex 0.0000000000000048 19.5000000000000000 0.0000000000000000
    endloop
  endfacet
  facet normal -1.0000000000000000 0.0000000000000000 0.0000000000000000
    outer loop
      vertex 0.0000000000000048 19.5000000000000000 0.0000000000000000
      vertex 0.0000000000000048 13.4311561584472656 7.7502431869506836
      vertex 0.0000000000000048 13.7810897827148438 8.2500000000000000
    endloop
  endfacet
  facet normal -1.0000000000000000 0.0000000000000000 0.0000000000000000
    outer loop
      vertex 0.0000000000000048 19.5000000000000000 0.0000000000000000
      vertex 0.0000000000000048 13.7810897827148438 8.2500000000000000
      vertex 0.0000000000000048 14.0389242172241211 8.8029289245605469
    endloop
  endfacet
  facet normal -1.0000000000000000 0.0000000000000000 0.0000000000000000
    outer loop
      vertex 0.0000000000000048 14.0389242172241211 11.1970701217651367
      vertex 0.0000000000000048 13.7810897827148438 11.7500000000000000
      vertex 0.0000000000000048 19.5000000000000000 20.0000000000000000
    endloop
  endfacet
  facet normal -1.0000000000000000 0.0000000000000000 0.0000000000000000
    outer loop
      vertex 0.0000000000000048 19.5000000000000000 20.0000000000000000
      vertex 0.0000000000000048 13.7810897827148438 11.7500000000000000
      vertex 0.0000000000000048 13.4311561584472656 12.2497568130493164
    endloop
  endfacet
  facet normal -1.0000000000000000 0.0000000000000000 0.0000000000000000
    outer loop
      vertex 0.0000000000000048 19.5000000000000000 20.0000000000000000
      vertex 0.0000000000000048 13.4311561584472656 12.2497568130493164
      vertex 0.0000000000000048 12.9997568130493164 12.6811552047729492
    endloop
  endfacet
  facet normal -1.0000000000000000 0.0000000000000000 0.0000000000000000
    outer loop
      vertex 0.0000000000000048 8.0688447952270508 7.7502431869506836
      vertex 0.0000000000000048 8.5002431869506836 7.3188443183898926
      vertex 0.0000000000000048 2.0000002384185791 0.0000000000000000
    endloop
  endfacet
  facet normal -1.0000000000000000 0.0000000000000000 0.0000000000000000
    outer loop
      vertex 0.0000000000000048 2.0000002384185791 0.0000000000000000
      vertex 0.0000000000000048 8.5002431869506836 7.3188443183898926
      vertex 0.0000000000000048 9.0000009536743164 6.9689106941223145
    endloop
  endfacet
  facet normal -1.0000000000000000 0.0000000000000000 0.0000000000000000
    outer loop
      vertex 0.0000000000000048 2.0000002384185791 0.0000000000000000
      vertex 0.0000000000000048 9.0000009536743164 6.9689106941223145
      vertex 0.0000000000000048 9.5529298782348633 6.7110757827758789
    endloop
  endfacet
  facet normal -1.0000000000000000 0.0000000000000000 0.0000000000000000
    outer loop
      vertex 0.0000000000000048 9.5529298782348633 6.7110757827758789
      vertex 0.0000000000000048 10.1422309875488281 6.5531725883483887
      vertex 0.0000000000000048 2.0000002384185791 0.0000000000000000
    endloop
  endfacet
  facet normal -1.0000000000000000 0.0000000000000000 0.0000000000000000
    outer loop
      vertex 0.0000000000000048 2.0000002384185791 0.0000000000000000
      vertex 0.0000000000000048 10.1422309875488281 6.5531725883483887
      vertex 0.0000000000000048 10.7500000000000000 6.4999995231628418
    endloop
  endfacet
  facet normal -1.0000000000000000 0.0000000000000000 0.0000000000000000
    outer loop
      vertex 0.0000000000000048 2.0000002384185791 0.0000000000000000
      vertex 0.0000000000000048 10.7500000000000000 6.4999995231628418
      vertex 0.0000000000000048 19.5000000000000000 0.0000000000000000
    endloop
  endfacet
  facet normal -1.0000000000000000 0.0000000000000000 0.0000000000000000
    outer loop
      vertex 0.0000000000000048 19.5000000000000000 0.0000000000000000
      vertex 0.0000000000000048 10.7500000000000000 6.4999995231628418
      vertex 0.0000000000000048 11.3577690124511719 6.5531725883483887
    endloop
  endfacet
  facet normal -1.0000000000000000 0.0000000000000000 0.0000000000000000
    outer loop
      vertex 0.0000000000000048 14.0389242172241211 8.8029289245605469
      vertex 0.0000000000000048 14.1968278884887695 9.3922309875488281
      vertex 0.0000000000000048 19.5000000000000000 0.0000000000000000
    endloop
  endfacet
  facet normal -1.0000000000000000 0.0000000000000000 0.0000000000000000
    outer loop
      vertex 0.0000000000000048 19.5000000000000000 0.0000000000000000
      vertex 0.0000000000000048 14.1968278884887695 9.3922309875488281
      vertex 0.0000000000000048 14.2500009536743164 10.0000000000000000
    endloop
  endfacet
  facet normal -1.0000000000000000 0.0000000000000000 0.0000000000000000
    outer loop
      vertex 0.0000000000000048 19.5000000000000000 0.0000000000000000
      vertex 0.0000000000000048 14.2500009536743164 10.0000000000000000
      vertex 0.0000000000000048 19.5000000000000000 20.0000000000000000
    endloop
  endfacet
  facet normal -1.0000000000000000 0.0000000000000000 0.0000000000000000
    outer loop
      vertex 0.0000000000000048 19.5000000000000000 20.0000000000000000
      vertex 0.0000000000000048 14.2500009536743164 10.0000000000000000
      vertex 0.0000000000000048 14.1968278884887695 10.6077690124511719
    endloop
  endfacet
  facet normal -1.0000000000000000 0.0000000000000000 0.0000000000000000
    outer loop
      vertex 0.0000000000000048 19.5000000000000000 20.0000000000000000
      vertex 0.0000000000000048 14.1968278884887695 10.6077690124511719
      vertex 0.0000000000000048 14.0389242172241211 11.1970701217651367
    endloop
  endfacet
  facet normal -1.0000000000000000 0.0000000000000000 0.0000000000000000
    outer loop
      vertex 0.0000000000000048 7.7189111709594727 11.7500000000000000
      vertex 0.0000000000000048 7.4610762596130371 11.1970701217651367
      vertex 0.0000000000000048 2.0000002384185791 20.0000000000000000
    endloop
  endfacet
  facet normal -1.0000000000000000 0.0000000000000000 0.0000000000000000
    outer loop
      vertex 0.0000000000000048 2.0000002384185791 20.0000000000000000
      vertex 0.0000000000000048 7.4610762596130371 11.1970701217651367
      vertex 0.0000000000000048 7.3031730651855469 10.6077690124511719
    endloop
  endfacet
  facet normal -1.0000000000000000 0.0000000000000000 0.0000000000000000
    outer loop
      vertex 0.0000000000000048 2.0000002384185791 20.0000000000000000
      vertex 0.0000000000000048 7.3031730651855469 10.6077690124511719
      vertex 0.0000000000000048 2.0000002384185791 0.0000000000000000
    endloop
  endfacet
  facet normal -1.0000000000000000 0.0000000000000000 0.0000000000000000
    outer loop
      vertex 0.0000000000000048 2.0000002384185791 0.0000000000000000
      vertex 0.0000000000000048 7.3031730651855469 10.6077690124511719
      vertex 0.0000000000000048 7.2500004768371582 10.0000000000000000
    endloop
  endfacet
  facet normal -1.0000000000000000 0.0000000000000000 0.0000000000000000
    outer loop
      vertex 0.0000000000000048 2.0000002384185791 0.0000000000000000
      vertex 0.0000000000000048 7.2500004768371582 10.0000000000000000
      vertex 0.0000000000000048 7.3031730651855469 9.3922309875488281
    endloop
  endfacet
  facet normal -1.0000000000000000 0.0000000000000000 0.0000000000000000
    outer loop
      vertex 0.0000000000000048 11.3577690124511719 6.5531725883483887
      vertex 0.0000000000000048 11.9470710754394531 6.7110757827758789
      vertex 0.0000000000000048 19.5000000000000000 0.0000000000000000
    endloop
  endfacet
  facet normal -1.0000000000000000 0.0000000000000000 0.0000000000000000
    outer loop
      vertex 0.0000000000000048 19.5000000000000000 0.0000000000000000
      vertex 0.0000000000000048 11.9470710754394531 6.7110757827758789
      vertex 0.0000000000000048 12.5000000000000000 6.9689106941223145
    endloop
  endfacet
  facet normal -1.0000000000000000 0.0000000000000000 0.0000000000000000
    outer loop
      vertex 0.0000000000000048 19.5000000000000000 0.0000000000000000
      vertex 0.0000000000000048 12.5000000000000000 6.9689106941223145
      vertex 0.0000000000000048 12.9997568130493164 7.3188443183898926
    endloop
  endfacet
  facet normal -0.9983119964599609 -0.0580791383981705 0.0000000000000000
    outer loop
      vertex 0.0000000000000048 2.0000002384185791 20.0000000000000000
      vertex 0.0000000000000048 2.0000002384185791 0.0000000000000000
      vertex 0.0303844939917326 1.6527036428451538 0.0000000000000000
    endloop
  endfacet
  facet normal -0.9932307004928589 -0.1161582767963409 0.0000000000000000
    outer loop
      vertex 0.0000000000000048 2.0000002384185791 20.0000000000000000
      vertex 0.0303844939917326 1.6527036428451538 0.0000000000000000
      vertex 0.0303844939917326 1.6527036428451538 20.0000000000000000
    endloop
  endfacet
  facet normal -0.9730600118637085 -0.2305518537759781 0.0000000000000000
    outer loop
      vertex 0.0303844939917326 1.6527036428451538 20.0000000000000000
      vertex 0.0303844939917326 1.6527036428451538 0.0000000000000000
      vertex 0.1206147596240044 1.3159596920013428 0.0000000000000000
    endloop
  endfacet
  facet normal -0.9579706192016602 -0.2868662774562836 0.0000000000000000
    outer loop
      vertex 0.0303844939917326 1.6527036428451538 20.0000000000000000
      vertex 0.1206147596240044 1.3159596920013428 0.0000000000000000
      vertex 0.1206147596240044 1.3159596920013428 20.0000000000000000
    endloop
  endfacet
  facet normal -0.9182421565055847 -0.3960193693637848 0.0000000000000000
    outer loop
      vertex 0.1206147596240044 1.3159596920013428 20.0000000000000000
      vertex 0.1206147596240044 1.3159596920013428 0.0000000000000000
      vertex 0.2679491937160492 1.0000001192092896 0.0000000000000000
    endloop
  endfacet
  facet normal -0.8936030864715576 -0.4488579928874969 0.0000000000000000
    outer loop
      vertex 0.1206147596240044 1.3159596920013428 20.0000000000000000
      vertex 0.2679491937160492 1.0000001192092896 0.0000000000000000
      vertex 0.2679491937160492 1.0000001192092896 20.0000000000000000
    endloop
  endfacet
  facet normal -0.8355239629745483 -0.5494540333747864 0.0000000000000000
    outer loop
      vertex 0.2679491937160492 1.0000001192092896 20.0000000000000000
      vertex 0.2679491937160492 1.0000001192092896 0.0000000000000000
      vertex 0.4679110944271088 0.7144249677658081 0.0000000000000000
    endloop
  endfacet
  facet normal -0.8020839095115662 -0.5972114205360413 0.0000000000000000
    outer loop
      vertex 0.2679491937160492 1.0000001192092896 20.0000000000000000
      vertex 0.4679110944271088 0.7144249677658081 0.0000000000000000
      vertex 0.4679110944271088 0.7144249677658081 20.0000000000000000
    endloop
  endfacet
  facet normal -0.7274187803268433 -0.6861937642097473 0.0000000000000000
    outer loop
      vertex 0.4679110944271088 0.7144249677658081 20.0000000000000000
      vertex 0.4679110944271088 0.7144249677658081 0.0000000000000000
      vertex 0.7144247889518738 0.4679113626480103 0.0000000000000000
    endloop
  endfacet
  facet normal -0.6861937642097473 -0.7274187803268433 0.0000000000000000
    outer loop
      vertex 0.4679110944271088 0.7144249677658081 20.0000000000000000
      vertex 0.7144247889518738 0.4679113626480103 0.0000000000000000
      vertex 0.7144247889518738 0.4679113626480103 20.0000000000000000
    endloop
  endfacet
  facet normal -0.5972114205360413 -0.8020839095115662 0.0000000000000000
    outer loop
      vertex 0.7144247889518738 0.4679113626480103 20.0000000000000000
      vertex 0.7144247889518738 0.4679113626480103 0.0000000000000000
      vertex 1.0000000000000000 0.2679498791694641 0.0000000000000000
    endloop
  endfacet
  facet normal -0.5494540333747864 -0.8355239629745483 0.0000000000000000
    outer loop
      vertex 0.7144247889518738 0.4679113626480103 20.0000000000000000
      vertex 1.0000000000000000 0.2679498791694641 0.0000000000000000
      vertex 1.0000000000000000 0.2679498791694641 20.0000000000000000
    endloop
  endfacet
  facet normal -0.4488579928874969 -0.8936030864715576 0.0000000000000000
    outer loop
      vertex 1.0000000000000000 0.2679498791694641 20.0000000000000000
      vertex 1.0000000000000000 0.2679498791694641 0.0000000000000000
      vertex 1.3159596920013428 0.1206155866384506 0.0000000000000000
    endloop
  endfacet
  facet normal -0.3960193693637848 -0.9182421565055847 0.0000000000000000
    outer loop
      vertex 1.0000000000000000 0.2679498791694641 20.0000000000000000
      vertex 1.3159596920013428 0.1206155866384506 0.0000000000000000
      vertex 1.3159596920013428 0.1206155866384506 20.0000000000000000
    endloop
  endfacet
  facet normal -0.2868662774562836 -0.9579706192016602 0.0000000000000000
    outer loop
      vertex 1.3159596920013428 0.1206155866384506 20.0000000000000000
      vertex 1.3159596920013428 0.1206155866384506 0.0000000000000000
      vertex 1.6527036428451538 0.0303843989968300 0.0000000000000000
    endloop
  endfacet
  facet normal -0.2305518537759781 -0.9730600118637085 0.0000000000000000
    outer loop
      vertex 1.3159596920013428 0.1206155866384506 20.0000000000000000
      vertex 1.6527036428451538 0.0303843989968300 0.0000000000000000
      vertex 1.6527036428451538 0.0303843989968300 20.0000000000000000
    endloop
  endfacet
  facet normal -0.1161582767963409 -0.9932307004928589 0.0000000000000000
    outer loop
      vertex 1.6527036428451538 0.0303843989968300 20.0000000000000000
      vertex 1.6527036428451538 0.0303843989968300 0.0000000000000000
      vertex 2.0000000000000000 0.0000000000000000 0.0000000000000000
    endloop
  endfacet
  facet normal -0.0580791383981705 -0.9983119964599609 0.0000000000000000
    outer loop
      vertex 1.6527036428451538 0.0303843989968300 20.0000000000000000
      vertex 2.0000000000000000 0.0000000000000000 0.0000000000000000
      vertex 2.0000000000000000 0.0000000000000000 20.0000000000000000
    endloop
  endfacet
  facet normal 0.0000000000000000 -1.0000000000000000 0.0000000000000000
    outer loop
      vertex 12.0000000000000000 0.0000000000000000 20.0000000000000000
      vertex 2.0000000000000000 0.0000000000000000 20.0000000000000000
      vertex 12.0000000000000000 0.0000000000000000 0.0000000000000000
    endloop
  endfacet
  facet normal 0.0000000000000000 -1.0000000000000000 0.0000000000000000
    outer loop
      vertex 12.0000000000000000 0.0000000000000000 0.0000000000000000
      vertex 2.0000000000000000 0.0000000000000000 20.0000000000000000
      vertex 2.0000000000000000 0.0000000000000000 0.0000000000000000
    endloop
  endfacet
  facet normal 1.0000000000000000 0.0000000000000004 0.0000000000000000
    outer loop
      vertex 12.0000000000000000 4.0000000000000000 20.0000000000000000
      vertex 12.0000000000000000 0.0000000000000000 20.0000000000000000
      vertex 12.0000000000000000 4.0000000000000000 0.0000000000000000
    endloop
  endfacet
  facet normal 1.0000000000000000 0.0000000000000004 0.0000000000000000
    outer loop
      vertex 12.0000000000000000 4.0000000000000000 0.0000000000000000
      vertex 12.0000000000000000 0.0000000000000000 20.0000000000000000
      vertex 12.0000000000000000 0.0000000000000000 0.0000000000000000
    endloop
  endfacet
  facet normal 0.0000000000000001 1.0000000000000000 0.0000000000000000
    outer loop
      vertex 4.0000000000000000 4.0000000000000000 20.0000000000000000
      vertex 12.0000000000000000 4.0000000000000000 20.0000000000000000
      vertex 4.0000000000000000 4.0000000000000000 0.0000000000000000
    endloop
  endfacet
  facet normal 0.0000000000000001 1.0000000000000000 0.0000000000000000
    outer loop
      vertex 4.0000000000000000 4.0000000000000000 0.0000000000000000
      vertex 12.0000000000000000 4.0000000000000000 20.0000000000000000
      vertex 12.0000000000000000 4.0000000000000000 0.0000000000000000
    endloop
  endfacet
  facet normal 1.0000000000000000 0.0000000000000000 0.0000000000000000
    outer loop
      vertex 4.0000000000000000 11.9470710754394531 13.2889242172241211
      vertex 4.0000000000000000 12.5000000000000000 13.0310888290405273
      vertex 4.0000000000000000 17.5000000000000000 20.0000000000000000
    endloop
  endfacet
  facet normal 1.0000000000000000 0.0000000000000000 0.0000000000000000
    outer loop
      vertex 4.0000000000000000 17.5000000000000000 20.0000000000000000
      vertex 4.0000000000000000 12.5000000000000000 13.0310888290405273
      vertex 4.0000000000000000 12.9997568130493164 12.6811552047729492
    endloop
  endfacet
  facet normal 1.0000000000000000 0.0000000000000000 0.0000000000000000
    outer loop
      vertex 4.0000000000000000 4.0000000000000000 20.0000000000000000
      vertex 4.0000000000000000 7.4610762596130371 11.1970701217651367
      vertex 4.0000000000000000 7.7189111709594727 11.7500000000000000
    endloop
  endfacet
  facet normal 1.0000000000000000 0.0000000000000000 0.0000000000000000
    outer loop
      vertex 4.0000000000000000 9.0000009536743164 13.0310888290405273
      vertex 4.0000000000000000 9.5529298782348633 13.2889242172241211
      vertex 4.0000000000000000 4.0000000000000000 20.0000000000000000
    endloop
  endfacet
  facet normal 1.0000000000000000 0.0000000000000000 0.0000000000000000
    outer loop
      vertex 4.0000000000000000 7.7189111709594727 11.7500000000000000
      vertex 4.0000000000000000 8.0688447952270508 12.2497568130493164
      vertex 4.0000000000000000 4.0000000000000000 20.0000000000000000
    endloop
  endfacet
  facet normal 1.0000000000000000 0.0000000000000000 0.0000000000000000
    outer loop
      vertex 4.0000000000000000 4.0000000000000000 20.0000000000000000
      vertex 4.0000000000000000 8.0688447952270508 12.2497568130493164
      vertex 4.0000000000000000 8.5002431869506836 12.6811552047729492
    endloop
  endfacet
  facet normal 1.0000000000000000 0.0000000000000000 0.0000000000000000
    outer loop
      vertex 4.0000000000000000 4.0000000000000000 20.0000000000000000
      vertex 4.0000000000000000 8.5002431869506836 12.6811552047729492
      vertex 4.0000000000000000 9.0000009536743164 13.0310888290405273
    endloop
  endfacet
  facet normal 1.0000000000000000 0.0000000000000000 0.0000000000000000
    outer loop
      vertex 4.0000000000000000 10.1422309875488281 6.5531725883483887
      vertex 4.0000000000000000 9.5529298782348633 6.7110757827758789
      vertex 4.0000000000000000 4.0000000000000000 0.0000000000000000
    endloop
  endfacet
  facet normal 1.0000000000000000 0.0000000000000000 0.0000000000000000
    outer loop
      vertex 4.0000000000000000 4.0000000000000000 0.0000000000000000
      vertex 4.0000000000000000 9.5529298782348633 6.7110757827758789
      vertex 4.0000000000000000 9.0000009536743164 6.9689106941223145
    endloop
  endfacet
  facet normal 1.0000000000000000 0.0000000000000000 0.0000000000000000
    outer loop
      vertex 4.0000000000000000 4.0000000000000000 0.0000000000000000
      vertex 4.0000000000000000 9.0000009536743164 6.9689106941223145
      vertex 4.0000000000000000 8.5002431869506836 7.3188443183898926
    endloop
  endfacet
  facet normal 1.0000000000000000 0.0000000000000000 0.0000000000000000
    outer loop
      vertex 4.0000000000000000 17.5000000000000000 0.0000000000000000
      vertex 4.0000000000000000 12.9997568130493164 7.3188443183898926
      vertex 4.0000000000000000 12.5000000000000000 6.9689106941223145
    endloop
  endfacet
  facet normal 1.0000000000000000 0.0000000000000000 0.0000000000000000
    outer loop
      vertex 4.0000000000000000 8.5002431869506836 7.3188443183898926
      vertex 4.0000000000000000 8.0688447952270508 7.7502431869506836
      vertex 4.0000000000000000 4.0000000000000000 0.0000000000000000
    endloop
  endfacet
  facet normal 1.0000000000000000 0.0000000000000000 0.0000000000000000
    outer loop
      vertex 4.0000000000000000 4.0000000000000000 0.0000000000000000
      vertex 4.0000000000000000 8.0688447952270508 7.7502431869506836
      vertex 4.0000000000000000 7.7189111709594727 8.2500000000000000
    endloop
  endfacet
  facet normal 1.0000000000000000 0.0000000000000000 0.0000000000000000
    outer loop
      vertex 4.0000000000000000 4.0000000000000000 0.0000000000000000
      vertex 4.0000000000000000 7.7189111709594727 8.2500000000000000
      vertex 4.0000000000000000 7.4610762596130371 8.8029289245605469
    endloop
  endfacet
  facet normal 1.0000000000000000 0.0000000000000000 0.0000000000000000
    outer loop
      vertex 4.0000000000000000 7.4610762596130371 8.8029289245605469
      vertex 4.0000000000000000 7.3031730651855469 9.3922309875488281
      vertex 4.0000000000000000 4.0000000000000000 0.0000000000000000
    endloop
  endfacet
  facet normal 1.0000000000000000 0.0000000000000000 0.0000000000000000
    outer loop
      vertex 4.0000000000000000 4.0000000000000000 0.0000000000000000
      vertex 4.0000000000000000 7.3031730651855469 9.3922309875488281
      vertex 4.0000000000000000 7.2500004768371582 10.0000000000000000
    endloop
  endfacet
  facet normal 1.0000000000000000 0.0000000000000000 0.0000000000000000
    outer loop
      vertex 4.0000000000000000 4.0000000000000000 0.0000000000000000
      vertex 4.0000000000000000 7.2500004768371582 10.0000000000000000
      vertex 4.0000000000000000 4.0000000000000000 20.0000000000000000
    endloop
  endfacet
  facet normal 1.0000000000000000 0.0000000000000000 0.0000000000000000
    outer loop
      vertex 4.0000000000000000 4.0000000000000000 20.0000000000000000
      vertex 4.0000000000000000 7.2500004768371582 10.0000000000000000
      vertex 4.0000000000000000 7.3031730651855469 10.6077690124511719
    endloop
  endfacet
  facet normal 1.0000000000000000 0.0000000000000000 0.0000000000000000
    outer loop
      vertex 4.0000000000000000 4.0000000000000000 20.0000000000000000
      vertex 4.0000000000000000 7.3031730651855469 10.6077690124511719
      vertex 4.0000000000000000 7.4610762596130371 11.1970701217651367
    endloop
  endfacet
  facet normal 1.0000000000000000 0.0000000000000000 0.0000000000000000
    outer loop
      vertex 4.0000000000000000 9.5529298782348633 13.2889242172241211
      vertex 4.0000000000000000 10.1422309875488281 13.4468269348144531
      vertex 4.0000000000000000 4.0000000000000000 20.0000000000000000
    endloop
  endfacet
  facet normal 1.0000000000000000 0.0000000000000000 0.0000000000000000
    outer loop
      vertex 4.0000000000000000 4.0000000000000000 20.0000000000000000
      vertex 4.0000000000000000 10.1422309875488281 13.4468269348144531
      vertex 4.0000000000000000 10.7500000000000000 13.4999990463256836
    endloop
  endfacet
  facet normal 1.0000000000000000 0.0000000000000000 0.0000000000000000
    outer loop
      vertex 4.0000000000000000 4.0000000000000000 20.0000000000000000
      vertex 4.0000000000000000 10.7500000000000000 13.4999990463256836
      vertex 4.0000000000000000 17.5000000000000000 20.0000000000000000
    endloop
  endfacet
  facet normal 1.0000000000000000 0.0000000000000000 0.0000000000000000
    outer loop
      vertex 4.0000000000000000 17.5000000000000000 20.0000000000000000
      vertex 4.0000000000000000 10.7500000000000000 13.4999990463256836
      vertex 4.0000000000000000 11.3577690124511719 13.4468269348144531
    endloop
  endfacet
  facet normal 1.0000000000000000 0.0000000000000000 0.0000000000000000
    outer loop
      vertex 4.0000000000000000 17.5000000000000000 20.0000000000000000
      vertex 4.0000000000000000 11.3577690124511719 13.4468269348144531
      vertex 4.0000000000000000 11.9470710754394531 13.2889242172241211
    endloop
  endfacet
  facet normal 1.0000000000000000 0.0000000000000000 0.0000000000000000
    outer loop
      vertex 4.0000000000000000 12.9997568130493164 12.6811552047729492
      vertex 4.0000000000000000 13.4311561584472656 12.2497568130493164
      vertex 4.0000000000000000 17.5000000000000000 20.0000000000000000
    endloop
  endfacet
  facet normal 1.0000000000000000 0.0000000000000000 0.0000000000000000
    outer loop
      vertex 4.0000000000000000 17.5000000000000000 20.0000000000000000
      vertex 4.0000000000000000 13.4311561584472656 12.2497568130493164
      vertex 4.0000000000000000 13.7810897827148438 11.7500000000000000
    endloop
  endfacet
  facet normal 1.0000000000000000 0.0000000000000000 0.0000000000000000
    outer loop
      vertex 4.0000000000000000 17.5000000000000000 20.0000000000000000
      vertex 4.0000000000000000 13.7810897827148438 11.7500000000000000
      vertex 4.0000000000000000 14.0389242172241211 11.1970701217651367
    endloop
  endfacet
  facet normal 1.0000000000000000 0.0000000000000000 0.0000000000000000
    outer loop
      vertex 4.0000000000000000 14.0389242172241211 11.1970701217651367
      vertex 4.0000000000000000 14.1968278884887695 10.6077690124511719
      vertex 4.0000000000000000 17.5000000000000000 20.0000000000000000
    endloop
  endfacet
  facet normal 1.0000000000000000 0.0000000000000000 0.0000000000000000
    outer loop
      vertex 4.0000000000000000 17.5000000000000000 20.0000000000000000
      vertex 4.0000000000000000 14.1968278884887695 10.6077690124511719
      vertex 4.0000000000000000 14.2500009536743164 10.0000000000000000
    endloop
  endfacet
  facet normal 1.0000000000000000 0.0000000000000000 0.0000000000000000
    outer loop
      vertex 4.0000000000000000 17.5000000000000000 20.0000000000000000
      vertex 4.0000000000000000 14.2500009536743164 10.0000000000000000
      vertex 4.0000000000000000 17.5000000000000000 0.0000000000000000
    endloop
  endfacet
  facet normal 1.0000000000000000 0.0000000000000000 0.0000000000000000
    outer loop
      vertex 4.0000000000000000 17.5000000000000000 0.0000000000000000
      vertex 4.0000000000000000 14.2500009536743164 10.0000000000000000
      vertex 4.0000000000000000 14.1968278884887695 9.3922309875488281
    endloop
  endfacet
  facet normal 1.0000000000000000 0.0000000000000000 0.0000000000000000
    outer loop
      vertex 4.0000000000000000 17.5000000000000000 0.0000000000000000
      vertex 4.0000000000000000 14.1968278884887695 9.3922309875488281
      vertex 4.0000000000000000 14.0389242172241211 8.8029289245605469
    endloop
  endfacet
  facet normal 1.0000000000000000 0.0000000000000000 0.0000000000000000
    outer loop
      vertex 4.0000000000000000 14.0389242172241211 8.8029289245605469
      vertex 4.0000000000000000 13.7810897827148438 8.2500000000000000
      vertex 4.0000000000000000 17.5000000000000000 0.0000000000000000
    endloop
  endfacet
  facet normal 1.0000000000000000 0.0000000000000000 0.0000000000000000
    outer loop
      vertex 4.0000000000000000 17.5000000000000000 0.0000000000000000
      vertex 4.0000000000000000 13.7810897827148438 8.2500000000000000
      vertex 4.0000000000000000 13.4311561584472656 7.7502431869506836
    endloop
  endfacet
  facet normal 1.0000000000000000 0.0000000000000000 0.0000000000000000
    outer loop
      vertex 4.0000000000000000 17.5000000000000000 0.0000000000000000
      vertex 4.0000000000000000 13.4311561584472656 7.7502431869506836
      vertex 4.0000000000000000 12.9997568130493164 7.3188443183898926
    endloop
  endfacet
  facet normal 1.0000000000000000 0.0000000000000000 0.0000000000000000
    outer loop
      vertex 4.0000000000000000 12.5000000000000000 6.9689106941223145
      vertex 4.0000000000000000 11.9470710754394531 6.7110757827758789
      vertex 4.0000000000000000 17.5000000000000000 0.0000000000000000
    endloop
  endfacet
  facet normal 1.0000000000000000 0.0000000000000000 0.0000000000000000
    outer loop
      vertex 4.0000000000000000 17.5000000000000000 0.0000000000000000
      vertex 4.0000000000000000 11.9470710754394531 6.7110757827758789
      vertex 4.0000000000000000 11.3577690124511719 6.5531725883483887
    endloop
  endfacet
  facet normal 1.0000000000000000 0.0000000000000000 0.0000000000000000
    outer loop
      vertex 4.0000000000000000 17.5000000000000000 0.0000000000000000
      vertex 4.0000000000000000 11.3577690124511719 6.5531725883483887
      vertex 4.0000000000000000 4.0000000000000000 0.0000000000000000
    endloop
  endfacet
  facet normal 1.0000000000000000 0.0000000000000000 0.0000000000000000
    outer loop
      vertex 4.0000000000000000 4.0000000000000000 0.0000000000000000
      vertex 4.0000000000000000 11.3577690124511719 6.5531725883483887
      vertex 4.0000000000000000 10.7500000000000000 6.4999995231628418
    endloop
  endfacet
  facet normal 1.0000000000000000 0.0000000000000000 0.0000000000000000
    outer loop
      vertex 4.0000000000000000 4.0000000000000000 0.0000000000000000
      vertex 4.0000000000000000 10.7500000000000000 6.4999995231628418
      vertex 4.0000000000000000 10.1422309875488281 6.5531725883483887
    endloop
  endfacet
  facet normal 0.0000000000000000 0.0000000000000000 1.0000000000000000
    outer loop
      vertex 12.0000000000000000 0.0000000000000000 20.0000000000000000
      vertex 12.0000000000000000 4.0000000000000000 20.0000000000000000
      vertex 2.0000000000000000 0.0000000000000000 20.0000000000000000
    endloop
  endfacet
  facet normal 0.0000000000000000 0.0000000000000000 1.0000000000000000
    outer loop
      vertex 2.0000000000000000 0.0000000000000000 20.0000000000000000
      vertex 12.0000000000000000 4.0000000000000000 20.0000000000000000
      vertex 4.0000000000000000 4.0000000000000000 20.0000000000000000
    endloop
  endfacet
  facet normal 0.0000000000000000 0.0000000000000000 1.0000000000000000
    outer loop
      vertex 0.1206147596240044 20.1840400695800781 20.0000000000000000
      vertex 0.0303844939917326 19.8472957611083984 20.0000000000000000
      vertex 0.0000000000000048 19.5000000000000000 20.0000000000000000
    endloop
  endfacet
  facet normal 0.0000000000000000 0.0000000000000000 1.0000000000000000
    outer loop
      vertex 4.0000000000000000 17.5000000000000000 20.0000000000000000
      vertex 12.0000000000000000 17.5000000000000000 20.0000000000000000
      vertex 12.0000000000000000 21.5000000000000000 20.0000000000000000
    endloop
  endfacet
  facet normal 0.0000000000000000 0.0000000000000000 1.0000000000000000
    outer loop
      vertex 1.6527036428451538 0.0303843989968300 20.0000000000000000
      vertex 2.0000000000000000 0.0000000000000000 20.0000000000000000
      vertex 1.3159596920013428 0.1206155866384506 20.0000000000000000
    endloop
  endfacet
  facet normal 0.0000000000000000 0.0000000000000000 1.0000000000000000
    outer loop
      vertex 1.3159596920013428 0.1206155866384506 20.0000000000000000
      vertex 2.0000000000000000 0.0000000000000000 20.0000000000000000
      vertex 4.0000000000000000 4.0000000000000000 20.0000000000000000
    endloop
  endfacet
  facet normal 0.0000000000000000 0.0000000000000000 1.0000000000000000
    outer loop
      vertex 1.3159596920013428 0.1206155866384506 20.0000000000000000
      vertex 4.0000000000000000 4.0000000000000000 20.0000000000000000
      vertex 1.0000000000000000 0.2679498791694641 20.0000000000000000
    endloop
  endfacet
  facet normal 0.0000000000000000 0.0000000000000000 1.0000000000000000
    outer loop
      vertex 1.0000000000000000 0.2679498791694641 20.0000000000000000
      vertex 4.0000000000000000 4.0000000000000000 20.0000000000000000
      vertex 0.4679110944271088 0.7144249677658081 20.0000000000000000
    endloop
  endfacet
  facet normal 0.0000000000000000 0.0000000000000000 1.0000000000000000
    outer loop
      vertex 1.0000000000000000 0.2679498791694641 20.0000000000000000
      vertex 0.4679110944271088 0.7144249677658081 20.0000000000000000
      vertex 0.7144247889518738 0.4679113626480103 20.0000000000000000
    endloop
  endfacet
  facet normal 0.0000000000000000 0.0000000000000000 1.0000000000000000
    outer loop
      vertex 0.2679491937160492 20.5000000000000000 20.0000000000000000
      vertex 0.1206147596240044 20.1840400695800781 20.0000000000000000
      vertex 4.0000000000000000 17.5000000000000000 20.0000000000000000
    endloop
  endfacet
  facet normal 0.0000000000000000 0.0000000000000000 1.0000000000000000
    outer loop
      vertex 4.0000000000000000 17.5000000000000000 20.0000000000000000
      vertex 0.1206147596240044 20.1840400695800781 20.0000000000000000
      vertex 0.0000000000000048 19.5000000000000000 20.0000000000000000
    endloop
  endfacet
  facet normal 0.0000000000000000 0.0000000000000000 1.0000000000000000
    outer loop
      vertex 4.0000000000000000 17.5000000000000000 20.0000000000000000
      vertex 0.0000000000000048 19.5000000000000000 20.0000000000000000
      vertex 4.0000000000000000 4.0000000000000000 20.0000000000000000
    endloop
  endfacet
  facet normal 0.0000000000000000 0.0000000000000000 1.0000000000000000
    outer loop
      vertex 4.0000000000000000 4.0000000000000000 20.0000000000000000
      vertex 0.0000000000000048 19.5000000000000000 20.0000000000000000
      vertex 0.0000000000000048 2.0000002384185791 20.0000000000000000
    endloop
  endfacet
  facet normal 0.0000000000000000 0.0000000000000000 1.0000000000000000
    outer loop
      vertex 0.2679491937160492 20.5000000000000000 20.0000000000000000
      vertex 4.0000000000000000 17.5000000000000000 20.0000000000000000
      vertex 0.4679110944271088 20.7855758666992188 20.0000000000000000
    endloop
  endfacet
  facet normal 0.0000000000000000 0.0000000000000000 1.0000000000000000
    outer loop
      vertex 0.4679110944271088 20.7855758666992188 20.0000000000000000
      vertex 4.0000000000000000 17.5000000000000000 20.0000000000000000
      vertex 1.0000000000000000 21.2320499420166016 20.0000000000000000
    endloop
  endfacet
  facet normal 0.0000000000000000 0.0000000000000000 1.0000000000000000
    outer loop
      vertex 0.4679110944271088 20.7855758666992188 20.0000000000000000
      vertex 1.0000000000000000 21.2320499420166016 20.0000000000000000
      vertex 0.7144247889518738 21.0320892333984375 20.0000000000000000
    endloop
  endfacet
  facet normal 0.0000000000000000 0.0000000000000000 1.0000000000000000
    outer loop
      vertex 0.2679491937160492 1.0000001192092896 20.0000000000000000
      vertex 0.4679110944271088 0.7144249677658081 20.0000000000000000
      vertex 0.1206147596240044 1.3159596920013428 20.0000000000000000
    endloop
  endfacet
  facet normal 0.0000000000000000 0.0000000000000000 1.0000000000000000
    outer loop
      vertex 0.1206147596240044 1.3159596920013428 20.0000000000000000
      vertex 0.4679110944271088 0.7144249677658081 20.0000000000000000
      vertex 4.0000000000000000 4.0000000000000000 20.0000000000000000
    endloop
  endfacet
  facet normal 0.0000000000000000 0.0000000000000000 1.0000000000000000
    outer loop
      vertex 0.1206147596240044 1.3159596920013428 20.0000000000000000
      vertex 4.0000000000000000 4.0000000000000000 20.0000000000000000
      vertex 0.0303844939917326 1.6527036428451538 20.0000000000000000
    endloop
  endfacet
  facet normal 0.0000000000000000 0.0000000000000000 1.0000000000000000
    outer loop
      vertex 0.0303844939917326 1.6527036428451538 20.0000000000000000
      vertex 4.0000000000000000 4.0000000000000000 20.0000000000000000
      vertex 0.0000000000000048 2.0000002384185791 20.0000000000000000
    endloop
  endfacet
  facet normal 0.0000000000000000 0.0000000000000000 1.0000000000000000
    outer loop
      vertex 1.3159596920013428 21.3793849945068359 20.0000000000000000
      vertex 1.0000000000000000 21.2320499420166016 20.0000000000000000
      vertex 1.6527036428451538 21.4696159362792969 20.0000000000000000
    endloop
  endfacet
  facet normal 0.0000000000000000 0.0000000000000000 1.0000000000000000
    outer loop
      vertex 1.6527036428451538 21.4696159362792969 20.0000000000000000
      vertex 1.0000000000000000 21.2320499420166016 20.0000000000000000
      vertex 4.0000000000000000 17.5000000000000000 20.0000000000000000
    endloop
  endfacet
  facet normal 0.0000000000000000 0.0000000000000000 1.0000000000000000
    outer loop
      vertex 1.6527036428451538 21.4696159362792969 20.0000000000000000
      vertex 4.0000000000000000 17.5000000000000000 20.0000000000000000
      vertex 2.0000000000000000 21.5000000000000000 20.0000000000000000
    endloop
  endfacet
  facet normal 0.0000000000000000 0.0000000000000000 1.0000000000000000
    outer loop
      vertex 2.0000000000000000 21.5000000000000000 20.0000000000000000
      vertex 4.0000000000000000 17.5000000000000000 20.0000000000000000
      vertex 12.0000000000000000 21.5000000000000000 20.0000000000000000
    endloop
  endfacet
  facet normal 0.0000000000000000 0.0000000000000000 -1.0000000000000000
    outer loop
      vertex 0.7144247889518738 21.0320892333984375 0.0000000000000000
      vertex 1.0000000000000000 21.2320499420166016 0.0000000000000000
      vertex 4.0000000000000000 17.5000000000000000 0.0000000000000000
    endloop
  endfacet
  facet normal 0.0000000000000000 0.0000000000000000 -1.0000000000000000
    outer loop
      vertex 12.0000000000000000 21.5000000000000000 0.0000000000000000
      vertex 12.0000000000000000 17.5000000000000000 0.0000000000000000
      vertex 2.0000000000000000 21.5000000000000000 0.0000000000000000
    endloop
  endfacet
  facet normal 0.0000000000000000 0.0000000000000000 -1.0000000000000000
    outer loop
      vertex 2.0000000000000000 21.5000000000000000 0.0000000000000000
      vertex 12.0000000000000000 17.5000000000000000 0.0000000000000000
      vertex 4.0000000000000000 17.5000000000000000 0.0000000000000000
    endloop
  endfacet
  facet normal 0.0000000000000000 0.0000000000000000 -1.0000000000000000
    outer loop
      vertex 2.0000000000000000 21.5000000000000000 0.0000000000000000
      vertex 4.0000000000000000 17.5000000000000000 0.0000000000000000
      vertex 1.6527036428451538 21.4696159362792969 0.0000000000000000
    endloop
  endfacet
  facet normal 0.0000000000000000 0.0000000000000000 -1.0000000000000000
    outer loop
      vertex 1.6527036428451538 21.4696159362792969 0.0000000000000000
      vertex 4.0000000000000000 17.5000000000000000 0.0000000000000000
      vertex 1.0000000000000000 21.2320499420166016 0.0000000000000000
    endloop
  endfacet
  facet normal 0.0000000000000000 0.0000000000000000 -1.0000000000000000
    outer loop
      vertex 1.6527036428451538 21.4696159362792969 0.0000000000000000
      vertex 1.0000000000000000 21.2320499420166016 0.0000000000000000
      vertex 1.3159596920013428 21.3793849945068359 0.0000000000000000
    endloop
  endfacet
  facet normal 0.0000000000000000 0.0000000000000000 -1.0000000000000000
    outer loop
      vertex 0.1206147596240044 1.3159596920013428 0.0000000000000000
      vertex 0.0303844939917326 1.6527036428451538 0.0000000000000000
      vertex 0.0000000000000048 2.0000002384185791 0.0000000000000000
    endloop
  endfacet
  facet normal 0.0000000000000000 0.0000000000000000 -1.0000000000000000
    outer loop
      vertex 12.0000000000000000 4.0000000000000000 0.0000000000000000
      vertex 12.0000000000000000 0.0000000000000000 0.0000000000000000
      vertex 4.0000000000000000 4.0000000000000000 0.0000000000000000
    endloop
  endfacet
  facet normal 0.0000000000000000 0.0000000000000000 -1.0000000000000000
    outer loop
      vertex 4.0000000000000000 4.0000000000000000 0.0000000000000000
      vertex 12.0000000000000000 0.0000000000000000 0.0000000000000000
      vertex 2.0000000000000000 0.0000000000000000 0.0000000000000000
    endloop
  endfacet
  facet normal 0.0000000000000000 0.0000000000000000 -1.0000000000000000
    outer loop
      vertex 4.0000000000000000 4.0000000000000000 0.0000000000000000
      vertex 2.0000000000000000 0.0000000000000000 0.0000000000000000
      vertex 1.6527036428451538 0.0303843989968300 0.0000000000000000
    endloop
  endfacet
  facet normal 0.0000000000000000 0.0000000000000000 -1.0000000000000000
    outer loop
      vertex 4.0000000000000000 4.0000000000000000 0.0000000000000000
      vertex 0.4679110944271088 0.7144249677658081 0.0000000000000000
      vertex 0.2679491937160492 1.0000001192092896 0.0000000000000000
    endloop
  endfacet
  facet normal 0.0000000000000000 0.0000000000000000 -1.0000000000000000
    outer loop
      vertex 0.0303844939917326 19.8472957611083984 0.0000000000000000
      vertex 0.1206147596240044 20.1840400695800781 0.0000000000000000
      vertex 4.0000000000000000 17.5000000000000000 0.0000000000000000
    endloop
  endfacet
  facet normal 0.0000000000000000 0.0000000000000000 -1.0000000000000000
    outer loop
      vertex 0.7144247889518738 21.0320892333984375 0.0000000000000000
      vertex 4.0000000000000000 17.5000000000000000 0.0000000000000000
      vertex 0.4679110944271088 20.7855758666992188 0.0000000000000000
    endloop
  endfacet
  facet normal 0.0000000000000000 0.0000000000000000 -1.0000000000000000
    outer loop
      vertex 0.4679110944271088 20.7855758666992188 0.0000000000000000
      vertex 4.0000000000000000 17.5000000000000000 0.0000000000000000
      vertex 0.1206147596240044 20.1840400695800781 0.0000000000000000
    endloop
  endfacet
  facet normal 0.0000000000000000 0.0000000000000000 -1.0000000000000000
    outer loop
      vertex 0.4679110944271088 20.7855758666992188 0.0000000000000000
      vertex 0.1206147596240044 20.1840400695800781 0.0000000000000000
      vertex 0.2679491937160492 20.5000000000000000 0.0000000000000000
    endloop
  endfacet
  facet normal 0.0000000000000000 0.0000000000000000 -1.0000000000000000
    outer loop
      vertex 0.2679491937160492 1.0000001192092896 0.0000000000000000
      vertex 0.1206147596240044 1.3159596920013428 0.0000000000000000
      vertex 4.0000000000000000 4.0000000000000000 0.0000000000000000
    endloop
  endfacet
  facet normal 0.0000000000000000 0.0000000000000000 -1.0000000000000000
    outer loop
      vertex 4.0000000000000000 4.0000000000000000 0.0000000000000000
      vertex 0.1206147596240044 1.3159596920013428 0.0000000000000000
      vertex 0.0000000000000048 2.0000002384185791 0.0000000000000000
    endloop
  endfacet
  facet normal 0.0000000000000000 0.0000000000000000 -1.0000000000000000
    outer loop
      vertex 4.0000000000000000 4.0000000000000000 0.0000000000000000
      vertex 0.0000000000000048 2.0000002384185791 0.0000000000000000
      vertex 4.0000000000000000 17.5000000000000000 0.0000000000000000
    endloop
  endfacet
  facet normal 0.0000000000000000 0.0000000000000000 -1.0000000000000000
    outer loop
      vertex 4.0000000000000000 17.5000000000000000 0.0000000000000000
      vertex 0.0000000000000048 2.0000002384185791 0.0000000000000000
      vertex 0.0000000000000048 19.5000000000000000 0.0000000000000000
    endloop
  endfacet
  facet normal 0.0000000000000000 0.0000000000000000 -1.0000000000000000
    outer loop
      vertex 4.0000000000000000 17.5000000000000000 0.0000000000000000
      vertex 0.0000000000000048 19.5000000000000000 0.0000000000000000
      vertex 0.0303844939917326 19.8472957611083984 0.0000000000000000
    endloop
  endfacet
  facet normal 0.0000000000000000 0.0000000000000000 -1.0000000000000000
    outer loop
      vertex 0.7144247889518738 0.4679113626480103 0.0000000000000000
      vertex 0.4679110944271088 0.7144249677658081 0.0000000000000000
      vertex 1.0000000000000000 0.2679498791694641 0.0000000000000000
    endloop
  endfacet
  facet normal 0.0000000000000000 0.0000000000000000 -1.0000000000000000
    outer loop
      vertex 1.0000000000000000 0.2679498791694641 0.0000000000000000
      vertex 0.4679110944271088 0.7144249677658081 0.0000000000000000
      vertex 4.0000000000000000 4.0000000000000000 0.0000000000000000
    endloop
  endfacet
  facet normal 0.0000000000000000 0.0000000000000000 -1.0000000000000000
    outer loop
      vertex 1.0000000000000000 0.2679498791694641 0.0000000000000000
      vertex 4.0000000000000000 4.0000000000000000 0.0000000000000000
      vertex 1.3159596920013428 0.1206155866384506 0.0000000000000000
    endloop
  endfacet
  facet normal 0.0000000000000000 0.0000000000000000 -1.0000000000000000
    outer loop
      vertex 1.3159596920013428 0.1206155866384506 0.0000000000000000
      vertex 4.0000000000000000 4.0000000000000000 0.0000000000000000
      vertex 1.6527036428451538 0.0303843989968300 0.0000000000000000
    endloop
  endfacet
  facet normal 0.0000000000000000 0.0580791383981705 -0.9983119964599609
    outer loop
      vertex 4.0000000000000000 10.1422309875488281 13.4468269348144531
      vertex 0.0000000000000000 10.7500000000000000 13.4999990463256836
      vertex 4.0000000000000000 10.7500000000000000 13.4999990463256836
    endloop
  endfacet
  facet normal 0.0000000000000000 -0.0580791383981705 -0.9983119964599609
    outer loop
      vertex 4.0000000000000000 10.7500000000000000 13.4999990463256836
      vertex 0.0000000000000000 10.7500000000000000 13.4999990463256836
      vertex 0.0000000000000000 11.3577690124511719 13.4468269348144531
    endloop
  endfacet
  facet normal 0.0000000000000000 -0.1161582767963409 -0.9932307004928589
    outer loop
      vertex 4.0000000000000000 10.7500000000000000 13.4999990463256836
      vertex 0.0000000000000000 11.3577690124511719 13.4468269348144531
      vertex 4.0000000000000000 11.3577690124511719 13.4468269348144531
    endloop
  endfacet
  facet normal 0.0000000000000000 -0.2305518537759781 -0.9730600118637085
    outer loop
      vertex 4.0000000000000000 11.3577690124511719 13.4468269348144531
      vertex 0.0000000000000000 11.3577690124511719 13.4468269348144531
      vertex 0.0000000000000000 11.9470710754394531 13.2889242172241211
    endloop
  endfacet
  facet normal 0.0000000000000000 -0.2868662774562836 -0.9579706192016602
    outer loop
      vertex 4.0000000000000000 11.3577690124511719 13.4468269348144531
      vertex 0.0000000000000000 11.9470710754394531 13.2889242172241211
      vertex 4.0000000000000000 11.9470710754394531 13.2889242172241211
    endloop
  endfacet
  facet normal 0.0000000000000000 -0.3960193693637848 -0.9182421565055847
    outer loop
      vertex 4.0000000000000000 11.9470710754394531 13.2889242172241211
      vertex 0.0000000000000000 11.9470710754394531 13.2889242172241211
      vertex 0.0000000000000000 12.5000000000000000 13.0310888290405273
    endloop
  endfacet
  facet normal 0.0000000000000000 -0.4488579928874969 -0.8936030864715576
    outer loop
      vertex 4.0000000000000000 11.9470710754394531 13.2889242172241211
      vertex 0.0000000000000000 12.5000000000000000 13.0310888290405273
      vertex 4.0000000000000000 12.5000000000000000 13.0310888290405273
    endloop
  endfacet
  facet normal 0.0000000000000000 -0.5494540333747864 -0.8355239629745483
    outer loop
      vertex 4.0000000000000000 12.5000000000000000 13.0310888290405273
      vertex 0.0000000000000000 12.5000000000000000 13.0310888290405273
      vertex 0.0000000000000000 12.9997568130493164 12.6811552047729492
    endloop
  endfacet
  facet normal 0.0000000000000000 -0.5972114205360413 -0.8020838499069214
    outer loop
      vertex 4.0000000000000000 12.5000000000000000 13.0310888290405273
      vertex 0.0000000000000000 12.9997568130493164 12.6811552047729492
      vertex 4.0000000000000000 12.9997568130493164 12.6811552047729492
    endloop
  endfacet
  facet normal 0.0000000000000000 -0.6861937642097473 -0.7274187803268433
    outer loop
      vertex 4.0000000000000000 12.9997568130493164 12.6811552047729492
      vertex 0.0000000000000000 12.9997568130493164 12.6811552047729492
      vertex 0.0000000000000000 13.4311561584472656 12.2497568130493164
    endloop
  endfacet
  facet normal 0.0000000000000000 -0.7274187803268433 -0.6861937642097473
    outer loop
      vertex 4.0000000000000000 12.9997568130493164 12.6811552047729492
      vertex 0.0000000000000000 13.4311561584472656 12.2497568130493164
      vertex 4.0000000000000000 13.4311561584472656 12.2497568130493164
    endloop
  endfacet
  facet normal 0.0000000000000000 -0.8020838499069214 -0.5972113609313965
    outer loop
      vertex 4.0000000000000000 13.4311561584472656 12.2497568130493164
      vertex 0.0000000000000000 13.4311561584472656 12.2497568130493164
      vertex 0.0000000000000000 13.7810897827148438 11.7500000000000000
    endloop
  endfacet
  facet normal 0.0000000000000000 -0.8355239629745483 -0.5494540333747864
    outer loop
      vertex 4.0000000000000000 13.4311561584472656 12.2497568130493164
      vertex 0.0000000000000000 13.7810897827148438 11.7500000000000000
      vertex 4.0000000000000000 13.7810897827148438 11.7500000000000000
    endloop
  endfacet
  facet normal 0.0000000000000000 -0.8936030864715576 -0.4488579928874969
    outer loop
      vertex 4.0000000000000000 13.7810897827148438 11.7500000000000000
      vertex 0.0000000000000000 13.7810897827148438 11.7500000000000000
      vertex 0.0000000000000000 14.0389242172241211 11.1970701217651367
    endloop
  endfacet
  facet normal 0.0000000000000000 -0.9182421565055847 -0.3960193395614624
    outer loop
      vertex 4.0000000000000000 13.7810897827148438 11.7500000000000000
      vertex 0.0000000000000000 14.0389242172241211 11.1970701217651367
      vertex 4.0000000000000000 14.0389242172241211 11.1970701217651367
    endloop
  endfacet
  facet normal 0.0000000000000000 -0.9579706192016602 -0.2868663072586060
    outer loop
      vertex 4.0000000000000000 14.0389242172241211 11.1970701217651367
      vertex 0.0000000000000000 14.0389242172241211 11.1970701217651367
      vertex 0.0000000000000000 14.1968278884887695 10.6077690124511719
    endloop
  endfacet
  facet normal 0.0000000000000000 -0.9730600118637085 -0.2305518537759781
    outer loop
      vertex 4.0000000000000000 14.0389242172241211 11.1970701217651367
      vertex 0.0000000000000000 14.1968278884887695 10.6077690124511719
      vertex 4.0000000000000000 14.1968278884887695 10.6077690124511719
    endloop
  endfacet
  facet normal 0.0000000000000000 -0.9932307004928589 -0.1161582693457603
    outer loop
      vertex 4.0000000000000000 14.1968278884887695 10.6077690124511719
      vertex 0.0000000000000000 14.1968278884887695 10.6077690124511719
      vertex 0.0000000000000000 14.2500009536743164 10.0000000000000000
    endloop
  endfacet
  facet normal 0.0000000000000000 -0.9983119964599609 -0.0580791346728802
    outer loop
      vertex 4.0000000000000000 14.1968278884887695 10.6077690124511719
      vertex 0.0000000000000000 14.2500009536743164 10.0000000000000000
      vertex 4.0000000000000000 14.2500009536743164 10.0000000000000000
    endloop
  endfacet
  facet normal 0.0000000000000000 -0.9983119964599609 0.0580791346728802
    outer loop
      vertex 4.0000000000000000 14.2500009536743164 10.0000000000000000
      vertex 0.0000000000000000 14.2500009536743164 10.0000000000000000
      vertex 0.0000000000000000 14.1968278884887695 9.3922309875488281
    endloop
  endfacet
  facet normal 0.0000000000000000 -0.9932307004928589 0.1161582693457603
    outer loop
      vertex 4.0000000000000000 14.2500009536743164 10.0000000000000000
      vertex 0.0000000000000000 14.1968278884887695 9.3922309875488281
      vertex 4.0000000000000000 14.1968278884887695 9.3922309875488281
    endloop
  endfacet
  facet normal 0.0000000000000000 -0.9730600118637085 0.2305518537759781
    outer loop
      vertex 4.0000000000000000 14.1968278884887695 9.3922309875488281
      vertex 0.0000000000000000 14.1968278884887695 9.3922309875488281
      vertex 0.0000000000000000 14.0389242172241211 8.8029289245605469
    endloop
  endfacet
  facet normal 0.0000000000000000 -0.9579706192016602 0.2868663072586060
    outer loop
      vertex 4.0000000000000000 14.1968278884887695 9.3922309875488281
      vertex 0.0000000000000000 14.0389242172241211 8.8029289245605469
      vertex 4.0000000000000000 14.0389242172241211 8.8029289245605469
    endloop
  endfacet
  facet normal 0.0000000000000000 -0.9182421565055847 0.3960193395614624
    outer loop
      vertex 4.0000000000000000 14.0389242172241211 8.8029289245605469
      vertex 0.0000000000000000 14.0389242172241211 8.8029289245605469
      vertex 0.0000000000000000 13.7810897827148438 8.2500000000000000
    endloop
  endfacet
  facet normal 0.0000000000000000 -0.8936030864715576 0.4488579928874969
    outer loop
      vertex 4.0000000000000000 14.0389242172241211 8.8029289245605469
      vertex 0.0000000000000000 13.7810897827148438 8.2500000000000000
      vertex 4.0000000000000000 13.7810897827148438 8.2500000000000000
    endloop
  endfacet
  facet normal 0.0000000000000000 -0.8355239629745483 0.5494540333747864
    outer loop
      vertex 4.0000000000000000 13.7810897827148438 8.2500000000000000
      vertex 0.0000000000000000 13.7810897827148438 8.2500000000000000
      vertex 0.0000000000000000 13.4311561584472656 7.7502431869506836
    endloop
  endfacet
  facet normal 0.0000000000000000 -0.8020838499069214 0.5972113609313965
    outer loop
      vertex 4.0000000000000000 13.7810897827148438 8.2500000000000000
      vertex 0.0000000000000000 13.4311561584472656 7.7502431869506836
      vertex 4.0000000000000000 13.4311561584472656 7.7502431869506836
    endloop
  endfacet
  facet normal 0.0000000000000000 -0.7274187803268433 0.6861937642097473
    outer loop
      vertex 4.0000000000000000 13.4311561584472656 7.7502431869506836
      vertex 0.0000000000000000 13.4311561584472656 7.7502431869506836
      vertex 0.0000000000000000 12.9997568130493164 7.3188443183898926
    endloop
  endfacet
  facet normal 0.0000000000000000 -0.6861937642097473 0.7274187803268433
    outer loop
      vertex 4.0000000000000000 13.4311561584472656 7.7502431869506836
      vertex 0.0000000000000000 12.9997568130493164 7.3188443183898926
      vertex 4.0000000000000000 12.9997568130493164 7.3188443183898926
    endloop
  endfacet
  facet normal 0.0000000000000000 -0.5972114205360413 0.8020838499069214
    outer loop
      vertex 4.0000000000000000 12.9997568130493164 7.3188443183898926
      vertex 0.0000000000000000 12.9997568130493164 7.3188443183898926
      vertex 0.0000000000000000 12.5000000000000000 6.9689106941223145
    endloop
  endfacet
  facet normal 0.0000000000000000 -0.5494540333747864 0.8355239629745483
    outer loop
      vertex 4.0000000000000000 12.9997568130493164 7.3188443183898926
      vertex 0.0000000000000000 12.5000000000000000 6.9689106941223145
      vertex 4.0000000000000000 12.5000000000000000 6.9689106941223145
    endloop
  endfacet
  facet normal 0.0000000000000000 -0.4488579928874969 0.8936030864715576
    outer loop
      vertex 4.0000000000000000 12.5000000000000000 6.9689106941223145
      vertex 0.0000000000000000 12.5000000000000000 6.9689106941223145
      vertex 0.0000000000000000 11.9470710754394531 6.7110757827758789
    endloop
  endfacet
  facet normal 0.0000000000000000 -0.3960193693637848 0.9182421565055847
    outer loop
      vertex 4.0000000000000000 12.5000000000000000 6.9689106941223145
      vertex 0.0000000000000000 11.9470710754394531 6.7110757827758789
      vertex 4.0000000000000000 11.9470710754394531 6.7110757827758789
    endloop
  endfacet
  facet normal 0.0000000000000000 -0.2868662774562836 0.9579706192016602
    outer loop
      vertex 4.0000000000000000 11.9470710754394531 6.7110757827758789
      vertex 0.0000000000000000 11.9470710754394531 6.7110757827758789
      vertex 0.0000000000000000 11.3577690124511719 6.5531725883483887
    endloop
  endfacet
  facet normal 0.0000000000000000 -0.2305518537759781 0.9730600118637085
    outer loop
      vertex 4.0000000000000000 11.9470710754394531 6.7110757827758789
      vertex 0.0000000000000000 11.3577690124511719 6.5531725883483887
      vertex 4.0000000000000000 11.3577690124511719 6.5531725883483887
    endloop
  endfacet
  facet normal 0.0000000000000000 -0.1161582767963409 0.9932307004928589
    outer loop
      vertex 4.0000000000000000 11.3577690124511719 6.5531725883483887
      vertex 0.0000000000000000 11.3577690124511719 6.5531725883483887
      vertex 0.0000000000000000 10.7500000000000000 6.4999995231628418
    endloop
  endfacet
  facet normal 0.0000000000000000 -0.0580791383981705 0.9983119964599609
    outer loop
      vertex 4.0000000000000000 11.3577690124511719 6.5531725883483887
      vertex 0.0000000000000000 10.7500000000000000 6.4999995231628418
      vertex 4.0000000000000000 10.7500000000000000 6.4999995231628418
    endloop
  endfacet
  facet normal 0.0000000000000000 0.0580791383981705 0.9983119964599609
    outer loop
      vertex 4.0000000000000000 10.7500000000000000 6.4999995231628418
      vertex 0.0000000000000000 10.7500000000000000 6.4999995231628418
      vertex 0.0000000000000000 10.1422309875488281 6.5531725883483887
    endloop
  endfacet
  facet normal 0.0000000000000000 0.1161582767963409 0.9932307004928589
    outer loop
      vertex 4.0000000000000000 10.7500000000000000 6.4999995231628418
      vertex 0.0000000000000000 10.1422309875488281 6.5531725883483887
      vertex 4.0000000000000000 10.1422309875488281 6.5531725883483887
    endloop
  endfacet
  facet normal 0.0000000000000000 0.2305518537759781 0.9730600118637085
    outer loop
      vertex 4.0000000000000000 10.1422309875488281 6.5531725883483887
      vertex 0.0000000000000000 10.1422309875488281 6.5531725883483887
      vertex 0.0000000000000000 9.5529298782348633 6.7110757827758789
    endloop
  endfacet
  facet normal 0.0000000000000000 0.2868662774562836 0.9579706192016602
    outer loop
      vertex 4.0000000000000000 10.1422309875488281 6.5531725883483887
      vertex 0.0000000000000000 9.5529298782348633 6.7110757827758789
      vertex 4.0000000000000000 9.5529298782348633 6.7110757827758789
    endloop
  endfacet
  facet normal 0.0000000000000000 0.3960193693637848 0.9182421565055847
    outer loop
      vertex 4.0000000000000000 9.5529298782348633 6.7110757827758789
      vertex 0.0000000000000000 9.5529298782348633 6.7110757827758789
      vertex 0.0000000000000000 9.0000009536743164 6.9689106941223145
    endloop
  endfacet
  facet normal 0.0000000000000000 0.4488579928874969 0.8936030864715576
    outer loop
      vertex 4.0000000000000000 9.5529298782348633 6.7110757827758789
      vertex 0.0000000000000000 9.0000009536743164 6.9689106941223145
      vertex 4.0000000000000000 9.0000009536743164 6.9689106941223145
    endloop
  endfacet
  facet normal 0.0000000000000000 0.5494540333747864 0.8355239629745483
    outer loop
      vertex 4.0000000000000000 9.0000009536743164 6.9689106941223145
      vertex 0.0000000000000000 9.0000009536743164 6.9689106941223145
      vertex 0.0000000000000000 8.5002431869506836 7.3188443183898926
    endloop
  endfacet
  facet normal 0.0000000000000000 0.5972114205360413 0.8020838499069214
    outer loop
      vertex 4.0000000000000000 9.0000009536743164 6.9689106941223145
      vertex 0.0000000000000000 8.5002431869506836 7.3188443183898926
      vertex 4.0000000000000000 8.5002431869506836 7.3188443183898926
    endloop
  endfacet
  facet normal 0.0000000000000000 0.6861937642097473 0.7274187803268433
    outer loop
      vertex 4.0000000000000000 8.5002431869506836 7.3188443183898926
      vertex 0.0000000000000000 8.5002431869506836 7.3188443183898926
      vertex 0.0000000000000000 8.0688447952270508 7.7502431869506836
    endloop
  endfacet
  facet normal 0.0000000000000000 0.7274187803268433 0.6861937642097473
    outer loop
      vertex 4.0000000000000000 8.5002431869506836 7.3188443183898926
      vertex 0.0000000000000000 8.0688447952270508 7.7502431869506836
      vertex 4.0000000000000000 8.0688447952270508 7.7502431869506836
    endloop
  endfacet
  facet normal 0.0000000000000000 0.8020838499069214 0.5972113609313965
    outer loop
      vertex 4.0000000000000000 8.0688447952270508 7.7502431869506836
      vertex 0.0000000000000000 8.0688447952270508 7.7502431869506836
      vertex 0.0000000000000000 7.7189111709594727 8.2500000000000000
    endloop
  endfacet
  facet normal 0.0000000000000000 0.8355239629745483 0.5494540333747864
    outer loop
      vertex 4.0000000000000000 8.0688447952270508 7.7502431869506836
      vertex 0.0000000000000000 7.7189111709594727 8.2500000000000000
      vertex 4.0000000000000000 7.7189111709594727 8.2500000000000000
    endloop
  endfacet
  facet normal 0.0000000000000000 0.8936030864715576 0.4488579928874969
    outer loop
      vertex 4.0000000000000000 7.7189111709594727 8.2500000000000000
      vertex 0.0000000000000000 7.7189111709594727 8.2500000000000000
      vertex 0.0000000000000000 7.4610762596130371 8.8029289245605469
    endloop
  endfacet
  facet normal 0.0000000000000000 0.9182421565055847 0.3960193395614624
    outer loop
      vertex 4.0000000000000000 7.7189111709594727 8.2500000000000000
      vertex 0.0000000000000000 7.4610762596130371 8.8029289245605469
      vertex 4.0000000000000000 7.4610762596130371 8.8029289245605469
    endloop
  endfacet
  facet normal 0.0000000000000000 0.9579706192016602 0.2868663072586060
    outer loop
      vertex 4.0000000000000000 7.4610762596130371 8.8029289245605469
      vertex 0.0000000000000000 7.4610762596130371 8.8029289245605469
      vertex 0.0000000000000000 7.3031730651855469 9.3922309875488281
    endloop
  endfacet
  facet normal 0.0000000000000000 0.9730600118637085 0.2305518537759781
    outer loop
      vertex 4.0000000000000000 7.4610762596130371 8.8029289245605469
      vertex 0.0000000000000000 7.3031730651855469 9.3922309875488281
      vertex 4.0000000000000000 7.3031730651855469 9.3922309875488281
    endloop
  endfacet
  facet normal 0.0000000000000000 0.9932307004928589 0.1161582693457603
    outer loop
      vertex 4.0000000000000000 7.3031730651855469 9.3922309875488281
      vertex 0.0000000000000000 7.3031730651855469 9.3922309875488281
      vertex 0.0000000000000000 7.2500004768371582 10.0000000000000000
    endloop
  endfacet
  facet normal 0.0000000000000000 0.9983119964599609 0.0580791346728802
    outer loop
      vertex 4.0000000000000000 7.3031730651855469 9.3922309875488281
      vertex 0.0000000000000000 7.2500004768371582 10.0000000000000000
      vertex 4.0000000000000000 7.2500004768371582 10.0000000000000000
    endloop
  endfacet
  facet normal 0.0000000000000000 0.9983119964599609 -0.0580791346728802
    outer loop
      vertex 4.0000000000000000 7.2500004768371582 10.0000000000000000
      vertex 0.0000000000000000 7.2500004768371582 10.0000000000000000
      vertex 0.0000000000000000 7.3031730651855469 10.6077690124511719
    endloop
  endfacet
  facet normal 0.0000000000000000 0.9932307004928589 -0.1161582693457603
    outer loop
      vertex 4.0000000000000000 7.2500004768371582 10.0000000000000000
      vertex 0.0000000000000000 7.3031730651855469 10.6077690124511719
      vertex 4.0000000000000000 7.3031730651855469 10.6077690124511719
    endloop
  endfacet
  facet normal 0.0000000000000000 0.9730600118637085 -0.2305518537759781
    outer loop
      vertex 4.0000000000000000 7.3031730651855469 10.6077690124511719
      vertex 0.0000000000000000 7.3031730651855469 10.6077690124511719
      vertex 0.0000000000000000 7.4610762596130371 11.1970701217651367
    endloop
  endfacet
  facet normal 0.0000000000000000 0.9579706192016602 -0.2868663072586060
    outer loop
      vertex 4.0000000000000000 7.3031730651855469 10.6077690124511719
      vertex 0.0000000000000000 7.4610762596130371 11.1970701217651367
      vertex 4.0000000000000000 7.4610762596130371 11.1970701217651367
    endloop
  endfacet
  facet normal 0.0000000000000000 0.9182421565055847 -0.3960193395614624
    outer loop
      vertex 4.0000000000000000 7.4610762596130371 11.1970701217651367
      vertex 0.0000000000000000 7.4610762596130371 11.1970701217651367
      vertex 0.0000000000000000 7.7189111709594727 11.7500000000000000
    endloop
  endfacet
  facet normal 0.0000000000000000 0.8936030864715576 -0.4488579928874969
    outer loop
      vertex 4.0000000000000000 7.4610762596130371 11.1970701217651367
      vertex 0.0000000000000000 7.7189111709594727 11.7500000000000000
      vertex 4.0000000000000000 7.7189111709594727 11.7500000000000000
    endloop
  endfacet
  facet normal 0.0000000000000000 0.8355239629745483 -0.5494540333747864
    outer loop
      vertex 4.0000000000000000 7.7189111709594727 11.7500000000000000
      vertex 0.0000000000000000 7.7189111709594727 11.7500000000000000
      vertex 0.0000000000000000 8.0688447952270508 12.2497568130493164
    endloop
  endfacet
  facet normal 0.0000000000000000 0.8020838499069214 -0.5972113609313965
    outer loop
      vertex 4.0000000000000000 7.7189111709594727 11.7500000000000000
      vertex 0.0000000000000000 8.0688447952270508 12.2497568130493164
      vertex 4.0000000000000000 8.0688447952270508 12.2497568130493164
    endloop
  endfacet
  facet normal 0.0000000000000000 0.7274187803268433 -0.6861937642097473
    outer loop
      vertex 4.0000000000000000 8.0688447952270508 12.2497568130493164
      vertex 0.0000000000000000 8.0688447952270508 12.2497568130493164
      vertex 0.0000000000000000 8.5002431869506836 12.6811552047729492
    endloop
  endfacet
  facet normal 0.0000000000000000 0.6861937642097473 -0.7274187803268433
    outer loop
      vertex 4.0000000000000000 8.0688447952270508 12.2497568130493164
      vertex 0.0000000000000000 8.5002431869506836 12.6811552047729492
      vertex 4.0000000000000000 8.5002431869506836 12.6811552047729492
    endloop
  endfacet
  facet normal 0.0000000000000000 0.5972114205360413 -0.8020838499069214
    outer loop
      vertex 4.0000000000000000 8.5002431869506836 12.6811552047729492
      vertex 0.0000000000000000 8.5002431869506836 12.6811552047729492
      vertex 0.0000000000000000 9.0000009536743164 13.0310888290405273
    endloop
  endfacet
  facet normal 0.0000000000000000 0.5494540333747864 -0.8355239629745483
    outer loop
      vertex 4.0000000000000000 8.5002431869506836 12.6811552047729492
      vertex 0.0000000000000000 9.0000009536743164 13.0310888290405273
      vertex 4.0000000000000000 9.0000009536743164 13.0310888290405273
    endloop
  endfacet
  facet normal 0.0000000000000000 0.4488579928874969 -0.8936030864715576
    outer loop
      vertex 4.0000000000000000 9.0000009536743164 13.0310888290405273
      vertex 0.0000000000000000 9.0000009536743164 13.0310888290405273
      vertex 0.0000000000000000 9.5529298782348633 13.2889242172241211
    endloop
  endfacet
  facet normal 0.0000000000000000 0.3960193693637848 -0.9182421565055847
    outer loop
      vertex 4.0000000000000000 9.0000009536743164 13.0310888290405273
      vertex 0.0000000000000000 9.5529298782348633 13.2889242172241211
      vertex 4.0000000000000000 9.5529298782348633 13.2889242172241211
    endloop
  endfacet
  facet normal 0.0000000000000000 0.2868662774562836 -0.9579706192016602
    outer loop
      vertex 4.0000000000000000 9.5529298782348633 13.2889242172241211
      vertex 0.0000000000000000 9.5529298782348633 13.2889242172241211
      vertex 0.0000000000000000 10.1422309875488281 13.4468269348144531
    endloop
  endfacet
  facet normal 0.0000000000000000 0.2305518537759781 -0.9730600118637085
    outer loop
      vertex 4.0000000000000000 9.5529298782348633 13.2889242172241211
      vertex 0.0000000000000000 10.1422309875488281 13.4468269348144531
      vertex 4.0000000000000000 10.1422309875488281 13.4468269348144531
    endloop
  endfacet
  facet normal 0.0000000000000000 0.1161582767963409 -0.9932307004928589
    outer loop
      vertex 4.0000000000000000 10.1422309875488281 13.4468269348144531
      vertex 0.0000000000000000 10.1422309875488281 13.4468269348144531
      vertex 0.0000000000000000 10.7500000000000000 13.4999990463256836
    endloop
  endfacet
endsolid ascii_stl
